<?xml version="1.0" encoding="UTF-8" standalone="no"?>
<!-- Created with Inkscape (http://www.inkscape.org/) -->

<svg
   xmlns:dc="http://purl.org/dc/elements/1.1/"
   xmlns:cc="http://creativecommons.org/ns#"
   xmlns:rdf="http://www.w3.org/1999/02/22-rdf-syntax-ns#"
   xmlns:svg="http://www.w3.org/2000/svg"
   xmlns="http://www.w3.org/2000/svg"
   xmlns:sodipodi="http://sodipodi.sourceforge.net/DTD/sodipodi-0.dtd"
   xmlns:inkscape="http://www.inkscape.org/namespaces/inkscape"
   width="210mm"
   height="297mm"
   viewBox="0 0 210 297"
   version="1.1"
   id="svg1654"
   inkscape:version="0.92.4 (5da689c313, 2019-01-14)"
   sodipodi:docname="Avatar-2.svg"
   inkscape:export-filename="O:\Ciencias_da_Computacao\GitHub\Nova pasta\avatar-2.png"
   inkscape:export-xdpi="96"
   inkscape:export-ydpi="96">
  <defs
     id="defs1648" />
  <sodipodi:namedview
     id="base"
     pagecolor="#ffffff"
     bordercolor="#666666"
     borderopacity="1.0"
     inkscape:pageopacity="0.0"
     inkscape:pageshadow="2"
     inkscape:zoom="0.7"
     inkscape:cx="-88.240203"
     inkscape:cy="523.52539"
     inkscape:document-units="mm"
     inkscape:current-layer="layer1"
     showgrid="false"
     inkscape:window-width="1920"
     inkscape:window-height="1001"
     inkscape:window-x="-9"
     inkscape:window-y="-9"
     inkscape:window-maximized="1" />
  <metadata
     id="metadata1651">
    <rdf:RDF>
      <cc:Work
         rdf:about="">
        <dc:format>image/svg+xml</dc:format>
        <dc:type
           rdf:resource="http://purl.org/dc/dcmitype/StillImage" />
        <dc:title />
      </cc:Work>
    </rdf:RDF>
  </metadata>
  <g
     inkscape:label="Camada 1"
     inkscape:groupmode="layer"
     id="layer1">
    <ellipse
       style="opacity:1;vector-effect:none;fill:#e26668;fill-opacity:1;fill-rule:evenodd;stroke:none;stroke-width:0.33395386;stroke-linecap:butt;stroke-linejoin:miter;stroke-miterlimit:4;stroke-dasharray:none;stroke-dashoffset:0;stroke-opacity:1"
       id="path1599"
       cx="106.26414"
       cy="121.80272"
       rx="55.185772"
       ry="54.327831"
       inkscape:export-filename="O:\Ciencias_da_Computacao\GitHub\Nova pasta\avatar-2.png"
       inkscape:export-xdpi="96"
       inkscape:export-ydpi="96" />
    <path
       style="opacity:1;vector-effect:none;fill:#000000;fill-opacity:1;stroke:none;stroke-width:0.3406238;stroke-linecap:butt;stroke-linejoin:miter;stroke-miterlimit:4;stroke-dasharray:none;stroke-dashoffset:0;stroke-opacity:1"
       d="m 75.50752,156.39228 c 18.13157,-6.56931 32.77128,-10.06169 60.9942,0 l 9.33419,23.33548 c -33.43176,12.08807 -56.78907,6.33002 -79.823554,0 z"
       id="path1597"
       inkscape:connector-curvature="0"
       sodipodi:nodetypes="ccccc"
       inkscape:export-filename="O:\Ciencias_da_Computacao\GitHub\Nova pasta\avatar-2.png"
       inkscape:export-xdpi="96"
       inkscape:export-ydpi="96" />
    <path
       style="opacity:1;vector-effect:none;fill:#fdd6bc;fill-opacity:1;stroke:none;stroke-width:0.3406238;stroke-linecap:butt;stroke-linejoin:miter;stroke-miterlimit:4;stroke-dasharray:none;stroke-dashoffset:0;stroke-opacity:1"
       d="m 96.49945,139.9735 20.14223,-0.3983 c 0.52454,5.7702 -0.22786,13.13013 -2.32025,15.88135 -4.17888,5.49426 -14.09829,4.63671 -16.8224,-0.9389 -1.56863,-3.21065 -2.15246,-9.16581 -0.99958,-14.54415 z"
       id="path1593"
       inkscape:connector-curvature="0"
       sodipodi:nodetypes="ccssc"
       inkscape:export-filename="O:\Ciencias_da_Computacao\GitHub\Nova pasta\avatar-2.png"
       inkscape:export-xdpi="96"
       inkscape:export-ydpi="96" />
    <path
       sodipodi:nodetypes="ccsscc"
       inkscape:connector-curvature="0"
       id="path1595"
       d="m 96.15804,140.42377 20.54459,-0.16589 c -0.0395,2.56254 0.25989,5.70626 -2.36662,6.60994 -4.5847,1.57732 -12.78951,1.14143 -16.70698,-0.35057 -1.78119,-0.67835 -1.41578,-4.05625 -1.47099,-6.09359 z"
       style="opacity:1;vector-effect:none;fill:#f2c9b7;fill-opacity:1;stroke:none;stroke-width:0.22193433;stroke-linecap:butt;stroke-linejoin:miter;stroke-miterlimit:4;stroke-dasharray:none;stroke-dashoffset:0;stroke-opacity:1"
       inkscape:export-filename="O:\Ciencias_da_Computacao\GitHub\Nova pasta\avatar-2.png"
       inkscape:export-xdpi="96"
       inkscape:export-ydpi="96" />
    <path
       style="opacity:1;vector-effect:none;fill:#f9dcc1;fill-opacity:1;stroke:none;stroke-width:0.3406238;stroke-linecap:butt;stroke-linejoin:miter;stroke-miterlimit:4;stroke-dasharray:none;stroke-dashoffset:0;stroke-opacity:1"
       d="m 104.94627,143.80841 c 3.45866,0.11412 14.22421,-1.92906 21.44415,-8.66329 4.10512,-3.82895 4.9019,-9.36188 3.83484,-18.18185 7.09608,-2.40239 8.47601,-14.96749 1.12655,-15.12785 l 1.4492,-16.99703 -53.48505,-1.593165 -0.34137,19.459435 c -6.71621,0.0801 -2.08809,13.80906 2.84493,15.02133 -0.31543,9.07095 -0.46077,12.62529 2.04902,15.35525 6.14481,7.87233 18.07548,10.81379 21.07773,10.72717 z"
       id="path1591"
       inkscape:connector-curvature="0"
       sodipodi:nodetypes="cscccccccc"
       inkscape:export-filename="O:\Ciencias_da_Computacao\GitHub\Nova pasta\avatar-2.png"
       inkscape:export-xdpi="96"
       inkscape:export-ydpi="96" />
    <path
       style="opacity:1;vector-effect:none;fill:#000000;fill-opacity:1;stroke:none;stroke-width:0.3406238;stroke-linecap:butt;stroke-linejoin:miter;stroke-miterlimit:4;stroke-dasharray:none;stroke-dashoffset:0;stroke-opacity:1"
       d="m 81.07007,109.09806 c -1.35663,-4.36979 -14.556553,-35.103597 11.50335,-42.296652 23.80276,-14.37647 24.76971,6.48265 42.44663,4.722612 0.35973,4.426066 0.24252,9.185261 -2.21904,13.31437 1.79156,13.31283 -0.58093,20.40286 -2.16217,24.86485 -0.66091,-6.95206 0.77743,-14.08854 -2.18739,-20.84859 -10.50296,7.25307 -24.29652,4.11586 -38.43846,-4.47143 -6.95286,5.40495 -8.06809,15.51053 -8.94292,24.71484 z"
       id="path1583"
       inkscape:connector-curvature="0"
       sodipodi:nodetypes="cccccccc"
       inkscape:export-filename="O:\Ciencias_da_Computacao\GitHub\Nova pasta\avatar-2.png"
       inkscape:export-xdpi="96"
       inkscape:export-ydpi="96" />
    <path
       style="opacity:1;vector-effect:none;fill:#000000;fill-opacity:1;stroke:none;stroke-width:0.3406238;stroke-linecap:butt;stroke-linejoin:miter;stroke-miterlimit:4;stroke-dasharray:none;stroke-dashoffset:0;stroke-opacity:1"
       d="m 90.41831,107.86559 c -0.4789,-7.68822 9.38528,-7.52102 8.75466,-0.14307 -3.35047,-1.05699 -6.10306,-1.05382 -8.75466,0.14307 z"
       id="path1585"
       inkscape:connector-curvature="0"
       sodipodi:nodetypes="ccc"
       inkscape:export-filename="O:\Ciencias_da_Computacao\GitHub\Nova pasta\avatar-2.png"
       inkscape:export-xdpi="96"
       inkscape:export-ydpi="96" />
    <path
       sodipodi:nodetypes="ccc"
       inkscape:connector-curvature="0"
       id="path1587"
       d="m 113.04423,107.9519 c -0.79713,-7.66175 9.0655,-7.90356 8.74122,-0.5058 -3.39142,-0.91723 -6.14149,-0.79999 -8.74122,0.5058 z"
       style="opacity:1;vector-effect:none;fill:#000000;fill-opacity:1;stroke:none;stroke-width:0.3406238;stroke-linecap:butt;stroke-linejoin:miter;stroke-miterlimit:4;stroke-dasharray:none;stroke-dashoffset:0;stroke-opacity:1"
       inkscape:export-filename="O:\Ciencias_da_Computacao\GitHub\Nova pasta\avatar-2.png"
       inkscape:export-xdpi="96"
       inkscape:export-ydpi="96" />
    <path
       style="opacity:1;vector-effect:none;fill:#f69591;fill-opacity:1;stroke:none;stroke-width:0.3406238;stroke-linecap:butt;stroke-linejoin:miter;stroke-miterlimit:4;stroke-dasharray:none;stroke-dashoffset:0;stroke-opacity:1"
       d="m 101.11967,132.8113 c 5.29168,6.2e-4 9.25904,-2.1289 13.64041,-5.92127 3.4887,-4.00729 -5.88585,3.51003 -12.77076,2.12445 0,0 -0.52631,-0.0713 -1.14031,0.16587 -2.37112,0.87463 -1.20489,3.47049 0.27079,3.63078 z"
       id="path1589"
       inkscape:connector-curvature="0"
       sodipodi:nodetypes="ccscc"
       inkscape:export-filename="O:\Ciencias_da_Computacao\GitHub\Nova pasta\avatar-2.png"
       inkscape:export-xdpi="96"
       inkscape:export-ydpi="96" />
  </g>
</svg>
