<?xml version="1.0" encoding="UTF-8" standalone="no"?>
<!-- Created with Inkscape (http://www.inkscape.org/) -->

<svg
   xmlns:dc="http://purl.org/dc/elements/1.1/"
   xmlns:cc="http://creativecommons.org/ns#"
   xmlns:rdf="http://www.w3.org/1999/02/22-rdf-syntax-ns#"
   xmlns:svg="http://www.w3.org/2000/svg"
   xmlns="http://www.w3.org/2000/svg"
   xmlns:sodipodi="http://sodipodi.sourceforge.net/DTD/sodipodi-0.dtd"
   xmlns:inkscape="http://www.inkscape.org/namespaces/inkscape"
   width="210mm"
   height="297mm"
   viewBox="0 0 210 297"
   version="1.1"
   id="svg8"
   inkscape:version="0.92.4 (5da689c313, 2019-01-14)"
   sodipodi:docname="Bender.svg">
  <defs
     id="defs2" />
  <sodipodi:namedview
     id="base"
     pagecolor="#ffffff"
     bordercolor="#666666"
     borderopacity="1.0"
     inkscape:pageopacity="0.0"
     inkscape:pageshadow="2"
     inkscape:zoom="0.7"
     inkscape:cx="341.17862"
     inkscape:cy="578.76537"
     inkscape:document-units="mm"
     inkscape:current-layer="layer1"
     showgrid="false"
     inkscape:window-width="1920"
     inkscape:window-height="1001"
     inkscape:window-x="-9"
     inkscape:window-y="-9"
     inkscape:window-maximized="1" />
  <metadata
     id="metadata5">
    <rdf:RDF>
      <cc:Work
         rdf:about="">
        <dc:format>image/svg+xml</dc:format>
        <dc:type
           rdf:resource="http://purl.org/dc/dcmitype/StillImage" />
        <dc:title></dc:title>
      </cc:Work>
    </rdf:RDF>
  </metadata>
  <g
     inkscape:label="Camada 1"
     inkscape:groupmode="layer"
     id="layer1">
    <path
       style="opacity:1;vector-effect:none;fill:#9cbcc3;fill-opacity:1;stroke:#000000;stroke-width:0.38350499;stroke-linecap:butt;stroke-linejoin:miter;stroke-miterlimit:4;stroke-dasharray:none;stroke-dashoffset:0;stroke-opacity:1"
       d="M 131.81775,112.27664 C 110.75572,86.334343 89.616948,96.936603 77.051677,109.83051 c -1.603453,1.0374 -0.527799,2.64212 0.09051,2.89913 15.038651,7.48975 33.672193,12.1678 54.539593,1.90252 0.6301,-0.23294 0.98809,-0.987 0.13595,-2.35552 z"
       id="path851"
       inkscape:connector-curvature="0"
       sodipodi:nodetypes="ccccc" />
    <path
       style="opacity:1;vector-effect:none;fill:#f1f89a;fill-opacity:1;stroke:#000000;stroke-width:0.38350499;stroke-linecap:butt;stroke-linejoin:miter;stroke-miterlimit:4;stroke-dasharray:none;stroke-dashoffset:0;stroke-opacity:1"
       d="m 119.48863,89.264583 c -4.87671,0.8655 -21.253982,-4.38795 -22.433142,1.79625 -0.70595,3.7025 -0.57551,5.99178 1.97267,8.70347 4.075392,4.336927 19.039622,3.297397 20.621142,2.607767 z"
       id="path968"
       inkscape:connector-curvature="0"
       sodipodi:nodetypes="csscc" />
    <path
       style="opacity:1;vector-effect:none;fill:#7f9da0;fill-opacity:1;stroke:#000000;stroke-width:0.38350499;stroke-linecap:butt;stroke-linejoin:round;stroke-miterlimit:4;stroke-dasharray:none;stroke-dashoffset:0;stroke-opacity:1"
       d="m 119.42456,99.930433 c 0.0225,-0.35355 1.75368,-0.27198 1.58555,0.976967 v 4.22809 c -5.73629,4.10973 -30.749562,1.67409 -30.045082,-5.637457 v -44.77934 c 1.73165,-20.557 30.218982,-16.221702 32.735692,-2.81873 1.61216,8.96039 1.25736,23.95919 1.94384,35.93877 -0.51592,2.08437 -2.75348,1.71624 -3.64148,1.69764 -4.42122,-0.13672 -8.3568,0.19642 -11.21687,-0.33038 -12.549072,-2.31139 -13.479742,0.36619 -13.605512,3.98041 -0.12579,3.61423 0.3733,4.73146 2.841822,6.60029 3.75909,2.845907 13.05619,3.559567 18.8949,1.988407 0.92179,-0.24805 0.49733,-1.01239 0.50714,-1.844667 z"
       id="path826"
       inkscape:connector-curvature="0"
       sodipodi:nodetypes="ccccccccszssc" />
    <path
       style="opacity:1;vector-effect:none;fill:#9cbcc3;fill-opacity:1;stroke:#000000;stroke-width:0.38350499;stroke-linecap:butt;stroke-linejoin:miter;stroke-miterlimit:4;stroke-dasharray:none;stroke-dashoffset:0;stroke-opacity:1"
       d="m 124.66165,62.342063 c 4.81423,3.04424 7.29116,3.54878 10.10902,5.7514 5.70586,4.46009 3.59557,10.52315 0.60513,13.43514 -2.17551,2.11842 -4.7446,2.25198 -7.57512,2.21018 l -23.12638,-0.7047 c -2.80356,-0.46406 -4.765712,-2.69627 -5.445552,-3.64908 -1.08825,-1.5252 -1.14693,-4.30707 -1.06988,-6.19808 0.20476,-5.02617 -1.19668,-10.439 8.437302,-9.75581 1.1272,0.1536 9.3891,2.25636 18.06548,-1.08905 z"
       id="path828"
       inkscape:connector-curvature="0"
       sodipodi:nodetypes="cssccsscc" />
    <path
       style="opacity:1;vector-effect:none;fill:#000000;fill-opacity:1;stroke:#000000;stroke-width:0.28762874;stroke-linecap:butt;stroke-linejoin:miter;stroke-miterlimit:4;stroke-dasharray:none;stroke-dashoffset:0;stroke-opacity:1"
       d="m 107.5571,80.339603 c -5.8514,-1.07817 -5.23304,-11.64549 0.65229,-12.16789 7.35255,0.11755 13.0128,-0.28582 22.05766,0.35235 9.05078,0.89936 7.0077,13.03672 6.6e-4,13.02107 -7.53244,-0.26115 -13.55985,0.59719 -22.71091,-1.20553 z"
       id="path830"
       inkscape:connector-curvature="0"
       sodipodi:nodetypes="ccccc" />
    <path
       sodipodi:nodetypes="cscc"
       inkscape:connector-curvature="0"
       id="path889"
       d="m 103.09115,241.25158 c 1.16074,-8.84522 10.22848,-14.36711 19.12379,-13.8726 9.22562,0.51286 15.83878,7.79755 16.65137,13.34369 -5.01299,5.90717 -30.80774,5.34366 -35.77516,0.52891 z"
       style="opacity:1;vector-effect:none;fill:#7f9da0;fill-opacity:1;stroke:#000000;stroke-width:0.38350499;stroke-linecap:butt;stroke-linejoin:miter;stroke-miterlimit:4;stroke-dasharray:none;stroke-dashoffset:0;stroke-opacity:1" />
    <path
       style="opacity:1;vector-effect:none;fill:#7f9da0;fill-opacity:1;stroke:#000000;stroke-width:0.38350499;stroke-linecap:butt;stroke-linejoin:miter;stroke-miterlimit:4;stroke-dasharray:none;stroke-dashoffset:0;stroke-opacity:1"
       d="m 67.646469,246.71248 c 0.673599,-8.31993 10.252735,-13.69787 19.069838,-12.42123 9.144511,1.32407 17.510423,9.55942 16.612693,15.04778 -5.705412,6.13844 -31.325015,3.21216 -35.682531,-2.62655 z"
       id="path887"
       inkscape:connector-curvature="0"
       sodipodi:nodetypes="cscc" />
    <path
       style="opacity:1;vector-effect:none;fill:#7f9da0;fill-opacity:1;stroke:#000000;stroke-width:0.38350499;stroke-linecap:butt;stroke-linejoin:round;stroke-miterlimit:4;stroke-dasharray:none;stroke-dashoffset:0;stroke-opacity:1"
       d="m 61.720734,194.85429 c -0.82691,2.66108 -1.576136,4.25729 -2.697934,6.02653 -0.35484,0.77763 2.782559,3.96565 4.914904,2.51408 1.51793,-3.07056 1.900015,-5.13463 2.174335,-7.51957 z"
       id="path875"
       inkscape:connector-curvature="0"
       sodipodi:nodetypes="ccccc" />
    <path
       sodipodi:nodetypes="ccccc"
       inkscape:connector-curvature="0"
       id="path877"
       d="m 68.674475,196.01936 c 0.226757,2.74026 0.07841,5.97571 -0.06409,8.05203 0.04635,0.38074 3.877503,1.17372 5.130912,-0.20389 0.138829,-2.06506 0.233592,-5.97946 -0.220937,-8.30559 z"
       style="opacity:1;vector-effect:none;fill:#7f9da0;fill-opacity:1;stroke:#000000;stroke-width:0.38350499;stroke-linecap:butt;stroke-linejoin:round;stroke-miterlimit:4;stroke-dasharray:none;stroke-dashoffset:0;stroke-opacity:1" />
    <path
       style="opacity:1;vector-effect:none;fill:#7f9da0;fill-opacity:1;stroke:#000000;stroke-width:0.38350499;stroke-linecap:butt;stroke-linejoin:round;stroke-miterlimit:4;stroke-dasharray:none;stroke-dashoffset:0;stroke-opacity:1"
       d="m 75.899072,194.84779 c 1.065166,2.57498 1.667882,4.71176 1.936259,6.78938 0.1116,2.38749 5.218393,0.75 5.386713,-1.20841 -0.795505,-3.33164 -2.190872,-5.96124 -3.504452,-7.97063 -0.658937,1.19377 -2.14222,1.85417 -3.81852,2.38966 z"
       id="path879"
       inkscape:connector-curvature="0"
       sodipodi:nodetypes="ccccc" />
    <path
       style="opacity:1;vector-effect:none;fill:#7f9da0;fill-opacity:1;stroke:#000000;stroke-width:0.38350499;stroke-linecap:butt;stroke-linejoin:miter;stroke-miterlimit:4;stroke-dasharray:none;stroke-dashoffset:0;stroke-opacity:1"
       d="m 62.545099,184.46073 c -1.389697,4.76526 -0.549576,6.92905 -0.824365,10.39356 3.630179,1.9966 16.37166,1.70416 18.449858,-2.6906 l -7.98009,-9.0134 z"
       id="path871"
       inkscape:connector-curvature="0"
       sodipodi:nodetypes="ccccc" />
    <path
       sodipodi:nodetypes="ccccc"
       inkscape:connector-curvature="0"
       id="path869"
       d="m 79.828983,235.97848 c 13.378855,-18.80238 23.034517,-27.9501 9.378135,-57.13679 3.24485,0.0961 10.79081,2.04648 13.655252,1.64322 12.58266,30.01958 -0.42567,46.7348 -10.700352,57.6337 -2.50806,0.89071 -10.004627,0.87986 -12.333035,-2.14013 z"
       style="opacity:1;vector-effect:none;fill:#5c7c83;fill-opacity:1;stroke:#000000;stroke-width:0.38350499;stroke-linecap:butt;stroke-linejoin:miter;stroke-miterlimit:4;stroke-dasharray:none;stroke-dashoffset:0;stroke-opacity:1" />
    <path
       style="opacity:1;vector-effect:none;fill:#5c7c83;fill-opacity:1;stroke:#000000;stroke-width:0.38350499;stroke-linecap:butt;stroke-linejoin:miter;stroke-miterlimit:4;stroke-dasharray:none;stroke-dashoffset:0;stroke-opacity:1"
       d="m 115.82012,229.77803 c 5.6626,-11.11167 8.66157,-33.15279 -6.59149,-49.0308 4.38229,-0.27816 13.65327,-1.72706 13.12172,-2.33455 14.47995,19.85988 8.87727,43.3961 5.31491,50.97514 -1.99242,1.76464 -8.55569,2.31926 -11.84514,0.39021 z"
       id="path867"
       inkscape:connector-curvature="0"
       sodipodi:nodetypes="ccccc" />
    <path
       style="opacity:1;vector-effect:none;fill:#7f9da0;fill-opacity:1;stroke:#000000;stroke-width:0.38350499;stroke-linecap:butt;stroke-linejoin:miter;stroke-miterlimit:4;stroke-dasharray:none;stroke-dashoffset:0;stroke-opacity:1"
       d="m 132.06615,114.32787 c -0.96428,19.2126 -2.21031,41.7379 -3.55302,60.63519 -2.94428,9.37857 -44.001957,6.54324 -45.335784,1.07617 -2.902135,-21.27686 -5.200233,-42.4178 -6.669268,-63.83053 18.93241,9.2979 37.479642,10.58389 55.558072,2.11917 z"
       id="path853"
       inkscape:connector-curvature="0"
       sodipodi:nodetypes="ccccc" />
    <path
       style="opacity:1;vector-effect:none;fill:#7f9da0;fill-opacity:1;stroke:#000000;stroke-width:0.38350499;stroke-linecap:butt;stroke-linejoin:miter;stroke-miterlimit:4;stroke-dasharray:none;stroke-dashoffset:0;stroke-opacity:1"
       d="m 125.24945,170.16832 c 0.71096,-15.32476 1.83016,-29.56865 2.08374,-45.35078 0.0192,-0.93086 -1.26481,-0.37051 -3.55653,0.56688 -5.20149,2.12755 -15.71367,2.99958 -19.71595,3.08179 -10.424722,0.21411 -13.153342,-3.4439 -13.328862,-1.05982 l 4.07689,44.21151 c 1.30823,2.86117 27.574602,4.01521 30.440712,-1.44958 z"
       id="path855"
       inkscape:connector-curvature="0"
       sodipodi:nodetypes="ccssccc" />
    <path
       sodipodi:nodetypes="ccccc"
       inkscape:connector-curvature="0"
       id="path881"
       d="m 134.2239,187.55774 c -0.82691,2.66109 -1.73629,4.99401 -1.67294,7.08355 0.38187,0.61748 1.53335,1.40319 3.986,0.78442 0.42889,-3.32683 0.77893,-4.49401 1.66184,-6.84693 z"
       style="opacity:1;vector-effect:none;fill:#7f9da0;fill-opacity:1;stroke:#000000;stroke-width:0.38350499;stroke-linecap:butt;stroke-linejoin:round;stroke-miterlimit:4;stroke-dasharray:none;stroke-dashoffset:0;stroke-opacity:1" />
    <path
       style="opacity:1;vector-effect:none;fill:#7f9da0;fill-opacity:1;stroke:#000000;stroke-width:0.38350499;stroke-linecap:butt;stroke-linejoin:round;stroke-miterlimit:4;stroke-dasharray:none;stroke-dashoffset:0;stroke-opacity:1"
       d="m 140.85734,188.69079 c 0.22676,2.74026 -0.11372,5.43118 -0.25625,7.50749 0.94328,0.95731 3.4611,1.23778 4.71451,-0.13978 0.13883,-2.06507 0.10546,-5.56305 -0.15685,-7.85716 -1.43379,0.40929 -2.8676,0.59252 -4.3014,0.48949 z"
       id="path883"
       inkscape:connector-curvature="0"
       sodipodi:nodetypes="ccccc" />
    <path
       sodipodi:nodetypes="ccccc"
       inkscape:connector-curvature="0"
       id="path885"
       d="m 146.06315,187.60411 c 0.54175,2.73343 1.42021,4.30614 1.27766,6.23602 0.54916,2.70304 3.93319,1.64307 4.48074,-0.38061 -0.12943,-3.42284 -1.03618,-5.32921 -2.31706,-7.42055 -1.41514,1.1275 -1.96512,1.39206 -3.44134,1.56514 z"
       style="opacity:1;vector-effect:none;fill:#7f9da0;fill-opacity:1;stroke:#000000;stroke-width:0.38350499;stroke-linecap:butt;stroke-linejoin:round;stroke-miterlimit:4;stroke-dasharray:none;stroke-dashoffset:0;stroke-opacity:1" />
    <path
       sodipodi:nodetypes="ccccc"
       inkscape:connector-curvature="0"
       id="path873"
       d="m 145.9492,176.93101 c 2.12643,2.10105 3.79701,5.84924 3.67972,9.43068 -3.03152,2.91038 -11.51541,3.45833 -15.40502,1.19605 1.04939,-3.17365 1.11809,-6.44648 3.27755,-9.51173 z"
       style="opacity:1;vector-effect:none;fill:#7f9da0;fill-opacity:1;stroke:#000000;stroke-width:0.38350499;stroke-linecap:butt;stroke-linejoin:miter;stroke-miterlimit:4;stroke-dasharray:none;stroke-dashoffset:0;stroke-opacity:1" />
    <path
       sodipodi:nodetypes="ccccc"
       inkscape:connector-curvature="0"
       id="path865"
       d="m 137.72795,178.13662 c 0.81138,-11.2245 1.89263,-31.19762 -6.56401,-45.6787 2.36233,-4.2692 3.12539,-5.11178 4.3969,-8.40457 12.30562,15.96419 11.05162,40.13458 10.38836,52.87766 -1.99242,1.76464 -4.9318,3.13465 -8.22125,1.20561 z"
       style="opacity:1;vector-effect:none;fill:#5c7c83;fill-opacity:1;stroke:#000000;stroke-width:0.38350499;stroke-linecap:butt;stroke-linejoin:miter;stroke-miterlimit:4;stroke-dasharray:none;stroke-dashoffset:0;stroke-opacity:1" />
    <path
       style="opacity:1;vector-effect:none;fill:#7f9da0;fill-opacity:1;stroke:#000000;stroke-width:0.38350499;stroke-linecap:butt;stroke-linejoin:miter;stroke-miterlimit:4;stroke-dasharray:none;stroke-dashoffset:0;stroke-opacity:1"
       d="m 132.02878,116.28227 c 7.53186,5.3656 1.92855,15.53155 -0.96093,17.04048 z"
       id="path859"
       inkscape:connector-curvature="0"
       sodipodi:nodetypes="ccc" />
    <ellipse
       style="opacity:1;vector-effect:none;fill:#7f9da0;fill-opacity:1;fill-rule:evenodd;stroke:#000000;stroke-width:0.38350499;stroke-linecap:butt;stroke-linejoin:miter;stroke-miterlimit:4;stroke-dasharray:none;stroke-dashoffset:0;stroke-opacity:1"
       id="path857"
       cx="122.60612"
       cy="149.21768"
       rx="2.2006848"
       ry="2.4823298" />
    <path
       sodipodi:nodetypes="ccc"
       inkscape:connector-curvature="0"
       id="path861"
       d="m 77.231828,116.22089 c 10.350586,-0.14381 11.08941,18.86275 -0.960929,19.02639 -6.47026,-0.19217 -10.728561,-19.07234 0.960929,-19.02639 z"
       style="opacity:1;vector-effect:none;fill:#7f9da0;fill-opacity:1;stroke:#000000;stroke-width:0.38350499;stroke-linecap:butt;stroke-linejoin:miter;stroke-miterlimit:4;stroke-dasharray:none;stroke-dashoffset:0;stroke-opacity:1" />
    <path
       style="opacity:1;vector-effect:none;fill:#5c7c83;fill-opacity:1;stroke:#000000;stroke-width:0.38350499;stroke-linecap:butt;stroke-linejoin:miter;stroke-miterlimit:4;stroke-dasharray:none;stroke-dashoffset:0;stroke-opacity:1"
       d="m 72.510806,183.15029 c -3.861562,-12.26453 -4.310347,-34.84988 6.534006,-54.11315 0.212421,-7.12051 -5.768914,-7.70501 -9.037755,-3.19743 -15.148101,23.87921 -9.880008,48.32874 -7.461956,58.62102 1.976602,0.99391 7.212243,2.54314 9.965705,-1.31044 z"
       id="path863"
       inkscape:connector-curvature="0"
       sodipodi:nodetypes="ccccc" />
    <path
       style="opacity:1;vector-effect:none;fill:#f1f89a;fill-opacity:1;stroke:#000000;stroke-width:0.28762874;stroke-linecap:butt;stroke-linejoin:miter;stroke-miterlimit:4;stroke-dasharray:none;stroke-dashoffset:0;stroke-opacity:1"
       d="m 117.42606,70.668203 c -7.75157,-4.51998 -11.76829,-0.83643 -11.76829,-0.83643 -2.31441,1.71369 -2.60173,6.82342 -0.15857,8.92384 1.44435,1.33159 5.4779,2.11407 10.32809,2.24229 3.14652,-1.53649 4.48468,-7.9643 1.59873,-10.3297 z"
       id="path832"
       inkscape:connector-curvature="0"
       sodipodi:nodetypes="ccccc" />
    <rect
       style="opacity:1;vector-effect:none;fill:#000000;fill-opacity:1;fill-rule:evenodd;stroke:none;stroke-width:0.24664025;stroke-linecap:butt;stroke-linejoin:miter;stroke-miterlimit:4;stroke-dasharray:none;stroke-dashoffset:0;stroke-opacity:1"
       id="rect836"
       width="2.917454"
       height="3.05335"
       x="110.68806"
       y="73.095436"
       ry="0.26065183" />
    <path
       sodipodi:nodetypes="ccccc"
       inkscape:connector-curvature="0"
       id="path834"
       d="m 128.22324,68.876153 c -5.20548,-1.88283 -9.41725,1.77123 -9.41725,1.77123 1.9873,3.50375 1.09619,7.12661 -0.9561,9.89446 1.1923,1.18944 4.51261,0.86247 9.36313,0.74705 3.58183,-1.15928 5.64502,-9.1068 1.01022,-12.41274 z"
       style="opacity:1;vector-effect:none;fill:#f1f89a;fill-opacity:1;stroke:#000000;stroke-width:0.28762874;stroke-linecap:butt;stroke-linejoin:miter;stroke-miterlimit:4;stroke-dasharray:none;stroke-dashoffset:0;stroke-opacity:1" />
    <rect
       ry="0.22121206"
       y="73.417046"
       x="126.68393"
       height="2.5913413"
       width="2.5225141"
       id="rect838"
       style="opacity:1;vector-effect:none;fill:#000000;fill-opacity:1;fill-rule:evenodd;stroke:none;stroke-width:0.21127728;stroke-linecap:butt;stroke-linejoin:miter;stroke-miterlimit:4;stroke-dasharray:none;stroke-dashoffset:0;stroke-opacity:1" />
    <path
       style="opacity:1;vector-effect:none;fill:none;fill-opacity:1;stroke:#000000;stroke-width:0.38350499;stroke-linecap:butt;stroke-linejoin:miter;stroke-miterlimit:4;stroke-dasharray:none;stroke-dashoffset:0;stroke-opacity:1"
       d="m 65.244146,134.5079 c 2.535109,-0.0711 7.640979,-0.38059 9.89758,2.59451"
       id="path891"
       inkscape:connector-curvature="0"
       sodipodi:nodetypes="cc" />
    <path
       sodipodi:nodetypes="cc"
       inkscape:connector-curvature="0"
       id="path893"
       d="m 62.029388,144.06481 c 2.53511,-0.0711 7.323891,-0.38059 10.282609,1.98297"
       style="opacity:1;vector-effect:none;fill:none;fill-opacity:1;stroke:#000000;stroke-width:0.38350499;stroke-linecap:butt;stroke-linejoin:miter;stroke-miterlimit:4;stroke-dasharray:none;stroke-dashoffset:0;stroke-opacity:1" />
    <path
       style="opacity:1;vector-effect:none;fill:none;fill-opacity:1;stroke:#000000;stroke-width:0.38350499;stroke-linecap:butt;stroke-linejoin:miter;stroke-miterlimit:4;stroke-dasharray:none;stroke-dashoffset:0;stroke-opacity:1"
       d="m 60.189777,152.72495 c 1.396071,-0.0533 7.23517,-0.33164 10.467304,0.84605"
       id="path895"
       inkscape:connector-curvature="0"
       sodipodi:nodetypes="cc" />
    <path
       style="opacity:1;vector-effect:none;fill:none;fill-opacity:1;stroke:#000000;stroke-width:0.38350499;stroke-linecap:butt;stroke-linejoin:miter;stroke-miterlimit:4;stroke-dasharray:none;stroke-dashoffset:0;stroke-opacity:1"
       d="m 59.618578,163.01892 c 2.412536,0.83605 7.189689,1.71621 10.48235,-0.15435"
       id="path897"
       inkscape:connector-curvature="0"
       sodipodi:nodetypes="cc" />
    <path
       sodipodi:nodetypes="cc"
       inkscape:connector-curvature="0"
       id="path899"
       d="m 60.453045,174.19848 c 2.491546,0.55812 6.921151,1.40539 9.98139,-0.82521"
       style="opacity:1;vector-effect:none;fill:none;fill-opacity:1;stroke:#000000;stroke-width:0.38350499;stroke-linecap:butt;stroke-linejoin:miter;stroke-miterlimit:4;stroke-dasharray:none;stroke-dashoffset:0;stroke-opacity:1" />
    <path
       sodipodi:nodetypes="cc"
       inkscape:connector-curvature="0"
       id="path903"
       d="m 132.22325,134.18524 c 2.32274,0.50243 5.07798,-1.85599 6.56308,-5.17933"
       style="opacity:1;vector-effect:none;fill:none;fill-opacity:1;stroke:#000000;stroke-width:0.38350499;stroke-linecap:round;stroke-linejoin:miter;stroke-miterlimit:4;stroke-dasharray:none;stroke-dashoffset:0;stroke-opacity:1" />
    <path
       style="opacity:1;vector-effect:none;fill:none;fill-opacity:1;stroke:#000000;stroke-width:0.38350499;stroke-linecap:round;stroke-linejoin:miter;stroke-miterlimit:4;stroke-dasharray:none;stroke-dashoffset:0;stroke-opacity:1"
       d="m 135.04134,141.23513 c 3.10013,0.59014 6.08836,-0.38833 7.51502,-3.6119"
       id="path905"
       inkscape:connector-curvature="0"
       sodipodi:nodetypes="cc" />
    <path
       style="opacity:1;vector-effect:none;fill:none;fill-opacity:1;stroke:#000000;stroke-width:0.38350499;stroke-linecap:round;stroke-linejoin:miter;stroke-miterlimit:4;stroke-dasharray:none;stroke-dashoffset:0;stroke-opacity:1"
       d="m 136.99358,149.4984 c 2.73284,1.06026 5.36391,1.29981 8.04798,-1.30746"
       id="path907"
       inkscape:connector-curvature="0"
       sodipodi:nodetypes="cc" />
    <path
       sodipodi:nodetypes="cc"
       inkscape:connector-curvature="0"
       id="path909"
       d="m 138.1115,159.4329 c 2.49153,0.42223 5.16583,0.83917 8.04485,-1.00638"
       style="opacity:1;vector-effect:none;fill:none;fill-opacity:1;stroke:#000000;stroke-width:0.38350499;stroke-linecap:round;stroke-linejoin:round;stroke-miterlimit:4;stroke-dasharray:none;stroke-dashoffset:0;stroke-opacity:1" />
    <path
       style="opacity:1;vector-effect:none;fill:none;fill-opacity:1;stroke:#000000;stroke-width:0.38350499;stroke-linecap:butt;stroke-linejoin:round;stroke-miterlimit:4;stroke-dasharray:none;stroke-dashoffset:0;stroke-opacity:1"
       d="m 138.18133,168.60656 c 2.49154,0.42221 5.1368,0.68288 8.08379,-0.93617"
       id="path913"
       inkscape:connector-curvature="0"
       sodipodi:nodetypes="cc" />
    <path
       style="opacity:1;vector-effect:none;fill:none;fill-opacity:1;stroke:#000000;stroke-width:0.38350499;stroke-linecap:round;stroke-linejoin:miter;stroke-miterlimit:4;stroke-dasharray:none;stroke-dashoffset:0;stroke-opacity:1"
       d="m 114.39074,187.36071 c 4.27057,1.09133 9.29075,-1.1312 10.32286,-4.95283"
       id="path917"
       inkscape:connector-curvature="0"
       sodipodi:nodetypes="cc" />
    <path
       sodipodi:nodetypes="cc"
       inkscape:connector-curvature="0"
       id="path919"
       d="m 118.61309,196.72087 c 3.96079,1.36021 9.16866,-0.11659 10.82182,-4.2008"
       style="opacity:1;vector-effect:none;fill:none;fill-opacity:1;stroke:#000000;stroke-width:0.38350499;stroke-linecap:round;stroke-linejoin:miter;stroke-miterlimit:4;stroke-dasharray:none;stroke-dashoffset:0;stroke-opacity:1" />
    <path
       sodipodi:nodetypes="cc"
       inkscape:connector-curvature="0"
       id="path921"
       d="m 120.29351,205.42577 c 2.57429,1.28676 8.2637,1.30337 11.2189,-1.79441"
       style="opacity:1;vector-effect:none;fill:none;fill-opacity:1;stroke:#000000;stroke-width:0.38350499;stroke-linecap:round;stroke-linejoin:miter;stroke-miterlimit:4;stroke-dasharray:none;stroke-dashoffset:0;stroke-opacity:1" />
    <path
       style="opacity:1;vector-effect:none;fill:none;fill-opacity:1;stroke:#000000;stroke-width:0.38350499;stroke-linecap:round;stroke-linejoin:round;stroke-miterlimit:4;stroke-dasharray:none;stroke-dashoffset:0;stroke-opacity:1"
       d="m 120.2752,214.70044 c 2.8759,2.21595 8.46503,1.70401 11.11984,-0.62203"
       id="path923"
       inkscape:connector-curvature="0"
       sodipodi:nodetypes="cc" />
    <path
       sodipodi:nodetypes="cc"
       inkscape:connector-curvature="0"
       id="path925"
       d="m 118.39115,223.4577 c 2.58762,1.0308 8.28684,1.87419 11.41501,-0.0393"
       style="opacity:1;vector-effect:none;fill:none;fill-opacity:1;stroke:#000000;stroke-width:0.38350499;stroke-linecap:butt;stroke-linejoin:round;stroke-miterlimit:4;stroke-dasharray:none;stroke-dashoffset:0;stroke-opacity:1" />
    <path
       sodipodi:nodetypes="cc"
       inkscape:connector-curvature="0"
       id="path949"
       d="m 93.772708,190.56847 c 4.11078,0.83168 10.008122,0.98869 11.752752,-2.56465"
       style="opacity:1;vector-effect:none;fill:none;fill-opacity:1;stroke:#000000;stroke-width:0.38350499;stroke-linecap:round;stroke-linejoin:miter;stroke-miterlimit:4;stroke-dasharray:none;stroke-dashoffset:0;stroke-opacity:1" />
    <path
       style="opacity:1;vector-effect:none;fill:none;fill-opacity:1;stroke:#000000;stroke-width:0.38350499;stroke-linecap:round;stroke-linejoin:miter;stroke-miterlimit:4;stroke-dasharray:none;stroke-dashoffset:0;stroke-opacity:1"
       d="m 95.676578,201.62085 c 3.62713,2.09334 9.790152,1.86508 12.226662,-1.18649"
       id="path951"
       inkscape:connector-curvature="0"
       sodipodi:nodetypes="cc" />
    <path
       style="opacity:1;vector-effect:none;fill:none;fill-opacity:1;stroke:#000000;stroke-width:0.38350499;stroke-linecap:round;stroke-linejoin:miter;stroke-miterlimit:4;stroke-dasharray:none;stroke-dashoffset:0;stroke-opacity:1"
       d="m 94.922708,210.35834 c 2.28034,1.75578 6.352852,4.11643 12.411942,0.96313"
       id="path953"
       inkscape:connector-curvature="0"
       sodipodi:nodetypes="cc" />
    <path
       sodipodi:nodetypes="cc"
       inkscape:connector-curvature="0"
       id="path955"
       d="m 91.815868,218.49703 c 2.20629,3.75052 7.88615,4.25399 12.282462,2.89563"
       style="opacity:1;vector-effect:none;fill:none;fill-opacity:1;stroke:#000000;stroke-width:0.38350499;stroke-linecap:round;stroke-linejoin:round;stroke-miterlimit:4;stroke-dasharray:none;stroke-dashoffset:0;stroke-opacity:1" />
    <path
       style="opacity:1;vector-effect:none;fill:none;fill-opacity:1;stroke:#000000;stroke-width:0.38350499;stroke-linecap:butt;stroke-linejoin:round;stroke-miterlimit:4;stroke-dasharray:none;stroke-dashoffset:0;stroke-opacity:1"
       d="m 85.859733,227.59 c 1.227499,1.94341 5.008245,4.84588 11.981475,3.93607"
       id="path957"
       inkscape:connector-curvature="0"
       sodipodi:nodetypes="cc" />
    <path
       style="opacity:1;vector-effect:none;fill:none;fill-opacity:1;stroke:#000000;stroke-width:0.38350499;stroke-linecap:butt;stroke-linejoin:miter;stroke-miterlimit:4;stroke-dasharray:none;stroke-dashoffset:0;stroke-opacity:1"
       d="M 114.4661,89.364933 114.407,102.60855"
       id="path970"
       inkscape:connector-curvature="0"
       sodipodi:nodetypes="cc" />
    <path
       sodipodi:nodetypes="cc"
       inkscape:connector-curvature="0"
       id="path972"
       d="M 108.37675,88.741993 108.2362,102.4257"
       style="opacity:1;vector-effect:none;fill:none;fill-opacity:1;stroke:#000000;stroke-width:0.38350499;stroke-linecap:butt;stroke-linejoin:miter;stroke-miterlimit:4;stroke-dasharray:none;stroke-dashoffset:0;stroke-opacity:1" />
    <path
       style="opacity:1;vector-effect:none;fill:none;fill-opacity:1;stroke:#000000;stroke-width:0.38350499;stroke-linecap:butt;stroke-linejoin:miter;stroke-miterlimit:4;stroke-dasharray:none;stroke-dashoffset:0;stroke-opacity:1"
       d="m 102.25885,88.325573 -0.0633,12.719847"
       id="path974"
       inkscape:connector-curvature="0"
       sodipodi:nodetypes="cc" />
    <path
       sodipodi:nodetypes="cc"
       inkscape:connector-curvature="0"
       id="path976"
       d="m 119.54379,92.945293 c -11.71875,1.07198 -16.45619,-0.55603 -22.080842,-2.03698"
       style="opacity:1;vector-effect:none;fill:none;fill-opacity:1;stroke:#000000;stroke-width:0.38350499;stroke-linecap:butt;stroke-linejoin:miter;stroke-miterlimit:4;stroke-dasharray:none;stroke-dashoffset:0;stroke-opacity:1" />
    <path
       style="opacity:1;vector-effect:none;fill:none;fill-opacity:1;stroke:#000000;stroke-width:0.38350499;stroke-linecap:butt;stroke-linejoin:miter;stroke-miterlimit:4;stroke-dasharray:none;stroke-dashoffset:0;stroke-opacity:1"
       d="m 119.54379,98.678843 c -12.48751,0.75168 -17.35307,-1.34078 -22.465232,-3.14205"
       id="path978"
       inkscape:connector-curvature="0"
       sodipodi:nodetypes="cc" />
    <path
       style="opacity:1;vector-effect:none;fill:#9cbcc3;fill-opacity:1;stroke:#000000;stroke-width:0.38350499;stroke-linecap:butt;stroke-linejoin:miter;stroke-miterlimit:4;stroke-dasharray:none;stroke-dashoffset:0;stroke-opacity:1"
       d="m 101.53527,41.746137 c 1.54443,1.469776 7.55278,2.047596 9.41711,-0.352341 0.11046,-2.234508 -3.19066,-3.765493 -5.34918,-3.587469 -1.94124,0.160089 -5.3273,1.513868 -4.06793,3.93981 z"
       id="path842"
       inkscape:connector-curvature="0"
       sodipodi:nodetypes="cccc" />
    <path
       style="opacity:1;vector-effect:none;fill:#5c7c83;fill-opacity:1;stroke:#000000;stroke-width:0.38350499;stroke-linecap:butt;stroke-linejoin:miter;stroke-miterlimit:4;stroke-dasharray:none;stroke-dashoffset:0;stroke-opacity:1"
       d="m 103.14371,38.3492 c 0.48318,0.354842 3.04645,1.088795 4.30337,-0.498287 -0.30729,-5.419792 -0.0464,-12.72243 -1.38162,-14.993857 -2.80883,2.093923 -2.22962,10.074518 -2.92175,15.492144 z"
       id="path846"
       inkscape:connector-curvature="0"
       sodipodi:nodetypes="cccc" />
    <path
       style="opacity:1;vector-effect:none;fill:#9cbcc3;fill-opacity:1;fill-rule:evenodd;stroke:#000000;stroke-width:0.38350499;stroke-linecap:butt;stroke-linejoin:miter;stroke-miterlimit:4;stroke-dasharray:none;stroke-dashoffset:0;stroke-opacity:1"
       d="m 108.42193,20.86193 c 0,1.645191 -1.06218,3.203099 -2.53047,3.203099 -1.46828,0 -2.69059,-1.429785 -2.69059,-3.074975 0,-1.64519 1.15824,-3.042943 2.62653,-3.042945 1.46828,2e-6 2.59453,1.269629 2.59453,2.914821 z"
       id="path848"
       inkscape:connector-curvature="0"
       sodipodi:nodetypes="scscs" />
  </g>
</svg>
