<?xml version="1.0" encoding="UTF-8" standalone="no"?>
<!-- Created with Inkscape (http://www.inkscape.org/) -->

<svg
   xmlns:dc="http://purl.org/dc/elements/1.1/"
   xmlns:cc="http://creativecommons.org/ns#"
   xmlns:rdf="http://www.w3.org/1999/02/22-rdf-syntax-ns#"
   xmlns:svg="http://www.w3.org/2000/svg"
   xmlns="http://www.w3.org/2000/svg"
   xmlns:sodipodi="http://sodipodi.sourceforge.net/DTD/sodipodi-0.dtd"
   xmlns:inkscape="http://www.inkscape.org/namespaces/inkscape"
   width="210mm"
   height="297mm"
   viewBox="0 0 210 297"
   version="1.1"
   id="svg4594"
   inkscape:version="0.92.4 (5da689c313, 2019-01-14)"
   sodipodi:docname="Bob-Bomb.svg">
  <defs
     id="defs4588" />
  <sodipodi:namedview
     id="base"
     pagecolor="#ffffff"
     bordercolor="#666666"
     borderopacity="1.0"
     inkscape:pageopacity="0.0"
     inkscape:pageshadow="2"
     inkscape:zoom="0.49497475"
     inkscape:cx="-217.4583"
     inkscape:cy="603.73254"
     inkscape:document-units="mm"
     inkscape:current-layer="layer1"
     showgrid="false"
     inkscape:window-width="1920"
     inkscape:window-height="1017"
     inkscape:window-x="-8"
     inkscape:window-y="-8"
     inkscape:window-maximized="1" />
  <metadata
     id="metadata4591">
    <rdf:RDF>
      <cc:Work
         rdf:about="">
        <dc:format>image/svg+xml</dc:format>
        <dc:type
           rdf:resource="http://purl.org/dc/dcmitype/StillImage" />
        <dc:title></dc:title>
      </cc:Work>
    </rdf:RDF>
  </metadata>
  <g
     inkscape:label="Camada 1"
     inkscape:groupmode="layer"
     id="layer1">
    <path
       style="opacity:1;vector-effect:none;fill:#fcaf17;fill-opacity:1;stroke:#150000;stroke-width:2.26660013;stroke-linecap:butt;stroke-linejoin:miter;stroke-miterlimit:4;stroke-dasharray:none;stroke-dashoffset:0;stroke-opacity:1"
       d="m 136.7094,139.94849 c 0,0 5.90783,-0.79509 8.85553,-1.23566 -9.9114,-39.910089 25.78293,-39.971437 31.81194,-22.99405 1.75271,4.93556 0.99828,11.31113 -4.11266,18.56628 0.82376,6.53867 0,0 0.82376,6.53867 34.91601,22.42272 -22.15273,59.36101 -26.66956,6.33274 -3.33648,0.59347 -10.09117,1.23566 -10.09117,1.23566 z"
       id="path5164"
       inkscape:connector-curvature="0"
       sodipodi:nodetypes="ccsccccc" />
    <path
       style="opacity:1;vector-effect:none;fill:#000000;fill-opacity:1;stroke:none;stroke-width:0.54485583;stroke-linecap:butt;stroke-linejoin:miter;stroke-miterlimit:4;stroke-dasharray:none;stroke-dashoffset:0;stroke-opacity:1"
       d="M 97.439851,98.054017 C 98.943663,90.94099 103.25843,81.24632 108.3616,75.700831 c 2.91453,2.547952 4.20097,3.041961 6.11619,4.659946 -5.88209,8.640747 -7.44243,14.127448 -8.59179,18.494166 -2.06623,0.0169 -4.96457,-0.289261 -8.446149,-0.800926 z"
       id="path5172"
       inkscape:connector-curvature="0"
       sodipodi:nodetypes="ccccc" />
    <path
       style="opacity:1;vector-effect:none;fill:#71cfec;fill-opacity:1;stroke:#000000;stroke-width:2.26660013;stroke-linecap:butt;stroke-linejoin:round;stroke-miterlimit:4;stroke-dasharray:none;stroke-dashoffset:0;stroke-opacity:1"
       d="m 84.624996,110.21357 c -0.353496,-7.64446 0.01859,-8.84934 1.565449,-10.484884 14.426405,-2.40221 24.636565,0.882824 30.617315,3.859014 1.14911,1.58071 0.13612,7.04363 -0.18204,11.14018 -6.21999,-3.1482 -17.057947,-6.92972 -32.000724,-4.51431 z"
       id="path5170"
       inkscape:connector-curvature="0"
       sodipodi:nodetypes="ccccc" />
    <path
       style="opacity:1;vector-effect:none;fill:#fcaf17;fill-opacity:1;stroke:#080000;stroke-width:2.26660013;stroke-linecap:butt;stroke-linejoin:miter;stroke-miterlimit:4;stroke-dasharray:none;stroke-dashoffset:0;stroke-opacity:1"
       d="m 121.90457,182.58838 c 0,0 4.02353,4.31201 5.24245,5.67931 -21.12475,17.83095 1.79535,31.02716 14.19828,15.14483 11.61055,-16.46203 0.0437,-21.74623 -7.06274,-19.65916 -1.92443,-1.91094 -7.13554,-6.84429 -7.13554,-6.84429 z"
       id="path5158"
       inkscape:connector-curvature="0"
       sodipodi:nodetypes="cccccc" />
    <circle
       style="opacity:1;vector-effect:none;fill:#063375;fill-opacity:1;fill-rule:evenodd;stroke:#090000;stroke-width:2.26710749;stroke-linecap:butt;stroke-linejoin:miter;stroke-miterlimit:4;stroke-dasharray:none;stroke-dashoffset:0;stroke-opacity:1"
       id="path5150"
       cx="95.314964"
       cy="150.6575"
       r="41.77449" />
    <path
       sodipodi:nodetypes="cccccc"
       inkscape:connector-curvature="0"
       id="path5162"
       d="m 65.237196,179.19589 c 0,0 -3.013768,3.40619 -4.604064,4.31516 -13.063877,-24.36253 -30.798051,-3.00164 -17.83222,12.42458 13.697217,14.77124 23.303408,5.71623 20.769098,-4.87221 2.268399,-1.48645 6.791527,-6.72651 6.791527,-6.72651 z"
       style="opacity:1;vector-effect:none;fill:#fcaf17;fill-opacity:1;stroke:#080000;stroke-width:2.26660013;stroke-linecap:butt;stroke-linejoin:miter;stroke-miterlimit:4;stroke-dasharray:none;stroke-dashoffset:0;stroke-opacity:1" />
    <ellipse
       style="opacity:1;vector-effect:none;fill:#ffffff;fill-opacity:1;fill-rule:evenodd;stroke:#000000;stroke-width:1.60339212;stroke-linecap:butt;stroke-linejoin:miter;stroke-miterlimit:4;stroke-dasharray:none;stroke-dashoffset:0;stroke-opacity:1"
       id="path5152"
       cx="110.32619"
       cy="122.54197"
       rx="5.3955517"
       ry="12.97967"
       transform="matrix(0.98563513,0.16888871,-0.16040368,0.9870515,0,0)" />
    <ellipse
       transform="matrix(0.97115724,0.23843996,-0.21942058,0.97563036,0,0)"
       ry="12.483953"
       rx="5.0610385"
       cy="117.84991"
       cx="96.303528"
       id="ellipse5154"
       style="opacity:1;vector-effect:none;fill:#ffffff;fill-opacity:1;fill-rule:evenodd;stroke:#000000;stroke-width:1.52295077;stroke-linecap:butt;stroke-linejoin:miter;stroke-miterlimit:4;stroke-dasharray:none;stroke-dashoffset:0;stroke-opacity:1" />
    <path
       style="opacity:1;vector-effect:none;fill:none;fill-opacity:1;stroke:#fffff9;stroke-width:11.65991497;stroke-linecap:butt;stroke-linejoin:miter;stroke-miterlimit:4;stroke-dasharray:none;stroke-dashoffset:0;stroke-opacity:1"
       d="m 122.29341,134.7999 c 4.05021,10.70901 3.56967,25.33095 -1.44159,33.15676"
       id="path5156"
       inkscape:connector-curvature="0"
       sodipodi:nodetypes="cc" />
    <ellipse
       style="opacity:1;vector-effect:none;fill:#ffffff;fill-opacity:1;fill-rule:evenodd;stroke:#080000;stroke-width:2.06453824;stroke-linecap:butt;stroke-linejoin:miter;stroke-miterlimit:4;stroke-dasharray:none;stroke-dashoffset:0;stroke-opacity:1"
       id="path5166"
       cx="161.33211"
       cy="122.37311"
       rx="6.035183"
       ry="6.2341452" />
    <ellipse
       ry="6.2341452"
       rx="6.035183"
       cy="157.03146"
       cx="167.66672"
       id="ellipse5168"
       style="opacity:1;vector-effect:none;fill:#ffffff;fill-opacity:1;fill-rule:evenodd;stroke:#080000;stroke-width:2.06453824;stroke-linecap:butt;stroke-linejoin:miter;stroke-miterlimit:4;stroke-dasharray:none;stroke-dashoffset:0;stroke-opacity:1" />
    <path
       sodipodi:nodetypes="ccccc"
       inkscape:connector-curvature="0"
       id="path5174"
       d="m 99.777287,98.521564 c 0.906143,-5.547311 4.015753,-12.962373 7.090743,-17.287191 l 3.37282,2.006601 c -3.76277,5.573764 -5.77383,11.116275 -6.32076,15.832404 -1.24504,0.01318 -2.04493,-0.152777 -4.142803,-0.551814 z"
       style="opacity:1;vector-effect:none;fill:#ffffff;fill-opacity:1;stroke:none;stroke-width:0.3735058;stroke-linecap:butt;stroke-linejoin:miter;stroke-miterlimit:4;stroke-dasharray:none;stroke-dashoffset:0;stroke-opacity:1" />
  </g>
</svg>
