<?xml version="1.0" encoding="UTF-8" standalone="no"?>
<!-- Created with Inkscape (http://www.inkscape.org/) -->

<svg
   xmlns:dc="http://purl.org/dc/elements/1.1/"
   xmlns:cc="http://creativecommons.org/ns#"
   xmlns:rdf="http://www.w3.org/1999/02/22-rdf-syntax-ns#"
   xmlns:svg="http://www.w3.org/2000/svg"
   xmlns="http://www.w3.org/2000/svg"
   xmlns:sodipodi="http://sodipodi.sourceforge.net/DTD/sodipodi-0.dtd"
   xmlns:inkscape="http://www.inkscape.org/namespaces/inkscape"
   width="210mm"
   height="297mm"
   viewBox="0 0 210 297"
   version="1.1"
   id="svg8"
   inkscape:version="0.92.4 (5da689c313, 2019-01-14)"
   sodipodi:docname="Boo.svg">
  <defs
     id="defs2" />
  <sodipodi:namedview
     id="base"
     pagecolor="#ffffff"
     bordercolor="#666666"
     borderopacity="1.0"
     inkscape:pageopacity="0.0"
     inkscape:pageshadow="2"
     inkscape:zoom="0.70710678"
     inkscape:cx="-43.196761"
     inkscape:cy="625.80635"
     inkscape:document-units="mm"
     inkscape:current-layer="layer1"
     showgrid="false"
     inkscape:window-width="1920"
     inkscape:window-height="1017"
     inkscape:window-x="-8"
     inkscape:window-y="-8"
     inkscape:window-maximized="1" />
  <metadata
     id="metadata5">
    <rdf:RDF>
      <cc:Work
         rdf:about="">
        <dc:format>image/svg+xml</dc:format>
        <dc:type
           rdf:resource="http://purl.org/dc/dcmitype/StillImage" />
        <dc:title></dc:title>
      </cc:Work>
    </rdf:RDF>
  </metadata>
  <g
     inkscape:label="Camada 1"
     inkscape:groupmode="layer"
     id="layer1">
    <path
       sodipodi:nodetypes="cc"
       inkscape:transform-center-y="3.3244824"
       inkscape:transform-center-x="-5.9490659"
       inkscape:connector-curvature="0"
       id="path4533"
       d="M 52.721816,99.304606 C 29.042177,79.299402 35.98276,109.51135 46.597781,122.92591"
       style="opacity:1;vector-effect:none;fill:#ffffff;fill-opacity:1;stroke:#000000;stroke-width:2.61867023;stroke-linecap:butt;stroke-linejoin:miter;stroke-miterlimit:4;stroke-dasharray:none;stroke-dashoffset:0;stroke-opacity:1" />
    <path
       style="opacity:1;vector-effect:none;fill:#ffffff;fill-opacity:1;stroke:#000000;stroke-width:2.61867023;stroke-linecap:butt;stroke-linejoin:miter;stroke-miterlimit:4;stroke-dasharray:none;stroke-dashoffset:0;stroke-opacity:1"
       d="m 156.93185,150.7393 c 10.55908,-44.65079 -8.02737,-81.271937 -53.75029,-85.729324 -29.327115,-2.859012 -52.265246,24.7087 -56.341199,53.891584 -3.688596,26.4095 15.634742,62.99073 47.942519,64.04 24.67929,0.80152 49.65687,-1.88395 71.03891,-20.99671 10.32594,-11.64402 -2.03237,-11.57693 -8.88994,-11.20555 z"
       id="path4529"
       inkscape:connector-curvature="0"
       sodipodi:nodetypes="cssscc" />
    <path
       style="opacity:1;vector-effect:none;fill:#000000;fill-opacity:1;stroke:#000000;stroke-width:1.30933511;stroke-linecap:butt;stroke-linejoin:round;stroke-miterlimit:4;stroke-dasharray:none;stroke-dashoffset:0;stroke-opacity:0.9748744"
       d="m 59.525886,113.21496 c -0.648938,16.65671 2.095648,51.79028 20.909234,51.26699 11.3195,1.88414 23.02724,-32.12519 21.22916,-52.51947 -0.2098,-2.99812 -0.0871,-5.0622 -5.40108,-2.8476 -14.0652,5.11382 -27.239801,8.22336 -36.737314,4.10008 z"
       id="path4561"
       inkscape:connector-curvature="0"
       sodipodi:nodetypes="ccccc" />
    <path
       style="opacity:1;vector-effect:none;fill:#e50014;fill-opacity:1;stroke:none;stroke-width:0.52373403;stroke-linecap:butt;stroke-linejoin:miter;stroke-miterlimit:4;stroke-dasharray:none;stroke-dashoffset:0;stroke-opacity:1"
       d="m 66.959583,149.79129 c -0.381396,-2.5069 -0.08092,-4.5497 0.494992,-7.13569 3.166396,-14.21778 15.748545,-27.10732 31.352675,-28.49579 -2.6568,9.82022 -2.08432,27.30644 -8.12017,38.46496 -2.18037,4.03087 -5.33978,9.45759 -9.81453,9.75751 -5.782727,0.98467 -12.798995,-5.26893 -13.912967,-12.59099 z"
       id="path4567"
       inkscape:connector-curvature="0"
       sodipodi:nodetypes="sscscs" />
    <path
       style="opacity:1;vector-effect:none;fill:none;fill-opacity:1;stroke:#000000;stroke-width:2.61867023;stroke-linecap:butt;stroke-linejoin:miter;stroke-miterlimit:4;stroke-dasharray:none;stroke-dashoffset:0;stroke-opacity:1"
       d="m 119.27906,118.5516 c 32.9532,-17.73055 40.53535,-2.74122 11.37322,16.97236"
       id="path4531"
       inkscape:connector-curvature="0"
       inkscape:transform-center-x="5.9490687"
       inkscape:transform-center-y="3.3244796"
       sodipodi:nodetypes="cc" />
    <path
       style="opacity:1;vector-effect:none;fill:#000000;fill-opacity:1;stroke:none;stroke-width:0.78560108;stroke-linecap:butt;stroke-linejoin:miter;stroke-miterlimit:4;stroke-dasharray:none;stroke-dashoffset:0;stroke-opacity:1"
       d="m 73.373419,81.263736 c -1.837681,16.52476 6.866701,9.58864 9.897951,5.44387 -2.64429,13.03922 18.33035,4.77 24.43557,-2.72193 0.0859,6.29789 -23.8948,18.296344 -26.16771,6.92856 -11.711077,8.56082 -11.16454,-6.46414 -8.165811,-9.6505 z"
       id="path4537"
       inkscape:connector-curvature="0"
       sodipodi:nodetypes="ccccc" />
    <ellipse
       style="opacity:1;vector-effect:none;fill:#000000;fill-opacity:1;fill-rule:evenodd;stroke:none;stroke-width:0.21918856;stroke-linecap:butt;stroke-linejoin:miter;stroke-miterlimit:4;stroke-dasharray:none;stroke-dashoffset:0;stroke-opacity:1"
       id="path4551"
       cx="94.466133"
       cy="76.360771"
       rx="2.7553446"
       ry="5.4366007"
       transform="matrix(0.97079567,0.23990784,-0.25780669,0.96619652,0,0)" />
    <ellipse
       transform="matrix(0.97775561,0.2097474,-0.25570482,0.9667549,0,0)"
       ry="5.5809836"
       rx="2.9801307"
       cy="78.993675"
       cx="111.1953"
       id="ellipse4553"
       style="opacity:1;vector-effect:none;fill:#000000;fill-opacity:1;fill-rule:evenodd;stroke:none;stroke-width:0.23096129;stroke-linecap:butt;stroke-linejoin:miter;stroke-miterlimit:4;stroke-dasharray:none;stroke-dashoffset:0;stroke-opacity:1" />
    <ellipse
       transform="matrix(0.9780152,0.20853362,-0.29544819,0.95535876,0,0)"
       ry="2.27827"
       rx="1.3134787"
       cy="78.255356"
       cx="97.312012"
       id="ellipse4557"
       style="opacity:1;vector-effect:none;fill:#ffffff;fill-opacity:1;fill-rule:evenodd;stroke:none;stroke-width:0.09796712;stroke-linecap:butt;stroke-linejoin:miter;stroke-miterlimit:4;stroke-dasharray:none;stroke-dashoffset:0;stroke-opacity:1" />
    <ellipse
       style="opacity:1;vector-effect:none;fill:#ffffff;fill-opacity:1;fill-rule:evenodd;stroke:none;stroke-width:0.09796712;stroke-linecap:butt;stroke-linejoin:miter;stroke-miterlimit:4;stroke-dasharray:none;stroke-dashoffset:0;stroke-opacity:1"
       id="ellipse4559"
       cx="113.27393"
       cy="77.793182"
       rx="1.3134787"
       ry="2.27827"
       transform="matrix(0.9780152,0.20853362,-0.29544819,0.95535876,0,0)" />
    <path
       sodipodi:nodetypes="ccc"
       inkscape:connector-curvature="0"
       id="path4565"
       d="m 59.029163,105.69773 c -1.296137,15.9322 28.502427,5.94019 40.270737,2.53608 -14.09785,5.89983 -48.793225,13.78232 -40.270737,-2.53608 z"
       style="opacity:1;vector-effect:none;fill:#000000;fill-opacity:1;stroke:none;stroke-width:0.26186702;stroke-linecap:round;stroke-linejoin:round;stroke-miterlimit:4;stroke-dasharray:none;stroke-dashoffset:0;stroke-opacity:1" />
    <path
       style="opacity:1;vector-effect:none;fill:#fbfcfb;fill-opacity:1;stroke:#000000;stroke-width:1.04746807;stroke-linecap:round;stroke-linejoin:round;stroke-miterlimit:4;stroke-dasharray:none;stroke-dashoffset:0;stroke-opacity:1"
       d="m 60.725072,115.37209 c 0.749547,21.97696 7.539999,21.64949 8.092633,1.17097 -1.936609,-0.83607 -5.831058,-0.42732 -8.092633,-1.17097 z"
       id="path4569"
       inkscape:connector-curvature="0"
       sodipodi:nodetypes="ccc" />
    <path
       sodipodi:nodetypes="ccc"
       inkscape:connector-curvature="0"
       id="path4571"
       d="m 84.59504,113.94691 c 4.64687,33.06265 11.78555,15.48249 14.30388,-4.53583 -2.02322,0.28984 -14.30388,4.53583 -14.30388,4.53583 z"
       style="opacity:1;vector-effect:none;fill:#fbfcfb;fill-opacity:1;stroke:#000000;stroke-width:1.04746807;stroke-linecap:round;stroke-linejoin:round;stroke-miterlimit:4;stroke-dasharray:none;stroke-dashoffset:0;stroke-opacity:1" />
    <path
       style="opacity:1;vector-effect:none;fill:#fbfcfb;fill-opacity:1;stroke:#060000;stroke-width:1.04746807;stroke-linecap:round;stroke-linejoin:round;stroke-miterlimit:4;stroke-dasharray:none;stroke-dashoffset:0;stroke-opacity:1"
       d="m 76.944392,115.60822 c 2.054258,16.5219 6.684998,9.07175 6.823908,-1.53884 -1.0544,0.15765 -6.823908,1.53884 -6.823908,1.53884 z"
       id="path4573"
       inkscape:connector-curvature="0"
       sodipodi:nodetypes="ccc" />
    <path
       sodipodi:nodetypes="ccc"
       inkscape:connector-curvature="0"
       id="path4575"
       d="m 69.533398,116.60755 c 2.3784,16.36779 7.009769,7.85926 6.369216,-1.01921 -1.054397,0.15765 -6.369216,1.01921 -6.369216,1.01921 z"
       style="opacity:1;vector-effect:none;fill:#fbfcfb;fill-opacity:1;stroke:#060000;stroke-width:1.04746807;stroke-linecap:round;stroke-linejoin:round;stroke-miterlimit:4;stroke-dasharray:none;stroke-dashoffset:0;stroke-opacity:1" />
    <path
       sodipodi:nodetypes="cscc"
       inkscape:connector-curvature="0"
       id="path4586"
       d="m 141.83274,82.500986 c 20.93401,19.448114 18.5248,52.885184 13.8438,69.517694 -0.64032,2.2752 -1.06436,4.1503 -1.41296,5.63917 5.50529,-2.61194 13.5086,-48.98316 -9.73627,-75.156864"
       style="opacity:1;vector-effect:none;fill:#000000;fill-opacity:1;stroke:#000000;stroke-width:0.78560108;stroke-linecap:butt;stroke-linejoin:miter;stroke-miterlimit:4;stroke-dasharray:none;stroke-dashoffset:0;stroke-opacity:1" />
  </g>
</svg>
