<?xml version="1.0" encoding="UTF-8" standalone="no"?>
<!-- Created with Inkscape (http://www.inkscape.org/) -->

<svg
   xmlns:dc="http://purl.org/dc/elements/1.1/"
   xmlns:cc="http://creativecommons.org/ns#"
   xmlns:rdf="http://www.w3.org/1999/02/22-rdf-syntax-ns#"
   xmlns:svg="http://www.w3.org/2000/svg"
   xmlns="http://www.w3.org/2000/svg"
   xmlns:sodipodi="http://sodipodi.sourceforge.net/DTD/sodipodi-0.dtd"
   xmlns:inkscape="http://www.inkscape.org/namespaces/inkscape"
   width="210mm"
   height="297mm"
   viewBox="0 0 210 297"
   version="1.1"
   id="svg8"
   inkscape:version="0.92.4 (5da689c313, 2019-01-14)"
   sodipodi:docname="Darth-Vadder.svg">
  <defs
     id="defs2" />
  <sodipodi:namedview
     id="base"
     pagecolor="#ffffff"
     bordercolor="#666666"
     borderopacity="1.0"
     inkscape:pageopacity="0.0"
     inkscape:pageshadow="2"
     inkscape:zoom="0.7"
     inkscape:cx="177.12853"
     inkscape:cy="186.06463"
     inkscape:document-units="mm"
     inkscape:current-layer="layer1"
     showgrid="false"
     inkscape:window-width="1920"
     inkscape:window-height="1017"
     inkscape:window-x="-8"
     inkscape:window-y="-8"
     inkscape:window-maximized="1"
     showguides="false"
     inkscape:guide-bbox="true">
    <sodipodi:guide
       position="119.25149,134.9375"
       orientation="0,1"
       id="guide911"
       inkscape:locked="false" />
    <sodipodi:guide
       position="114.38504,149.11162"
       orientation="0,1"
       id="guide913"
       inkscape:locked="false" />
    <sodipodi:guide
       position="109.5805,148.10073"
       orientation="0,1"
       id="guide915"
       inkscape:locked="false" />
    <sodipodi:guide
       position="113.89023,139.28084"
       orientation="0,1"
       id="guide917"
       inkscape:locked="false" />
  </sodipodi:namedview>
  <metadata
     id="metadata5">
    <rdf:RDF>
      <cc:Work
         rdf:about="">
        <dc:format>image/svg+xml</dc:format>
        <dc:type
           rdf:resource="http://purl.org/dc/dcmitype/StillImage" />
        <dc:title></dc:title>
      </cc:Work>
    </rdf:RDF>
  </metadata>
  <g
     inkscape:label="Camada 1"
     inkscape:groupmode="layer"
     id="layer1">
    <rect
       style="opacity:1;vector-effect:none;fill:#000000;fill-opacity:1;fill-rule:evenodd;stroke:none;stroke-width:0.80462718;stroke-linecap:butt;stroke-linejoin:miter;stroke-miterlimit:4;stroke-dasharray:none;stroke-dashoffset:0;stroke-opacity:1"
       id="rect826"
       width="210.98027"
       height="298.2211"
       x="0.070764728"
       y="0.027661044" />
    <path
       style="opacity:1;vector-effect:none;fill:#bababa;fill-opacity:1;stroke:none;stroke-width:0.09453202;stroke-linecap:butt;stroke-linejoin:miter;stroke-miterlimit:4;stroke-dasharray:none;stroke-dashoffset:0;stroke-opacity:1"
       d="M 74.474893,156.47509 68.386678,137.3076 c -0.583972,-1.60722 -1.201393,-2.53198 0.741386,-2.38421 7.149699,0.54377 9.437363,-1.0968 12.190516,-2.10467 1.959626,-1.70714 -0.681407,7.15227 1.777581,11.53641 0.927894,0.32611 6.64038,-2.84036 8.278548,-6.6291 0.508326,-1.17565 4.404849,-1.25108 4.831114,-2.79753 0.401742,-0.8214 0.0261,-2.14168 -0.933231,-2.96267 1.693298,-5.78441 -3.148507,-2.41157 -5.199424,-2.46887 -1.140847,-1.71843 -8.694392,0.77899 -13.5197,3.2019 -3.236349,1.62506 -4.196371,1.22133 -7.100242,1.37674 -2.7886,0.18278 -3.386881,0.53823 -3.017802,1.86872 1.204326,4.34145 3.769919,11.90196 6.795162,21.06943 z"
       id="path891"
       inkscape:connector-curvature="0"
       sodipodi:nodetypes="ccsccscccscscc" />
    <path
       sodipodi:nodetypes="ccsccscccscscc"
       inkscape:connector-curvature="0"
       id="path893"
       d="m 137.62364,156.60206 6.08821,-19.16749 c 0.58398,-1.60722 1.2014,-2.53198 -0.74138,-2.38422 -7.1497,0.54378 -9.43737,-1.09679 -12.19052,-2.10466 -1.95962,-1.70714 0.6814,7.15227 -1.77758,11.5364 -0.92789,0.32612 -6.64039,-2.84035 -8.27856,-6.62909 -0.50833,-1.17565 -4.40486,-1.25108 -4.83112,-2.79753 -0.40174,-0.8214 -0.026,-2.14168 0.93324,-2.96267 -1.6933,-5.78441 3.14851,-2.41157 5.19942,-2.46887 1.14085,-1.71843 8.6944,0.77899 13.51971,3.2019 3.23635,1.62506 4.19638,1.22133 7.10026,1.37674 2.7886,0.18278 3.38687,0.53823 3.01779,1.86872 -1.20433,4.34144 -3.76992,11.90196 -6.79516,21.06943 z"
       style="opacity:1;vector-effect:none;fill:#bababa;fill-opacity:1;stroke:none;stroke-width:0.09453202;stroke-linecap:butt;stroke-linejoin:miter;stroke-miterlimit:4;stroke-dasharray:none;stroke-dashoffset:0;stroke-opacity:1" />
    <path
       style="opacity:1;vector-effect:none;fill:#bababa;fill-opacity:1;stroke:none;stroke-width:0.09453202;stroke-linecap:butt;stroke-linejoin:miter;stroke-miterlimit:4;stroke-dasharray:none;stroke-dashoffset:0;stroke-opacity:1"
       d="m 80.91851,166.46027 17.56573,-30.58258 c 0.71323,-0.84589 1.125146,-1.92037 1.281397,-7.68315 7.008563,-9.27851 13.539563,0.47704 12.764913,1.19209 l 0.0928,5.2017 c 0.38008,2.07417 12.25622,21.29027 18.38433,31.93541 0.3507,0.66312 1.74773,0.38642 1.1941,-1.14267 -6.08749,-10.50707 -18.16794,-29.5612 -18.26245,-31.5212 l 0.0515,-5.36199 c -2.72214,-8.5571 -13.8256,-6.09096 -16.223454,-0.65913 -0.110191,3.32447 -0.206294,4.26801 -0.120572,6.85091 l -17.812191,31.02468 c -0.334667,0.50708 0.248586,1.41407 1.084091,0.74593 z"
       id="path907"
       inkscape:connector-curvature="0"
       sodipodi:nodetypes="ccccccccccccc" />
    <path
       style="opacity:1;vector-effect:none;fill:#ffffff;fill-opacity:1;stroke:none;stroke-width:0.09453202;stroke-linecap:butt;stroke-linejoin:miter;stroke-miterlimit:4;stroke-dasharray:none;stroke-dashoffset:0;stroke-opacity:1"
       d="M 43.544979,210.97 C 3.3719434,222.57975 -0.53454098,222.44406 -0.47748857,225.63267 -0.32041162,234.4116 55.104803,219.21353 51.988489,215.27932 44.149434,218.53396 6.4928266,228.46654 43.544979,210.97 Z"
       id="path828"
       inkscape:connector-curvature="0"
       sodipodi:nodetypes="cscc" />
    <path
       style="opacity:1;vector-effect:none;fill:#ffffff;fill-opacity:1;stroke:none;stroke-width:0.09453202;stroke-linecap:butt;stroke-linejoin:miter;stroke-miterlimit:4;stroke-dasharray:none;stroke-dashoffset:0;stroke-opacity:1"
       d="m 17.414536,196.33627 c 0.268334,6.38584 -1.206603,13.06487 10.109993,18.96549 L 30.302,213.28177 c -8.810933,-3.35216 -12.086473,-9.71644 -12.887464,-16.9455 z"
       id="path830"
       inkscape:connector-curvature="0"
       sodipodi:nodetypes="cccc" />
    <path
       style="opacity:1;vector-effect:none;fill:#ffffff;fill-opacity:1;stroke:none;stroke-width:0.09453202;stroke-linecap:butt;stroke-linejoin:miter;stroke-miterlimit:4;stroke-dasharray:none;stroke-dashoffset:0;stroke-opacity:1"
       d="m 73.85274,239.96812 c -3.543417,-7.87432 -10.418015,-13.27579 -20.123485,-15.85343 3.884575,-2.37104 21.024046,1.14784 23.500887,16.3921 -1.015591,-0.8475 -2.198666,-0.67994 -3.377402,-0.53867 z"
       id="path832"
       inkscape:connector-curvature="0"
       sodipodi:nodetypes="cccc" />
    <path
       style="opacity:1;vector-effect:none;fill:#ffffff;fill-opacity:1;stroke:none;stroke-width:0.09453202;stroke-linecap:butt;stroke-linejoin:miter;stroke-miterlimit:4;stroke-dasharray:none;stroke-dashoffset:0;stroke-opacity:1"
       d="m 68.431115,214.74065 14.042891,4.75821 -0.266636,0.89777 -15.420517,-4.30932 c -5.286834,1.07095 -0.402487,-4.79121 1.644262,-1.34666 z"
       id="path834"
       inkscape:connector-curvature="0"
       sodipodi:nodetypes="ccccc" />
    <path
       style="opacity:1;vector-effect:none;fill:#ffffff;fill-opacity:1;stroke:none;stroke-width:0.09453202;stroke-linecap:butt;stroke-linejoin:miter;stroke-miterlimit:4;stroke-dasharray:none;stroke-dashoffset:0;stroke-opacity:1"
       d="m 63.321353,210.83435 13.449254,4.82465 3.707972,-5.07858 -7.227401,-3.42803 z"
       id="path845"
       inkscape:connector-curvature="0" />
    <path
       style="opacity:1;vector-effect:none;fill:#ffffff;fill-opacity:1;stroke:none;stroke-width:0.09453202;stroke-linecap:butt;stroke-linejoin:miter;stroke-miterlimit:4;stroke-dasharray:none;stroke-dashoffset:0;stroke-opacity:1"
       d="m 87.14036,220.73758 c 0.166533,0.15 8.27313,1.53192 8.421498,1.26965 0.146505,-1.65075 0.961097,-2.28923 1.571174,-3.23759 -0.557929,0.13876 -1.153765,0.34882 -2.262492,1.52357 -2.651607,0.10576 -6.391918,-0.4043 -7.73018,0.44437 z"
       id="path847"
       inkscape:connector-curvature="0"
       sodipodi:nodetypes="ccccc" />
    <path
       style="opacity:1;vector-effect:none;fill:#ffffff;fill-opacity:1;stroke:none;stroke-width:0.09453202;stroke-linecap:butt;stroke-linejoin:miter;stroke-miterlimit:4;stroke-dasharray:none;stroke-dashoffset:0;stroke-opacity:1"
       d="m 92.670895,213.50061 2.325338,-1.58705 0.06285,6.28474 z"
       id="path849"
       inkscape:connector-curvature="0" />
    <path
       style="opacity:1;vector-effect:none;fill:#ffffff;fill-opacity:1;stroke:none;stroke-width:0.09453202;stroke-linecap:butt;stroke-linejoin:miter;stroke-miterlimit:4;stroke-dasharray:none;stroke-dashoffset:0;stroke-opacity:1"
       d="m 101.84655,210.51695 3.51943,6.03081 0.1257,-7.55439 c -0.8064,1.0032 -2.00088,1.53598 -3.64513,1.52358 z"
       id="path851"
       inkscape:connector-curvature="0"
       sodipodi:nodetypes="cccc" />
    <path
       style="opacity:1;vector-effect:none;fill:#ffffff;fill-opacity:1;stroke:none;stroke-width:0.09453202;stroke-linecap:butt;stroke-linejoin:miter;stroke-miterlimit:4;stroke-dasharray:none;stroke-dashoffset:0;stroke-opacity:1"
       d="m 94.556303,223.59429 c 0.904136,7.3841 2.392405,14.92911 1.571177,21.8379 l 14.64335,5.45946 4.0222,-1.96795 c 0.0872,-8.84519 0.97554,-17.51082 1.69687,-26.35601 l -1.13125,-0.1161 -2.63957,12.95039 c -2.15774,-2.60277 -5.50738,-7.77595 -6.51768,-7.62876 -2.02026,0.29432 -5.2347,5.99938 -7.874275,9.08885 l -2.321281,-13.90679 c -0.745208,-0.44869 -1.206918,-0.18146 -1.449541,0.63901 z"
       id="path853"
       inkscape:connector-curvature="0"
       sodipodi:nodetypes="cccccccsccc" />
    <path
       style="opacity:1;vector-effect:none;fill:#ffffff;fill-opacity:1;stroke:none;stroke-width:0.09453202;stroke-linecap:butt;stroke-linejoin:miter;stroke-miterlimit:4;stroke-dasharray:none;stroke-dashoffset:0;stroke-opacity:1"
       d="m 115.67033,218.42153 c 0.34071,-0.0982 0.6814,-0.0904 1.02211,0.404 l 2.22198,-6.41909 c -1.51852,0.22458 -2.38332,-0.079 -3.33296,-0.31422 z"
       id="path855"
       inkscape:connector-curvature="0"
       sodipodi:nodetypes="ccccc" />
    <path
       style="opacity:1;vector-effect:none;fill:#ffffff;fill-opacity:1;stroke:none;stroke-width:0.09453202;stroke-linecap:butt;stroke-linejoin:miter;stroke-miterlimit:4;stroke-dasharray:none;stroke-dashoffset:0;stroke-opacity:1"
       d="m 114.24828,219.3193 c 0.62333,0.71822 1.18358,1.43645 2.08864,2.15467 2.24367,0.14692 4.49697,0.20638 6.79926,-0.17956 -1.45596,-0.91129 -4.09856,-0.95691 -6.57705,-1.12222 -0.90126,-0.90173 -1.5751,-0.73136 -2.31085,-0.85289 z"
       id="path857"
       inkscape:connector-curvature="0"
       sodipodi:nodetypes="ccccc" />
    <path
       style="opacity:1;vector-effect:none;fill:#ffffff;fill-opacity:1;stroke:none;stroke-width:0.09453202;stroke-linecap:butt;stroke-linejoin:miter;stroke-miterlimit:4;stroke-dasharray:none;stroke-dashoffset:0;stroke-opacity:1"
       d="m 131.25895,210.38998 2.76526,5.0151 14.39196,-4.50724 c 0,0 -7.36759,-4.35052 -10.87002,-3.40109 -2.39671,0.64971 -6.2872,2.89323 -6.2872,2.89323 z"
       id="path859"
       inkscape:connector-curvature="0"
       sodipodi:nodetypes="cccsc" />
    <path
       style="opacity:1;vector-effect:none;fill:#ffffff;fill-opacity:1;stroke:none;stroke-width:0.09453202;stroke-linecap:butt;stroke-linejoin:miter;stroke-miterlimit:4;stroke-dasharray:none;stroke-dashoffset:0;stroke-opacity:1"
       d="m 131.66745,219.4362 c 5.46768,-1.04746 8.44078,-2.68781 16.40307,-3.14237 l -2.48246,-3.30108 c -3.31791,3.14956 -9.28041,4.29563 -13.92061,6.44345 z"
       id="path861"
       inkscape:connector-curvature="0"
       sodipodi:nodetypes="cccc" />
    <path
       sodipodi:nodetypes="ccscc"
       inkscape:connector-curvature="0"
       id="path863"
       d="m 136.19187,243.48739 c 2.38799,-9.5801 11.48457,-15.69978 20.83452,-19.62408 -0.66891,-0.40829 -3.98805,0.34401 -3.98805,0.34401 -2.18773,-1.97672 -17.10699,4.95505 -20.22387,19.81874 1.01559,-0.8475 2.19866,-0.67994 3.3774,-0.53867 z"
       style="opacity:1;vector-effect:none;fill:#ffffff;fill-opacity:1;stroke:none;stroke-width:0.09453202;stroke-linecap:butt;stroke-linejoin:miter;stroke-miterlimit:4;stroke-dasharray:none;stroke-dashoffset:0;stroke-opacity:1" />
    <path
       style="opacity:1;vector-effect:none;fill:#ffffff;fill-opacity:1;stroke:none;stroke-width:0.09453202;stroke-linecap:butt;stroke-linejoin:miter;stroke-miterlimit:4;stroke-dasharray:none;stroke-dashoffset:0;stroke-opacity:1"
       d="m 210.63468,226.83188 c -48.42762,-5.67012 -46.51688,-10.37201 -50.40328,-10.91894 12.87882,0.84621 27.29707,2.33563 3.86509,-5.52296 13.06195,0.16498 30.34292,6.84634 46.78958,12.12511 z"
       id="path865"
       inkscape:connector-curvature="0"
       sodipodi:nodetypes="ccccc" />
    <path
       style="opacity:1;vector-effect:none;fill:#ffffff;fill-opacity:1;stroke:none;stroke-width:0.09453202;stroke-linecap:butt;stroke-linejoin:miter;stroke-miterlimit:4;stroke-dasharray:none;stroke-dashoffset:0;stroke-opacity:1"
       d="m 198.86114,204.50602 c -1.12935,13.22074 -3.53528,15.0966 -11.2432,19.97549 -2.82591,2.26385 1.07734,3.61684 2.79968,2.33421 5.25691,-3.73157 10.15233,-5.55153 8.44352,-22.3097 z"
       id="path867"
       inkscape:connector-curvature="0"
       sodipodi:nodetypes="cccc" />
    <path
       style="opacity:1;vector-effect:none;fill:#ffffff;fill-opacity:1;stroke:none;stroke-width:0.09453202;stroke-linecap:butt;stroke-linejoin:miter;stroke-miterlimit:4;stroke-dasharray:none;stroke-dashoffset:0;stroke-opacity:1"
       d="m 17.739553,189.10677 c -0.839705,8.85878 0.615621,-3.06947 9.873568,-15.24852 7.730483,-10.16964 15.019269,-42.9787 25.275632,-60.11999 6.037629,-9.12615 22.764623,-27.489965 46.381076,-15.267507 1.551481,0.910899 3.908751,3.949137 13.539661,0.14611 13.40402,-6.525291 24.89545,-9.197591 45.03373,13.566077 9.19618,15.8983 16.07315,37.00244 23.21656,57.50854 l 0.95877,-1.00666 c 0.31853,6.79645 6.33802,6.71771 12.44307,24.01547 l 0.88879,-1.57111 c -12.56852,-30.55555 -20.67919,-54.58469 -29.95224,-81.87704 -2.43768,-16.741029 3.3051,-60.520071 -52.79416,-63.562458 l -0.82763,-1.432767 c -4.74906,-0.356668 -6.53851,-0.381165 -9.80413,-0.57134 l -1.88541,1.777503 C 91.375709,46.1923 51.236665,44.694327 48.877724,101.89037 39.65932,131.08518 28.946986,160.05696 17.739553,189.10677 Z"
       id="path869"
       inkscape:connector-curvature="0"
       sodipodi:nodetypes="csccccccccccccccc" />
    <path
       style="opacity:1;vector-effect:none;fill:#ffffff;fill-opacity:1;stroke:none;stroke-width:0.09453202;stroke-linecap:butt;stroke-linejoin:miter;stroke-miterlimit:4;stroke-dasharray:none;stroke-dashoffset:0;stroke-opacity:1"
       d="m 98.110406,94.340041 c 1.491862,-13.757031 -1.532399,-30.219401 3.110774,-41.0283 1.76629,-4.221574 0.12177,12.510376 0.62847,20.375747 l 3.12154,9.866498 4.3443,-10.309004 c 0.82297,-6.377208 0.12804,-23.363294 2.46889,-18.4968 3.37638,13.499552 1.32472,26.999105 0.64187,40.498657 5.25543,-14.475068 17.66949,-9.300781 29.33009,-6.194645 17.27329,-40.981178 -22.837,-42.425795 -28.97458,-41.028299 l -1.62323,-2.207248 -8.11788,-0.607498 -3.768495,2.814746 C 55.371981,47.410082 62.997909,88.347542 83.211079,85.58733 c 8.919296,-1.217975 13.708672,3.807584 14.899327,8.752711 z"
       id="path871"
       inkscape:connector-curvature="0"
       sodipodi:nodetypes="ccccccccccccsc" />
    <path
       style="opacity:1;vector-effect:none;fill:#ffffff;fill-opacity:1;stroke:none;stroke-width:0.09453202;stroke-linecap:butt;stroke-linejoin:miter;stroke-miterlimit:4;stroke-dasharray:none;stroke-dashoffset:0;stroke-opacity:1"
       d="m 65.081069,121.19742 c 1.594828,-10.21049 9.431792,-20.55571 20.48845,-20.20021 4.044651,0.13005 8.900443,0.99433 12.946154,5.66276 0.25453,0.25711 4.612467,-0.44507 4.091347,0.48914 -0.69081,1.23844 -1.47033,4.4348 -1.57747,7.06528 l 10.1812,-0.12697 c -0.24432,-2.63921 -1.07768,-5.7255 -1.15033,-7.31664 -0.0295,-0.6476 1.0493,-0.25955 3.41283,-0.4282 6.49244,-6.20005 19.31749,-9.778337 31.54918,4.82467 -8.55456,-14.532936 -20.06193,-16.784304 -34.31446,-7.61789 l -9.80412,0.3809 C 75.532367,86.572989 62.864691,113.82585 65.081069,121.19742 Z"
       id="path873"
       inkscape:connector-curvature="0"
       sodipodi:nodetypes="cscsccsccccc" />
    <path
       style="opacity:1;vector-effect:none;fill:#ffffff;fill-opacity:1;stroke:none;stroke-width:0.09453202;stroke-linecap:butt;stroke-linejoin:miter;stroke-miterlimit:4;stroke-dasharray:none;stroke-dashoffset:0;stroke-opacity:1"
       d="m 100.80958,117.16629 c 0,0 -0.922847,2.09493 -2.105377,2.88845 -0.506239,-0.62047 -0.823549,-2.18814 -0.314229,-3.17411 0.992684,-0.19508 1.651536,-0.11513 2.419606,0.28566 z"
       id="path875"
       inkscape:connector-curvature="0"
       sodipodi:nodetypes="cccc" />
    <path
       sodipodi:nodetypes="cccc"
       inkscape:connector-curvature="0"
       id="path877"
       d="m 110.9954,117.34053 c 0,0 0.89169,2.01625 2.0343,2.77997 0.48915,-0.59718 0.79575,-2.10596 0.30361,-3.05491 -0.95916,-0.18776 -1.59577,-0.11081 -2.33791,0.27494 z"
       style="opacity:1;vector-effect:none;fill:#ffffff;fill-opacity:1;stroke:none;stroke-width:0.09116095;stroke-linecap:butt;stroke-linejoin:miter;stroke-miterlimit:4;stroke-dasharray:none;stroke-dashoffset:0;stroke-opacity:1" />
    <path
       style="opacity:1;vector-effect:none;fill:#ffffff;fill-opacity:1;stroke:none;stroke-width:0.09453202;stroke-linecap:butt;stroke-linejoin:miter;stroke-miterlimit:4;stroke-dasharray:none;stroke-dashoffset:0;stroke-opacity:1"
       d="m 101.71632,122.76365 c 2.81418,-0.40302 5.55448,-0.58217 8.13244,-0.26934 0.003,-7.71237 -8.18077,-6.97248 -8.13244,0.26934 z"
       id="path879"
       inkscape:connector-curvature="0"
       sodipodi:nodetypes="ccc" />
    <path
       style="opacity:1;vector-effect:none;fill:#ffffff;fill-opacity:1;stroke:none;stroke-width:0.09453202;stroke-linecap:butt;stroke-linejoin:miter;stroke-miterlimit:4;stroke-dasharray:none;stroke-dashoffset:0;stroke-opacity:1"
       d="m 116.3458,122.13425 c -10.32987,-2.01622 9.61537,10.6371 22.83187,8.33158 0.49099,-0.16275 5.69716,-2.40479 -3.33089,-4.38028 -6.59394,-1.22254 -13.95019,-1.67505 -19.50098,-3.9513 z"
       id="path881"
       inkscape:connector-curvature="0"
       sodipodi:nodetypes="cccc" />
    <path
       sodipodi:nodetypes="cccc"
       inkscape:connector-curvature="0"
       id="path883"
       d="m 94.948314,122.13425 c 10.329856,-2.01622 -9.615358,10.6371 -22.83185,8.33158 -0.491,-0.16275 -5.697155,-2.40479 3.330887,-4.38028 6.516625,-1.18534 13.134141,-1.5554 19.500963,-3.9513 z"
       style="opacity:1;vector-effect:none;fill:#ffffff;fill-opacity:1;stroke:none;stroke-width:0.09453202;stroke-linecap:butt;stroke-linejoin:miter;stroke-miterlimit:4;stroke-dasharray:none;stroke-dashoffset:0;stroke-opacity:1" />
    <path
       style="opacity:1;vector-effect:none;fill:#ffffff;fill-opacity:1;stroke:none;stroke-width:0.09453202;stroke-linecap:butt;stroke-linejoin:miter;stroke-miterlimit:4;stroke-dasharray:none;stroke-dashoffset:0;stroke-opacity:1"
       d="m 101.09239,133.19557 c -0.32988,2.67146 1.21999,5.84069 4.96491,5.64991 3.25585,-0.0258 5.23217,-1.35467 5.18488,-4.82465 0.20752,-3.49658 -1.9114,-6.07915 -4.43071,-6.34822 -2.62279,-0.28013 -5.73678,1.46452 -5.71908,5.52296 z"
       id="path885"
       inkscape:connector-curvature="0"
       sodipodi:nodetypes="ccccc" />
    <path
       style="opacity:1;vector-effect:none;fill:#ffffff;fill-opacity:1;stroke:none;stroke-width:0.09453202;stroke-linecap:butt;stroke-linejoin:miter;stroke-miterlimit:4;stroke-dasharray:none;stroke-dashoffset:0;stroke-opacity:1"
       d="M 134.11273,160.96396 117.3146,138.16048 c -2.47573,-3.10201 0.96268,-1.68157 2.31809,0.57227 l 15.1022,21.15388 c 0.82504,1.52381 -0.16128,1.46045 -0.62216,1.07733 z"
       id="path887"
       inkscape:connector-curvature="0"
       sodipodi:nodetypes="ccccc" />
    <path
       sodipodi:nodetypes="ccccc"
       inkscape:connector-curvature="0"
       id="path889"
       d="m 78.030803,161.00885 c 5.388594,-7.72111 10.987526,-15.25834 16.731461,-22.66881 2.47572,-3.10201 -0.6516,-1.77135 -2.007008,0.48249 -6.100011,6.74226 -10.717697,13.98363 -15.346608,21.2212 -0.825038,1.52382 0.161271,1.34824 0.622155,0.96512 z"
       style="opacity:1;vector-effect:none;fill:#ffffff;fill-opacity:1;stroke:none;stroke-width:0.09453202;stroke-linecap:butt;stroke-linejoin:miter;stroke-miterlimit:4;stroke-dasharray:none;stroke-dashoffset:0;stroke-opacity:1" />
    <path
       sodipodi:nodetypes="cccc"
       inkscape:connector-curvature="0"
       id="path895"
       d="m 77.05162,156.60205 c 0.02719,0.47668 -1.392885,3.17469 -2.293922,2.52342 -0.506238,-0.62047 -0.163655,-1.22004 0.345666,-2.20601 0.557516,-1.36562 1.845799,-2.10238 1.948256,-0.31741 z"
       style="opacity:1;vector-effect:none;fill:#ffffff;fill-opacity:1;stroke:none;stroke-width:0.09453202;stroke-linecap:butt;stroke-linejoin:miter;stroke-miterlimit:4;stroke-dasharray:none;stroke-dashoffset:0;stroke-opacity:1" />
    <path
       style="opacity:1;vector-effect:none;fill:#ffffff;fill-opacity:1;stroke:none;stroke-width:0.09453202;stroke-linecap:butt;stroke-linejoin:miter;stroke-miterlimit:4;stroke-dasharray:none;stroke-dashoffset:0;stroke-opacity:1"
       d="m 134.98657,156.45298 c -0.0272,0.47668 1.39288,3.17469 2.29392,2.52343 0.50624,-0.62048 0.16366,-1.22005 -0.34566,-2.20602 -0.55752,-1.36562 -1.84581,-2.10238 -1.94826,-0.31741 z"
       id="path897"
       inkscape:connector-curvature="0"
       sodipodi:nodetypes="cccc" />
    <path
       style="opacity:1;vector-effect:none;fill:#ffffff;fill-opacity:1;stroke:none;stroke-width:0.09116095;stroke-linecap:butt;stroke-linejoin:miter;stroke-miterlimit:4;stroke-dasharray:none;stroke-dashoffset:0;stroke-opacity:1"
       d="m 135.06206,162.49564 c 0.67296,-0.0173 1.7195,0.41599 2.12306,-0.21928 0.37195,-0.58552 1.54471,-1.83334 1.85118,-1.24406 0.48914,0.59717 0.54435,3.31212 0.33504,4.57848 -0.15586,0.78652 -6.61866,-2.75625 -4.30928,-3.11514 z"
       id="path899"
       inkscape:connector-curvature="0"
       sodipodi:nodetypes="csccc" />
    <path
       sodipodi:nodetypes="csccc"
       inkscape:connector-curvature="0"
       id="path901"
       d="m 77.270673,162.49564 c -0.672955,-0.0173 -1.719499,0.41599 -2.123055,-0.21928 -0.371951,-0.58552 -1.544712,-1.83334 -1.85118,-1.24406 -0.489145,0.59717 -0.544356,3.31212 -0.33504,4.57848 0.155853,0.78652 6.618656,-2.75625 4.309275,-3.11514 z"
       style="opacity:1;vector-effect:none;fill:#ffffff;fill-opacity:1;stroke:none;stroke-width:0.09116095;stroke-linecap:butt;stroke-linejoin:miter;stroke-miterlimit:4;stroke-dasharray:none;stroke-dashoffset:0;stroke-opacity:1" />
    <path
       sodipodi:nodetypes="ccccc"
       inkscape:connector-curvature="0"
       id="path903"
       d="m 73.078398,168.57348 c -0.202064,1.63637 0.525101,2.85943 2.819012,2.74257 3.254934,1.46659 4.533763,0.91761 4.286926,-2.86549 0.12712,-2.1418 -1.48188,-3.36462 -3.025059,-3.52944 -1.606564,-0.17158 -4.091714,1.1664 -4.080879,3.65236 z"
       style="opacity:1;vector-effect:none;fill:#ffffff;fill-opacity:1;stroke:none;stroke-width:0.05790452;stroke-linecap:butt;stroke-linejoin:miter;stroke-miterlimit:4;stroke-dasharray:none;stroke-dashoffset:0;stroke-opacity:1" />
    <path
       style="opacity:1;vector-effect:none;fill:#ffffff;fill-opacity:1;stroke:none;stroke-width:0.05790452;stroke-linecap:butt;stroke-linejoin:miter;stroke-miterlimit:4;stroke-dasharray:none;stroke-dashoffset:0;stroke-opacity:1"
       d="m 139.09099,168.57348 c 0.20207,1.63637 -0.5251,2.85943 -2.81901,2.74257 -3.25493,1.46659 -4.53377,0.91761 -4.28694,-2.86549 -0.12711,-2.1418 1.48189,-3.36462 3.02507,-3.52944 1.60656,-0.17158 4.09171,1.1664 4.08088,3.65236 z"
       id="path905"
       inkscape:connector-curvature="0"
       sodipodi:nodetypes="ccccc" />
    <path
       style="opacity:1;vector-effect:none;fill:#ffffff;fill-opacity:1;stroke:none;stroke-width:0.09453202;stroke-linecap:butt;stroke-linejoin:miter;stroke-miterlimit:4;stroke-dasharray:none;stroke-dashoffset:0;stroke-opacity:1"
       d="m 84.740424,165.90171 42.795256,0.0448 c -1.2544,-1.93017 -3.32426,-6.1209 -5.09305,-6.05671 l 0.027,3.99183 -3.95511,-0.13467 -0.13331,-9.06752 c -0.90709,-1.16011 -3.01859,-3.92308 -3.33297,-3.14221 v 12.25462 l -3.46628,-0.0448 v -13.19729 h -4.14197 l 0.0629,13.46663 h -3.07949 l -0.0943,-13.46663 h -3.89651 l -0.1257,13.46663 h -3.425158 l -0.157117,-12.5062 c -0.483973,-0.87376 -2.476324,1.92749 -3.613703,3.14237 l -2e-6,9.36383 h -3.770928 l -0.03142,-4.12654 c -0.994662,0.68036 -3.401026,3.59743 -4.568174,6.01186 z"
       id="path909"
       inkscape:connector-curvature="0"
       sodipodi:nodetypes="ccccccccccccccccccccccc" />
  </g>
</svg>
