<?xml version="1.0" encoding="UTF-8" standalone="no"?>
<!-- Created with Inkscape (http://www.inkscape.org/) -->

<svg
   xmlns:dc="http://purl.org/dc/elements/1.1/"
   xmlns:cc="http://creativecommons.org/ns#"
   xmlns:rdf="http://www.w3.org/1999/02/22-rdf-syntax-ns#"
   xmlns:svg="http://www.w3.org/2000/svg"
   xmlns="http://www.w3.org/2000/svg"
   xmlns:sodipodi="http://sodipodi.sourceforge.net/DTD/sodipodi-0.dtd"
   xmlns:inkscape="http://www.inkscape.org/namespaces/inkscape"
   width="210mm"
   height="297mm"
   viewBox="0 0 210 297"
   version="1.1"
   id="svg8"
   sodipodi:docname="Heisenberg.svg"
   inkscape:version="0.92.4 (5da689c313, 2019-01-14)">
  <defs
     id="defs2" />
  <sodipodi:namedview
     id="base"
     pagecolor="#ffffff"
     bordercolor="#666666"
     borderopacity="1.0"
     inkscape:pageopacity="0.0"
     inkscape:pageshadow="2"
     inkscape:zoom="0.7"
     inkscape:cx="-176.67308"
     inkscape:cy="605.01805"
     inkscape:document-units="mm"
     inkscape:current-layer="layer1"
     showgrid="false"
     inkscape:window-width="1920"
     inkscape:window-height="1017"
     inkscape:window-x="-8"
     inkscape:window-y="-8"
     inkscape:window-maximized="1" />
  <metadata
     id="metadata5">
    <rdf:RDF>
      <cc:Work
         rdf:about="">
        <dc:format>image/svg+xml</dc:format>
        <dc:type
           rdf:resource="http://purl.org/dc/dcmitype/StillImage" />
      </cc:Work>
    </rdf:RDF>
  </metadata>
  <g
     inkscape:label="Camada 1"
     inkscape:groupmode="layer"
     id="layer1">
    <path
       style="fill:none;fill-rule:evenodd;stroke:#000000;stroke-width:0.74867231;stroke-miterlimit:4;stroke-dasharray:none;stroke-opacity:1"
       d="m 85.552067,121.10609 c 19.373163,1.82076 36.505543,-0.84004 53.638723,-3.49923 3.47471,-0.5393 9.20738,-1.87874 11.51991,-2.02054 l -0.45643,29.6006 c -0.0382,2.4739 -3.26643,18.50456 -5.52837,23.45504 -1.66243,3.63837 -2.80469,5.99654 -4.47013,8.2995 -0.78156,0.0539 -0.61462,-0.0256 -1.43336,0.0816 -0.6415,0.0839 -0.1119,3.62607 -0.77646,3.73997 -0.57606,0.0987 -3.09791,6.49768 -3.69182,6.60949 -16.39612,3.08638 -37.603083,4.34857 -48.869283,3.42016 -1.9839,-0.16349 -3.51435,-3.14737 -4.837614,-3.97819 -3.637013,-4.11301 -4.606191,-7.21802 -5.053084,-9.09038 -0.129287,-0.54172 -0.53974,-0.78261 -0.53974,-0.78261 -2.747291,-1.43164 -5.864743,-11.68019 -6.287298,-15.95229 0,0 -0.591445,-3.30904 -1.619904,-11.04218 -1.070976,-8.05285 -2.588607,-20.74885 -3.004146,-31.55915 4.445922,1.66138 17.908116,2.38922 21.409006,2.71825 z"
       id="rect842"
       inkscape:connector-curvature="0"
       sodipodi:nodetypes="sscsscsssscsssscs" />
    <path
       sodipodi:nodetypes="ccccc"
       inkscape:connector-curvature="0"
       id="path1002"
       d="m 142.43934,157.69252 c -1.03427,5.44537 -1.18529,6.68567 -4.92714,22.31488 -0.64226,3.24727 -3.70113,7.02915 -4.70134,9.97692 1.11111,-0.96677 6.18537,-8.94174 6.83931,-12.05479 0.75833,-3.78187 1.52314,-9.7485 2.78917,-20.23701 z"
       style="fill:#000000;fill-opacity:1;fill-rule:evenodd;stroke:none;stroke-width:0.42599183;stroke-opacity:1" />
    <path
       style="fill:none;stroke:#170000;stroke-width:0.80502403;stroke-linecap:butt;stroke-linejoin:miter;stroke-miterlimit:4;stroke-dasharray:none;stroke-opacity:1"
       d="m 58.652982,123.79893 c 0,0 -1.954307,11.69373 2.499307,14.73296 -0.110498,2.29668 0.374948,2.96347 1.062738,3.94239 0.507695,7.96346 4.804149,8.9106 4.804149,8.9106"
       id="path845"
       inkscape:connector-curvature="0"
       sodipodi:nodetypes="cccc" />
    <path
       style="opacity:1;fill:#000000;fill-opacity:1;fill-rule:nonzero;stroke:none;stroke-width:0.26565793;stroke-miterlimit:4;stroke-dasharray:none;stroke-opacity:1"
       d="m 179.98791,104.71038 c -0.0749,0.024 -0.79105,0.43904 -0.79105,0.43904 -1.24653,0.54251 -32.17021,16.74159 -72.71419,16.55759 -41.986572,-0.19055 -77.135688,-9.30223 -76.447575,-24.001329 0.209711,-7.49464 18.781342,-4.34766 26.541465,-5.0887 17.24798,-1.35143 88.89864,-4.47373 102.73019,-3.61459 13.41943,3.67175 23.17847,4.83547 24.04792,7.65705 1.31314,2.46085 -2.11245,7.172979 -3.36676,8.050939"
       id="path1066"
       inkscape:connector-curvature="0"
       sodipodi:nodetypes="cssccccc" />
    <path
       style="fill:#000000;stroke:#000000;stroke-width:0.80502403;stroke-linecap:butt;stroke-linejoin:miter;stroke-miterlimit:4;stroke-dasharray:none;stroke-opacity:1"
       d="m 57.021295,115.69703 c 0,0 1.66862,5.92257 3.789643,7.96461 0.617749,2.42084 2.934475,5.62066 3.715883,6.27877 0.495759,0.41755 0.459295,-0.24722 0.444531,-0.0214"
       id="path847"
       inkscape:connector-curvature="0"
       sodipodi:nodetypes="ccsc" />
    <path
       style="fill:#000000;fill-opacity:1;stroke:#000000;stroke-width:0.80502403;stroke-linecap:butt;stroke-linejoin:miter;stroke-miterlimit:4;stroke-dasharray:none;stroke-opacity:1"
       d="m 55.737332,115.93333 c 0,0 0.342731,5.43065 0.709775,7.54032 0.367044,2.10968 1.572328,4.82105 1.572328,4.82105"
       id="path849"
       inkscape:connector-curvature="0"
       sodipodi:nodetypes="czc" />
    <path
       style="fill:#000000;fill-rule:evenodd;stroke:none;stroke-width:0.42599183;stroke-opacity:1"
       d="m 62.74527,133.84782 c 0.06592,-0.6711 0.470368,-1.65814 1.816171,-2.23457 -1.299181,1.52939 -1.172668,2.09548 -1.172668,2.09548 0,0 0.01417,0.69087 0.209575,0.94935 0.172043,0.22751 0.503706,0.86673 0.503706,0.86673 0,0 0.512553,0.73845 -0.729206,1.9078 0.316533,-0.94941 0.280872,-0.54367 0.316533,-0.94941 0.07086,-0.80622 -1.043638,-1.62206 -0.944111,-2.63538 z"
       id="rect874"
       inkscape:connector-curvature="0"
       sodipodi:nodetypes="sccsccss" />
    <path
       style="fill:#000000;fill-opacity:1;fill-rule:evenodd;stroke:none;stroke-width:0.42599183;stroke-opacity:1"
       d="m 60.586785,117.37867 c 4.665629,0.32235 -2.053581,-0.21808 1.33123,0.13315 0.933243,1.24529 0.346933,0.56774 2.034872,2.20603 -0.01901,1.1981 0.06534,0.38109 -0.01901,1.1981 -1.773041,-1.33729 -2.23672,-1.88991 -3.347079,-3.53725 z"
       id="rect877"
       inkscape:connector-curvature="0"
       sodipodi:nodetypes="ccccc" />
    <path
       style="fill:#000000;fill-opacity:1;fill-rule:evenodd;stroke:none;stroke-width:0.42599183;stroke-opacity:1"
       d="m 158.43077,113.21736 1.10269,-0.4841 c 0.76268,2.75621 0.34497,7.24273 -0.65804,8.98604 -1.97975,5.56271 0,0 -1.81838,5.09206 0.35869,2.2204 0.42238,5.19088 -0.17309,6.35132 -1.08836,1.66878 -2.13195,2.33191 -2.65108,4.03365 0.0272,3.02921 -0.0821,3.56871 -0.50022,4.48669 -0.32549,2.69567 -0.36171,4.94378 -1.64114,6.95176 -0.52277,0.82044 -2.29118,1.80782 -2.29118,1.80782 l 0.34399,-2.12996 c 0,0 0.81591,-0.64568 0.96382,-1.11387 0.71491,-2.26289 0.91168,-3.91219 1.20467,-5.89691 0.90973,-1.77532 -0.085,-2.97933 0.39554,-4.30527 1.40401,-3.0128 1.94552,-2.7104 2.96402,-4.62629 0.56877,-3.51664 0.2421,-1.08514 -0.0298,-5.61218 1.15864,-3.20063 1.18745,-3.22179 2.38342,-6.30635 1.29815,-4.39302 0.40477,-7.23441 0.40477,-7.23441 z"
       id="rect880"
       inkscape:connector-curvature="0"
       sodipodi:nodetypes="cccccccsccsccccccc" />
    <path
       style="fill:#000000;fill-opacity:1;fill-rule:evenodd;stroke:none;stroke-width:0.42599183;stroke-opacity:1"
       d="m 156.64416,113.57516 c -1.35714,4.11684 -1.17174,5.78899 -1.97783,8.74803 -0.55778,2.04757 -2.77292,3.59229 -3.99366,4.33599 2.17997,-3.23615 1.35228,-2.11404 2.53687,-4.30894 0.86721,-3.71375 2.33796,-8.15133 3.43462,-8.77508 z"
       id="rect883"
       inkscape:connector-curvature="0"
       sodipodi:nodetypes="csccc" />
    <path
       style="fill:#000000;fill-opacity:1;fill-rule:evenodd;stroke:none;stroke-width:0.42599183;stroke-opacity:1"
       d="m 150.80579,130.78601 c 0,0 0,0 -0.038,-0.93187 1.43306,2.03818 1.54344,2.60423 1.49952,3.87813 -0.0439,1.27628 -0.53376,2.33674 -1.53755,3.32951 0,-0.8748 0,-0.8748 0,-0.8748 0,0 0.64618,-1.15637 0.57474,-2.51039 0.12204,-1.77722 -0.49868,-2.89058 -0.49868,-2.89058 z"
       id="rect886"
       inkscape:connector-curvature="0"
       sodipodi:nodetypes="ccscccc" />
    <path
       style="fill:#000000;fill-opacity:1;fill-rule:evenodd;stroke:none;stroke-width:0.42599183;stroke-opacity:1"
       d="m 73.799586,164.90032 c 0.711516,5.39158 1.292859,14.64654 5.249859,18.71098 2.691212,3.21113 4.235822,5.78796 4.235822,5.78796 -0.0273,0.0654 0.17649,0.5536 0.089,0.47747 -1.1111,-0.96676 -5.378512,-4.26205 -7.108246,-8.39709 -1.350021,-3.56672 -3.029249,-15.4502 -2.466425,-16.57932 z"
       id="rect883-0"
       inkscape:connector-curvature="0"
       sodipodi:nodetypes="cccscc" />
    <path
       style="fill:#000000;fill-rule:evenodd;stroke-width:0.42599183"
       d="m 78.172071,162.20526 c 0,0 0.581831,4.43064 1.283867,6.88282 0.726054,2.66813 0.580163,3.45902 0.737859,7.19756 -0.405024,-0.90129 -0.326592,-2.98701 -0.857385,-5.05284 -0.530792,-2.06584 -0.422149,-1.45959 -1.015347,-4.16631 -0.593198,-2.70671 -0.148994,-4.86123 -0.148994,-4.86123 z"
       id="rect934"
       inkscape:connector-curvature="0"
       sodipodi:nodetypes="ccczzc" />
    <path
       style="fill:#000000;fill-rule:evenodd;stroke-width:0.42599183"
       d="m 97.577747,153.65729 c -2.29813,2.69134 -3.84486,5.0355 -5.68933,7.43588 -1.30172,1.69404 -2.23947,3.44276 -4.11783,5.84577 1.60749,-5.23834 4.76009,-7.92272 9.80716,-13.28165 z"
       id="rect934-9"
       inkscape:connector-curvature="0"
       sodipodi:nodetypes="cscc" />
    <path
       sodipodi:nodetypes="cscc"
       inkscape:connector-curvature="0"
       id="path952"
       d="m 121.16798,156.49084 c 1.44262,2.21651 3.36339,4.66748 4.88009,6.70147 0.94778,1.27106 1.3962,2.0404 2.88306,3.9714 -1.27245,-4.20943 -5.13963,-8.00713 -7.76315,-10.67287 z"
       style="fill:#000000;fill-rule:evenodd;stroke-width:0.33975282" />
    <path
       style="fill:#000000;fill-rule:evenodd;stroke-width:0.42599183"
       d="m 97.577747,153.65729 c 0,0 -1.79702,2.70473 -1.33248,4.04677 1.03631,2.99381 4.249113,3.09973 7.042563,4.72551 1.3248,0.77104 2.41217,2.21857 3.42504,2.18725 1.60856,-0.0498 3.08109,-0.27321 4.48721,-0.85788 1.00399,-0.41747 1.7364,-1.39356 2.69369,-1.83971 1.54575,-0.7204 2.17501,-0.98599 4.83956,-1.27928 0.62346,-0.38845 1.12814,-1.00509 1.43497,-1.67251 0.45555,-0.99091 0.65804,-2.15497 0.49773,-3.23372 -0.11093,-0.74647 -0.98023,-2.0408 -0.98023,-2.0408 v 0 c 0,0 1.28065,1.17852 1.5304,1.97229 0.34556,1.09828 0.18318,2.35497 -0.17343,3.44971 -0.42958,1.57699 -1.67346,2.55656 -1.67346,2.55656 -1.82738,0.48391 -2.90742,0.63974 -4.8691,1.57535 -1.24497,1.16539 -2.948,1.95465 -3.93655,2.35856 -1.54042,0.62943 -2.68623,0.64853 -4.98387,0.28768 -1.34808,-0.61098 -2.52603,-1.70322 -3.35457,-2.25753 -2.707763,-1.81151 -3.895513,-1.6824 -5.089123,-2.75527 -0.8453,-0.75981 -1.74847,-1.75449 -1.81054,-2.88939 -0.10353,-1.89289 2.25219,-4.33359 2.25219,-4.33359 z"
       id="rect960"
       inkscape:connector-curvature="0"
       sodipodi:nodetypes="cssssscssccscccscsssc" />
    <path
       style="fill:#000000;fill-opacity:1;fill-rule:evenodd;stroke:none;stroke-width:0.10465312;stroke-miterlimit:4;stroke-dasharray:none;stroke-opacity:1"
       d="m 93.079827,164.78455 c -0.68568,-0.10368 0.57927,0.0235 -1.4297,-0.18602 3.9987,-1.59317 6.7673,-2.28015 7.94745,-1.6333 2.592423,1.1954 4.190163,2.86805 6.652483,3.7333 1.09115,0.38343 1.62392,0.55197 2.59038,0.58905 1.21448,0.0465 2.89773,-0.0216 4.35052,-0.52481 2.12995,-0.73779 3.54084,-1.97752 7.614,-3.4942 -0.72248,1.20162 -0.49631,0.8724 -0.99148,1.69319 4.06378,-0.58432 6.11638,0.62334 11.84098,3.47741 l -0.68998,0.19585 c 5.13876,3.56828 5.64714,6.50683 5.59651,12.01859 l -1.45555,-2.04336 0.37928,4.72061 -0.98395,-0.94846 -0.0905,7.03756 c 0,0 -0.54943,-2.2643 -1.02928,-2.25076 -0.57032,3.97674 -2.92718,9.66634 -2.92718,9.66634 0,0 -0.12864,-1.82832 -0.41946,-2.3502 -1.47954,6.17806 -4.82277,9.14929 -4.82277,9.14929 0,0 -0.27498,-1.46442 -0.21586,-2.52759 -1.16308,2.85583 -7.11855,7.28046 -7.11855,7.28046 0,0 0.33505,-1.08465 1.11566,-2.32455 -1.72149,1.41378 -5.15948,2.55357 -5.15948,2.55357 0,0 0.27046,-1.14339 0.19408,-1.58751 -1.58598,0.79507 -4.37047,1.67617 -6.49205,2.42454 -0.30921,-0.66674 -0.30635,-0.64822 -0.75454,-1.82921 0,0 -0.46346,0.99947 -0.83782,1.33518 -0.23902,-0.35733 -0.89128,-1.20275 -0.89128,-1.20275 l -0.90443,0.82479 -0.47656,-1.01444 c 0,0 -0.34972,0.65682 -1.18446,1.15329 -0.31541,-0.57823 -0.28823,-0.90265 -0.6016,-1.26754 -0.24949,0.16663 -0.35888,0.96643 -0.69796,1.24557 -0.52932,-0.21728 -1.405723,-1.55916 -1.768073,-1.80498 -0.40913,0.43431 -0.25395,0.56814 -0.39011,1.27862 -0.61607,-0.24478 -1.82366,-1.50285 -2.3333,-1.66336 -0.33342,0.0282 0.78766,1.61345 0.83966,1.86405 -1.39212,-1.20464 -5.08316,-5.06619 -6.00768,-5.76861 0.30209,1.13544 0.17333,0.68666 0.5548,1.75943 -0.39825,0.22742 -3.66721,-3.15436 -4.49118,-4.94515 -0.0132,0.69632 0.0713,0.99815 0.36124,2.10984 -4.00363,-5.117 -5.99674,-8.78168 -4.61599,-17.89203 l -0.98905,1.0205 c 0.61255,-3.83906 1.36987,-5.11702 2.39848,-7.18416 -0.59558,0.61523 -0.57511,0.55855 -1.41237,1.5228 0.25605,-5.56485 2.91536,-8.67142 2.91536,-8.67142 0,0 -0.53519,0.21955 -2.71089,1.99284 1.902,-5.90503 7.18655,-6.58885 9.54226,-7.53226 z"
       id="rect1004"
       inkscape:connector-curvature="0"
       sodipodi:nodetypes="cccssscccccccccccccccccccccccccccccccccccccccccc" />
    <path
       sodipodi:nodetypes="cscc"
       inkscape:connector-curvature="0"
       id="path952-4"
       d="m 136.49195,161.44362 c -0.0316,2.64446 0.20423,5.74945 0.33563,8.28327 0.0821,1.5834 0.0277,2.47219 0.19147,4.9038 1.28003,-4.20712 0.17379,-9.51311 -0.5271,-13.18707 z"
       style="fill:#000000;fill-rule:evenodd;stroke-width:0.33975282" />
    <path
       sodipodi:nodetypes="cscc"
       inkscape:connector-curvature="0"
       id="path952-4-6"
       d="m 143.58935,163.6998 c -0.86758,1.53897 -1.7295,3.43491 -2.46793,4.96219 -0.46144,0.9544 -0.77822,1.45735 -1.46521,2.93531 2.08644,-2.04758 3.15552,-5.51666 3.93314,-7.8975 z"
       style="fill:#000000;fill-rule:evenodd;stroke-width:0.22565217" />
    <path
       style="fill:#ffffff;fill-opacity:1;fill-rule:evenodd;stroke:none;stroke-width:0.10465312;stroke-miterlimit:4;stroke-dasharray:none;stroke-opacity:1"
       d="m 94.111857,176.0167 c -0.0106,0.34336 0,0 -0.0121,0.82808 2.86166,-0.1288 2.54774,0.109 4.2346,0.1805 0,0 1.32041,0.10723 2.715973,-0.38913 0.0715,0.39058 0.0143,0.81156 0.0143,0.81156 l 0.83345,-0.54785 0.0529,1.01514 c 0,0 0.96591,-0.63066 1.45142,-0.98077 3.24621,1.3651 7.06444,1.039 7.747,0.30525 1.39793,0.12897 1.93789,0.11722 2.8783,-0.13814 2.36365,0.20709 4.99181,0.052 6.08532,-0.20863 1.0935,-0.26058 1.23441,0.32209 1.56004,0.93167 0.32565,0.6096 0.58134,0.52869 1.22416,5.60253 0,0 -0.75898,-0.64205 -1.22029,-0.6351 0.797,1.42118 0.77949,3.32285 0.45769,4.94749 -0.0528,0.26695 -0.37151,-0.59783 -0.39237,-0.25345 -0.0837,1.38169 -1.0381,3.30209 -1.68184,3.93458 -0.16442,-0.01 -0.0636,-0.64012 -0.13541,-0.47532 -0.84229,1.9328 -1.85572,2.85843 -3.1295,3.15494 -0.809,0.18831 -2.34542,-0.33804 -2.66426,-1.36975 -0.61982,-2.00557 -0.57939,-3.49853 -0.57035,-5.00308 -0.0818,-0.0726 -0.27012,0.0943 -0.32784,0.002 0.0953,-0.55785 0.44535,-0.87768 0.59343,-1.18976 -0.16421,-0.1478 -0.36777,-0.15585 -0.40082,-0.32462 0.1061,-0.37857 0.38649,-0.72022 0.56788,-1.03194 -0.19475,-0.24969 -0.27411,-0.67863 -0.46783,-1.00576 -0.33749,-0.11078 -0.89989,-0.24721 -1.18204,-0.53892 -0.52901,-0.54692 -0.99328,-1.14312 -1.28539,-1.52515 -0.28784,0.16933 -0.57524,0.3554 -0.90056,0.40815 -0.42132,0.0683 -0.94717,0.033 -1.28026,-0.23385 -0.15399,-0.12333 -0.33169,-0.42967 -0.43538,-0.52946 -0.0824,0.2307 -0.0837,0.42787 -0.2235,0.66609 -0.41516,-0.24775 -0.66201,-0.66282 -0.91697,-0.86831 -0.0831,0.21133 -0.0384,0.40517 -0.22126,0.61132 -0.29662,-0.38669 -0.65177,-1.16251 -0.75497,-1.00619 -0.19065,0.2888 -0.23484,0.51805 -0.40053,0.73662 -0.61643,-0.0755 -0.75583,-0.49355 -1.18699,-0.59047 -0.18951,-0.0427 -0.36033,-0.024 -0.58261,0.0113 0.15029,0.1412 0,0 0.31715,0.15005 0.006,0.35298 -0.0459,0.52102 -0.0459,0.52102 0,0 -0.18206,0.0193 -0.2709,0.003 -0.16524,-0.16577 -0.61373,-0.23892 -0.90876,-0.35436 0.002,0.27978 0.0259,0.40372 -0.0424,0.58799 -0.44902,0.39612 -1.47261,0.98585 -1.62402,2.19139 0.0767,0.13943 0.32596,-0.23025 0.41894,-0.10111 0.0996,0.74023 -0.43006,2.10148 -0.92827,2.43053 0.21038,0.29149 0.54906,0.25667 0.7954,0.35276 -0.3827,0.57854 -1.14755,1.17181 -1.2766,1.16698 -0.2652,-0.0383 -0.42584,0.13122 -0.42584,0.13122 0.15585,0.22807 0.25386,0.44735 0.40865,0.6126 -0.617963,0.68295 -1.083523,0.89157 -1.655133,1.16838 -0.14811,0.0718 -0.38636,-0.14506 -0.4933,-0.02 -0.0956,0.1119 0.20891,0.35171 0.0862,0.43302 -1.85019,-0.95977 -1.54675,-0.5911 -2.30916,-1.56901 -0.14037,-0.27446 0.0178,-0.73318 0.0178,-0.73318 -0.23969,0.0837 -0.69542,0.44456 -0.69542,0.44456 0,0 -1.93653,-1.38005 -2.23619,-2.91724 -0.0614,-0.31491 -0.0701,-0.76999 0.0407,-1.40234 -0.96346,-0.15843 -0.78687,-1.35266 0.26243,-2.29626 -0.51481,-0.33185 -0.94787,-0.79675 -0.9306,-1.49522 -0.19279,-0.26412 -0.53486,-1.03259 -0.51176,-1.41849 0.0331,-1.24134 0.052,-2.45255 1.96339,-3.1877 z"
       id="rect1007"
       inkscape:connector-curvature="0"
       sodipodi:nodetypes="cccccccccczzccsscsssccccccscssccccscscccccccccccscsscccccccccc" />
    <path
       style="fill:#000000;fill-opacity:1;fill-rule:evenodd;stroke:#000000;stroke-width:0.10465312;stroke-miterlimit:4;stroke-dasharray:none;stroke-opacity:1"
       d="m 100.42217,179.57589 c 0,0 4.40353,0.28181 6.86419,0.33854 2.75357,0.0229 2.90817,0.16085 6.37978,-0.18325 -0.95783,0.24273 -2.80797,0.42539 -4.55445,0.42534 -1.74648,-5e-5 -1.03043,-0.008 -3.80763,-0.10336 -2.74166,-0.18724 -4.88189,-0.47727 -4.88189,-0.47727 z"
       id="rect934-80"
       inkscape:connector-curvature="0"
       sodipodi:nodetypes="ccczcc" />
    <path
       style="fill:#0d0d0d;fill-opacity:1;fill-rule:evenodd;stroke:none;stroke-width:0.26565793;stroke-miterlimit:4;stroke-dasharray:none;stroke-opacity:1"
       d="m 73.846637,123.03395 22.37647,0.26894 c 2.44427,0.0295 3.03486,0.79292 4.088013,2.20537 1.45532,1.95184 4.74292,9.74623 -3.388743,19.41804 -3.07967,3.66296 -5.38181,4.36942 -9.03666,5.05625 -3.65484,0.68681 -9.416022,-0.57925 -11.941286,-1.66748 -2.525264,-1.08825 -5.535629,-6.09695 -5.970644,-7.42298 -0.435017,-1.32604 -1.201302,-3.71149 -0.430318,-13.55498 -0.07564,-2.38274 1.919385,-4.33182 4.303168,-4.30316 z"
       id="rect1034"
       inkscape:connector-curvature="0"
       sodipodi:nodetypes="sssszzzcs" />
    <path
       sodipodi:nodetypes="scscczcs"
       inkscape:connector-curvature="0"
       id="path1037"
       d="m 142.5138,123.24694 c 0,0 -15.65298,-1.74782 -26.90263,0.83947 -2.44333,0.0737 -3.20106,6.93872 -2.71874,8.63328 0.67463,2.37023 0.65804,6.247 5.06228,11.35462 5.50928,5.20975 15.83332,5.42559 22.49934,2.74217 2.52527,-1.08824 5.15528,-4.72769 5.51422,-6.16783 0.35895,-1.44014 1.27738,-3.21702 0.5064,-13.06052 0.0757,-2.38274 -1.23567,-3.84257 -3.96087,-4.34119 z"
       style="fill:#0d0d0d;fill-opacity:1;fill-rule:evenodd;stroke:none;stroke-width:0.26565793;stroke-miterlimit:4;stroke-dasharray:none;stroke-opacity:1" />
    <path
       style="opacity:1;fill:#ffffff;fill-opacity:1;fill-rule:nonzero;stroke:none;stroke-width:0.26565793;stroke-miterlimit:4;stroke-dasharray:none;stroke-opacity:1"
       d="m 71.464715,141.41447 c 1.494307,5.50139 8.851136,7.18284 15.378202,6.22029 6.87712,-1.02831 11.33834,-6.29711 12.89501,-10.7097 z"
       id="path1039"
       inkscape:connector-curvature="0"
       sodipodi:nodetypes="cccc" />
    <path
       sodipodi:nodetypes="cccc"
       inkscape:connector-curvature="0"
       id="path1044"
       d="m 117.47184,140.56248 c 1.49432,5.50139 8.85114,7.18284 15.37821,6.22029 6.87711,-1.02831 11.33833,-6.29711 12.89501,-10.7097 z"
       style="opacity:1;fill:#ffffff;fill-opacity:1;fill-rule:nonzero;stroke:none;stroke-width:0.26565793;stroke-miterlimit:4;stroke-dasharray:none;stroke-opacity:1" />
    <path
       style="fill:#000000;fill-opacity:1;fill-rule:evenodd;stroke:none;stroke-width:0.42599183;stroke-opacity:1"
       d="m 101.37623,125.26549 c 4.2647,-1.80032 11.12055,0.038 11.12055,0.038 1.43033,0.01 1.47889,-1.05449 2.84814,-0.87928 -0.66165,1.23702 -1.97334,8.32519 -1.97334,8.32519 -3.0349,-0.59588 -4.09101,-1.5721 -11.27269,0.15215 -2.06008,-5.92487 -2.133813,-5.85018 -2.736373,-8.18507 0,0 1.225793,0.24713 2.013713,0.54898 z"
       id="rect1046"
       inkscape:connector-curvature="0"
       sodipodi:nodetypes="csccccc" />
    <path
       style="fill:#000000;fill-opacity:1;fill-rule:evenodd;stroke:none;stroke-width:0.42599183;stroke-opacity:1"
       d="m 64.487246,123.94839 6.094897,2.58191 -0.753054,7.69191 -4.857737,-4.30316 z"
       id="rect1052"
       inkscape:connector-curvature="0"
       sodipodi:nodetypes="ccccc" />
    <path
       sodipodi:nodetypes="ccccc"
       inkscape:connector-curvature="0"
       id="path1064"
       d="m 150.58311,121.74301 -4.66948,3.87286 0.32275,6.50854 4.34673,-4.78727 z"
       style="fill:#000000;fill-opacity:1;fill-rule:evenodd;stroke:none;stroke-width:0.42599183;stroke-opacity:1" />
    <path
       style="fill:#ffffff;fill-opacity:1;fill-rule:evenodd;stroke:none;stroke-width:0.10465312;stroke-miterlimit:4;stroke-dasharray:none;stroke-opacity:1"
       d="m 49.869926,111.27728 0.01046,-0.6427 c 25.149483,5.17795 37.838101,6.60853 53.513634,6.28082 21.97017,-0.4593 30.37087,-3.27809 39.42863,-4.99682 0.01,0.41502 0,0 0.0171,0.54278 -3.80758,1.39841 -20.13204,6.36093 -42.02892,6.70957 -22.176137,0.35307 -47.367841,-6.59672 -50.940947,-7.89365 z"
       id="rect934-9-1"
       inkscape:connector-curvature="0"
       sodipodi:nodetypes="ccsccscc" />
    <path
       style="opacity:1;fill:#000000;fill-opacity:1;fill-rule:nonzero;stroke:none;stroke-width:0.10465312;stroke-miterlimit:4;stroke-dasharray:none;stroke-opacity:1"
       d="m 147.41416,49.184584 c 3.06028,1.961607 7.55784,19.078761 7.33218,30.675887 2.94255,0.76131 4.31222,6.81698 4.52716,9.70618 -19.80721,-0.31546 -103.183737,12.391049 -102.511271,3.55435 0.277176,-3.64226 2.113299,-33.156305 2.654349,-35.842496 0.771627,-3.830945 6.822123,-10.254193 18.813746,-5.99154 7.082183,-1.923733 31.900896,-11.955889 53.567306,-0.454977 11.57396,-4.91334 15.61653,-1.647404 15.61653,-1.647404"
       id="path1084"
       inkscape:connector-curvature="0"
       sodipodi:nodetypes="ccccsccc" />
    <path
       style="fill:#ffffff;fill-rule:evenodd;stroke:#000000;stroke-width:0.42666268;stroke-miterlimit:4;stroke-dasharray:none;stroke-opacity:1"
       d="m 154.49183,83.521331 c 0.28824,-1.03788 -0.40196,-1.6971 0.41615,-3.23297 1.41285,-0.33204 1.5465,1.17063 2.39133,2.99839 0.99815,2.15946 1.74128,8.22215 1.87401,11.02674 0.11174,2.36289 -3.44296,3.36406 -1.8303,7.036819 1.39899,3.18615 0.66508,3.79907 -0.61887,4.36738 -2.79137,1.09976 -5.16479,0.18421 -5.08435,-3.69107 0.11544,-3.925579 1.43044,-6.845289 -0.46183,-11.688619 -1.3433,-3.43822 -1.34816,-7.53291 -0.52489,-8.29828 0.63106,-0.75825 2.26418,1.15666 3.83875,1.48161 z"
       id="rect1098"
       inkscape:connector-curvature="0"
       sodipodi:nodetypes="cccssccscc" />
  </g>
</svg>
