<?xml version="1.0" encoding="UTF-8" standalone="no"?>
<!-- Created with Inkscape (http://www.inkscape.org/) -->

<svg
   xmlns:dc="http://purl.org/dc/elements/1.1/"
   xmlns:cc="http://creativecommons.org/ns#"
   xmlns:rdf="http://www.w3.org/1999/02/22-rdf-syntax-ns#"
   xmlns:svg="http://www.w3.org/2000/svg"
   xmlns="http://www.w3.org/2000/svg"
   xmlns:sodipodi="http://sodipodi.sourceforge.net/DTD/sodipodi-0.dtd"
   xmlns:inkscape="http://www.inkscape.org/namespaces/inkscape"
   width="210mm"
   height="297mm"
   viewBox="0 0 210 297"
   version="1.1"
   id="svg8"
   inkscape:version="0.92.4 (5da689c313, 2019-01-14)"
   sodipodi:docname="Hora-de-Aventura-2.svg">
  <defs
     id="defs2" />
  <sodipodi:namedview
     id="base"
     pagecolor="#ffffff"
     bordercolor="#666666"
     borderopacity="1.0"
     inkscape:pageopacity="0.0"
     inkscape:pageshadow="2"
     inkscape:zoom="0.7"
     inkscape:cx="21.042913"
     inkscape:cy="382.93293"
     inkscape:document-units="mm"
     inkscape:current-layer="layer1"
     showgrid="false"
     inkscape:window-width="1920"
     inkscape:window-height="1017"
     inkscape:window-x="-8"
     inkscape:window-y="-8"
     inkscape:window-maximized="1" />
  <metadata
     id="metadata5">
    <rdf:RDF>
      <cc:Work
         rdf:about="">
        <dc:format>image/svg+xml</dc:format>
        <dc:type
           rdf:resource="http://purl.org/dc/dcmitype/StillImage" />
        <dc:title></dc:title>
      </cc:Work>
    </rdf:RDF>
  </metadata>
  <g
     inkscape:label="Camada 1"
     inkscape:groupmode="layer"
     id="layer1">
    <path
       style="opacity:1;vector-effect:none;fill:#fec12a;fill-opacity:1;stroke:#000000;stroke-width:0.64329255;stroke-linecap:butt;stroke-linejoin:miter;stroke-miterlimit:4;stroke-dasharray:none;stroke-dashoffset:0;stroke-opacity:1"
       d="m 87.863528,130.86757 c 10.774871,-4.44353 18.939622,-7.05725 29.427942,-9.49495 l -2.13519,-5.69342 c -9.64049,1.80454 -18.332021,4.69643 -29.371231,8.6959 z"
       id="path4585"
       inkscape:connector-curvature="0"
       sodipodi:nodetypes="ccccc" />
    <path
       style="opacity:1;vector-effect:none;fill:#fec12a;fill-opacity:1;stroke:#000000;stroke-width:0.64329255;stroke-linecap:butt;stroke-linejoin:miter;stroke-miterlimit:4;stroke-dasharray:none;stroke-dashoffset:0;stroke-opacity:1"
       d="m 74.32448,177.50106 c -16.627402,3.92659 -24.201006,11.31264 -31.305472,19.60391 -4.090609,-18.41948 -12.214365,13.64844 0.759841,6.38267 17.981828,-16.28049 23.760432,-19.6103 35.169013,-23.10152 5.218886,-1.59707 10.083093,-5.2409 11.220381,-11.15283 C 93.640762,151.18221 85.831875,118.434 81.922895,112.91453 72.691321,93.926511 63.979353,93.326685 53.967903,94.005521 34.295944,95.339399 23.570046,112.66536 26.454466,126.59168 c 3.190827,29.68298 10.523148,57.21507 30.697599,57.59599"
       id="path4589"
       inkscape:connector-curvature="0"
       sodipodi:nodetypes="cccsscscc" />
    <path
       style="opacity:1;vector-effect:none;fill:#991a00;fill-opacity:1;stroke:#000000;stroke-width:0.64329255;stroke-linecap:butt;stroke-linejoin:round;stroke-miterlimit:4;stroke-dasharray:none;stroke-dashoffset:0;stroke-opacity:1"
       d="m 68.105765,131.14819 c -4.001983,1.27461 -8.536376,0.94828 -8.77018,-1.64686 l -0.207936,9.55176 c 2.075647,0.12495 6.543145,2.94378 11.549591,-3.26733 z"
       id="path4614"
       inkscape:connector-curvature="0"
       sodipodi:nodetypes="ccccc" />
    <path
       sodipodi:nodetypes="ccc"
       inkscape:connector-curvature="0"
       id="path4624"
       d="m 65.213349,131.7242 c 0.458322,2.8195 -2.240266,2.56723 -2.487757,0.21906 z"
       style="opacity:1;vector-effect:none;fill:#ffffff;fill-opacity:1;stroke:#000000;stroke-width:0.32164627;stroke-linecap:butt;stroke-linejoin:round;stroke-miterlimit:4;stroke-dasharray:none;stroke-dashoffset:0;stroke-opacity:1" />
    <path
       style="opacity:1;vector-effect:none;fill:#ffffff;fill-opacity:1;stroke:#000000;stroke-width:0.32164627;stroke-linecap:butt;stroke-linejoin:round;stroke-miterlimit:4;stroke-dasharray:none;stroke-dashoffset:0;stroke-opacity:1"
       d="m 62.774892,131.91057 c -0.446364,2.82143 -2.93072,1.73792 -2.431493,-0.56988 z"
       id="path4618"
       inkscape:connector-curvature="0"
       sodipodi:nodetypes="ccc" />
    <path
       style="opacity:1;vector-effect:none;fill:#ffffff;fill-opacity:1;stroke:#000000;stroke-width:0.32164627;stroke-linecap:butt;stroke-linejoin:round;stroke-miterlimit:4;stroke-dasharray:none;stroke-dashoffset:0;stroke-opacity:1"
       d="m 68.105765,131.14819 c 0.367578,2.83277 -2.72044,2.93091 -2.892416,0.57601 z"
       id="path4626"
       inkscape:connector-curvature="0"
       sodipodi:nodetypes="ccc" />
    <path
       style="opacity:1;vector-effect:none;fill:#f58586;fill-opacity:1;stroke:#000000;stroke-width:0.40205786;stroke-linecap:butt;stroke-linejoin:round;stroke-miterlimit:4;stroke-dasharray:none;stroke-dashoffset:0;stroke-opacity:1"
       d="m 59.963479,135.02592 -0.83583,4.02717 c 2.187347,0.60874 4.398617,0.95431 6.686608,0.4559 -1.403544,-3.01511 -3.606676,-4.54528 -5.850778,-4.48307 z"
       id="path4616"
       inkscape:connector-curvature="0"
       sodipodi:nodetypes="cccc" />
    <path
       inkscape:connector-curvature="0"
       id="path4612"
       d="m 85.092755,110.80908 a 10.465958,10.517256 0 0 1 -10.465953,10.51726 10.465958,10.517256 0 0 1 -10.46596,-10.51726 10.465958,10.517256 0 0 1 10.46596,-10.51725 10.465958,10.517256 0 0 1 10.465953,10.51725 z"
       style="opacity:1;vector-effect:none;fill:#000000;fill-opacity:1;fill-rule:evenodd;stroke:#000000;stroke-width:0.06994166;stroke-linecap:butt;stroke-linejoin:miter;stroke-miterlimit:4;stroke-dasharray:none;stroke-dashoffset:0;stroke-opacity:1" />
    <path
       style="opacity:1;vector-effect:none;fill:#000000;fill-opacity:1;fill-rule:evenodd;stroke:#000000;stroke-width:0.0781788;stroke-linecap:butt;stroke-linejoin:miter;stroke-miterlimit:4;stroke-dasharray:none;stroke-dashoffset:0;stroke-opacity:1"
       d="m 54.000068,121.57484 a 11.706411,11.747994 0 0 1 -11.706405,11.748 11.706411,11.747994 0 0 1 -11.706413,-11.748 11.706411,11.747994 0 0 1 11.706413,-11.74799 11.706411,11.747994 0 0 1 11.706405,11.74799 z"
       id="path4609"
       inkscape:connector-curvature="0" />
    <path
       style="opacity:1;vector-effect:none;fill:#ffffff;fill-opacity:1;stroke:#000000;stroke-width:0.64329255;stroke-linecap:butt;stroke-linejoin:miter;stroke-miterlimit:4;stroke-dasharray:none;stroke-dashoffset:0;stroke-opacity:1"
       d="M 52.402451,127.85875 C 56.433668,114.82316 44.96705,109.46178 39.507515,111.41771 28.3626,115.59158 36.877928,138.87062 52.402451,127.85875 Z"
       id="path4605"
       inkscape:connector-curvature="0"
       sodipodi:nodetypes="ccc" />
    <path
       sodipodi:nodetypes="ccc"
       inkscape:connector-curvature="0"
       id="path4607"
       d="m 74.104616,118.66144 c -10.100625,-5.13884 -5.546112,-14.57498 -0.753602,-16.80228 10.735835,-4.212731 17.560775,19.92351 0.753602,16.80228 z"
       style="opacity:1;vector-effect:none;fill:#ffffff;fill-opacity:1;stroke:#000000;stroke-width:0.54378134;stroke-linecap:butt;stroke-linejoin:miter;stroke-miterlimit:4;stroke-dasharray:none;stroke-dashoffset:0;stroke-opacity:1" />
    <path
       style="opacity:1;vector-effect:none;fill:#fec12a;fill-opacity:1;stroke:#000000;stroke-width:0.64329255;stroke-linecap:butt;stroke-linejoin:miter;stroke-miterlimit:4;stroke-dasharray:none;stroke-dashoffset:0;stroke-opacity:1"
       d="m 60.57135,129.55506 c -1.643605,31.45932 -22.997935,6.86392 -6.078737,-10.40983 6.294328,-6.01722 15.059164,-3.93857 17.110686,-1.71003 16.461274,17.88162 1.370055,33.47128 -5.029201,10.44821 z"
       id="path4603"
       inkscape:connector-curvature="0"
       sodipodi:nodetypes="ccscc" />
    <path
       style="opacity:1;vector-effect:none;fill:#fec12a;fill-opacity:1;stroke:#000000;stroke-width:0.64329255;stroke-linecap:butt;stroke-linejoin:miter;stroke-miterlimit:4;stroke-dasharray:none;stroke-dashoffset:0;stroke-opacity:1"
       d="m 40.587523,171.27036 c -29.258627,-22.96973 -21.402392,4.90295 -8.206291,15.19683 -10.944915,-1.60017 -7.289807,6.38901 5.268582,2.12656 7.73175,-2.96263 -34.3319127,-34.07964 3.849511,-12.91631"
       id="path4587"
       inkscape:connector-curvature="0"
       sodipodi:nodetypes="cccc" />
    <path
       style="opacity:1;vector-effect:none;fill:#fec12a;fill-opacity:1;stroke:#000000;stroke-width:0.64329255;stroke-linecap:butt;stroke-linejoin:round;stroke-miterlimit:4;stroke-dasharray:none;stroke-dashoffset:0;stroke-opacity:1"
       d="m 30.86155,144.22 c -8.473168,17.82372 -13.962423,17.71849 -9.238212,20.71589 2.016811,1.27962 12.360714,-3.31588 19.627588,-3.96213 1.644151,-0.80304 3.744518,2.93924 4.776705,5.89046 1.493468,4.27007 3.18893,4.90361 1.284486,-0.53283 1.434132,3.56876 3.855196,5.9296 1.329718,-0.22795 2.266054,3.84318 3.915408,4.97328 2.055392,-0.80436 -3.457987,-11.97092 -14.379929,-8.30975 -21.49981,-6.54526 -1.717849,0.42573 -3.717282,1.19851 -4.672443,1.95093 0.958433,-0.77903 2.365065,-1.62947 4.612866,-1.95188 l 5.104237,-10.15476"
       id="path4595"
       inkscape:connector-curvature="0"
       sodipodi:nodetypes="cscscccsccc" />
    <path
       style="opacity:1;vector-effect:none;fill:#fec12a;fill-opacity:1;stroke:#000000;stroke-width:0.64329255;stroke-linecap:butt;stroke-linejoin:miter;stroke-miterlimit:4;stroke-dasharray:none;stroke-dashoffset:0;stroke-opacity:1"
       d="m 29.49383,137.07749 c 4.227751,7.77304 5.639906,0.0979 4.95201,-1.96636"
       id="path4599"
       inkscape:connector-curvature="0"
       sodipodi:nodetypes="cc" />
    <path
       style="opacity:1;vector-effect:none;fill:#02a7df;fill-opacity:1;stroke:#000800;stroke-width:0.64329255;stroke-linecap:butt;stroke-linejoin:miter;stroke-miterlimit:4;stroke-dasharray:none;stroke-dashoffset:0;stroke-opacity:1"
       d="m 117.7368,126.13943 c 4.86338,12.37544 3.61572,26.02685 3.00882,39.54447 16.70703,-3.69616 33.96679,-7.05865 51.46689,1.93425 4.18943,-12.24833 2.37246,-31.33887 -0.31697,-51.14993 l -54.15874,9.67121"
       id="path4531"
       inkscape:connector-curvature="0"
       sodipodi:nodetypes="ccccc" />
    <path
       style="opacity:1;vector-effect:none;fill:#ffffff;fill-opacity:1;stroke:#000800;stroke-width:0.64329255;stroke-linecap:butt;stroke-linejoin:miter;stroke-miterlimit:4;stroke-dasharray:none;stroke-dashoffset:0;stroke-opacity:1"
       d="m 117.7368,126.13943 c -2.46009,-7.27111 -9.61165,-22.87797 -12.92815,-32.742836 -2.90473,-8.640048 2.53003,-11.471898 6.26576,-2.93316 12.80401,-9.204223 26.62641,-12.807253 41.04889,-13.109854 -3.07928,-8.878622 2.7157,-10.347615 7.32317,-1.005586 4.34933,8.818604 10.34167,24.452766 12.44907,40.120226 -14.05962,6.05252 -29.92153,19.03383 -54.15874,9.67121 z"
       id="path4529"
       inkscape:connector-curvature="0"
       sodipodi:nodetypes="csccscc" />
    <path
       style="opacity:1;vector-effect:none;fill:#fde2db;fill-opacity:1;stroke:#000800;stroke-width:0.64329255;stroke-linecap:butt;stroke-linejoin:miter;stroke-miterlimit:4;stroke-dasharray:none;stroke-dashoffset:0;stroke-opacity:1"
       d="m 114.40561,111.74008 c -3.13921,-7.06373 2.3313,-18.953946 13.53968,-22.458683 14.83009,-4.637202 24.55879,1.550237 26.757,10.208492 2.51165,9.892831 -6.66247,18.514621 -15.0441,21.169191 -8.38163,2.65457 -20.71875,1.28284 -25.25258,-8.919 z"
       id="path4565"
       inkscape:connector-curvature="0"
       sodipodi:nodetypes="sssss" />
    <path
       style="opacity:1;vector-effect:none;fill:#b3dba9;fill-opacity:1;stroke:none;stroke-width:0.64329255;stroke-linecap:butt;stroke-linejoin:miter;stroke-miterlimit:4;stroke-dasharray:none;stroke-dashoffset:0;stroke-opacity:1"
       d="m 171.88807,111.92659 c -7.72283,4.16826 -11.40351,10.83538 -11.93884,16.10864 1.98091,0.4187 4.02531,0.58344 6.25676,0 -0.0586,-2.54799 1.29657,-7.60074 6.66981,-10.29567 z"
       id="path4578"
       inkscape:connector-curvature="0"
       sodipodi:nodetypes="ccccc" />
    <path
       style="opacity:1;vector-effect:none;fill:#7aba48;fill-opacity:1;stroke:none;stroke-width:0.64329255;stroke-linecap:butt;stroke-linejoin:miter;stroke-miterlimit:4;stroke-dasharray:none;stroke-dashoffset:0;stroke-opacity:1"
       d="m 159.92222,128.03547 c -0.71852,9.09884 7.98316,15.53404 21.4638,6.87662 l -2.65944,-4.36939 c -5.70987,3.40851 -12.14159,1.93536 -12.52059,-2.54547 -2.47235,0.76827 -4.27633,0.19979 -6.28377,0.0382 z"
       id="path4573"
       inkscape:connector-curvature="0"
       sodipodi:nodetypes="ccccc" />
    <path
       style="opacity:1;vector-effect:none;fill:none;fill-opacity:1;stroke:#000100;stroke-width:0.64329255;stroke-linecap:butt;stroke-linejoin:miter;stroke-miterlimit:4;stroke-dasharray:none;stroke-dashoffset:0;stroke-opacity:1"
       d="m 178.72669,130.54286 c -9.00105,5.37319 -19.76262,-2.23139 -5.85078,-12.80333 l -0.98779,-5.81279 c -21.26931,11.47976 -11.90327,36.72935 9.49802,22.98521"
       id="path4541"
       inkscape:connector-curvature="0"
       sodipodi:nodetypes="cccc" />
    <path
       style="opacity:1;vector-effect:none;fill:#77bb47;fill-opacity:1;stroke:#000800;stroke-width:0.64329255;stroke-linecap:butt;stroke-linejoin:miter;stroke-miterlimit:4;stroke-dasharray:none;stroke-dashoffset:0;stroke-opacity:1"
       d="m 173.72232,128.39604 c 15.79431,-1.8664 17.00713,-5.15827 22.0478,-8.05933 3.38178,14.06252 -3.08041,22.82456 -10.07203,27.41589 -4.02758,2.64486 -8.51375,3.7786 -11.00865,4.28416 z"
       id="path4559"
       inkscape:connector-curvature="0"
       sodipodi:nodetypes="ccscc" />
    <path
       style="opacity:1;vector-effect:none;fill:none;fill-opacity:1;stroke:#000800;stroke-width:0.80411571;stroke-linecap:butt;stroke-linejoin:miter;stroke-miterlimit:4;stroke-dasharray:none;stroke-dashoffset:0;stroke-opacity:1"
       d="m 169.14708,102.2285 c 36.88761,2.94972 35.20957,44.44029 5.54236,49.80826 0.49623,-14.58199 -1.1339,-30.99737 -5.54236,-49.80826 z"
       id="path4563"
       inkscape:connector-curvature="0"
       sodipodi:nodetypes="ccc" />
    <path
       sodipodi:nodetypes="cccc"
       inkscape:connector-curvature="0"
       id="path4561"
       d="m 173.72232,128.39604 c 11.43372,-1.36598 16.84174,-4.07319 21.98098,-8.19296 -3.28901,-12.98747 -19.23969,-18.26486 -26.55622,-17.97458 2.0192,8.06458 2.95028,16.09268 4.57524,26.16754 z"
       style="opacity:1;vector-effect:none;fill:#b3dba9;fill-opacity:1;stroke:#000800;stroke-width:0.64300001;stroke-linecap:butt;stroke-linejoin:round;stroke-miterlimit:4;stroke-dasharray:none;stroke-dashoffset:0;stroke-opacity:1" />
    <path
       style="opacity:1;vector-effect:none;fill:#1078c1;fill-opacity:1;stroke:#000800;stroke-width:0.64329255;stroke-linecap:butt;stroke-linejoin:round;stroke-miterlimit:4;stroke-dasharray:none;stroke-dashoffset:0;stroke-opacity:1"
       d="m 122.14257,169.0151 c -5.1302,-8.80756 -5.97704,-9.0651 -7.95188,-10.53087 1.28874,4.26706 0.23594,4.98646 -1.04627,7.40854 5.82498,22.00849 54.63585,22.7402 59.06809,1.72538 -17.33473,-9.52061 -34.66946,-6.83516 -52.00418,-1.90738 z"
       id="path4543"
       inkscape:connector-curvature="0"
       sodipodi:nodetypes="cccccc" />
    <path
       sodipodi:nodetypes="ccccc"
       inkscape:connector-curvature="0"
       id="path4557"
       d="m 143.4272,195.73403 c -0.77619,5.01523 -4.74447,5.61667 -8.44848,7.43634 -5.93644,2.71043 -3.69526,11.53878 11.93387,-0.27899 1.17567,-1.01635 2.43724,-4.79885 2.11314,-7.19914 -1.73318,0.50351 -3.19774,0.16745 -5.59853,0.0418 z"
       style="opacity:1;vector-effect:none;fill:#010103;fill-opacity:1;stroke:#000800;stroke-width:0.64329255;stroke-linecap:butt;stroke-linejoin:round;stroke-miterlimit:4;stroke-dasharray:none;stroke-dashoffset:0;stroke-opacity:1" />
    <path
       style="opacity:1;vector-effect:none;fill:#ffffff;fill-opacity:1;stroke:#000800;stroke-width:0.64329255;stroke-linecap:butt;stroke-linejoin:miter;stroke-miterlimit:4;stroke-dasharray:none;stroke-dashoffset:0;stroke-opacity:1"
       d="m 96.51185,185.25145 6.38267,-0.15197 c 7.48129,3.09025 2.49071,8.24279 -3.319533,8.26342 -5.613299,0.0199 -10.234621,-5.4756 -3.063137,-8.11145 z"
       id="path4551"
       inkscape:connector-curvature="0"
       sodipodi:nodetypes="ccsc" />
    <path
       style="opacity:1;vector-effect:none;fill:#02a7df;fill-opacity:1;stroke:#000800;stroke-width:0.64329255;stroke-linecap:butt;stroke-linejoin:miter;stroke-miterlimit:4;stroke-dasharray:none;stroke-dashoffset:0;stroke-opacity:1"
       d="m 119.763,133.58222 c -2.53073,1.96935 -5.56724,5.45608 -8.35826,8.20629 -1.4249,-2.46909 -3.58244,-3.4729 -6.38266,-3.19133 4.23824,-4.16072 8.47648,-11.06784 12.71472,-12.45775 z"
       id="path4533"
       inkscape:connector-curvature="0"
       sodipodi:nodetypes="ccccc" />
    <path
       sodipodi:nodetypes="cccccc"
       inkscape:connector-curvature="0"
       id="path4549"
       d="m 114.19069,158.48423 c -14.11021,-12.28802 -15.530325,12.67666 -17.516998,30.59156 2.047485,0.44682 3.936148,0.52308 5.554488,-0.0314 0.16737,-10.61986 4.03231,-32.39092 7.04901,-27.42396 l 3.86723,4.27241 c 2.79811,-4.53456 1.46366,-5.45913 1.04627,-7.40855 z"
       style="opacity:1;vector-effect:none;fill:#f9e3d8;fill-opacity:1;stroke:#000800;stroke-width:0.64329255;stroke-linecap:butt;stroke-linejoin:miter;stroke-miterlimit:4;stroke-dasharray:none;stroke-dashoffset:0;stroke-opacity:1" />
    <path
       style="opacity:1;vector-effect:none;fill:#f9e3d8;fill-opacity:1;stroke:#000800;stroke-width:0.64329255;stroke-linecap:butt;stroke-linejoin:round;stroke-miterlimit:4;stroke-dasharray:none;stroke-dashoffset:0;stroke-opacity:1"
       d="m 111.40474,141.78851 c -2.56492,3.92784 -10.94546,9.63105 -6.37642,14.67364 7.06841,7.80102 12.96635,13.86732 15.18001,25.55534 0.1534,6.93855 -1.31421,2.47215 -2.14916,0.32237 1.51957,7.65613 -0.88559,2.79265 -1.71932,0.53729 0.95835,1.18393 0.99396,9.0614 -1.93424,0.10746 -2.59674,-13.74895 -8.16504,-18.34009 -13.88567,-23.83231 -4.193486,-4.02607 -2.613805,-11.77235 4.50214,-20.55512 2.95876,-0.0791 5.68198,0.1656 6.38266,3.19133 z"
       id="path4535"
       inkscape:connector-curvature="0"
       sodipodi:nodetypes="csccccscc" />
    <path
       sodipodi:nodetypes="ccsc"
       inkscape:connector-curvature="0"
       id="path4553"
       d="m 143.72194,188.66381 6.10033,-0.14272 c 7.15036,2.90204 2.38054,7.74074 -3.17269,7.76011 -5.36499,0.0187 -9.78189,-5.14208 -2.92764,-7.61739 z"
       style="opacity:1;vector-effect:none;fill:#ffffff;fill-opacity:1;stroke:#000800;stroke-width:0.60944986;stroke-linecap:butt;stroke-linejoin:miter;stroke-miterlimit:4;stroke-dasharray:none;stroke-dashoffset:0;stroke-opacity:1" />
    <path
       style="opacity:1;vector-effect:none;fill:#f9e3d8;fill-opacity:1;stroke:#000800;stroke-width:0.64329255;stroke-linecap:butt;stroke-linejoin:miter;stroke-miterlimit:4;stroke-dasharray:none;stroke-dashoffset:0;stroke-opacity:1"
       d="m 159.86026,162.03034 c -9.8119,-30.55584 -13.98134,10.57853 -16.01029,29.90771 1.81904,0.57557 3.72895,0.78756 5.85078,0.15197 0.35083,-10.58838 1.66825,-21.10785 4.25512,-31.07752 l -0.55225,2.39277 0.62823,3.458 c 1.19144,2.09793 4.73934,0.80767 5.82841,-4.83293 z"
       id="path4547"
       inkscape:connector-curvature="0"
       sodipodi:nodetypes="ccccccc" />
    <path
       style="opacity:1;vector-effect:none;fill:#f9e3d8;fill-opacity:1;stroke:#000800;stroke-width:0.64329255;stroke-linecap:butt;stroke-linejoin:round;stroke-miterlimit:4;stroke-dasharray:none;stroke-dashoffset:0;stroke-opacity:1"
       d="m 161.9595,138.81945 c -0.61446,1.94277 -0.80069,3.02908 -0.80975,3.76102 -3.22092,2.15938 -5.77359,4.75291 -8.40848,6.79091 -19.41875,15.01979 -21.7422,29.11006 -22.4319,34.79527 0.0886,7.62988 1.84122,4.37054 1.93423,0.10745 -0.4669,2.93259 1.06973,8.28096 1.71933,0.10746 -0.48149,4.17304 1.64756,7.53113 2.25661,0.10746 0.79081,-9.69071 6.64748,-19.02454 17.2039,-26.98712 3.12117,-2.35425 8.3996,-6.99529 10.55867,-9.44425 1.04898,-1.18981 2.88899,-4.13864 3.93748,-7.1965 -1.44185,-3.13236 -3.73416,-2.43768 -5.96009,-2.0417 z"
       id="path4539"
       inkscape:connector-curvature="0"
       sodipodi:nodetypes="ccsccccsscc" />
    <path
       style="opacity:1;vector-effect:none;fill:#02a7df;fill-opacity:1;stroke:#000800;stroke-width:0.64329255;stroke-linecap:butt;stroke-linejoin:round;stroke-miterlimit:4;stroke-dasharray:none;stroke-dashoffset:0;stroke-opacity:1"
       d="m 171.35824,129.68553 -3.43865,11.17562 c -1.23443,-2.21865 -3.10717,-2.65539 -5.96009,-2.0417 1.88257,-3.80739 3.13991,-7.48904 3.97158,-11.00948 0.98323,-4.162 2.53935,-7.72791 6.16628,-9.48879 0.72915,4.49201 1.92743,10.75409 1.94596,13.62097 -0.73174,0.56236 -1.71794,1.14264 -3.43728,0.32237 z"
       id="path4537"
       inkscape:connector-curvature="0"
       sodipodi:nodetypes="cccscccc" />
    <path
       style="opacity:1;vector-effect:none;fill:none;fill-opacity:1;stroke:#000800;stroke-width:0.64329255;stroke-linecap:butt;stroke-linejoin:round;stroke-miterlimit:4;stroke-dasharray:none;stroke-dashoffset:0;stroke-opacity:1"
       d="m 161.90196,174.38798 c 0.10746,-0.7522 -2.0417,-12.35764 -2.0417,-12.35764 -1.48733,6.72072 -6.17393,7.21851 -6.09902,3.31815 -1.49779,2.44121 1.51226,8.48061 2.66037,11.72594"
       id="path4545"
       inkscape:connector-curvature="0"
       sodipodi:nodetypes="cccc" />
    <path
       style="opacity:1;vector-effect:none;fill:none;fill-opacity:1;stroke:#000000;stroke-width:0.64329255;stroke-linecap:butt;stroke-linejoin:miter;stroke-miterlimit:4;stroke-dasharray:none;stroke-dashoffset:0;stroke-opacity:1"
       d="m 127.81731,109.87517 c 3.4251,1.64265 6.09213,-0.20183 8.51023,-3.19134"
       id="path4567"
       inkscape:connector-curvature="0"
       sodipodi:nodetypes="cc" />
    <path
       style="opacity:1;vector-effect:none;fill:#000000;fill-opacity:1;stroke:none;stroke-width:0.08627714;stroke-linecap:butt;stroke-linejoin:miter;stroke-miterlimit:4;stroke-dasharray:none;stroke-dashoffset:0;stroke-opacity:1"
       d="m 117.81583,104.26152 c -0.93648,0.0225 -1.25231,2.78177 0.0521,2.78166 1.23105,-1.1e-4 1.10311,-2.80945 -0.0521,-2.78166 z"
       id="path4569"
       inkscape:connector-curvature="0"
       sodipodi:nodetypes="sss" />
    <path
       sodipodi:nodetypes="sss"
       inkscape:connector-curvature="0"
       id="path4571"
       d="m 140.15925,99.484859 c -1.07553,0.0246 -1.43824,3.040021 0.0599,3.039901 1.41384,-1.2e-4 1.2669,-3.070271 -0.0599,-3.039901 z"
       style="opacity:1;vector-effect:none;fill:#000000;fill-opacity:1;stroke:none;stroke-width:0.09665741;stroke-linecap:butt;stroke-linejoin:miter;stroke-miterlimit:4;stroke-dasharray:none;stroke-dashoffset:0;stroke-opacity:1" />
    <path
       style="opacity:1;vector-effect:none;fill:#000000;fill-opacity:1;stroke:none;stroke-width:0.64329255;stroke-linecap:butt;stroke-linejoin:round;stroke-miterlimit:4;stroke-dasharray:none;stroke-dashoffset:0;stroke-opacity:1"
       d="m 96.736787,193.15504 c 0.459572,5.01523 -4.529565,3.95108 -8.717132,5.8782 -4.646943,2.38806 -2.889332,9.12098 12.202525,2.08509 2.3577,-1.285 2.11486,-5.38987 1.79076,-7.79016 -2.070246,0.45551 -3.688794,-0.0843 -5.276153,-0.17313 z"
       id="path4583"
       inkscape:connector-curvature="0"
       sodipodi:nodetypes="ccccc" />
    <path
       style="opacity:1;vector-effect:none;fill:#fcbf2a;fill-opacity:1;stroke:#000000;stroke-width:0.64329255;stroke-linecap:butt;stroke-linejoin:round;stroke-miterlimit:4;stroke-dasharray:none;stroke-dashoffset:0;stroke-opacity:1"
       d="m 171.16628,110.29308 c 0.20497,0.83717 -0.71185,5.34974 0.62146,5.41512 0.71388,0.035 1.39634,-1.68122 1.05407,-3.91578 0.69037,0.80304 -0.0487,6.66586 0.80208,6.67969 0.89292,0.0145 1.63241,-0.83024 1.73951,-5.78553 0.47835,2.10847 -0.29461,5.47361 0.3842,5.51816 0.57869,0.038 1.37207,-0.94567 1.43942,-5.51816 0.0706,3.67563 -0.13426,5.29738 0.57176,5.35868 1.41926,0.12324 1.21632,-7.94039 -0.79972,-9.93672 -1.06017,-1.13044 -3.66067,-2.80866 -7.00953,-2.24154 0.73399,1.83932 0.21868,3.8269 1.19675,4.42608 z"
       id="path4628"
       inkscape:connector-curvature="0"
       sodipodi:nodetypes="cscscscsccc" />
    <path
       style="opacity:1;vector-effect:none;fill:#000000;fill-opacity:1;stroke:#000000;stroke-width:0.64329255;stroke-linecap:butt;stroke-linejoin:miter;stroke-miterlimit:4;stroke-dasharray:none;stroke-dashoffset:0;stroke-opacity:1"
       d="m 58.907466,128.18113 c -1.569417,-3.09713 7.073387,-6.71426 8.6335,-2.64194 1.137901,2.97024 -6.756268,6.34651 -8.6335,2.64194 z"
       id="path4601"
       inkscape:connector-curvature="0"
       sodipodi:nodetypes="sss" />
  </g>
</svg>
