<?xml version="1.0" encoding="UTF-8" standalone="no"?>
<!-- Created with Inkscape (http://www.inkscape.org/) -->

<svg
   xmlns:dc="http://purl.org/dc/elements/1.1/"
   xmlns:cc="http://creativecommons.org/ns#"
   xmlns:rdf="http://www.w3.org/1999/02/22-rdf-syntax-ns#"
   xmlns:svg="http://www.w3.org/2000/svg"
   xmlns="http://www.w3.org/2000/svg"
   xmlns:sodipodi="http://sodipodi.sourceforge.net/DTD/sodipodi-0.dtd"
   xmlns:inkscape="http://www.inkscape.org/namespaces/inkscape"
   width="210mm"
   height="297mm"
   viewBox="0 0 210 297"
   version="1.1"
   id="svg8"
   inkscape:version="0.92.4 (5da689c313, 2019-01-14)"
   sodipodi:docname="Hora-de-Aventura.svg">
  <defs
     id="defs2" />
  <sodipodi:namedview
     id="base"
     pagecolor="#ffffff"
     bordercolor="#666666"
     borderopacity="1.0"
     inkscape:pageopacity="0.0"
     inkscape:pageshadow="2"
     inkscape:zoom="8"
     inkscape:cx="422.00024"
     inkscape:cy="294.29333"
     inkscape:document-units="mm"
     inkscape:current-layer="layer1"
     showgrid="false"
     inkscape:window-width="1920"
     inkscape:window-height="1001"
     inkscape:window-x="-9"
     inkscape:window-y="-9"
     inkscape:window-maximized="1" />
  <metadata
     id="metadata5">
    <rdf:RDF>
      <cc:Work
         rdf:about="">
        <dc:format>image/svg+xml</dc:format>
        <dc:type
           rdf:resource="http://purl.org/dc/dcmitype/StillImage" />
        <dc:title />
      </cc:Work>
    </rdf:RDF>
  </metadata>
  <g
     inkscape:label="Camada 1"
     inkscape:groupmode="layer"
     id="layer1">
    <path
       sodipodi:nodetypes="ccccc"
       inkscape:connector-curvature="0"
       id="path993"
       d="m 171.19676,175.90512 c 2.6899,10.99176 3.36894,16.99536 1.01211,38.14715 2.12823,1.44705 5.54352,4.91099 3.7319,6.98726 -2.7085,2.26107 -9.99377,-2.10596 -9.55957,-6.036 2.77722,-25.4404 0.14954,-36.24548 0.14954,-36.24548"
       style="opacity:1;vector-effect:none;fill:#f6b01c;fill-opacity:1;stroke:#000000;stroke-width:0.39904216;stroke-linecap:butt;stroke-linejoin:miter;stroke-miterlimit:4;stroke-dasharray:none;stroke-dashoffset:0;stroke-opacity:1" />
    <path
       style="opacity:1;vector-effect:none;fill:#f6b01c;fill-opacity:1;stroke:#000000;stroke-width:0.39904216;stroke-linecap:butt;stroke-linejoin:miter;stroke-miterlimit:4;stroke-dasharray:none;stroke-dashoffset:0;stroke-opacity:1"
       d="m 132.3116,176.3576 c -2.84074,9.25723 -3.59519,29.28788 -0.63504,37.24218 -2.12824,1.44706 -6.37309,4.83557 -4.56147,6.91185 2.10972,2.35375 10.82333,-1.8043 10.38914,-5.73434 -5.2659,-28.15532 -0.75286,-36.24547 -0.75286,-36.24547"
       id="path995"
       inkscape:connector-curvature="0"
       sodipodi:nodetypes="ccccc" />
    <path
       style="opacity:1;vector-effect:none;fill:#f6b01c;fill-opacity:1;stroke:#000000;stroke-width:0.4788506;stroke-linecap:butt;stroke-linejoin:miter;stroke-miterlimit:4;stroke-dasharray:none;stroke-dashoffset:0;stroke-opacity:1"
       d="m 122.05692,119.67295 c 0,0 -3.15284,25.55364 -1.45959,41.57012 0.65746,6.21897 2.3849,10.2082 4.63249,12.28905 10.77242,9.01908 33.7192,17.03423 49.69974,-0.10665 8.40825,-12.44821 4.06096,-47.80347 4.06096,-47.80347"
       id="path947"
       inkscape:connector-curvature="0"
       sodipodi:nodetypes="csccc" />
    <path
       style="opacity:1;vector-effect:none;fill:#802427;fill-opacity:1;fill-rule:evenodd;stroke:#050000;stroke-width:0.53072608;stroke-linecap:butt;stroke-linejoin:miter;stroke-miterlimit:4;stroke-dasharray:none;stroke-dashoffset:0;stroke-opacity:1"
       d="m 146.42687,127.16524 c 3.46846,1.97056 7.77166,0.59354 8.31585,0.39994 0.11887,1.74094 0.40564,3.43267 0.47994,4.88478 -0.42158,0.56915 -5.32362,5.80613 -9.86231,0 0.50009,-1.95669 0.74195,-3.56956 1.06652,-5.28472 z"
       id="rect972"
       inkscape:connector-curvature="0"
       sodipodi:nodetypes="ccccc" />
    <path
       style="opacity:1;fill:#f06076;fill-opacity:1;fill-rule:nonzero;stroke:#050000;stroke-width:0.4788506;stroke-miterlimit:4;stroke-dasharray:none;stroke-opacity:1"
       d="m 146.54963,131.74195 c 1.68049,-0.33999 2.81162,-0.0177 3.44585,0.34899 0.46633,0.26966 1.73587,1.81635 1.86816,2.61355 0.0477,0.28705 -0.0358,0.13233 -0.38027,0.27005 -3.71739,1.00825 -5.29263,-1.66788 -6.12302,-2.52458 0.68696,-0.48085 0.59642,-0.57326 1.18928,-0.70801"
       id="path991"
       inkscape:connector-curvature="0"
       sodipodi:nodetypes="cssccc" />
    <path
       style="opacity:1;fill:#f6b01c;fill-opacity:1;fill-rule:nonzero;stroke:#000000;stroke-width:0.87789279;stroke-miterlimit:4;stroke-dasharray:none;stroke-opacity:1"
       d="m 121.46387,128.14183 c 0,0 0.0108,-1.01208 0.0621,-1.88885 -2.39946,0.35631 -2.91008,-0.96401 -2.86306,-4.43949 0.60979,-11.14173 8.50317,-30.004992 32.43872,-31.246012 7.03325,-0.15471 15.98362,2.96176 22.40711,9.05181 10.25541,9.723052 13.0492,26.908362 6.04179,26.002712"
       id="path958"
       inkscape:connector-curvature="0"
       sodipodi:nodetypes="ccccsc" />
    <path
       sodipodi:nodetypes="csssc"
       inkscape:connector-curvature="0"
       id="path964"
       d="m 174.5861,113.48109 c -0.18005,5.53593 -4.47333,10.04705 -9.28106,9.8494 -4.80772,-0.19766 -8.56853,-4.84088 -8.40529,-10.3775 0.16322,-5.53661 4.3488,-9.71546 9.1571,-9.53719 4.80829,0.17828 8.67566,4.52805 8.52925,10.06529"
       style="opacity:1;fill:#000000;fill-opacity:1;fill-rule:nonzero;stroke:#000000;stroke-width:0.84112048;stroke-miterlimit:4;stroke-dasharray:none;stroke-opacity:1" />
    <path
       style="opacity:1;vector-effect:none;fill:#f5af1b;fill-opacity:1;stroke:#0b0000;stroke-width:0.39904216;stroke-linecap:butt;stroke-linejoin:miter;stroke-miterlimit:4;stroke-dasharray:none;stroke-dashoffset:0;stroke-opacity:1"
       d="m 122.89408,126.57802 c 0,0 -0.0799,0.0723 -0.23046,0.21097 -2.50867,2.30985 -24.623878,23.01272 -23.063838,33.59937 3.299518,7.18341 11.698848,8.80931 20.849738,8.78874 -2.24207,0.98475 0.53006,2.30781 1.18848,1.77793 3.14658,-2.5324 1.47956,-5.13602 -1.55271,-3.58793 -0.2149,0.0612 1.06483,-1.71577 3.23965,-0.0468 1.61966,-1.24605 -0.81818,-4.77323 -4.13679,-1.73804 1.23524,-0.7027 1.18941,-1.02257 1.86735,-1.20393 2.75985,0.062 0.91148,-2.61462 -0.38493,-2.58551 -3.12683,0.4645 -2.93198,3.00559 -3.03913,2.62845 -1.9696,-0.30356 -12.38256,-2.18707 -12.47971,-5.72363 1.36271,-7.50324 11.63836,-19.72188 16.23456,-24.51206 1.27535,-1.32918 2.53106,-1.73836 2.53106,-1.73836"
       id="path951"
       inkscape:connector-curvature="0"
       sodipodi:nodetypes="csccscccccccsc" />
    <path
       sodipodi:nodetypes="cscccccc"
       inkscape:connector-curvature="0"
       id="path945"
       d="m 90.056133,205.90923 c -3.198283,-1.37119 -3.060503,-1.31334 -4.59826,-2.00455 -1.703526,-0.76572 -2.510826,-1.50431 -2.309391,-3.26707 -2.026793,0.64275 -4.26032,0.45796 -5.684234,0.0593 -0.308001,3.91315 1.361882,6.45429 3.235313,7.62586 6.519858,2.56684 4.002281,1.94583 6.921248,2.55962 4.645505,0.50608 3.932899,-4.30672 2.435324,-4.97319 z"
       style="opacity:1;vector-effect:none;fill:#0b0b0b;fill-opacity:1;fill-rule:evenodd;stroke:none;stroke-width:0.29130077;stroke-linecap:butt;stroke-linejoin:miter;stroke-miterlimit:4;stroke-dasharray:none;stroke-dashoffset:0;stroke-opacity:1" />
    <path
       style="opacity:1;vector-effect:none;fill:#00a0dc;fill-opacity:1;fill-rule:evenodd;stroke:#000000;stroke-width:0.37110922;stroke-linecap:butt;stroke-linejoin:miter;stroke-miterlimit:4;stroke-dasharray:none;stroke-dashoffset:0;stroke-opacity:1"
       d="m 91.562739,88.179378 c -1.725157,-3.85871 -6.788805,-2.984 -6.788805,-2.984 l 5.714559,20.830552 c 0,0 1.811776,-2.63236 6.077619,-1.45861 C 95.14186,99.208908 93.209465,92.835718 91.562739,88.179378 Z"
       id="path876"
       inkscape:connector-curvature="0"
       sodipodi:nodetypes="ccccc" />
    <path
       style="opacity:1;vector-effect:none;fill:#63a845;fill-opacity:1;fill-rule:evenodd;stroke:#000000;stroke-width:0.37110922;stroke-linecap:butt;stroke-linejoin:miter;stroke-miterlimit:4;stroke-dasharray:none;stroke-dashoffset:0;stroke-opacity:1"
       d="m 91.85507,84.790968 c -0.586314,-4.185941 -5.693776,-4.751104 -5.693776,-4.751104 v 20.738916 c 0,0 5.532496,0.63467 6.033145,-2.828032 0.119039,-5.54319 -0.04977,-8.22933 -0.339369,-13.15978 z"
       id="path870"
       inkscape:connector-curvature="0"
       sodipodi:nodetypes="ccccc" />
    <path
       sodipodi:nodetypes="ccccc"
       inkscape:connector-curvature="0"
       id="path850-0"
       d="m 28.189408,88.179378 c 1.725154,-3.85871 6.788801,-2.984 6.788801,-2.984 l -5.756487,20.830552 c 0,0 -1.811779,-2.63236 -6.07762,-1.45861 1.424254,-5.358412 3.398578,-11.731602 5.045306,-16.387942 z"
       style="opacity:1;vector-effect:none;fill:#00a0dc;fill-opacity:1;fill-rule:evenodd;stroke:#000000;stroke-width:0.37110922;stroke-linecap:butt;stroke-linejoin:miter;stroke-miterlimit:4;stroke-dasharray:none;stroke-dashoffset:0;stroke-opacity:1" />
    <path
       sodipodi:nodetypes="ccccc"
       inkscape:connector-curvature="0"
       id="path850"
       d="m 27.836671,84.790968 c 0.586312,-4.185941 5.693772,-4.751104 5.693772,-4.751104 v 20.738916 c 0,0 -5.532496,0.63467 -6.033141,-2.828032 -0.119043,-5.54319 0.0498,-8.22933 0.339369,-13.15978 z"
       style="opacity:1;vector-effect:none;fill:#63a845;fill-opacity:1;fill-rule:evenodd;stroke:#000000;stroke-width:0.37110922;stroke-linecap:butt;stroke-linejoin:miter;stroke-miterlimit:4;stroke-dasharray:none;stroke-dashoffset:0;stroke-opacity:1" />
    <path
       style="opacity:1;vector-effect:none;fill:#a3d282;fill-opacity:1;fill-rule:evenodd;stroke:none;stroke-width:0.37110922;stroke-linecap:butt;stroke-linejoin:miter;stroke-miterlimit:4;stroke-dasharray:none;stroke-dashoffset:0;stroke-opacity:1"
       d="m 33.304201,80.26611 c 0,0 -4.881096,0.339052 -5.467408,4.524998 -0.127906,2.17783 -0.05441,3.97086 -0.120795,5.71256 l 5.624396,-0.0439 z"
       id="rect845"
       inkscape:connector-curvature="0"
       sodipodi:nodetypes="ccccc" />
    <path
       style="fill:#00a0dc;fill-opacity:1;fill-rule:evenodd;stroke:#000000;stroke-width:0.53072608;stroke-miterlimit:4;stroke-dasharray:none;stroke-opacity:1"
       d="m 33.605855,84.112218 c 14.264767,5.38803 36.482026,6.18578 52.186645,-0.45249 0.06015,18.237172 0.17238,20.713462 -0.452492,51.130832 -17.775918,4.10547 -38.352195,4.06723 -51.734153,0.15084 0.368762,-19.87439 0.137773,-30.87831 0,-50.829182 z"
       id="rect21"
       inkscape:connector-curvature="0"
       sodipodi:nodetypes="ccccc" />
    <path
       style="fill:#ffffff;fill-opacity:1;fill-rule:evenodd;stroke:#000000;stroke-width:0.53072608;stroke-miterlimit:4;stroke-dasharray:none;stroke-opacity:1"
       d="m 34.158344,54.658992 c 0.24838,-7.138409 6.208426,-7.307286 6.430556,-0.146077 13.359262,-4.471757 32.169095,-2.817532 38.797948,-1.096987 0.95865,-9.064075 5.424242,-6.10461 6.512299,-0.729995 0.105455,10.311257 -0.0774,14.162093 -0.106647,30.973795 -12.05548,5.08076 -33.695008,7.73404 -52.186645,0.45249 0.45371,-15.09432 0.477925,-27.31045 0.552489,-29.453226 z"
       id="rect832"
       inkscape:connector-curvature="0"
       sodipodi:nodetypes="scccccs" />
    <path
       style="opacity:1;fill:#f0c0b2;fill-opacity:1;fill-rule:nonzero;stroke:#000000;stroke-width:0.51334959;stroke-miterlimit:4;stroke-dasharray:none;stroke-opacity:1"
       d="M 77.499459,69.875562 C 77.134973,76.11577 70.664098,81.276746 59.220099,81.323386 46.815228,81.373964 41.874112,75.414166 42.204551,69.173173 42.53499,62.932179 50.682305,58.261629 60.418191,58.242319 73.168588,58.217029 77.793835,63.660121 77.497449,69.90181"
       id="path835"
       inkscape:connector-curvature="0"
       sodipodi:nodetypes="csssc" />
    <path
       style="opacity:1;fill:#000000;fill-opacity:1;fill-rule:nonzero;stroke:#000000;stroke-width:0.44336578;stroke-miterlimit:4;stroke-dasharray:none;stroke-opacity:1"
       id="path838"
       sodipodi:type="arc"
       sodipodi:cx="50.14785"
       sodipodi:cy="66.483192"
       sodipodi:rx="0.93492794"
       sodipodi:ry="1.20992"
       sodipodi:start="0.037434694"
       sodipodi:end="0.030437495"
       sodipodi:open="true"
       d="m 51.082123,66.528475 a 0.93492794,1.20992 0 0 1 -0.967629,1.163867 0.93492794,1.20992 0 0 1 -0.901034,-1.250202 0.93492794,1.20992 0 0 1 0.964477,-1.168241 0.93492794,1.20992 0 0 1 0.904408,1.246115" />
    <path
       d="m 71.473707,66.173439 a 0.88920867,1.1507533 0 0 1 -0.920311,1.106953 0.88920867,1.1507533 0 0 1 -0.856972,-1.189065 0.88920867,1.1507533 0 0 1 0.917313,-1.111113 0.88920867,1.1507533 0 0 1 0.860181,1.185178"
       sodipodi:open="true"
       sodipodi:end="0.030437495"
       sodipodi:start="0.037434694"
       sodipodi:ry="1.1507533"
       sodipodi:rx="0.88920867"
       sodipodi:cy="66.130371"
       sodipodi:cx="70.585121"
       sodipodi:type="arc"
       id="path840"
       style="opacity:1;fill:#000000;fill-opacity:1;fill-rule:nonzero;stroke:#000000;stroke-width:0.42168459;stroke-miterlimit:4;stroke-dasharray:none;stroke-opacity:1" />
    <path
       style="opacity:1;vector-effect:none;fill:#000000;fill-opacity:1;fill-rule:evenodd;stroke:#000000;stroke-width:0.13168392;stroke-linecap:butt;stroke-linejoin:miter;stroke-miterlimit:4;stroke-dasharray:none;stroke-dashoffset:0;stroke-opacity:1"
       d="m 56.154713,68.935122 c 0.886241,0.758659 3.304045,1.643185 5.078394,1.600384 1.939673,-0.04678 3.312609,-0.508001 5.420757,-1.89518 -0.711166,0.959381 -3.224939,2.478126 -5.4464,2.312131 -2.221459,-0.165995 -4.226207,-0.931599 -5.052751,-2.017335 z"
       id="rect842"
       inkscape:connector-curvature="0"
       sodipodi:nodetypes="csczc" />
    <path
       sodipodi:nodetypes="ccccc"
       inkscape:connector-curvature="0"
       id="path872"
       d="m 86.371716,80.26611 c 0,0 4.713731,0.348924 5.300046,4.534858 0.127908,2.17784 0.23357,3.961 0.299936,5.7027 l -5.636173,-0.0439 z"
       style="opacity:1;vector-effect:none;fill:#a3d282;fill-opacity:1;fill-rule:evenodd;stroke:none;stroke-width:0.37110922;stroke-linecap:butt;stroke-linejoin:miter;stroke-miterlimit:4;stroke-dasharray:none;stroke-dashoffset:0;stroke-opacity:1" />
    <path
       style="opacity:1;vector-effect:none;fill:#eec0b1;fill-opacity:1;fill-rule:evenodd;stroke:#000000;stroke-width:0.37110922;stroke-linecap:butt;stroke-linejoin:miter;stroke-miterlimit:4;stroke-dasharray:none;stroke-dashoffset:0;stroke-opacity:1"
       d="m 23.144102,104.56732 c 3.431588,-0.95324 4.751619,-0.14834 6.07762,1.45861 -2.493647,14.36874 -5.992345,22.30155 2.230015,50.02984 0.5751,2.1217 -0.3132,4.46351 -2.672074,-1.70308 2.915833,8.12614 -0.481325,4.34878 -1.590686,0.74273 2.145171,7.97494 -0.462705,4.53726 -1.673271,0.87897 -1.702115,-5.0501 -8.409351,-30.109 -2.371604,-51.40707 z"
       id="path878"
       inkscape:connector-curvature="0"
       sodipodi:nodetypes="ccccccc" />
    <path
       sodipodi:nodetypes="cccscccc"
       inkscape:connector-curvature="0"
       id="path880"
       d="m 96.566112,104.56732 c -3.431584,-0.95324 -4.751621,-0.14834 -6.077619,1.45861 2.493642,14.36874 5.992339,22.30155 -2.230015,50.02984 -0.381014,1.40568 -0.119698,2.90796 0.786043,1.96857 0.461379,-0.4785 1.089963,-1.59056 1.886031,-3.67165 -2.915832,8.12614 0.481321,4.34878 1.590683,0.74273 -2.518453,8.18824 0.462706,4.53726 1.67327,0.87897 1.702117,-5.0501 7.662785,-29.89569 2.371607,-51.40707 z"
       style="opacity:1;vector-effect:none;fill:#f0c1b2;fill-opacity:1;fill-rule:evenodd;stroke:#000000;stroke-width:0.37110922;stroke-linecap:butt;stroke-linejoin:miter;stroke-miterlimit:4;stroke-dasharray:none;stroke-dashoffset:0;stroke-opacity:1" />
    <path
       style="opacity:1;vector-effect:none;fill:#447bbe;fill-opacity:1;fill-rule:evenodd;stroke:#000000;stroke-width:0.53072608;stroke-linecap:butt;stroke-linejoin:miter;stroke-miterlimit:4;stroke-dasharray:none;stroke-dashoffset:0;stroke-opacity:1"
       d="m 33.605855,134.9414 c 18.715588,5.14562 39.303196,2.32838 51.507917,0 0.03233,9.68098 -0.06945,14.12827 -0.418677,25.18824 -0.01698,0.53806 -0.211162,1.63339 -1.06563,2.50206 -0.43814,0.44542 -2.228678,0.89125 -3.812461,0.86125 -1.521364,-0.0288 -3.119796,-0.67365 -3.641408,-1.10058 -1.064646,-0.87138 -0.763527,-2.30928 -0.768973,-2.63061 -0.115796,-6.82454 -0.211479,-8.75198 -0.123681,-13.11063 -3.065814,1.36185 -18.007175,2.30392 -28.517172,1.40404 -1.438084,-0.12313 -2.795945,-0.29853 -4.032568,-0.53471 -0.119378,4.58609 -0.166377,10.02606 -0.368284,13.70307 -0.0419,0.76243 -0.03248,1.50959 -0.430024,1.99074 -1.407454,1.7034 -3.685123,1.33301 -4.877229,1.44866 -2.101156,0.20383 -2.486639,-0.1308 -2.958578,-0.47712 -0.739689,-0.54282 -1.251213,-1.60804 -1.243815,-1.91593 0.314653,-13.10279 0.33846,-14.8631 0.750583,-27.32848 z"
       id="rect882"
       inkscape:connector-curvature="0"
       sodipodi:nodetypes="ccssssscscsssssc" />
    <path
       style="opacity:1;vector-effect:none;fill:#000000;fill-opacity:1;fill-rule:evenodd;stroke:#000000;stroke-width:0.13168392;stroke-linecap:butt;stroke-linejoin:miter;stroke-miterlimit:4;stroke-dasharray:none;stroke-dashoffset:0;stroke-opacity:1"
       d="m 41.593091,147.11103 c 1.367078,0.46312 2.943686,0.95131 5.323948,1.15438 l 0.112075,-0.27709 c -3.418889,-0.26181 -4.024923,-0.69667 -5.436023,-0.87729 z"
       id="rect842-5"
       inkscape:connector-curvature="0"
       sodipodi:nodetypes="cccc" />
    <path
       sodipodi:nodetypes="ccccc"
       inkscape:connector-curvature="0"
       id="path929"
       d="m 76.25065,146.32424 c -1.367075,0.46312 -2.695015,1.15657 -5.075281,1.35964 l 0.04787,-0.34376 c 3.418892,-0.26182 3.619813,-1.012 5.030917,-1.19263 z"
       style="opacity:1;vector-effect:none;fill:#000000;fill-opacity:1;fill-rule:evenodd;stroke:#000000;stroke-width:0.13168392;stroke-linecap:butt;stroke-linejoin:miter;stroke-miterlimit:4;stroke-dasharray:none;stroke-dashoffset:0;stroke-opacity:1" />
    <path
       style="opacity:1;fill:#ffffff;fill-opacity:1;fill-rule:nonzero;stroke:#000000;stroke-width:0.33620673;stroke-miterlimit:4;stroke-dasharray:none;stroke-opacity:1"
       d="m 42.190448,197.65685 c -0.09805,2.02812 -2.744377,3.65914 -5.911558,3.59834 -3.16718,-0.0608 -5.658643,-1.75321 -5.56681,-3.78145 0.09183,-2.02824 2.732233,-3.62536 5.899591,-3.56855 3.16736,0.0568 5.664008,1.74609 5.578397,3.77444"
       id="path938"
       inkscape:connector-curvature="0"
       sodipodi:nodetypes="csssc" />
    <path
       style="opacity:1;vector-effect:none;fill:#f0c1b2;fill-opacity:1;fill-rule:evenodd;stroke:#000000;stroke-width:0.52375412;stroke-linecap:butt;stroke-linejoin:miter;stroke-miterlimit:4;stroke-dasharray:none;stroke-dashoffset:0;stroke-opacity:1"
       d="m 33.585783,164.03662 c 2.060678,0.84277 3.434515,1.03131 6.023094,0.37707 -0.03607,10.14486 -0.1815,23.70686 -0.05658,32.55621 -1.419656,1.41966 -4.622624,1.15782 -5.532903,0.36764 -0.0091,-9.90231 -0.783399,-24.46705 -0.433631,-33.30092 z"
       id="rect931"
       inkscape:connector-curvature="0"
       sodipodi:nodetypes="ccccc" />
    <path
       style="opacity:1;fill:#ffffff;fill-opacity:1;fill-rule:nonzero;stroke:#000000;stroke-width:0.36998892;stroke-miterlimit:4;stroke-dasharray:none;stroke-opacity:1"
       d="m 86.812792,197.12294 c -0.136458,2.13174 -3.199469,3.8469 -6.843199,3.77079 -3.643732,-0.0761 -6.494012,-1.8641 -6.370301,-3.99611 0.12371,-2.13201 3.174683,-3.80278 6.818845,-3.73413 3.644161,0.0686 6.505114,1.85079 6.394158,3.98304"
       id="path940"
       inkscape:connector-curvature="0"
       sodipodi:nodetypes="csssc" />
    <path
       sodipodi:nodetypes="cccccc"
       inkscape:connector-curvature="0"
       id="path934"
       d="m 83.782851,162.58301 c -2.060678,0.84278 -2.860151,1.38976 -5.448727,0.73552 -0.378711,10.22027 -0.443902,24.05806 -0.531113,33.39759 1.419658,0.80641 4.116028,0.70456 5.026303,-0.0856 0.0091,-9.90231 1.303301,-25.21361 0.953537,-34.04748 z"
       style="opacity:1;vector-effect:none;fill:#f0c0b2;fill-opacity:1;fill-rule:evenodd;stroke:#000000;stroke-width:0.52375412;stroke-linecap:butt;stroke-linejoin:miter;stroke-miterlimit:4;stroke-dasharray:none;stroke-dashoffset:0;stroke-opacity:1" />
    <path
       style="opacity:1;vector-effect:none;fill:#0b0b0b;fill-opacity:1;fill-rule:evenodd;stroke:none;stroke-width:0.29130077;stroke-linecap:butt;stroke-linejoin:miter;stroke-miterlimit:4;stroke-dasharray:none;stroke-dashoffset:0;stroke-opacity:1"
       d="m 25.217095,206.06094 c 3.126989,-1.52681 5.455488,-2.02809 6.987491,-2.57751 1.333567,-0.47826 2.08581,-0.81106 1.797948,-2.56177 1.786376,0.77745 4.533383,0.28267 5.779192,-0.34329 0.500048,3.89326 -0.03001,6.76559 -2.122664,7.34318 -6.837396,2.52904 -7.60307,2.49239 -10.488321,3.24897 -4.231379,-1.05935 -2.737525,-4.76239 -1.953646,-5.10958 z"
       id="rect942"
       inkscape:connector-curvature="0"
       sodipodi:nodetypes="csccccc" />
    <path
       style="opacity:1;vector-effect:none;fill:#f6b01c;fill-opacity:1;stroke:#000000;stroke-width:0.39904216;stroke-linecap:butt;stroke-linejoin:miter;stroke-miterlimit:4;stroke-dasharray:none;stroke-dashoffset:0;stroke-opacity:1"
       d="m 178.90235,119.13969 c 0,0 0.8323,5.18895 0.5066,7.9189 7.10778,18.1964 6.7992,45.28782 3.86611,54.4724 -0.071,1.73211 -2.41952,6.56868 -1.59214,-0.72808 -0.6151,3.32446 -3.25448,6.53543 -1.59555,-0.4856 -1.40645,5.12494 -3.14219,4.3221 -2.11902,-0.36687 5.19047,-18.50229 0.18744,-39.90699 0.18744,-39.90699"
       id="path949"
       inkscape:connector-curvature="0"
       sodipodi:nodetypes="ccccccc" />
    <path
       style="opacity:1;fill:#000000;fill-opacity:1;fill-rule:nonzero;stroke:#000000;stroke-width:0.84112048;stroke-miterlimit:4;stroke-dasharray:none;stroke-opacity:1"
       d="m 144.23222,113.48109 c -0.18004,5.53593 -4.47333,10.04705 -9.28105,9.8494 -4.80773,-0.19766 -8.56854,-4.84088 -8.4053,-10.3775 0.16323,-5.53661 4.34881,-9.71546 9.1571,-9.53719 4.80829,0.17828 8.67567,4.52805 8.52925,10.06529"
       id="path961"
       inkscape:connector-curvature="0"
       sodipodi:nodetypes="csssc" />
    <path
       style="opacity:1;fill:#f6b01c;fill-opacity:1;fill-rule:nonzero;stroke:#000000;stroke-width:0.87789279;stroke-miterlimit:4;stroke-dasharray:none;stroke-opacity:1"
       d="m 165.0465,125.03183 c 0,0 -0.0533,1.26426 -0.12982,2.04463 -0.21044,2.1463 0.0843,5.08873 -0.9169,6.77998 -3.40278,5.74835 -6.63001,2.97439 -7.81725,1.15316 -1.33897,-2.51039 -1.76819,-9.1858 -1.93901,-10.77134 -2.66013,1.14327 -5.56137,0.70516 -7.32729,-0.0514 -0.39014,1.74261 -1.01398,7.87582 -3.19812,10.94692 -3.12455,5.12492 -7.31828,0.21875 -7.37347,-1.78216 -0.68044,-4.71181 -0.0463,-6.17682 0.43578,-9.13283 1.08643,-6.6621 6.66758,-12.34557 14.2346,-12.12133 7.56703,0.22423 13.88194,6.11646 14.02481,13.081"
       id="path955"
       inkscape:connector-curvature="0"
       sodipodi:nodetypes="csccccccssc" />
    <path
       style="opacity:1;fill:#000001;fill-opacity:1;fill-rule:nonzero;stroke:none;stroke-width:0.36962724;stroke-miterlimit:4;stroke-dasharray:none;stroke-opacity:1"
       id="path953"
       sodipodi:type="arc"
       sodipodi:cx="150.63458"
       sodipodi:cy="122.72588"
       sodipodi:rx="4.6528878"
       sodipodi:ry="2.5115507"
       sodipodi:start="0.037434694"
       sodipodi:end="0.030437495"
       sodipodi:open="true"
       d="m 155.28421,122.81988 a 4.6528878,2.5115507 0 0 1 -4.81563,2.41596 4.6528878,2.5115507 0 0 1 -4.48421,-2.59517 4.6528878,2.5115507 0 0 1 4.79995,-2.42504 4.6528878,2.5115507 0 0 1 4.501,2.58669" />
    <path
       sodipodi:nodetypes="cccsc"
       inkscape:connector-curvature="0"
       id="path966"
       d="m 143.80575,113.12356 c -3.22478,1.7425 -4.86921,3.78122 -5.96395,6.31729 -5.62959,0.50237 -8.70955,-4.28258 -8.70908,-8.00797 0.10876,-3.689 2.54101,-7.06048 6.27866,-7.17476 3.84367,-0.11753 8.47348,4.27015 8.37593,7.95957"
       style="opacity:1;fill:#ffffff;fill-opacity:1;fill-rule:nonzero;stroke:none;stroke-width:0.56043172;stroke-miterlimit:4;stroke-dasharray:none;stroke-opacity:1" />
    <path
       style="opacity:1;fill:#ffffff;fill-opacity:1;fill-rule:nonzero;stroke:none;stroke-width:0.56043172;stroke-miterlimit:4;stroke-dasharray:none;stroke-opacity:1"
       d="m 172.81387,117.55345 c 0,0 -6.76125,4.82358 -11.56422,-2.79027 -2.47721,-6.41011 1.15687,-9.21018 2.23526,-9.89312 1.41678,-0.89724 6.02454,-0.31879 7.7026,1.82038 2.37344,3.02562 3.73795,6.39472 1.96572,10.46709"
       id="path968"
       inkscape:connector-curvature="0"
       sodipodi:nodetypes="ccssc" />
    <path
       style="opacity:1;fill:#fdfdfd;fill-opacity:1;fill-rule:nonzero;stroke:#050000;stroke-width:0.4788506;stroke-miterlimit:4;stroke-dasharray:none;stroke-opacity:1"
       d="m 154.21156,129.70177 c -0.17199,1.40805 -2.27991,1.58264 -2.54133,0.83977 -0.0958,-0.27218 -0.18564,-0.54457 -0.24591,-0.82353 -0.10425,-0.48239 -0.12,-0.98437 0.0751,-1.5387 1.45632,-0.0648 2.046,-0.3045 2.70677,-0.54361 0.18578,0.68742 0.0237,1.32877 0.004,2.1667"
       id="path975"
       inkscape:connector-curvature="0"
       sodipodi:nodetypes="cssccc" />
    <path
       sodipodi:nodetypes="czccc"
       inkscape:connector-curvature="0"
       id="path978"
       d="m 149.14369,129.30612 c -0.81772,1.83696 -2.21392,1.54491 -2.58846,0.89633 -0.37453,-0.64859 -0.47876,-1.06315 -0.12365,-2.41879 0.89396,0.0997 1.41934,0.3599 2.74449,0.38963 -0.0216,0.83825 -0.0114,0.2949 -0.0322,1.13283"
       style="opacity:1;fill:#fdfdfd;fill-opacity:1;fill-rule:nonzero;stroke:#050000;stroke-width:0.4788506;stroke-miterlimit:4;stroke-dasharray:none;stroke-opacity:1" />
    <path
       style="opacity:1;fill:#fdfdfd;fill-opacity:1;fill-rule:nonzero;stroke:#050000;stroke-width:0.4788506;stroke-miterlimit:4;stroke-dasharray:none;stroke-opacity:1"
       d="m 151.45056,129.75143 c -0.41778,1.79031 -1.89451,1.42677 -2.11519,0.59637 -0.22069,-0.8304 -0.1236,-0.82903 -0.17698,-2.17215 0.89397,0.0997 0.90608,0.06 2.23124,0.0897 -0.0782,0.84767 -0.14184,0.80989 0.0436,1.50508"
       id="path989"
       inkscape:connector-curvature="0"
       sodipodi:nodetypes="czccc" />
  </g>
</svg>
