<?xml version="1.0" encoding="UTF-8" standalone="no"?>
<!-- Created with Inkscape (http://www.inkscape.org/) -->

<svg
   xmlns:dc="http://purl.org/dc/elements/1.1/"
   xmlns:cc="http://creativecommons.org/ns#"
   xmlns:rdf="http://www.w3.org/1999/02/22-rdf-syntax-ns#"
   xmlns:svg="http://www.w3.org/2000/svg"
   xmlns="http://www.w3.org/2000/svg"
   xmlns:sodipodi="http://sodipodi.sourceforge.net/DTD/sodipodi-0.dtd"
   xmlns:inkscape="http://www.inkscape.org/namespaces/inkscape"
   width="210mm"
   height="297mm"
   viewBox="0 0 210 297"
   version="1.1"
   id="svg8"
   inkscape:version="0.92.4 (5da689c313, 2019-01-14)"
   sodipodi:docname="Mafalda.svg">
  <defs
     id="defs2" />
  <sodipodi:namedview
     id="base"
     pagecolor="#ffffff"
     bordercolor="#666666"
     borderopacity="1.0"
     inkscape:pageopacity="0.0"
     inkscape:pageshadow="2"
     inkscape:zoom="1.4"
     inkscape:cx="448.76787"
     inkscape:cy="461.97245"
     inkscape:document-units="mm"
     inkscape:current-layer="layer1"
     showgrid="false"
     inkscape:window-width="1920"
     inkscape:window-height="1001"
     inkscape:window-x="-9"
     inkscape:window-y="-9"
     inkscape:window-maximized="1" />
  <metadata
     id="metadata5">
    <rdf:RDF>
      <cc:Work
         rdf:about="">
        <dc:format>image/svg+xml</dc:format>
        <dc:type
           rdf:resource="http://purl.org/dc/dcmitype/StillImage" />
        <dc:title></dc:title>
      </cc:Work>
    </rdf:RDF>
  </metadata>
  <g
     inkscape:label="Camada 1"
     inkscape:groupmode="layer"
     id="layer1"
     style="display:inline">
    <path
       style="opacity:1;vector-effect:none;fill:#e61c11;fill-opacity:1;stroke:#c02626;stroke-width:0.5;stroke-linecap:butt;stroke-linejoin:miter;stroke-miterlimit:4;stroke-dasharray:none;stroke-dashoffset:0;stroke-opacity:1"
       d="m 35.752047,79.206368 c 0.216206,-2.703212 1.074835,-9.963599 1.102934,-15.038817 0.04198,-7.582252 -0.734697,-11.334769 0.446028,-12.529781 3.074113,-2.588917 8.568894,-2.892048 12.724249,6.729682 0.883958,1.390403 3.066634,2.172756 5.299533,0.09449 2.581492,-3.754406 3.891005,-6.740003 7.170421,-8.041015 6.141737,-2.436553 6.95564,2.196958 6.672242,4.299241 -1.024803,7.602126 0.840951,24.119108 0.840951,24.119108 0.717887,4.702565 -7.487419,4.709473 -10.407301,1.271496 0.20873,-4.692543 0.67624,-9.622349 1.502409,-15.0778 0.581512,-5.902806 -3.804352,-1.062338 -5.641151,2.0263 -3.595177,4.499303 -6.819308,-2.182861 -6.819308,-2.182861 -4.150024,-6.975491 -3.647137,-0.748061 -3.608138,0.668173 0,0 1.96715,10.731756 1.870887,13.764382 -0.642587,4.918209 -11.462749,3.760725 -11.153756,-0.102602 z"
       id="path1295"
       inkscape:connector-curvature="0"
       sodipodi:nodetypes="cscccsscccccccsc" />
    <path
       style="opacity:1;vector-effect:none;fill:#e61c11;fill-opacity:1;stroke:#c02626;stroke-width:0.5;stroke-linecap:butt;stroke-linejoin:miter;stroke-miterlimit:4;stroke-dasharray:none;stroke-dashoffset:0;stroke-opacity:1"
       d="m 79.318293,57.639891 c -2.295417,-0.03204 -4.267976,0.458153 -5.025533,0.868164 -4.740516,2.189692 -0.739048,6.193375 1.611788,5.366081 1.342306,-0.472377 3.154831,-1.078286 4.309814,-1.069184 4.273188,0.03379 1.143151,2.353583 0.233577,2.472201 -2.054778,0.267959 -4.329869,1.04526 -5.612577,2.672704 -1.930704,2.449549 -2.946495,6.202791 -1.937351,9.153964 0.869196,2.541892 3.470611,4.979434 6.146914,5.212083 2.379157,0.206819 4.873667,0.0015 7.149433,-0.434597 4.170125,-0.799039 3.875215,-4.977993 3.875215,-4.977993 0,0 0.573815,-9.682106 -1.403014,-13.897858 -1.949183,-4.156795 -5.993427,-5.318731 -9.348266,-5.365565 z m 2.73885,12.249899 c 1.583647,-0.06149 2.292736,1.275175 2.402953,3.370336 -0.0059,2.097138 -0.735277,3.55051 -2.319752,3.542938 -1.584479,-0.0076 -2.871735,-1.523259 -2.894399,-3.408061 -0.02266,-1.884804 1.22755,-3.443724 2.811198,-3.505213 z"
       id="path1297"
       inkscape:connector-curvature="0" />
    <path
       style="opacity:1;vector-effect:none;fill:#f00218;fill-opacity:1;stroke:#000000;stroke-width:1;stroke-linecap:butt;stroke-linejoin:miter;stroke-miterlimit:4;stroke-dasharray:none;stroke-dashoffset:0;stroke-opacity:1"
       d="m 58.66566,105.30093 c 1.799125,1.54836 9.377305,4.15081 10.016565,7.72268 1.109558,6.19967 1.097453,8.87784 4.148722,11.18664 22.143293,-1.27261 43.287663,-8.34945 59.200183,-10.55715 -0.98195,-9.51533 -6.37579,-7.71812 -6.08523,-12.18004 0.2107,-3.235539 2.9278,-6.665605 4.54843,-8.39971 -17.63013,0.09595 -21.04748,12.2944 -21.04748,12.2944 0,0 -10.228678,-10.095485 -15.635248,2.53906 C 78.306403,95.814352 61.534707,103.77584 58.66566,105.30093 Z"
       id="path1032"
       inkscape:connector-curvature="0"
       sodipodi:nodetypes="csccscccc" />
    <path
       style="opacity:1;vector-effect:none;fill:#0d0d0f;fill-opacity:1;fill-rule:evenodd;stroke:none;stroke-width:1.52232885;stroke-linecap:butt;stroke-linejoin:miter;stroke-miterlimit:4;stroke-dasharray:none;stroke-dashoffset:0;stroke-opacity:1"
       d="m 174.40565,152.58135 c 0.54173,8.75635 -16.36134,35.96498 -31.17529,35.47826 -12.32003,7.82868 -17.822,5.68354 -36.49493,5.63885 -15.246024,-0.0365 -26.99796,7.946 -38.125111,1.71398 -14.341424,-8.03225 -33.965891,-25.11623 -34.291149,-38.6612 -0.543333,-22.62661 30.186345,-45.84685 68.15142,-46.58501 37.96511,-0.73815 69.81169,4.6965 71.93506,42.41512"
       id="path927"
       inkscape:connector-curvature="0"
       sodipodi:nodetypes="ccsscsc" />
    <path
       sodipodi:nodetypes="ccccccc"
       inkscape:connector-curvature="0"
       id="path987"
       d="m 143.46118,210.87284 c 4.22684,0.52722 10.10912,3.3016 12.12766,3.10962 0.071,-10.10297 -2.03896,-19.18339 -2.68272,-29.90706 -5.21733,-1.01223 -15.11518,2.36871 -20.35493,5.35647 -2.08702,0.0199 -3.47361,0.65876 -4.54773,1.14957 -0.0614,0.82621 -0.64939,3.36697 0.75259,4.71938 8.41656,10.48486 6.32226,7.18924 14.70513,15.57202 z"
       style="opacity:1;vector-effect:none;fill:#ed0415;fill-opacity:1;stroke:#170000;stroke-width:1;stroke-linecap:butt;stroke-linejoin:miter;stroke-miterlimit:4;stroke-dasharray:none;stroke-dashoffset:0;stroke-opacity:1" />
    <path
       style="opacity:1;vector-effect:none;fill:#f00317;fill-opacity:1;stroke:#0e0000;stroke-width:1;stroke-linecap:butt;stroke-linejoin:miter;stroke-miterlimit:4;stroke-dasharray:none;stroke-dashoffset:0;stroke-opacity:1"
       d="m 65.090663,233.31101 c 6.194952,-16.70204 25.135416,-39.73475 25.135416,-39.73475 l 37.777381,-2.99482 c 0,0 16.68266,21.38012 25.34438,36.4398 -11.43176,5.66139 -30.86571,5.62876 -46.17278,3.69591 -16.854435,-1.36928 -31.432575,-2.50718 -42.084397,2.59386 z"
       id="path989"
       inkscape:connector-curvature="0"
       sodipodi:nodetypes="cccccc" />
    <path
       style="opacity:1;vector-effect:none;fill:#f00317;fill-opacity:1;stroke:#000000;stroke-width:1;stroke-linecap:butt;stroke-linejoin:miter;stroke-miterlimit:4;stroke-dasharray:none;stroke-dashoffset:0;stroke-opacity:1"
       d="m 72.555693,218.56994 c 0,0 -5.235689,3.19436 -10.412819,4.54356 -2.110237,0.62718 -2.158994,0.81601 -2.449834,-1.96848 -1.006402,-9.63525 -0.512789,-19.21435 3.070937,-29.13621 0.482838,-1.33678 1.86845,-1.6674 3.28031,-1.83097 3.409393,-0.395 10.113643,3.46859 10.113643,3.46859 0,0 1.779744,-0.93449 2.75599,-1.0584 2.728926,-0.34638 8.570818,-0.0271 10.52198,1.12092 0.982693,0.57817 0.653427,0.60992 -0.866668,2.36392 -6.628888,7.64889 -9.799522,13.82169 -16.013539,22.49711 z"
       id="path985"
       inkscape:connector-curvature="0"
       sodipodi:nodetypes="ccssscssscc" />
    <path
       style="opacity:1;vector-effect:none;fill:#000000;fill-opacity:1;stroke:none;stroke-width:0.5;stroke-linecap:butt;stroke-linejoin:miter;stroke-miterlimit:4;stroke-dasharray:none;stroke-dashoffset:0;stroke-opacity:1"
       d="m 81.717659,228.64582 c -0.661313,3.07178 -2.23891,9.1902 -2.539063,11.86009 -1.274459,0.69513 -3.319624,0.46778 -4.443353,0.46772 -1.123728,-7e-5 -2.891998,0.63127 -0.701584,1.83747 2.190414,1.2062 2.919476,1.13307 2.204974,1.73725 -1.186309,1.00314 -3.053638,1.64949 -0.734992,2.87315 0.660857,0.34877 -0.404238,0.62844 -0.916354,1.07119 -7.620074,6.58792 -6.28693,11.04449 -5.832201,11.82456 15.106541,7.51638 29.513158,1.60921 41.426754,-1.60361 11.38602,5.39647 39.60179,3.3899 40.89224,2.73951 3.17403,-1.59973 2.71102,-3.6427 2.27179,-5.61266 -1.14827,-5.14999 -10.07761,-8.43052 -12.42803,-9.15398 -1.974,-1.00727 1.7343,-4.02756 3.30746,-4.47677 1.71294,-0.5905 0.44094,-1.79612 -0.23386,-1.50339 -5.3897,1.39283 -4.88459,-5.29836 -5.18363,-10.70263 -8.21542,0.57625 -37.83413,0.87537 -57.090151,-1.3579 z"
       id="path1008"
       inkscape:connector-curvature="0"
       sodipodi:nodetypes="cczzcssccssccccc" />
    <path
       style="opacity:1;vector-effect:none;fill:#f7b092;fill-opacity:1;stroke:none;stroke-width:0.5;stroke-linecap:butt;stroke-linejoin:miter;stroke-miterlimit:4;stroke-dasharray:none;stroke-dashoffset:0;stroke-opacity:1"
       d="m 83.613522,230.75017 c -0.899083,5.31255 -2.240065,6.49719 -1.285802,9.52167 9.148396,-0.68925 26.76004,4.31 26.76004,4.31 0.5002,-2.88034 0.27656,-6.25558 0.072,-9.40237 -3.5578,-1.75745 -13.813791,-4.37895 -25.546288,-4.42926 z"
       id="path995"
       inkscape:connector-curvature="0"
       sodipodi:nodetypes="cccccc" />
    <path
       sodipodi:nodetypes="cccccc"
       inkscape:connector-curvature="0"
       id="path983"
       d="m 103.12454,198.96242 c -1.57581,2.6808 -3.615589,11.23587 -3.767108,16.82104 4.744988,0.19579 13.522018,-0.31653 18.140918,-0.76839 0.26461,-2.58676 -0.2848,-6.03521 -0.96885,-10.12283 0.066,-1.10792 -1.21358,-3.83867 -3.40769,-4.57699 -2.52577,-1.78535 -3.26146,-6.14686 -9.99727,-1.35283 z"
       style="opacity:1;vector-effect:none;fill:#000000;fill-opacity:1;stroke:none;stroke-width:0.5;stroke-linecap:butt;stroke-linejoin:miter;stroke-miterlimit:4;stroke-dasharray:none;stroke-dashoffset:0;stroke-opacity:1" />
    <path
       style="opacity:1;vector-effect:none;fill:#000000;fill-opacity:1;stroke:none;stroke-width:0.5;stroke-linecap:butt;stroke-linejoin:miter;stroke-miterlimit:4;stroke-dasharray:none;stroke-dashoffset:0;stroke-opacity:1"
       d="m 95.230409,208.78407 c 2.494596,-1.53856 2.668425,-1.53243 3.547364,-1.60066 0.677269,2.49571 -0.13551,6.15129 0.429319,8.69192 4.495268,0.22895 13.674368,-0.29473 18.291258,-0.86026 0.15562,-2.46981 -0.0162,-6.29956 -0.17612,-7.97341 1.23086,0.44287 3.30211,1.50323 4.55934,1.18118 -1.28622,-1.49345 -6.85546,-3.13015 -6.85546,-3.13015 0,0 -10.72401,-0.9003 -15.586878,0.95679 -2.527106,0.62757 -3.579644,1.13947 -4.208823,2.73459 z"
       id="path991"
       inkscape:connector-curvature="0"
       sodipodi:nodetypes="ccccccccc" />
    <path
       style="opacity:1;vector-effect:none;fill:#ffffff;fill-opacity:1;stroke:none;stroke-width:0.5;stroke-linecap:butt;stroke-linejoin:miter;stroke-miterlimit:4;stroke-dasharray:none;stroke-dashoffset:0;stroke-opacity:1"
       d="m 103.70056,201.85205 c 0,0 -2.68822,6.67581 -2.83974,12.26098 4.74499,0.19579 10.14774,0.61891 14.76664,0.16705 1.39632,-0.008 1.24473,-1.77796 0.56795,-2.43884 -0.58479,-0.57105 -1.62331,-3.38769 -1.1693,-6.74855 0.066,-1.10792 -0.54541,-2.83641 -2.73952,-3.57473 -2.59258,-1.2174 -8.58603,0.33409 -8.58603,0.33409 z"
       id="path981"
       inkscape:connector-curvature="0"
       sodipodi:nodetypes="cccsccc" />
    <path
       style="opacity:1;vector-effect:none;fill:#000000;fill-opacity:1;fill-rule:evenodd;stroke:none;stroke-width:1.06785953;stroke-linecap:butt;stroke-linejoin:miter;stroke-miterlimit:4;stroke-dasharray:none;stroke-dashoffset:0;stroke-opacity:1"
       d="m 111.8275,200.98844 c -0.0513,1.98623 -1.93313,3.57095 -4.23091,3.56298 -2.29778,-0.008 -4.16479,-1.60572 -4.19766,-3.59225 -0.0329,-1.98651 1.78055,-3.62975 4.0771,-3.69457 2.29656,-0.0648 4.23445,1.73971 4.35147,3.72384"
       id="path972"
       inkscape:connector-curvature="0"
       sodipodi:nodetypes="cscsc" />
    <path
       style="opacity:1;vector-effect:none;fill:#0d0d0f;fill-opacity:1;stroke:none;stroke-width:0.5;stroke-linecap:butt;stroke-linejoin:miter;stroke-miterlimit:4;stroke-dasharray:none;stroke-dashoffset:0;stroke-opacity:1"
       d="m 72.830945,124.21025 c 0,0 4.778128,-6.56308 3.126533,-5.33153 -8.640567,6.44306 2.835929,-4.64236 1.511906,-4.06324 -11.883908,5.19799 1.134703,-2.72253 5.149925,-4.20499 -13.673518,2.36812 -3.833605,-0.44746 -0.04044,-1.48707 0.928055,-0.40124 -3.742723,-0.7992 -5.345699,-0.49641 -9.013689,1.70262 -8.731519,-2.20894 7.984723,-0.61511 1.574687,-0.24384 3.24733,1.27914 4.535715,0.47247 5.093362,-3.18903 14.930042,-2.55134 14.930042,-2.55134 0,0 5.77929,-1.36686 8.59895,-1.55915 14.59438,-1.24024 0.962,0.69492 1.51192,0.8977 4.14017,-0.27641 7.68388,0.15628 10.96131,1.88988 0.38865,0.15644 1.3274,0.4307 -0.18246,1.36555 -0.18886,1.12063 2.00516,1.31408 5.93804,5.26783 1.20854,1.21495 -1.22703,-5.03087 -1.22703,-5.03087 l 10.4015,9.64228 z"
       id="path1034"
       inkscape:connector-curvature="0"
       sodipodi:nodetypes="cssccscscccccsccc" />
    <path
       style="opacity:1;fill:#f9b497;fill-opacity:1;fill-rule:nonzero;stroke:none;stroke-width:0.60000002;stroke-miterlimit:4;stroke-dasharray:none;stroke-opacity:1"
       d="m 130.37346,130.05937 c -0.19068,4.13346 -4.16397,9.63711 -4.5092,13.01465 -1.54448,5.72015 13.65951,11.21715 15.91997,15.51425 6.90725,13.1305 0.005,20.58219 -3.63481,24.80358 -2.13107,2.4717 -14.58202,7.8252 -27.52316,8.56386 -10.28756,0.58719 -22.532669,-2.68658 -28.194529,-5.36658 -10.118196,-4.78937 -12.413954,-16.24937 -8.651033,-22.71965 4.229938,-7.27331 10.261251,-5.49794 11.214255,-12.51555 0.896724,-6.60318 -5.338122,-9.1791 -5.200181,-12.47779 -0.93496,-3.43353 1.889402,-6.51227 6.240367,-9.92451 4.969278,-5.60557 12.205315,-8.11138 16.308451,-8.54961 9.46838,-0.25956 27.54968,2.86369 28.02987,9.65735"
       id="path32"
       inkscape:connector-curvature="0"
       sodipodi:nodetypes="ccsssssscccc" />
    <path
       style="opacity:1;fill:#0d0d0f;fill-opacity:1;fill-rule:nonzero;stroke:none;stroke-width:7.44474888;stroke-miterlimit:4;stroke-dasharray:none;stroke-opacity:1"
       d="m 84.773456,162.20303 c -4.007975,-0.3559 -2.237307,3.41075 -1.818383,4.68914 3.837638,11.71095 15.49954,17.20928 26.040207,16.30891 11.1075,-0.94878 21.79547,-10.67308 19.80959,-24.56795 -0.13936,-0.97507 -0.10355,-2.97081 -2.86382,-1.98944 l -10.39929,2.79248 -9.9219,1.45415 -11.874748,1.00971 z"
       id="path903"
       inkscape:connector-curvature="0"
       sodipodi:nodetypes="csssccccc" />
    <path
       style="opacity:1;fill:#ffffff;fill-opacity:1;fill-rule:nonzero;stroke:#0c0000;stroke-width:0.60000002;stroke-miterlimit:4;stroke-dasharray:none;stroke-opacity:1"
       d="m 123.26346,138.47437 c -0.32627,7.15986 -5.10236,12.51628 -12.25647,12.01419 0,0 -4.80111,-7.358 -11.147569,0.26876 -9.782059,0.45597 -12.788016,-5.07935 -12.9892,-10.15665 0.03061,-10.23448 8.409208,-16.55616 14.440139,-14.42856 1.27984,0.4515 3.23643,-0.17804 4.10294,-0.41497 3.54993,-0.97067 3.50605,-2.63559 9.76251,-0.79405 4.72979,2.32444 8.49587,7.64238 8.08765,13.5851"
       id="path843"
       inkscape:connector-curvature="0"
       sodipodi:nodetypes="ccccsscc" />
    <path
       style="opacity:1;fill:#0d0d0f;fill-opacity:1;fill-rule:nonzero;stroke:none;stroke-width:0.64666855;stroke-miterlimit:4;stroke-dasharray:none;stroke-opacity:1"
       d="m 102.60998,141.92643 c -0.0326,1.7366 -0.76737,3.23431 -1.6385,3.17231 -0.87113,-0.062 -1.552558,-1.51857 -1.522978,-3.25538 0.0296,-1.73681 0.758988,-3.09789 1.630218,-3.04196 0.87123,0.0559 1.55522,1.50772 1.52869,3.24473"
       id="path846"
       inkscape:connector-curvature="0"
       sodipodi:nodetypes="ccccc" />
    <path
       sodipodi:nodetypes="ccccc"
       inkscape:connector-curvature="0"
       id="path849"
       d="m 110.44154,141.05564 c -0.0299,1.4959 -0.70449,2.78601 -1.50424,2.73261 -0.79975,-0.0534 -1.42535,-1.30809 -1.39819,-2.80417 0.0272,-1.49607 0.6968,-2.6685 1.49664,-2.62032 0.79984,0.0481 1.42778,1.29874 1.40343,2.79499"
       style="opacity:1;fill:#060606;fill-opacity:1;fill-rule:nonzero;stroke:none;stroke-width:0.57506609;stroke-miterlimit:4;stroke-dasharray:none;stroke-opacity:1" />
    <path
       sodipodi:nodetypes="cscsc"
       inkscape:connector-curvature="0"
       id="path977"
       d="m 111.48901,209.52484 c -0.0391,-1.69801 -1.4724,-3.05279 -3.22254,-3.04596 -1.75013,0.006 -3.17217,1.37271 -3.19721,3.07098 -0.025,1.69826 1.35619,3.10304 3.10539,3.15847 1.7492,0.0554 3.22522,-1.48726 3.31436,-3.18349"
       style="opacity:1;vector-effect:none;fill:#000000;fill-opacity:1;fill-rule:evenodd;stroke:none;stroke-width:0.86169225;stroke-linecap:butt;stroke-linejoin:miter;stroke-miterlimit:4;stroke-dasharray:none;stroke-dashoffset:0;stroke-opacity:1" />
    <path
       style="opacity:0;vector-effect:none;fill:#666666;fill-opacity:1;fill-rule:evenodd;stroke:#0c0000;stroke-width:0.60000002;stroke-linecap:butt;stroke-linejoin:miter;stroke-miterlimit:4;stroke-dasharray:none;stroke-dashoffset:0;stroke-opacity:1"
       id="path865"
       sodipodi:type="arc"
       sodipodi:cx="-67.563248"
       sodipodi:cy="164.99182"
       sodipodi:rx="14.835566"
       sodipodi:ry="9.1659222"
       sodipodi:start="0.037434694"
       sodipodi:end="0.067476523"
       sodipodi:open="true"
       d="m -52.738076,165.33486 a 14.835566,9.1659222 0 0 1 -0.02337,0.27498" />
    <path
       sodipodi:nodetypes="ccccc"
       inkscape:connector-curvature="0"
       id="path908"
       d="m 111.18229,151.83522 c -0.10918,2.4806 -3.07491,4.16221 -5.9938,4.07364 -2.91889,-0.0886 -5.350339,-1.73041 -5.361219,-3.95016 0.271249,-2.3414 3.062859,-4.57866 5.982089,-4.49877 2.91923,0.0798 5.43181,3.25484 5.37145,4.41811"
       style="opacity:1;fill:#f6af8f;fill-opacity:1;fill-rule:nonzero;stroke:#000000;stroke-width:0.69700003;stroke-miterlimit:4;stroke-dasharray:none;stroke-opacity:1" />
    <path
       sodipodi:nodetypes="ccscscsccccsscccccccccccccccccsc"
       inkscape:connector-curvature="0"
       id="path932"
       d="m 70.410054,115.62421 c -5.176967,-0.0957 -16.173917,1.202 -13.864601,2.20497 4.394562,-0.70408 11.712276,-1.11035 11.058269,-0.96885 -11.801426,2.55328 -9.545384,2.17262 -14.967074,4.10929 -1.348929,1.46157 0.828607,0.90242 2.041353,0.49849 2.712914,-0.90369 7.548435,-3.26195 7.079212,-2.40279 -8.3803,3.4567 -3.064341,2.58481 -3.635815,2.93956 -2.259327,1.40251 -5.486793,1.41529 -18.582545,11.78014 -1.850431,2.08861 -0.570319,2.20514 0.736579,0.89884 0.11339,0.50228 0,0 0,0 0,0 9.493445,-7.42845 10.657385,-7.41672 -7.110291,4.64963 -20.931953,25.58923 -21.606885,28.25643 -0.788283,3.11513 1.494849,0.12425 1.494849,0.12425 0.401991,0.0334 2.461922,-6.81789 4.710623,-7.71741 1.609143,-1.39243 -4.973824,9.74991 -5.390371,14.8613 0.450896,0.51824 0.254459,1.72196 2.349974,-0.76206 -1.221147,-3.08178 1.381143,-6.83888 1.381143,-6.83888 0.770124,-0.54046 -1.824249,10.06681 -2.084748,16.47979 0.447056,0.26771 1.719896,-1.45696 1.874483,-0.79666 -0.290952,2.3371 -0.08594,4.20977 0.487082,6.51134 0.748211,-0.0807 0.658288,-0.94617 1.516074,-0.85698 0.46463,-0.18344 0.309686,2.81125 1.424422,3.45829 0.25672,0.35314 1.005456,-0.28278 1.114638,-0.71878 0.120666,-1.28287 -2.305807,-4.48303 -1.336347,-5.4122 0.685308,-0.37003 3.452826,7.78712 3.975637,9.12056 0.640604,0.19794 1.06905,-1.82943 1.703843,-1.06907 0.738718,1.46311 1.295623,1.73281 1.988203,2.2084 1.09639,-0.53886 1.080151,-0.62786 1.993461,-0.92931 -0.248657,-1.0339 -0.901757,-1.54254 -0.837998,-2.1985 0.768809,-1.20198 4.839345,-1.44033 4.839345,-1.44033 -15.886851,-17.72984 -9.666891,-50.77496 19.13895,-62.05911 1.215489,-0.47615 0.852169,-1.44101 0.740859,-1.864 z"
       style="opacity:1;vector-effect:none;fill:#0d0d0f;fill-opacity:1;stroke:none;stroke-width:0.5;stroke-linecap:butt;stroke-linejoin:miter;stroke-miterlimit:4;stroke-dasharray:none;stroke-dashoffset:0;stroke-opacity:1" />
    <path
       sodipodi:nodetypes="ccsssccsc"
       inkscape:connector-curvature="0"
       id="path937"
       d="m 163.29213,173.63617 c 3.3389,-2.08251 11.58565,-3.5725 8.70352,4.53517 -0.86277,2.46506 -4.45928,4.88657 -2.85419,6.67803 0.59735,0.66671 1.42853,1.77879 2.79543,2.00674 12.06789,2.01253 18.19165,6.66685 16.78779,7.22485 -1.2646,0.50265 -17.40963,-0.74996 -35.06072,-2.79292 -0.5685,-7.84503 0.20045,0.86863 -0.36805,-6.9764 0.78896,-1.1798 1.59805,-0.99433 2.113,-1.94532 3.63658,-6.71586 5.18143,-6.72312 7.88322,-8.73015"
       style="opacity:1;vector-effect:none;fill:#f9b497;fill-opacity:1;fill-rule:evenodd;stroke:#0b0000;stroke-width:1;stroke-linecap:butt;stroke-linejoin:miter;stroke-miterlimit:4;stroke-dasharray:none;stroke-dashoffset:0;stroke-opacity:1" />
    <path
       style="opacity:1;vector-effect:none;fill:#f9b497;fill-opacity:1;fill-rule:evenodd;stroke:#000000;stroke-width:1.10000002;stroke-linecap:butt;stroke-linejoin:miter;stroke-miterlimit:4;stroke-dasharray:none;stroke-dashoffset:0;stroke-opacity:1"
       d="m 190.19124,194.84013 c 4.47431,2.70016 1.26978,6.54326 -2.08336,7.23921 -3.19889,0.66393 -6.72642,-2.41826 -11.73203,-0.81808 -6.56875,2.09989 -15.56547,4.41993 -19.04679,3.79029 -1.75161,-0.21362 -1.96814,-1.60078 -1.96814,-1.60078 -0.50594,-2.67933 -0.46553,-2.39801 -1.44419,-10.74223 -0.6829,-5.82258 9.57095,-6.96688 14.68573,-3.90692 1.22504,2.6496 3.91751,3.53155 5.00839,3.73169 12.50199,0.10577 15.67786,1.75958 16.58039,2.30682"
       id="path934"
       inkscape:connector-curvature="0"
       sodipodi:nodetypes="cssccsccc" />
    <path
       style="opacity:1;vector-effect:none;fill:#000000;fill-opacity:1;stroke:#000000;stroke-width:0.60000002;stroke-linecap:butt;stroke-linejoin:miter;stroke-miterlimit:4;stroke-dasharray:none;stroke-dashoffset:0;stroke-opacity:1"
       d="m 166.719,186.48921 c 0.81895,-2.02375 2.60134,-4.5453 4.3231,-6.70908"
       id="path939"
       inkscape:connector-curvature="0"
       sodipodi:nodetypes="cc" />
    <path
       sodipodi:nodetypes="cc"
       inkscape:connector-curvature="0"
       id="path941"
       d="m 176.85578,189.96192 c 0.2381,1.52229 0.14733,0.53972 0.37239,2.65381"
       style="opacity:1;vector-effect:none;fill:none;fill-opacity:1;stroke:#000000;stroke-width:0.92500001;stroke-linecap:butt;stroke-linejoin:round;stroke-miterlimit:4;stroke-dasharray:none;stroke-dashoffset:0;stroke-opacity:1;paint-order:markers fill stroke" />
    <path
       style="opacity:1;vector-effect:none;fill:none;fill-opacity:1;fill-rule:evenodd;stroke:none;stroke-width:7.44474888;stroke-linecap:butt;stroke-linejoin:miter;stroke-miterlimit:4;stroke-dasharray:none;stroke-dashoffset:0;stroke-opacity:1"
       id="path947"
       sodipodi:type="arc"
       sodipodi:cx="34.049385"
       sodipodi:cy="208.50633"
       sodipodi:rx="7.2287946"
       sodipodi:ry="2.4095981"
       sodipodi:start="0.022337771"
       sodipodi:end="6.2322391"
       sodipodi:open="true"
       d="m 41.276376,208.56015 a 7.2287946,2.4095981 0 0 1 -7.256027,2.35576 7.2287946,2.4095981 0 0 1 -7.199019,-2.37511 7.2287946,2.4095981 0 0 1 6.992256,-2.44278 7.2287946,2.4095981 0 0 1 7.455214,2.28561" />
    <path
       style="opacity:1;vector-effect:none;fill:#f7b293;fill-opacity:1;fill-rule:evenodd;stroke:#000000;stroke-width:1;stroke-linecap:butt;stroke-linejoin:miter;stroke-miterlimit:4;stroke-dasharray:none;stroke-dashoffset:0;stroke-opacity:1"
       d="m 56.204914,181.35633 c -2.204972,-2.01164 -9.223293,-4.04497 -7.947565,4.81865 0.86277,2.46506 2.460132,4.54873 1.011556,5.82759 -0.73654,0.65025 -8.824537,2.7528 -11.12688,5.58663 -12.067884,2.01253 -13.581238,5.33049 -12.177382,5.88849 0.268929,0.1069 -3.344521,1.87768 0.02249,5.19693 1.577218,1.55485 10.86621,1.44356 14.85644,1.39414 7.524226,-0.0932 9.614537,5.0683 18.44452,4.04631 0.968138,-6.78423 0.332055,-11.29521 2.002506,-16.20457 2.553629,-7.50497 -2.309326,-14.00845 -5.085685,-16.55417"
       id="path943"
       inkscape:connector-curvature="0"
       sodipodi:nodetypes="ccscssscsc" />
    <path
       style="opacity:1;vector-effect:none;fill:#f5a98a;fill-opacity:1;fill-rule:evenodd;stroke:#000000;stroke-width:0.44415152;stroke-linecap:butt;stroke-linejoin:miter;stroke-miterlimit:4;stroke-dasharray:none;stroke-dashoffset:0;stroke-opacity:1"
       d="m 41.268788,208.38363 c -0.08919,1.56863 -3.226115,1.78451 -7.219632,1.77821 -3.993519,-0.006 -6.870891,-1.30154 -6.927999,-2.87041 -0.05711,-1.56886 2.593423,-1.79755 6.58483,-1.84873 3.991405,-0.0512 7.351742,1.16309 7.555123,2.73007"
       id="path950"
       inkscape:connector-curvature="0"
       sodipodi:nodetypes="cscsc" />
    <path
       sodipodi:nodetypes="csscccccc"
       inkscape:connector-curvature="0"
       id="path945"
       d="m 27.113977,196.81 c -5.04274,1.37152 -3.013256,5.94532 0.02107,7.533 2.89475,1.51463 6.210537,1.90086 11.173423,3.629 6.744753,2.34862 17.45897,5.7952 20.979623,6.14307 0.774291,-2.73251 0,0 0,0 1.01994,-2.7056 0.06515,-7.98883 1.626792,-14.83276 -1.176474,-2.90808 -8.433675,-3.29713 -11.383787,-2.36736 -3.131454,1.51687 -4.60129,3.59316 -5.705274,3.48688 -5.772111,-2.72087 -15.693957,-3.87097 -16.711851,-3.59183"
       style="opacity:1;vector-effect:none;fill:#f7b293;fill-opacity:1;fill-rule:evenodd;stroke:#000000;stroke-width:1.10000002;stroke-linecap:butt;stroke-linejoin:miter;stroke-miterlimit:4;stroke-dasharray:none;stroke-dashoffset:0;stroke-opacity:1" />
    <path
       style="opacity:1;vector-effect:none;fill:#f7b298;fill-opacity:1;stroke:none;stroke-width:0.5;stroke-linecap:butt;stroke-linejoin:miter;stroke-miterlimit:4;stroke-dasharray:none;stroke-dashoffset:0;stroke-opacity:1"
       d="m 96.551107,192.96533 c 7.732133,1.37651 24.922873,-0.53453 24.922873,-0.53453 -9.15895,5.6654 -17.55874,3.37948 -24.922873,0.53453 z"
       id="path953"
       inkscape:connector-curvature="0"
       sodipodi:nodetypes="ccc" />
    <path
       style="opacity:1;vector-effect:none;fill:#ffffff;fill-opacity:1;stroke:#000000;stroke-width:1;stroke-linecap:butt;stroke-linejoin:miter;stroke-miterlimit:4;stroke-dasharray:none;stroke-dashoffset:0;stroke-opacity:1"
       d="m 90.905049,190.10271 c -1.008289,1.03425 0.336878,3.89878 0.336878,3.89878 0,0 -4.233774,3.39277 -3.850628,5.66964 0.992831,7.2473 5.516285,6.64539 8.457209,5.81138 3.133104,-0.88851 5.277082,-3.88324 7.276032,-6.52009 5.34868,-3.88572 6.85028,-1.28589 8.22098,-0.0472 2.60646,2.39385 5.98361,5.26787 8.59896,6.3311 7.18323,2.07369 7.63968,-0.59496 8.07924,-3.49628 0.33119,-2.18604 0.23297,-3.88832 0,-5.81139 -1.53726,-1.25555 -0.77859,-4.78979 -0.78956,-6.69904 -12.4312,4.50235 -25.36005,3.88008 -35.577374,1.08026 z"
       id="path970"
       inkscape:connector-curvature="0"
       sodipodi:nodetypes="cccscccscccc" />
    <path
       style="opacity:1;vector-effect:none;fill:#000000;fill-opacity:1;stroke:none;stroke-width:0.8458212;stroke-linecap:butt;stroke-linejoin:miter;stroke-miterlimit:4;stroke-dasharray:none;stroke-dashoffset:0;stroke-opacity:1"
       d="m 91.205727,189.6684 c 11.090323,2.74633 20.317283,3.44559 34.518863,-0.38137 -1.37234,11.30323 -33.830984,10.16792 -34.518863,0.38137 z"
       id="path968"
       inkscape:connector-curvature="0"
       sodipodi:nodetypes="ccc" />
    <path
       sodipodi:nodetypes="ccc"
       inkscape:connector-curvature="0"
       id="path955"
       d="m 96.551107,192.96533 c 7.732133,1.37651 24.922873,-0.53453 24.922873,-0.53453 -9.15895,5.6654 -17.55874,3.37948 -24.922873,0.53453 z"
       style="opacity:1;vector-effect:none;fill:#f7b298;fill-opacity:1;stroke:none;stroke-width:0.5;stroke-linecap:butt;stroke-linejoin:miter;stroke-miterlimit:4;stroke-dasharray:none;stroke-dashoffset:0;stroke-opacity:1" />
    <path
       sodipodi:nodetypes="cscsc"
       inkscape:connector-curvature="0"
       id="path975"
       d="m 110.15266,201.86832 c -0.026,0.83219 -0.98104,1.49616 -2.14715,1.49282 -1.16609,-0.003 -2.11358,-0.67277 -2.13027,-1.50509 -0.0166,-0.83232 0.90361,-1.5208 2.06909,-1.54797 1.16548,-0.0271 2.14895,0.72892 2.20833,1.56024"
       style="opacity:1;vector-effect:none;fill:#ffffff;fill-opacity:1;fill-rule:evenodd;stroke:none;stroke-width:0.4924089;stroke-linecap:butt;stroke-linejoin:miter;stroke-miterlimit:4;stroke-dasharray:none;stroke-dashoffset:0;stroke-opacity:1" />
    <path
       style="opacity:1;vector-effect:none;fill:#ffffff;fill-opacity:1;fill-rule:evenodd;stroke:none;stroke-width:0.45155415;stroke-linecap:butt;stroke-linejoin:miter;stroke-miterlimit:4;stroke-dasharray:none;stroke-dashoffset:0;stroke-opacity:1"
       d="m 110.4732,209.46896 c -0.0243,-0.75172 -0.91332,-1.35148 -1.99893,-1.34847 -1.0856,0.003 -1.96768,0.60772 -1.98321,1.35955 -0.0155,0.75184 0.84123,1.37375 1.92625,1.39829 1.08502,0.0245 2.0006,-0.65844 2.05589,-1.40937"
       id="path979"
       inkscape:connector-curvature="0"
       sodipodi:nodetypes="cscsc" />
    <path
       style="opacity:1;vector-effect:none;fill:#000000;fill-opacity:1;stroke:none;stroke-width:0.5;stroke-linecap:butt;stroke-linejoin:miter;stroke-miterlimit:4;stroke-dasharray:none;stroke-dashoffset:0;stroke-opacity:1"
       d="m 83.611496,230.09821 c 9.511747,1.08876 18.049644,1.4056 25.796854,4.91369 2.25042,-3.13743 23.05734,-2.07277 29.57664,-3.77976 -17.16041,1.35484 -44.777019,-1.83643 -55.373494,-1.13393 z"
       id="path993"
       inkscape:connector-curvature="0"
       sodipodi:nodetypes="cccc" />
    <path
       sodipodi:nodetypes="ccccc"
       inkscape:connector-curvature="0"
       id="path1006"
       d="m 136.9792,232.30933 c 0.89908,5.31255 1.67311,5.22151 0.95508,8.08063 -9.69173,-0.97273 -23.46483,1.0023 -26.68918,2.34925 -0.5002,-2.88034 -0.5128,-5.33426 -0.30824,-8.48105 11.39724,-2.50915 21.26541,-0.87373 26.04234,-1.94883 z"
       style="opacity:1;vector-effect:none;fill:#f7b092;fill-opacity:1;stroke:none;stroke-width:0.5;stroke-linecap:butt;stroke-linejoin:miter;stroke-miterlimit:4;stroke-dasharray:none;stroke-dashoffset:0;stroke-opacity:1" />
    <path
       style="opacity:1;vector-effect:none;fill:#ffffff;fill-opacity:1;stroke:none;stroke-width:0.5;stroke-linecap:butt;stroke-linejoin:miter;stroke-miterlimit:4;stroke-dasharray:none;stroke-dashoffset:0;stroke-opacity:1"
       d="m 76.666183,242.38244 c 0.436919,0.81492 1.700893,1.88988 1.700893,1.88988 0,0 10.494753,-3.37825 29.033284,5.22079 0.75237,0.42727 1.84263,1.88988 1.84263,1.88988 l -1.2048,0.96857 c 0,0 -6.95085,-6.7485 -24.568434,-7.18155 8.16132,1.60809 17.984704,5.05936 24.201924,10.49744 1.28911,-0.23459 2.46348,-2.36189 2.53987,-4.16634 -0.84998,-0.63016 -1.43478,-1.00759 -1.3608,-1.59005 0.16518,-1.30043 1.20445,-2.70512 0.69934,-3.65437 -5.60192,-0.65799 -16.831866,-5.71739 -32.883907,-3.87425 z"
       id="path1022"
       inkscape:connector-curvature="0"
       sodipodi:nodetypes="ccccccccscc" />
    <path
       style="opacity:1;vector-effect:none;fill:#ffffff;fill-opacity:1;stroke:none;stroke-width:0.5;stroke-linecap:butt;stroke-linejoin:miter;stroke-miterlimit:4;stroke-dasharray:none;stroke-dashoffset:0;stroke-opacity:1"
       d="m 103.23284,256.30821 c -5.969624,-4.87142 -13.398595,-6.33445 -17.305688,-6.98242 -2.935229,-1.03541 -6.059706,0.11711 -10.223057,2.37202 -0.537315,0.56571 -3.367576,2.23279 -1.135896,3.0736 7.194525,3.20754 16.484678,3.31973 28.263731,2.73951 2.12502,-0.19684 0.40091,-1.20271 0.40091,-1.20271 z"
       id="path1024"
       inkscape:connector-curvature="0"
       sodipodi:nodetypes="cccccc" />
    <path
       sodipodi:nodetypes="csccc"
       inkscape:connector-curvature="0"
       id="path1026"
       d="m 116.71585,255.24987 c 7.23916,-6.90935 10.84985,-6.5833 14.53279,-6.94901 10.53783,-1.0464 17.95039,5.7926 17.03844,6.21402 -8.83156,1.30324 -23.96824,4.08813 -31.17032,1.9377 -1.42344,-0.16343 -0.40091,-1.20271 -0.40091,-1.20271 z"
       style="opacity:1;vector-effect:none;fill:#ffffff;fill-opacity:1;stroke:none;stroke-width:0.5;stroke-linecap:butt;stroke-linejoin:miter;stroke-miterlimit:4;stroke-dasharray:none;stroke-dashoffset:0;stroke-opacity:1" />
    <path
       style="opacity:1;vector-effect:none;fill:#ffffff;fill-opacity:1;stroke:none;stroke-width:0.5;stroke-linecap:butt;stroke-linejoin:miter;stroke-miterlimit:4;stroke-dasharray:none;stroke-dashoffset:0;stroke-opacity:1"
       d="m 111.48722,249.6821 c 1.30549,2.75349 0.73713,2.87868 0.18899,4.65383 11.18399,-9.24324 15.52885,-8.45151 18.1901,-9.35491 -2.67307,0.0186 -6.98234,-0.61597 -15.00331,3.49053 -1.37309,0.70298 -1.60365,0.35383 -3.37578,1.21055 z"
       id="path1028"
       inkscape:connector-curvature="0"
       sodipodi:nodetypes="cccsc" />
    <path
       style="opacity:1;vector-effect:none;fill:#ffffff;fill-opacity:1;stroke:none;stroke-width:0.5;stroke-linecap:butt;stroke-linejoin:miter;stroke-miterlimit:4;stroke-dasharray:none;stroke-dashoffset:0;stroke-opacity:1"
       d="m 112.00694,244.83928 c 0.5444,1.10331 0.65242,1.74119 0.14174,2.88207 4.94256,-1.70775 16.30197,-5.94638 27.21429,-3.2128 l 1.88988,-2.26785 c -2.31913,-0.21325 -17.99895,-2.13597 -29.24591,2.59858 z"
       id="path1030"
       inkscape:connector-curvature="0"
       sodipodi:nodetypes="ccccc" />
    <path
       style="opacity:1;vector-effect:none;fill:#0d0d0f;fill-opacity:1;stroke:none;stroke-width:0.5;stroke-linecap:butt;stroke-linejoin:miter;stroke-miterlimit:4;stroke-dasharray:none;stroke-dashoffset:0;stroke-opacity:1"
       d="m 131.22932,108.57498 c 3.89667,-0.42845 12.26099,-0.83522 12.26099,-0.83522 l -0.26727,1.46998 c 0,0 -5.67491,-0.0457 -6.24742,0.30068 12.12393,0.56541 14.53277,1.83749 14.53277,1.83749 0,0 -0.94745,0.46218 -1.67043,0.83522 -4.29792,-1.33229 -5.29655,-1.18013 -6.64833,-0.80182 6.89419,1.64293 16.57665,3.20969 18.37478,4.2095 0.16663,0.89601 -2.4828,0.81911 -2.35531,1.54515 2.32582,1.10294 7.51696,3.88375 7.51696,3.88375 0,0 -0.73358,0.67778 -0.66818,1.10249 3.21095,2.20906 8.43569,7.68401 8.43569,7.68401 l -1.5535,0.86862 c 0,0 -1.56316,-3.9823 -8.8366,-7.684 4.43788,4.94232 8.90657,6.86675 13.0628,14.01495 -0.11339,0.50228 -1.10248,0.61805 -1.10248,0.61805 0,0 -2.47762,-4.68894 -3.64156,-4.67721 2.91933,3.72818 5.58953,9.1974 7.31651,13.71427 -0.18807,0.35685 -1.20271,0.13363 -1.20271,0.13363 0,0 -2.02735,-6.28877 -2.93997,-6.81537 0.70935,3.21212 2.94746,9.24212 3.44109,16.03617 -0.25672,0.35314 -1.30293,0.13364 -1.30293,0.13364 0,0 -0.74664,-8.87493 -2.13816,-10.15624 -0.56235,1.22437 0.63326,13.15231 0.70158,16.67093 -0.8352,0.49848 -2.5719,0.0416 -2.3052,3.90882 -0.82985,0.994 -2.93996,2.53906 -2.93996,2.53906 l -0.43431,-2.20498 -0.7684,3.14042 -12.20988,4.89077 c 24.38328,-29.37049 -6.11105,-60.072 -25.93698,-63.32946 -1.29323,-0.17799 -0.5849,-2.61031 -0.47359,-3.0333 z"
       id="path930"
       inkscape:connector-curvature="0"
       sodipodi:nodetypes="ccccccccccccccccccccccccccccccc" />
    <path
       style="opacity:1;vector-effect:none;fill:#0b0c09;fill-opacity:1;stroke:none;stroke-width:0.5;stroke-linecap:butt;stroke-linejoin:miter;stroke-miterlimit:4;stroke-dasharray:none;stroke-dashoffset:0;stroke-opacity:1"
       d="m 63.342524,191.37927 c 0,0 2.531547,3.4303 2.07887,4.67746 -4.799403,1.3889 -2.55134,1.25205 -2.55134,1.25205 0,0 1.857017,-0.36424 1.795386,0.23623 -0.920513,8.96852 1.075753,0.23336 1.41741,-0.0945 0.791488,-0.75952 1.525874,2.17622 3.141927,2.92931 1.401143,0.65294 1.986445,-3.67554 0.755952,-4.11049 -3.134658,0.24509 -3.443036,-0.40317 -3.236421,-0.99219 0.891779,-2.5423 1.91438,-2.21564 1.889882,-3.21279 -0.02399,-0.97628 -2.267857,2.17337 -2.267857,2.17337 -0.634397,-0.12154 -2.756704,-3.52623 -3.023809,-2.85845 z"
       id="path1180"
       inkscape:connector-curvature="0"
       sodipodi:nodetypes="cccssscsscc" />
    <path
       sodipodi:nodetypes="cscssscsscccc"
       inkscape:connector-curvature="0"
       id="path1184"
       d="m 74.300574,197.72692 c 1.895069,0.0391 4.676564,-1.17759 4.217026,0.0671 -1.685543,4.56526 -0.0791,3.22316 -0.0791,3.22316 0,0 0.431604,-2.15567 0.993577,-1.93533 0,0 2.323567,2.21279 2.18581,1.70957 0,0 -3.151343,-4.53893 -1.53529,-3.78584 1.401143,0.65294 3.222567,-0.30126 1.992074,-0.73621 -3.134658,0.24509 -2.541002,0.29841 -1.198491,-2.89649 1.043702,-2.4838 -1.329654,2.52315 -2.185978,3.03464 -0.658756,0.39347 -2.532272,-2.76105 -2.532272,-2.76105 -0.634397,-0.12154 0.213814,2.37704 0.915562,3.27868 0,0 -3.726323,1.33334 -2.772918,0.80181 z"
       style="opacity:1;vector-effect:none;fill:#000000;fill-opacity:1;stroke:none;stroke-width:0.5;stroke-linecap:butt;stroke-linejoin:miter;stroke-miterlimit:4;stroke-dasharray:none;stroke-dashoffset:0;stroke-opacity:1" />
    <path
       style="opacity:1;vector-effect:none;fill:#000000;fill-opacity:1;stroke:none;stroke-width:0.5;stroke-linecap:butt;stroke-linejoin:miter;stroke-miterlimit:4;stroke-dasharray:none;stroke-dashoffset:0;stroke-opacity:1"
       d="m 90.938107,215.96807 c 1.895067,0.0391 4.676552,-1.17759 4.217013,0.0671 -1.685537,4.56526 -0.0791,3.22316 -0.0791,3.22316 0,0 0.431609,-2.15567 0.993578,-1.93533 0,0 2.323566,2.21279 2.185806,1.70957 0,0 -3.151334,-4.53893 -1.535287,-3.78584 1.401137,0.65294 3.222564,-0.30126 1.992066,-0.73621 -3.134644,0.24509 -2.540995,0.29841 -1.198488,-2.89649 1.043708,-2.4838 -1.329647,2.52315 -2.185966,3.03464 -0.658759,0.39347 -2.532275,-2.76105 -2.532275,-2.76105 -0.634389,-0.12154 0.21382,2.37704 0.915568,3.27868 0,0 -3.726325,1.33334 -2.772915,0.80181 z"
       id="path1186"
       inkscape:connector-curvature="0"
       sodipodi:nodetypes="cscssscsscccc" />
    <path
       style="opacity:1;vector-effect:none;fill:#000000;fill-opacity:1;stroke:none;stroke-width:0.5;stroke-linecap:butt;stroke-linejoin:miter;stroke-miterlimit:4;stroke-dasharray:none;stroke-dashoffset:0;stroke-opacity:1"
       d="m 59.693756,209.37319 c 1.880409,0.23849 4.774581,-0.67847 4.1865,0.5109 -2.157008,4.36233 -0.418141,3.19689 -0.418141,3.19689 0,0 0.65625,-2.09821 1.19189,-1.81991 0,0 2.077578,2.44521 1.993588,1.93029 0,0 -2.655743,-4.84561 -1.128,-3.9265 1.324578,0.79689 3.236374,0.0398 2.058536,-0.52229 -3.143038,-0.0864 -2.558298,0.0291 -0.886749,-3.00661 1.299506,-2.36005 -1.588012,2.36907 -2.493445,2.78752 -0.696536,0.32189 -2.227378,-3.01241 -2.227378,-3.01241 -0.618052,-0.18771 -0.03774,2.38634 0.565139,3.35688 0,0 -3.846033,0.93344 -2.841945,0.50528 z"
       id="path1201"
       inkscape:connector-curvature="0"
       sodipodi:nodetypes="cscssscsscccc" />
    <path
       sodipodi:nodetypes="cscssscsscccc"
       inkscape:connector-curvature="0"
       id="path1203"
       d="m 62.987671,213.74529 c 0.977893,1.62374 3.490855,3.32729 2.192919,3.60263 -4.760552,1.0098 -2.768383,1.65257 -2.768383,1.65257 0,0 2.053536,-0.78494 2.16698,-0.19207 0,0 -0.63204,3.14578 -0.279904,2.76081 0,0 2.157932,-5.08687 2.383086,-3.31824 0.195201,1.53344 1.974005,2.56496 1.685413,1.29218 -1.879593,-2.52057 -1.607948,-1.99003 1.810525,-2.55891 2.657624,-0.44227 -2.843456,0.2214 -3.732912,-0.23002 -0.684228,-0.34728 0.984432,-3.6148 0.984432,-3.6148 -0.235586,-0.60143 -1.896477,1.44895 -2.284731,2.52351 0,0 -3.115661,-2.44048 -2.157461,-1.91764 z"
       style="opacity:1;vector-effect:none;fill:#000000;fill-opacity:1;stroke:none;stroke-width:0.5;stroke-linecap:butt;stroke-linejoin:miter;stroke-miterlimit:4;stroke-dasharray:none;stroke-dashoffset:0;stroke-opacity:1" />
    <path
       sodipodi:nodetypes="cscssscsscccc"
       inkscape:connector-curvature="0"
       id="path1229"
       d="m 68.898631,208.82592 c 0.977893,1.62374 3.490855,3.32729 2.192919,3.60263 -4.760552,1.0098 -2.768383,1.65257 -2.768383,1.65257 0,0 2.053536,-0.78494 2.16698,-0.19207 0,0 -0.63204,3.14578 -0.279904,2.76081 0,0 2.157932,-5.08687 2.383086,-3.31824 0.195201,1.53344 1.974005,2.56496 1.685413,1.29218 -1.879593,-2.52057 -1.607948,-1.99003 1.810525,-2.55891 2.657624,-0.44227 -2.843456,0.2214 -3.732912,-0.23002 -0.684228,-0.34728 0.984432,-3.6148 0.984432,-3.6148 -0.235586,-0.60143 -1.896477,1.44895 -2.284731,2.52351 0,0 -3.115661,-2.44048 -2.157461,-1.91764 z"
       style="opacity:1;vector-effect:none;fill:#000000;fill-opacity:1;stroke:none;stroke-width:0.5;stroke-linecap:butt;stroke-linejoin:miter;stroke-miterlimit:4;stroke-dasharray:none;stroke-dashoffset:0;stroke-opacity:1" />
    <path
       sodipodi:nodetypes="cscssscsscccc"
       inkscape:connector-curvature="0"
       id="path1199"
       d="m 68.088851,206.28023 c 1.824027,-0.5155 4.129529,-2.49077 4.053131,-1.16616 -0.280265,4.8584 0.86472,3.106 0.86472,3.106 0,0 -0.216105,-2.1878 0.385703,-2.14101 0,0 2.868071,1.4386 2.58949,0.99747 0,0 -4.338499,-3.42203 -2.573038,-3.1732 1.530683,0.21574 2.994467,-1.22836 1.69061,-1.28538 -2.92677,1.14899 -2.343386,1.02678 -1.991418,-2.4208 0.273629,-2.68024 -0.535658,2.80131 -1.205495,3.54038 -0.515298,0.56855 -3.227654,-1.90211 -3.227654,-1.90211 -0.642256,0.0688 0.898029,2.21124 1.832305,2.86891 0,0 -3.17519,2.36251 -2.418342,1.57594 z"
       style="opacity:1;vector-effect:none;fill:#000000;fill-opacity:1;stroke:none;stroke-width:0.5;stroke-linecap:butt;stroke-linejoin:miter;stroke-miterlimit:4;stroke-dasharray:none;stroke-dashoffset:0;stroke-opacity:1" />
    <path
       sodipodi:nodetypes="cscssscsscccc"
       inkscape:connector-curvature="0"
       id="path1231"
       d="m 83.788647,209.82087 c 1.89507,0.0391 4.67656,-1.17759 4.21702,0.0671 -1.68554,4.56526 -0.0791,3.22316 -0.0791,3.22316 0,0 0.43161,-2.15567 0.99358,-1.93533 0,0 2.32357,2.21279 2.18581,1.70957 0,0 -3.15134,-4.53893 -1.53529,-3.78584 1.40114,0.65294 3.222567,-0.30126 1.992069,-0.73621 -3.134649,0.24509 -2.540999,0.29841 -1.198489,-2.89649 1.04371,-2.4838 -1.32965,2.52315 -2.18597,3.03464 -0.65876,0.39347 -2.53228,-2.76105 -2.53228,-2.76105 -0.63439,-0.12154 0.21382,2.37704 0.91557,3.27868 0,0 -3.72633,1.33334 -2.77292,0.80181 z"
       style="opacity:1;vector-effect:none;fill:#000000;fill-opacity:1;stroke:none;stroke-width:0.5;stroke-linecap:butt;stroke-linejoin:miter;stroke-miterlimit:4;stroke-dasharray:none;stroke-dashoffset:0;stroke-opacity:1" />
    <path
       style="opacity:1;vector-effect:none;fill:#000000;fill-opacity:1;stroke:none;stroke-width:0.5;stroke-linecap:butt;stroke-linejoin:miter;stroke-miterlimit:4;stroke-dasharray:none;stroke-dashoffset:0;stroke-opacity:1"
       d="m 77.780887,212.07384 c 1.051745,1.57691 3.640588,3.16276 2.356736,3.49765 -4.708927,1.22827 -2.689238,1.77849 -2.689238,1.77849 0,0 2.015168,-0.87881 2.15582,-0.2918 0,0 -0.486294,3.17158 -0.152283,2.77078 0,0 1.921041,-5.18097 2.227516,-3.4246 0.265718,1.5228 2.090165,2.47122 1.743218,1.21307 -1.993806,-2.43122 -1.698027,-1.91375 1.690592,-2.63968 2.634406,-0.56436 -2.830219,0.3523 -3.739544,-0.0576 -0.699523,-0.31535 0.816674,-3.65634 0.816674,-3.65634 -0.263117,-0.58991 -1.827629,1.53486 -2.165914,2.62618 0,0 -3.224901,-2.2942 -2.24361,-1.8161 z"
       id="path1233"
       inkscape:connector-curvature="0"
       sodipodi:nodetypes="cscssscsscccc" />
    <path
       sodipodi:nodetypes="cscssscsscccc"
       inkscape:connector-curvature="0"
       id="path1235"
       d="m 75.709821,229.6349 c 0.654152,-1.77902 0.409671,-4.80511 1.436837,-3.96526 3.767416,3.08046 3.021675,1.12451 3.021675,1.12451 0,0 -1.897581,-1.11014 -1.506229,-1.56971 0,0 2.848886,-1.47623 2.32824,-1.50987 0,0 -5.317797,1.5013 -4.079451,0.21862 1.073665,-1.1121 0.764689,-3.14499 -0.0473,-2.12323 -0.78916,3.04357 -0.54541,2.49965 -3.128894,0.18982 -2.008473,-1.79573 1.952549,2.07889 2.157285,3.0551 0.15748,0.75098 -3.435223,1.49499 -3.435223,1.49499 -0.321522,0.56023 2.317077,0.572 3.398109,0.20215 0,0 0.04706,3.95741 -0.144993,2.88288 z"
       style="opacity:1;vector-effect:none;fill:#000000;fill-opacity:1;stroke:none;stroke-width:0.5;stroke-linecap:butt;stroke-linejoin:miter;stroke-miterlimit:4;stroke-dasharray:none;stroke-dashoffset:0;stroke-opacity:1" />
    <path
       style="opacity:1;vector-effect:none;fill:#000000;fill-opacity:1;stroke:none;stroke-width:0.5;stroke-linecap:butt;stroke-linejoin:miter;stroke-miterlimit:4;stroke-dasharray:none;stroke-dashoffset:0;stroke-opacity:1"
       d="m 84.286347,222.55335 c 1.894757,0.0522 4.684579,-1.14527 4.216459,0.0962 -1.717034,4.55351 -0.101363,3.22254 -0.101363,3.22254 0,0 0.44649,-2.15264 1.006924,-1.92843 0,0 2.308229,2.22879 2.173949,1.72463 0,0 -3.11992,-4.56058 -1.509107,-3.79635 1.396597,0.6626 3.224574,-0.279 1.997106,-0.72244 -3.136268,0.22344 -2.543,0.28085 -1.178456,-2.90469 1.060837,-2.47654 -1.347038,2.5139 -2.20686,3.01948 -0.66145,0.38891 -2.513135,-2.77847 -2.513135,-2.77847 -0.633545,-0.12592 0.197387,2.37846 0.892899,3.28492 0,0 -3.735446,1.30758 -2.778399,0.78264 z"
       id="path1248"
       inkscape:connector-curvature="0"
       sodipodi:nodetypes="cscssscsscccc" />
    <path
       sodipodi:nodetypes="cscssscsscccc"
       inkscape:connector-curvature="0"
       id="path1250"
       d="m 98.776513,229.37827 c 1.016968,-1.59957 1.420527,-4.60858 2.245957,-3.56981 3.02749,3.81012 2.71403,1.74043 2.71403,1.74043 0,0 -1.61862,-1.48772 -1.13862,-1.85372 0,0 3.09737,-0.8377 2.59573,-0.98112 0,0 -5.515299,0.33801 -4.03286,-0.6525 1.28531,-0.85879 1.41499,-2.91094 0.40458,-2.08487 -1.41737,2.80663 -1.0637,2.32686 -3.097857,-0.47882 -1.581417,-2.18122 1.466648,2.44605 1.459448,3.44347 -0.006,0.7673 -3.674303,0.73155 -3.674303,0.73155 -0.43315,0.47919 2.142796,1.05092 3.277703,0.91901 0,0 -0.794238,3.87719 -0.753768,2.78637 z"
       style="opacity:1;vector-effect:none;fill:#000000;fill-opacity:1;stroke:none;stroke-width:0.5;stroke-linecap:butt;stroke-linejoin:miter;stroke-miterlimit:4;stroke-dasharray:none;stroke-dashoffset:0;stroke-opacity:1" />
    <path
       style="opacity:1;vector-effect:none;fill:#000000;fill-opacity:1;stroke:#0e0000;stroke-width:0.5;stroke-linecap:butt;stroke-linejoin:miter;stroke-miterlimit:4;stroke-dasharray:none;stroke-dashoffset:0;stroke-opacity:1"
       d="m 108.79912,224.16651 c 1.01697,-1.59957 1.42053,-4.60858 2.24596,-3.56981 3.02749,3.81012 2.71403,1.74043 2.71403,1.74043 0,0 -1.61862,-1.48772 -1.13862,-1.85372 0,0 3.09737,-0.8377 2.59573,-0.98112 0,0 -5.5153,0.33801 -4.03286,-0.6525 1.28531,-0.85879 1.41499,-2.91094 0.40458,-2.08487 -1.41737,2.80663 -1.0637,2.32686 -3.09786,-0.47882 -1.58142,-2.18122 1.46665,2.44605 1.45945,3.44347 -0.006,0.7673 -3.67431,0.73155 -3.67431,0.73155 -0.43315,0.47919 2.1428,1.05092 3.27771,0.91901 0,0 -0.79424,3.87719 -0.75377,2.78637 z"
       id="path1252"
       inkscape:connector-curvature="0"
       sodipodi:nodetypes="cscssscsscccc" />
    <path
       sodipodi:nodetypes="cscssscsscccc"
       inkscape:connector-curvature="0"
       id="path1254"
       d="m 116.75081,226.64514 c 1.89289,0.0991 4.71149,-1.02894 4.21279,0.20056 -1.82924,4.50961 -0.18112,3.21905 -0.18112,3.21905 0,0 0.49965,-2.14093 1.05436,-1.90291 0,0 2.25234,2.28526 2.13059,1.77792 0,0 -3.00606,-4.63642 -1.41466,-3.83255 1.37976,0.69698 3.2305,-0.19908 2.01438,-0.67277 -3.14084,0.14572 -2.54918,0.2178 -1.10618,-2.93298 1.12182,-2.44951 -1.40887,2.47978 -2.28094,2.96392 -0.6711,0.37203 -2.44357,-2.83984 -2.44357,-2.83984 -0.63024,-0.14157 0.13843,2.38262 0.8113,3.30602 0,0 -3.76669,1.2147 -2.79693,0.71361 z"
       style="opacity:1;vector-effect:none;fill:#000000;fill-opacity:1;stroke:#0e0000;stroke-width:0.5;stroke-linecap:butt;stroke-linejoin:miter;stroke-miterlimit:4;stroke-dasharray:none;stroke-dashoffset:0;stroke-opacity:1" />
    <path
       style="opacity:1;vector-effect:none;fill:#000000;fill-opacity:1;stroke:#0e0000;stroke-width:0.5;stroke-linecap:butt;stroke-linejoin:miter;stroke-miterlimit:4;stroke-dasharray:none;stroke-dashoffset:0;stroke-opacity:1"
       d="m 121.95063,219.90058 c 0.95186,-1.63915 1.23415,-4.66195 2.10066,-3.6572 3.17819,3.68536 2.78179,1.62994 2.78179,1.62994 0,0 -1.6771,-1.42146 -1.2122,-1.80646 0,0 3.0612,-0.96151 2.5542,-1.08466 0,0 -5.49726,0.55943 -4.05583,-0.48988 1.24975,-0.90974 1.43048,-4.56907 0.45409,-3.70306 -1.30342,2.86133 -1.10296,3.97136 -3.24823,1.2497 -1.66781,-2.11589 1.56377,2.38513 1.59667,3.38203 0.0248,0.76692 -3.64194,0.87863 -3.64194,0.87863 -0.41354,0.49622 2.18331,0.96395 3.312,0.78653 0,0 -0.63776,3.90599 -0.64118,2.81442 z"
       id="path1256"
       inkscape:connector-curvature="0"
       sodipodi:nodetypes="cscssscsscccc" />
    <path
       sodipodi:nodetypes="cscssscsscccc"
       inkscape:connector-curvature="0"
       id="path1258"
       d="m 121.95063,219.90058 c 0.95186,-1.63915 1.23415,-4.66195 2.10066,-3.6572 3.17819,3.68536 2.78179,1.62994 2.78179,1.62994 0,0 -1.6771,-1.42146 -1.2122,-1.80646 0,0 3.0612,-0.96151 2.5542,-1.08466 0,0 -5.49726,0.55943 -4.05583,-0.48988 1.24975,-0.90974 1.43048,-4.56907 0.45409,-3.70306 -1.30342,2.86133 -1.10296,3.97136 -3.24823,1.2497 -1.66781,-2.11589 1.56377,2.38513 1.59667,3.38203 0.0248,0.76692 -3.64194,0.87863 -3.64194,0.87863 -0.41354,0.49622 2.18331,0.96395 3.312,0.78653 0,0 -0.63776,3.90599 -0.64118,2.81442 z"
       style="opacity:1;vector-effect:none;fill:#000000;fill-opacity:1;stroke:#0e0000;stroke-width:0.5;stroke-linecap:butt;stroke-linejoin:miter;stroke-miterlimit:4;stroke-dasharray:none;stroke-dashoffset:0;stroke-opacity:1" />
    <path
       style="opacity:1;vector-effect:none;fill:#000000;fill-opacity:1;stroke:#0e0000;stroke-width:0.44285849;stroke-linecap:butt;stroke-linejoin:miter;stroke-miterlimit:4;stroke-dasharray:none;stroke-dashoffset:0;stroke-opacity:1"
       d="m 130.06635,204.81869 c 0.92273,1.40254 3.20684,2.82154 2.06788,3.111 -4.17754,1.06162 -2.39177,1.5602 -2.39177,1.5602 0,0 1.78973,-0.76711 1.91103,-0.24642 0,0 -0.4484,2.80637 -0.15032,2.45323 0,0 1.73033,-4.57808 1.992,-3.02075 0.22685,1.35022 3.05559,2.94042 2.75532,1.82414 -1.75236,-2.16445 -2.71138,-2.4445 0.29395,-3.06854 2.33644,-0.48517 -2.50868,0.29625 -3.31179,-0.0719 -0.61765,-0.28357 0.74373,-3.23386 0.74373,-3.23386 -0.22976,-0.52396 -1.62731,1.34923 -1.93299,2.31394 0,0 -2.84352,-2.04996 -1.97704,-1.62105 z"
       id="path1260"
       inkscape:connector-curvature="0"
       sodipodi:nodetypes="cscssscsscccc" />
    <path
       sodipodi:nodetypes="cscssscsscccc"
       inkscape:connector-curvature="0"
       id="path1262"
       d="m 133.74131,216.51173 c 0.92273,1.40254 3.20684,2.82154 2.06788,3.111 -4.17754,1.06162 -2.39177,1.5602 -2.39177,1.5602 0,0 1.78973,-0.76711 1.91103,-0.24642 0,0 -0.4484,2.80637 -0.15032,2.45323 0,0 1.73033,-4.57808 1.992,-3.02075 0.22685,1.35022 3.05559,2.94042 2.75532,1.82414 -1.75236,-2.16445 -2.71138,-2.4445 0.29395,-3.06854 2.33644,-0.48517 -2.50868,0.29625 -3.31179,-0.0719 -0.61765,-0.28357 0.74373,-3.23386 0.74373,-3.23386 -0.22976,-0.52396 -1.62731,1.34923 -1.93299,2.31394 0,0 -2.84352,-2.04996 -1.97704,-1.62105 z"
       style="opacity:1;vector-effect:none;fill:#000000;fill-opacity:1;stroke:#0e0000;stroke-width:0.44285849;stroke-linecap:butt;stroke-linejoin:miter;stroke-miterlimit:4;stroke-dasharray:none;stroke-dashoffset:0;stroke-opacity:1" />
    <path
       style="opacity:1;vector-effect:none;fill:#000000;fill-opacity:1;stroke:#0e0000;stroke-width:0.44285849;stroke-linecap:butt;stroke-linejoin:miter;stroke-miterlimit:4;stroke-dasharray:none;stroke-dashoffset:0;stroke-opacity:1"
       d="m 142.96211,221.58985 c 0.92273,1.40254 3.20684,2.82154 2.06788,3.111 -4.17754,1.06162 -2.39177,1.5602 -2.39177,1.5602 0,0 1.78973,-0.76711 1.91103,-0.24642 0,0 -0.4484,2.80637 -0.15032,2.45323 0,0 1.73033,-4.57808 1.992,-3.02075 0.22685,1.35022 3.05559,2.94042 2.75532,1.82414 -1.75236,-2.16445 -2.71138,-2.4445 0.29395,-3.06854 2.33644,-0.48517 -2.50868,0.29625 -3.31179,-0.0719 -0.61765,-0.28357 0.74373,-3.23386 0.74373,-3.23386 -0.22976,-0.52396 -1.62731,1.34923 -1.93299,2.31394 0,0 -2.84352,-2.04996 -1.97704,-1.62105 z"
       id="path1264"
       inkscape:connector-curvature="0"
       sodipodi:nodetypes="cscssscsscccc" />
    <path
       style="opacity:1;vector-effect:none;fill:#000000;fill-opacity:1;stroke:#0e0000;stroke-width:0.44285846;stroke-linecap:butt;stroke-linejoin:miter;stroke-miterlimit:4;stroke-dasharray:none;stroke-dashoffset:0;stroke-opacity:1"
       d="m 138.04042,225.70114 c -0.42561,0.0207 -1.52933,1.56038 -1.7968,2.4045 0,0 -1.13745,-0.82075 -1.75338,-1.31464 1.01593,1.29684 2.90024,2.53664 1.84433,2.80499 -0.57905,0.14716 -1.03402,0.28204 -1.40456,0.40773 h 3.8778 c -0.0318,-0.38642 0.49638,-0.60678 1.93683,-0.90589 2.33644,-0.48517 -2.50831,0.29632 -3.31142,-0.0718 -0.61765,-0.28357 0.74362,-3.23391 0.74362,-3.23391 -0.0287,-0.0655 -0.0756,-0.0939 -0.13642,-0.0909 z m -3.55018,1.08986 c -0.0799,-0.10201 -0.15647,-0.20365 -0.22375,-0.30593 -0.31725,-0.15703 -0.13201,0.0206 0.22375,0.30593 z"
       id="path1266"
       inkscape:connector-curvature="0"
       sodipodi:nodetypes="cccscccccccccc" />
    <path
       style="opacity:1;vector-effect:none;fill:#000000;fill-opacity:1;stroke:#0e0000;stroke-width:0.44285843;stroke-linecap:butt;stroke-linejoin:miter;stroke-miterlimit:4;stroke-dasharray:none;stroke-dashoffset:0;stroke-opacity:1"
       d="m 139.62608,211.86071 c 0.19115,0.38084 2.04577,0.76711 2.92592,0.67014 0,0 -0.29029,1.37228 -0.4927,2.13538 0.43949,-0.82461 0.74921,-1.89603 1.05768,-2.51366 l -0.37409,-0.84542 c -0.6637,0.42891 -3.08884,0.392 -3.08884,0.392 -0.0483,0.0528 -0.0553,0.10716 -0.028,0.16156 z m 2.43322,2.80552 c -0.061,0.11435 -0.12291,0.2255 -0.18922,0.32842 -0.0152,0.35366 0.0722,0.11238 0.18922,-0.32842 z"
       id="path1271"
       inkscape:connector-curvature="0"
       sodipodi:nodetypes="ccccccccccc" />
    <path
       inkscape:connector-curvature="0"
       id="path1276"
       d="m 151.88225,208.50079 c -0.009,0.42602 1.44886,1.63537 2.27205,1.96161 0,0 -0.89879,1.07684 -1.43481,1.65648 0.77432,-0.52304 1.54947,-1.32491 2.11113,-1.72635 l 0.0651,-0.9222 c -0.78726,0.0684 -2.91313,-1.09922 -2.91313,-1.09922 -0.0674,0.024 -0.099,0.0688 -0.10036,0.12967 z m 0.83724,3.61809 c -0.10742,0.0725 -0.21416,0.14175 -0.32092,0.20167 -0.17896,0.30542 0.0112,0.1331 0.32092,-0.20167 z"
       style="opacity:1;vector-effect:none;fill:#000000;fill-opacity:1;stroke:#0e0000;stroke-width:0.44285843;stroke-linecap:butt;stroke-linejoin:miter;stroke-miterlimit:4;stroke-dasharray:none;stroke-dashoffset:0;stroke-opacity:1"
       sodipodi:nodetypes="ccccccccccc" />
    <path
       style="opacity:1;vector-effect:none;fill:#000000;fill-opacity:1;stroke:#0e0000;stroke-width:0.42869678;stroke-linecap:butt;stroke-linejoin:miter;stroke-miterlimit:4;stroke-dasharray:none;stroke-dashoffset:0;stroke-opacity:1"
       d="m 134.09693,197.85262 c 0.81612,-1.4054 1.05815,-3.99712 1.80109,-3.13566 2.72496,3.15981 2.38509,1.3975 2.38509,1.3975 0,0 -1.43793,-1.21875 -1.03933,-1.54885 0,0 2.62465,-0.82439 2.18995,-0.92998 0,0 -4.71331,0.47966 -3.47744,-0.42002 1.07153,-0.78 1.22649,-3.91749 0.38934,-3.17498 -1.11755,2.45329 -0.94568,3.40502 -2.78502,1.07149 -1.42997,-1.81415 1.34077,2.04499 1.36898,2.89973 0.0213,0.65755 -3.12258,0.75333 -3.12258,0.75333 -0.35456,0.42546 1.87196,0.82649 2.83969,0.67437 0,0 -0.54681,3.34897 -0.54974,2.41306 z"
       id="path1278"
       inkscape:connector-curvature="0"
       sodipodi:nodetypes="cscssscsscccc" />
    <path
       sodipodi:nodetypes="cscssscsscccc"
       inkscape:connector-curvature="0"
       id="path1280"
       d="m 144.96375,193.50589 c 0.81612,-1.4054 1.05815,-3.99712 1.80109,-3.13566 2.72496,3.15981 2.38509,1.3975 2.38509,1.3975 0,0 -1.43793,-1.21875 -1.03933,-1.54885 0,0 2.62465,-0.82439 2.18995,-0.92998 0,0 -4.71331,0.47966 -3.47744,-0.42002 1.07153,-0.78 1.22649,-3.91749 0.38934,-3.17498 -1.11755,2.45329 -0.94568,3.40502 -2.78502,1.07149 -1.42997,-1.81415 1.34077,2.04499 1.36898,2.89973 0.0213,0.65755 -3.12258,0.75333 -3.12258,0.75333 -0.35456,0.42546 1.87196,0.82649 2.83969,0.67437 0,0 -0.54681,3.34897 -0.54974,2.41306 z"
       style="opacity:1;vector-effect:none;fill:#000000;fill-opacity:1;stroke:#0e0000;stroke-width:0.42869678;stroke-linecap:butt;stroke-linejoin:miter;stroke-miterlimit:4;stroke-dasharray:none;stroke-dashoffset:0;stroke-opacity:1" />
    <path
       style="opacity:1;vector-effect:none;fill:#000000;fill-opacity:1;stroke:#0e0000;stroke-width:0.42869678;stroke-linecap:butt;stroke-linejoin:miter;stroke-miterlimit:4;stroke-dasharray:none;stroke-dashoffset:0;stroke-opacity:1"
       d="m 141.67194,198.83128 c 1.5899,0.33677 4.12772,-0.2421 3.54113,0.73258 -2.1516,3.57496 -0.58337,2.70209 -0.58337,2.70209 0,0 0.70914,-1.74645 1.14714,-1.47078 0,0 1.60231,2.2363 1.56697,1.79036 0,0 -1.92661,-4.32823 -0.68618,-3.43485 1.07544,0.7746 4.1046,-0.0573 3.13791,-0.62094 -2.67952,-0.29612 -3.53008,0.16418 -1.88711,-2.31154 1.27729,-1.9247 -1.52444,1.912 -2.32768,2.20555 -0.61807,0.22544 -1.69019,-2.73154 -1.69019,-2.73154 -0.51486,-0.20408 -0.20102,2.0364 0.24551,2.90832 0,0 -3.35236,0.52563 -2.46411,0.23078 z"
       id="path1282"
       inkscape:connector-curvature="0"
       sodipodi:nodetypes="cscssscsscccc" />
    <path
       sodipodi:nodetypes="cscssscsscccc"
       inkscape:connector-curvature="0"
       id="path1284"
       d="m 142.94691,204.25592 c 0.79938,1.05594 2.6712,2.05391 1.78976,2.34109 -3.23301,1.05324 -1.80138,1.35268 -1.80138,1.35268 0,0 1.36881,-0.69703 1.49141,-0.29352 0,0 -0.20678,2.23235 0.009,1.93886 0,0 1.12356,-3.69371 1.41064,-2.4815 0.24888,1.05099 2.55833,2.15537 2.26383,1.29233 -1.49209,-1.61244 -2.26156,-1.78292 0.0716,-2.43069 1.81382,-0.50359 -1.95925,0.36387 -2.61058,0.11595 -0.50095,-0.19104 0.41697,-2.58424 0.41697,-2.58424 -0.20818,-0.40045 -1.21065,1.1468 -1.40101,1.92206 0,0 -2.34501,-1.46547 -1.64064,-1.17299 z"
       style="opacity:1;vector-effect:none;fill:#000000;fill-opacity:1;stroke:#0e0000;stroke-width:0.34935337;stroke-linecap:butt;stroke-linejoin:miter;stroke-miterlimit:4;stroke-dasharray:none;stroke-dashoffset:0;stroke-opacity:1" />
    <path
       style="opacity:1;vector-effect:none;fill:#e61c11;fill-opacity:1;stroke:#c02626;stroke-width:0.5;stroke-linecap:butt;stroke-linejoin:miter;stroke-miterlimit:4;stroke-dasharray:none;stroke-dashoffset:0;stroke-opacity:1"
       d="m 101.82967,62.771666 c -1.10271,-6.170567 0.9018,-9.495707 4.6104,-10.924639 1.76841,-0.681371 0.59164,-4.423679 -3.74178,-4.276315 -4.522376,0.15379 -6.218793,3.875563 -6.548082,6.481286 -0.509379,4.030708 -0.33924,8.328595 -1.436578,9.120573 -1.263197,0.512737 -6.015763,2.967497 -0.267269,6.180608 0.657569,4.104353 -0.367489,9.020346 -0.367489,9.020346 0,0 -0.26097,3.922487 3.340853,3.808592 1.805047,-0.05708 5.432405,0.405412 5.211755,-3.641547 -0.18653,-2.557516 -0.89363,-5.560791 -0.13363,-8.586034 7.96624,-5.088521 -0.29544,-6.485669 -0.66818,-7.18287 z"
       id="path1313"
       inkscape:connector-curvature="0"
       sodipodi:nodetypes="cssscccsccc" />
    <path
       style="opacity:1;vector-effect:none;fill:#e61c11;fill-opacity:1;stroke:#c02626;stroke-width:0.5;stroke-linecap:butt;stroke-linejoin:miter;stroke-miterlimit:4;stroke-dasharray:none;stroke-dashoffset:0;stroke-opacity:1"
       d="m 114.51044,57.639891 c -2.29541,-0.03204 -4.26797,0.458153 -5.02553,0.868164 -4.74052,2.189692 -0.73905,6.193375 1.61179,5.366081 1.34231,-0.472377 3.15483,-1.078286 4.30981,-1.069184 4.27319,0.03379 1.14368,2.353583 0.2341,2.472201 -2.05478,0.267959 -4.33039,1.04526 -5.6131,2.672704 -1.93071,2.449549 -2.94649,6.202791 -1.93735,9.153964 0.8692,2.541892 3.4706,4.979434 6.14691,5.212083 2.37916,0.206819 4.87367,0.0015 7.14944,-0.434597 4.17012,-0.799039 3.87573,-4.977993 3.87573,-4.977993 0,0 0.5733,-9.682106 -1.40353,-13.897858 -1.94918,-4.156795 -5.99342,-5.318731 -9.34827,-5.365565 z m 2.73885,12.249899 c 1.58365,-0.06149 2.29325,1.275175 2.40347,3.370336 -0.006,2.097138 -0.73579,3.55051 -2.32027,3.542938 -1.58448,-0.0076 -2.87172,-1.523259 -2.89439,-3.408061 -0.0227,-1.884804 1.22755,-3.443724 2.81119,-3.505213 z"
       id="path1315"
       inkscape:connector-curvature="0" />
    <path
       style="opacity:1;vector-effect:none;fill:#e61c11;fill-opacity:1;stroke:#c02626;stroke-width:0.5;stroke-linecap:butt;stroke-linejoin:miter;stroke-miterlimit:4;stroke-dasharray:none;stroke-dashoffset:0;stroke-opacity:1"
       d="m 167.96144,57.639891 c -2.29541,-0.03204 -4.26797,0.458153 -5.02553,0.868164 -4.74052,2.189692 -0.73854,6.193375 1.61231,5.366081 1.3423,-0.472377 3.15483,-1.078286 4.30981,-1.069184 4.27319,0.03379 1.14316,2.353583 0.23358,2.472201 -2.05478,0.267959 -4.32987,1.04526 -5.61258,2.672704 -1.93071,2.449549 -2.94701,6.202791 -1.93787,9.153964 0.8692,2.541892 3.47112,4.979434 6.14743,5.212083 2.37916,0.206819 4.87367,0.0015 7.14944,-0.434597 4.17012,-0.799039 3.87521,-4.977993 3.87521,-4.977993 0,0 0.57382,-9.682106 -1.40301,-13.897858 -1.94918,-4.156795 -5.99394,-5.318731 -9.34879,-5.365565 z m 2.73937,12.249899 c 1.58365,-0.06149 2.29273,1.275175 2.40295,3.370336 -0.006,2.097138 -0.73527,3.55051 -2.31975,3.542938 -1.58448,-0.0076 -2.87224,-1.523259 -2.89491,-3.408061 -0.0227,-1.884804 1.22807,-3.443724 2.81171,-3.505213 z"
       id="path1319"
       inkscape:connector-curvature="0" />
    <path
       style="opacity:1;vector-effect:none;fill:#e61c11;fill-opacity:1;stroke:#c02626;stroke-width:0.5;stroke-linecap:butt;stroke-linejoin:miter;stroke-miterlimit:4;stroke-dasharray:none;stroke-dashoffset:0;stroke-opacity:1"
       d="m 136.57471,51.780207 c 0.29249,-3.956506 -4.00904,-4.009041 -4.00904,-4.009041 0,0 -7.39138,-0.416962 -5.54585,4.81085 1.22868,6.005028 -0.0783,19.700911 -0.40089,25.991962 -0.84733,3.923407 4.07585,4.276312 4.07585,4.276312 0,0 6.80238,0.319537 5.47903,-5.011303 -0.17828,-3.178749 -1.94911,-20.746952 0.4009,-26.05878 z"
       id="path1323"
       inkscape:connector-curvature="0"
       sodipodi:nodetypes="ccccccc" />
    <path
       style="opacity:1;vector-effect:none;fill:#e61c11;fill-opacity:1;stroke:#c02626;stroke-width:0.5;stroke-linecap:butt;stroke-linejoin:miter;stroke-miterlimit:4;stroke-dasharray:none;stroke-dashoffset:0;stroke-opacity:1"
       d="m 155.61749,47.436897 c 0,0 -3.03963,0.195635 -3.24063,2.572453 -0.0404,3.176352 -0.0331,9.922391 -0.0331,9.922391 0,0 0.32219,4.245668 -3.54138,3.942395 -0.88606,0.09943 -3.21721,-0.149955 -4.91133,0.234095 -5.37326,2.055104 -5.5756,6.638409 -5.5392,9.100736 -0.15299,7.316864 6.1743,8.639267 6.1743,8.639267 0,0 5.76905,0.597273 8.83512,0.447 2.10303,-0.299643 5.83684,-0.211817 5.73092,-4.589901 -0.17221,-8.338587 0.1101,-17.772314 0.2005,-26.860376 -0.0586,-3.579606 -3.67523,-3.40806 -3.67523,-3.40806 z m -7.14995,21.783166 c 2.52496,0.06075 3.85216,2.444972 3.95893,4.474663 -0.006,2.097137 -2.31003,3.323923 -4.05711,3.275769 -2.1242,-0.05855 -3.10582,-1.891194 -3.12849,-3.775999 -0.0227,-1.884801 1.39478,-3.916926 2.97863,-3.972882 0.0839,-0.003 0.16659,-0.0035 0.24804,-0.0016 z"
       id="path1325"
       inkscape:connector-curvature="0" />
  </g>
</svg>
