<?xml version="1.0" encoding="UTF-8" standalone="no"?>
<!-- Created with Inkscape (http://www.inkscape.org/) -->

<svg
   xmlns:dc="http://purl.org/dc/elements/1.1/"
   xmlns:cc="http://creativecommons.org/ns#"
   xmlns:rdf="http://www.w3.org/1999/02/22-rdf-syntax-ns#"
   xmlns:svg="http://www.w3.org/2000/svg"
   xmlns="http://www.w3.org/2000/svg"
   xmlns:sodipodi="http://sodipodi.sourceforge.net/DTD/sodipodi-0.dtd"
   xmlns:inkscape="http://www.inkscape.org/namespaces/inkscape"
   width="210mm"
   height="297mm"
   viewBox="0 0 210 297"
   version="1.1"
   id="svg8"
   inkscape:version="0.92.4 (5da689c313, 2019-01-14)"
   sodipodi:docname="Mario.svg">
  <defs
     id="defs2" />
  <sodipodi:namedview
     id="base"
     pagecolor="#ffffff"
     bordercolor="#666666"
     borderopacity="1.0"
     inkscape:pageopacity="0.0"
     inkscape:pageshadow="2"
     inkscape:zoom="1"
     inkscape:cx="613.50368"
     inkscape:cy="536.32592"
     inkscape:document-units="mm"
     inkscape:current-layer="layer1"
     showgrid="false"
     inkscape:window-width="1920"
     inkscape:window-height="1001"
     inkscape:window-x="-9"
     inkscape:window-y="-9"
     inkscape:window-maximized="1" />
  <metadata
     id="metadata5">
    <rdf:RDF>
      <cc:Work
         rdf:about="">
        <dc:format>image/svg+xml</dc:format>
        <dc:type
           rdf:resource="http://purl.org/dc/dcmitype/StillImage" />
        <dc:title></dc:title>
      </cc:Work>
    </rdf:RDF>
  </metadata>
  <g
     inkscape:label="Camada 1"
     inkscape:groupmode="layer"
     id="layer1">
    <path
       sodipodi:nodetypes="cccsc"
       inkscape:connector-curvature="0"
       id="path4824"
       d="m 146.59981,118.46156 c 1.05855,2.00005 11.97464,12.2381 14.33995,14.26782 -11.4751,5.92076 -25.94887,19.21617 -33.86503,14.33218 -0.12855,-14.08877 13.49405,-19.97629 12.96519,-22.35986 -0.48053,-2.16576 4.96816,-6.03051 6.55989,-6.24014 z"
       style="opacity:1;vector-effect:none;fill:#0064b3;fill-opacity:1;stroke:#000000;stroke-width:0.92612588;stroke-linecap:butt;stroke-linejoin:miter;stroke-miterlimit:4;stroke-dasharray:none;stroke-dashoffset:0;stroke-opacity:1" />
    <path
       style="opacity:1;vector-effect:none;fill:#ee1c25;fill-opacity:1;stroke:#000000;stroke-width:0.74090064;stroke-linecap:butt;stroke-linejoin:miter;stroke-miterlimit:4;stroke-dasharray:none;stroke-dashoffset:0;stroke-opacity:1"
       d="m 140.43863,124.9894 c 0,0 0.24504,3.12422 0.55134,3.18548 -0.58197,3.24674 -14.21218,6.73853 -14.21218,6.73853 l -0.55133,-6.30971 z"
       id="path4820"
       inkscape:connector-curvature="0"
       sodipodi:nodetypes="ccccc" />
    <path
       style="opacity:1;vector-effect:none;fill:#0065b2;fill-opacity:1;stroke:none;stroke-width:0.92612588;stroke-linecap:butt;stroke-linejoin:miter;stroke-miterlimit:4;stroke-dasharray:none;stroke-dashoffset:0;stroke-opacity:1"
       d="m 128.4517,161.99111 c 20.71871,-7.04537 20.60159,-6.90783 37.14901,-8.13707 -1.35093,8.44699 -6.59701,11.74878 -12.46004,13.59895 -11.08914,0.5198 -12.91558,0.62763 -24.68897,-5.46188 z"
       id="path4828"
       inkscape:connector-curvature="0"
       sodipodi:nodetypes="cccc" />
    <path
       style="opacity:1;vector-effect:none;fill:#0065b2;fill-opacity:1;stroke:#000000;stroke-width:0.92612588;stroke-linecap:butt;stroke-linejoin:miter;stroke-miterlimit:4;stroke-dasharray:none;stroke-dashoffset:0;stroke-opacity:1"
       d="m 158.77186,165.20051 c 0,0 -0.43253,0.20788 -1.19777,0.51464 -2.61605,1.04875 -9.12028,3.25311 -15.52256,2.25764 -4.43089,5.03327 -9.34575,11.17746 -14.8577,17.3701 -1.05694,0.6607 1.6269,5.31652 -3.50867,5.15471 0.33248,-1.65752 -0.2591,-3.52634 -0.69307,-5.80448 -0.64506,-4.22494 1.01813,-8.67156 -5.19804,-14.77107 3.6024,-3.20778 5.88096,-3.93677 8.31686,-9.31313"
       id="path1041"
       inkscape:connector-curvature="0"
       sodipodi:nodetypes="cscccccc" />
    <path
       style="opacity:1;vector-effect:none;fill:#0065b2;fill-opacity:1;stroke:#020000;stroke-width:0.92612588;stroke-linecap:round;stroke-linejoin:miter;stroke-miterlimit:4;stroke-dasharray:none;stroke-dashoffset:0;stroke-opacity:1"
       d="m 155.88343,163.24369 c 0,0 10.7882,9.89771 25.35393,-1.13113 0.76488,2.19116 3.08362,1.32318 3.92061,0.30631 4.15301,-5.04546 1.28494,-15.73092 -6.12594,-18.43907 -1.11588,-0.41531 -3.20896,-0.006 -3.06296,1.83778 -1.80241,1.0937 -2.79331,1.7783 -5.39084,3.30801 -1.02172,-0.82361 -3.18548,-1.71527 -3.18548,-1.71527"
       id="path1039"
       inkscape:connector-curvature="0"
       sodipodi:nodetypes="ccccccc" />
    <path
       style="opacity:1;vector-effect:none;fill:#0065b2;fill-opacity:1;stroke:#000000;stroke-width:0.92612588;stroke-linecap:butt;stroke-linejoin:miter;stroke-miterlimit:4;stroke-dasharray:none;stroke-dashoffset:0;stroke-opacity:1"
       d="m 121.21002,128.66641 c 0.95938,6.95228 -0.62548,12.15901 -0.74194,18.80518 0.91589,5.1219 4.42447,6.91286 7.04484,5.8809 2.76008,-0.91934 3.30219,-4.81571 3.49177,-7.71869 -0.27017,-4.44494 -3.7163,-12.44791 -4.77823,-17.0301 -1.46154,-0.47843 -3.01268,-0.83684 -5.01644,0.0627 z"
       id="path1029"
       inkscape:connector-curvature="0"
       sodipodi:nodetypes="ccccccc" />
    <ellipse
       style="opacity:1;vector-effect:none;fill:#fdf200;fill-opacity:1;fill-rule:evenodd;stroke:#000000;stroke-width:0.91547316;stroke-linecap:butt;stroke-linejoin:miter;stroke-miterlimit:4;stroke-dasharray:none;stroke-dashoffset:0;stroke-opacity:1"
       id="path1031"
       cx="124.98027"
       cy="144.61862"
       rx="3.7848351"
       ry="5.8314509" />
    <path
       style="opacity:1;vector-effect:none;fill:#ee1c25;fill-opacity:1;stroke:#0c0000;stroke-width:0.92612588;stroke-linecap:butt;stroke-linejoin:round;stroke-miterlimit:4;stroke-dasharray:none;stroke-dashoffset:0;stroke-opacity:1"
       d="m 121.21002,128.66641 c -5.3276,1.80176 -14.68432,6.60642 -23.304634,9.71475 10.078984,3.83273 7.301864,15.00309 6.930734,16.95547 7.55412,-5.80767 11.20015,-8.05059 15.22279,-10.89111 1.04638,-4.98763 1.43389,-9.44253 1.15111,-15.77911 z"
       id="path890"
       inkscape:connector-curvature="0"
       sodipodi:nodetypes="ccccc" />
    <path
       style="opacity:1;vector-effect:none;fill:#fdd1b0;fill-opacity:1;stroke:#0e0000;stroke-width:0.92612588;stroke-linecap:butt;stroke-linejoin:miter;stroke-miterlimit:4;stroke-dasharray:none;stroke-dashoffset:0;stroke-opacity:1"
       d="m 99.866757,93.516758 c 1.279933,3.854073 4.050163,7.102582 5.321493,10.959492 1.98811,6.03152 -0.73131,13.99254 3.50053,18.72787 3.72004,4.16264 9.7322,5.6717 16.01496,4.90075 4.2486,1.33066 11.04874,5.75546 17.24013,-5.16329 0.0198,-0.0349 0.0723,-0.0351 0.1085,-0.0529 5.50782,-2.71206 12.6631,-10.55405 11.09315,-22.61308 4.77311,0.34534 9.58825,-13.387217 -0.41332,-17.711386 -7.47356,-3.231182 -16.25807,-2.04066 -24.38125,-1.485157 -4.82691,0.330088 -9.61887,1.390245 -14.23268,2.846546 -5.15255,1.626354 -12.32651,1.738751 -14.839439,6.521961 -0.484456,0.922146 0.259583,2.080616 0.587876,3.069187 z"
       id="path843"
       inkscape:connector-curvature="0"
       sodipodi:nodetypes="ssscsccsssss" />
    <path
       style="opacity:1;vector-effect:none;fill:#894b2f;fill-opacity:1;stroke:#050000;stroke-width:0.92612588;stroke-linecap:butt;stroke-linejoin:miter;stroke-miterlimit:4;stroke-dasharray:none;stroke-dashoffset:0;stroke-opacity:1"
       d="m 101.69208,79.716392 c 2.46811,-3.633929 6.58583,-13.510424 23.422,-14.82899 10.70933,-0.250953 25.56721,4.304937 27.61817,17.676819 -4.01657,1.222244 -6.61015,2.44663 -5.5903,8.660607 0.25291,1.540929 0.67883,4.893141 0.51604,7.923582 -0.58416,3.52904 -3.7636,5.3414 -6.06439,0.371286 -2.2207,1.096954 -6.1333,0.07834 -4.26668,-3.959115 1.55969,-2.035609 5.44084,-5.487877 -0.19626,-12.181289 0,0 -4.78006,0.744818 -8.77965,-2.300224 -1.99073,2.491272 -7.68006,3.205928 -13.66384,2.430854 -2.02559,4.500959 -10.81802,8.688883 -16.692984,7.142621 -3.095048,-0.814602 -6.210332,-4.374726 -6.873234,-7.50576 -0.289451,-1.36718 -0.07687,-3.25848 1.091347,-4.047917 0.942814,-0.637143 2.364917,-0.403434 3.41281,0.08001 1.565338,0.722167 3.690102,3.782091 6.066971,0.537516 z"
       id="path837"
       inkscape:connector-curvature="0"
       sodipodi:nodetypes="cccsccccccsssscc" />
    <path
       style="opacity:1;vector-effect:none;fill:#000000;fill-opacity:1;stroke:none;stroke-width:0.18522516;stroke-linecap:butt;stroke-linejoin:miter;stroke-miterlimit:4;stroke-dasharray:none;stroke-dashoffset:0;stroke-opacity:1"
       d="m 132.86835,116.78457 c 2.8245,1.87211 2.75747,3.90326 2.90843,6.3119 0.10033,1.60305 -1.41439,3.54954 -2.84654,4.14605 -2.19763,0.91532 -5.15128,-0.006 -7.05447,-1.11386 -1.06642,-0.62056 -1.78988,-1.7688 -2.90843,-2.28961 -1.01218,-0.47131 -2.18812,0.11437 -3.2797,-0.6807 9.16918,-4.89366 9.8137,-4.72269 12.62378,-6.86883 0.19739,-0.15075 0.34989,0.35783 0.55693,0.49505 z"
       id="path862"
       inkscape:connector-curvature="0"
       sodipodi:nodetypes="ssssscss" />
    <path
       style="opacity:1;vector-effect:none;fill:#ed1c24;fill-opacity:1;stroke:none;stroke-width:0.18522516;stroke-linecap:butt;stroke-linejoin:round;stroke-miterlimit:4;stroke-dasharray:none;stroke-dashoffset:0;stroke-opacity:1"
       d="m 133.72855,118.83939 c -2.05116,0.0808 -5.84931,3.97015 -4.99919,7.38394 0.14781,0.53117 3.01925,1.00552 4.35378,0.28442 0.88977,-0.48078 1.70875,-1.59786 1.8159,-2.60353 0.18262,-1.71513 -0.0713,-4.50955 -1.17049,-5.06483 z"
       id="path866"
       inkscape:connector-curvature="0"
       sodipodi:nodetypes="cccsc" />
    <path
       style="opacity:1;vector-effect:none;fill:#fefefe;fill-opacity:1;stroke:none;stroke-width:0.18522516;stroke-linecap:butt;stroke-linejoin:round;stroke-miterlimit:4;stroke-dasharray:none;stroke-dashoffset:0;stroke-opacity:1"
       d="m 124.00363,121.82578 c 1.24706,1.07204 0.72082,0.53939 1.29081,1.02828 3.11869,-1.60414 5.18916,-2.86934 6.19158,-5.03202 -1.37834,0.10943 -0.56929,0.0507 -1.37834,0.10943 -1.37288,1.37141 -2.14689,2.46983 -6.10405,3.89435 z"
       id="path864"
       inkscape:connector-curvature="0"
       sodipodi:nodetypes="ccccc" />
    <path
       style="opacity:1;vector-effect:none;fill:#894c2f;fill-opacity:1;stroke:#000000;stroke-width:0.92612588;stroke-linecap:butt;stroke-linejoin:miter;stroke-miterlimit:4;stroke-dasharray:none;stroke-dashoffset:0;stroke-opacity:1"
       d="m 92.278683,86.247839 c -1.253382,-0.30011 -3.685351,-0.610968 -4.469391,0.411937 -0.828567,1.080995 0.211639,3.022786 1.133282,4.025611 2.489667,2.708982 8.753709,3.500897 10.924183,2.831373 0,0 -0.618076,-1.669283 -0.587866,-2.631621 -4.068075,-0.925121 -5.264166,-2.926477 -7.000208,-4.6373 z"
       id="path839"
       inkscape:connector-curvature="0"
       sodipodi:nodetypes="cssccc" />
    <path
       style="opacity:1;vector-effect:none;fill:#fed1b0;fill-opacity:1;stroke:#000000;stroke-width:0.92612588;stroke-linecap:butt;stroke-linejoin:miter;stroke-miterlimit:4;stroke-dasharray:none;stroke-dashoffset:0;stroke-opacity:1"
       d="m 121.67535,112.68915 c 0,0 -1.97803,7.49307 -13.74516,6.63256 -2.91029,-0.20769 -6.09761,-2.91192 -7.08321,-5.65812 -1.093223,-3.04605 0.18485,-6.32807 2.62775,-8.45082 6.21795,-5.250768 13.76768,-1.88517 13.76768,-1.88517"
       id="path841"
       inkscape:connector-curvature="0"
       sodipodi:nodetypes="ccccc" />
    <path
       style="opacity:1;vector-effect:none;fill:#ffffff;fill-opacity:1;fill-rule:evenodd;stroke:#000000;stroke-width:0.74090064;stroke-linecap:butt;stroke-linejoin:miter;stroke-miterlimit:4;stroke-dasharray:none;stroke-dashoffset:0;stroke-opacity:1"
       d="m 133.45196,94.780544 c 0.20291,3.813062 -0.68535,7.067826 -4.42207,7.814646 -3.84608,0.50617 -7.90122,-3.777825 -8.48238,-8.452899 -0.59919,-4.820161 0.79306,-7.491765 4.11216,-8.454937 4.5969,-1.036929 8.42412,4.895732 8.79229,9.09319 z"
       id="path847"
       inkscape:connector-curvature="0"
       sodipodi:nodetypes="ccscc" />
    <path
       sodipodi:nodetypes="cccc"
       inkscape:connector-curvature="0"
       id="path850"
       d="m 114.60152,102.36796 c -2.38163,-0.35299 -5.94862,0.031 -7.71928,0.54318 -3.72778,-4.579503 -3.01376,-9.657725 0.30535,-10.620897 4.59689,-1.036929 7.04575,5.880257 7.41393,10.077717 z"
       style="opacity:1;vector-effect:none;fill:#ffffff;fill-opacity:1;fill-rule:evenodd;stroke:#010000;stroke-width:0.74090064;stroke-linecap:butt;stroke-linejoin:miter;stroke-miterlimit:4;stroke-dasharray:none;stroke-dashoffset:0;stroke-opacity:1" />
    <path
       style="opacity:1;vector-effect:none;fill:#000000;fill-opacity:1;stroke:none;stroke-width:0.18522516;stroke-linecap:butt;stroke-linejoin:miter;stroke-miterlimit:4;stroke-dasharray:none;stroke-dashoffset:0;stroke-opacity:1"
       d="m 121.50949,113.68703 c 3.61237,0.17154 10.34883,-3.57028 11.88485,-9.4953 0.30138,-1.12998 1.14383,-0.71578 1.54704,-0.37128 3.33903,1.62752 4.90218,6.45471 -0.71164,9.00373 0,0 0.93587,4.88027 -4.40053,4.84426 -0.49283,1.08435 -1.15008,3.32912 -6.43818,2.64773 -0.84659,1.25535 -1.8793,3.60379 -7.30738,2.49413 -0.46963,0.57262 -4.27014,4.0216 -7.96372,-0.48132 -2.49729,0.60316 -6.93395,0.70314 -7.8501,-4.70275 -0.310423,-0.88775 0.22826,-0.78951 0.62784,-0.78981 4.10318,0.59772 8.11218,2.35866 12.1206,1.619 3.19952,-0.5904 7.00555,-0.78146 8.49122,-4.76839 z"
       id="path845"
       inkscape:connector-curvature="0"
       sodipodi:nodetypes="ccccccccccsc" />
    <path
       style="opacity:1;vector-effect:none;fill:#000000;fill-opacity:1;stroke:none;stroke-width:0.18522516;stroke-linecap:butt;stroke-linejoin:round;stroke-miterlimit:4;stroke-dasharray:none;stroke-dashoffset:0;stroke-opacity:1"
       d="m 154.1091,87.112496 c -0.87027,-0.643561 -2.25049,-0.670826 -3.07859,0.170167 -1.40747,1.429397 -1.51912,4.275811 -0.71163,6.048898 0.47048,1.367119 0.88676,2.320791 2.25092,2.769186 -1.0085,-1.39447 -1.58374,-1.967061 -1.18347,-3.186885 0.93312,-1.361634 1.17985,-1.677826 3.29519,-2.397907 -1.91176,-0.02691 -3.01076,0.625027 -3.69743,1.500618 -1.12778,-1.396252 0.27027,-3.862587 0.77352,-4.269809 0.61958,-0.501349 1.36024,-0.648946 2.35149,-0.634272 z"
       id="path852"
       inkscape:connector-curvature="0"
       sodipodi:nodetypes="cccccccccc" />
    <path
       style="opacity:1;vector-effect:none;fill:#894c2e;fill-opacity:1;stroke:#000000;stroke-width:0.92612588;stroke-linecap:round;stroke-linejoin:round;stroke-miterlimit:4;stroke-dasharray:none;stroke-dashoffset:0;stroke-opacity:1;paint-order:normal"
       d="m 140.72864,71.608336 c 1.55228,0.01334 6.28402,0.387541 7.62777,-0.665634 1.11088,-0.870657 1.57921,-2.009519 1.06673,-3.324599 -0.58335,-1.496881 -2.06831,-2.244733 -3.67464,-2.270036 -2.27,-0.03577 -4.29527,2.20339 -5.79089,2.810134 0,0 0.0887,-5.782102 -1.6018,-7.788693 -0.9688,-1.149952 -2.85799,-1.864546 -4.28815,-1.400213 -1.37079,0.445061 -2.48921,2.060112 -2.5379,3.500532 -0.11576,3.4253 4.72573,7.701181 4.72573,7.701181"
       id="path854"
       inkscape:connector-curvature="0"
       sodipodi:nodetypes="cssscsssc" />
    <path
       style="opacity:1;vector-effect:none;fill:#000000;fill-opacity:1;stroke:none;stroke-width:0.18522516;stroke-linecap:butt;stroke-linejoin:miter;stroke-miterlimit:4;stroke-dasharray:none;stroke-dashoffset:0;stroke-opacity:1"
       d="m 118.37447,75.808437 c -2.29246,-0.212286 -4.17722,-0.439412 -5.88713,-1.335679 -1.12149,-0.587838 -2.92654,-0.02032 -3.82045,0.817786 -1.02485,0.960861 -0.91033,2.492968 -0.55931,3.853245 0.64195,2.487698 4.33103,5.054248 7.17029,4.694307 0.25429,-0.03223 0.71241,-0.752412 0.22459,-0.735429 -1.97989,0.06892 -5.4006,-2.106902 -6.39159,-4.380977 -0.34693,-0.796116 -0.3537,-2.073286 0.24175,-2.70541 0.67276,-0.714176 1.41998,-1.017556 2.36631,-0.758552 1.97059,0.539331 4.7777,1.157053 6.65554,0.550709 z"
       id="path856"
       inkscape:connector-curvature="0"
       sodipodi:nodetypes="cssssssssc" />
    <path
       style="opacity:1;vector-effect:none;fill:#000000;fill-opacity:1;stroke:none;stroke-width:0.37045032;stroke-linecap:butt;stroke-linejoin:round;stroke-miterlimit:4;stroke-dasharray:none;stroke-dashoffset:0;stroke-opacity:1"
       d="m 118.17647,87.341755 c -0.19875,-1.979015 -0.67912,-5.629399 0.88044,-7.739623 1.00627,-1.36157 3.12512,-2.143002 4.80573,-1.938113 1.99306,0.242979 3.53792,2.105276 4.48837,3.415045 -0.53182,1.200609 -2.66473,-1.071785 -4.2683,-0.7565 -1.82857,0.359529 -3.20186,1.426109 -4.411,2.844184 -0.95601,1.121186 -1.0533,2.572558 -1.49524,4.175007 z"
       id="path858"
       inkscape:connector-curvature="0"
       sodipodi:nodetypes="csscssc" />
    <path
       sodipodi:nodetypes="csccssc"
       inkscape:connector-curvature="0"
       id="path860"
       d="m 102.28277,94.18393 c -0.17096,-1.353392 -1.05503,-4.154054 0.0454,-5.787959 0.71041,-1.054901 3.27461,-2.765045 5.49302,-2.346462 1.71348,0.166166 3.19635,3.265237 3.48749,4.686941 -0.92134,-0.664087 -3.17407,-2.288407 -4.56686,-2.373786 -1.54114,-0.09449 -2.5604,0.552314 -3.39004,1.852235 -0.56629,0.887273 -0.68897,2.87316 -1.06892,3.969031 z"
       style="opacity:1;vector-effect:none;fill:#000000;fill-opacity:1;stroke:none;stroke-width:0.28405216;stroke-linecap:butt;stroke-linejoin:round;stroke-miterlimit:4;stroke-dasharray:none;stroke-dashoffset:0;stroke-opacity:1" />
    <path
       style="opacity:1;vector-effect:none;fill:#15bedd;fill-opacity:1;stroke:#000000;stroke-width:0.37045032;stroke-linecap:butt;stroke-linejoin:miter;stroke-miterlimit:4;stroke-dasharray:none;stroke-dashoffset:0;stroke-opacity:1"
       d="m 112.26188,101.94854 c -0.51237,-1.65864 -1.22985,-3.75197 -2.76921,-4.96598 -0.49531,-0.39064 -1.56287,-0.716288 -2.21223,-0.417698 -0.78915,0.362868 -1.18711,1.347508 -1.26857,2.212257 -0.12336,1.310021 1.0693,3.478461 1.43874,3.697411 0.45261,-0.0975 2.83233,-0.77144 4.81127,-0.52599 z"
       id="path868"
       inkscape:connector-curvature="0"
       sodipodi:nodetypes="cssscc" />
    <path
       style="opacity:1;vector-effect:none;fill:#ed1c24;fill-opacity:1;stroke:#000000;stroke-width:0.92612588;stroke-linecap:butt;stroke-linejoin:miter;stroke-miterlimit:4;stroke-dasharray:none;stroke-dashoffset:0;stroke-opacity:1"
       d="m 58.779859,180.67416 c 0,0 5.45377,-0.0982 7.754081,4.74275 1.037169,2.18273 1.920731,6.99921 0.561473,9.79667 -5.231758,8.11733 -19.464753,-0.87859 -19.464753,-0.87859"
       id="path4767"
       inkscape:connector-curvature="0"
       sodipodi:nodetypes="cscc" />
    <path
       style="opacity:1;vector-effect:none;fill:#ed1c24;fill-opacity:1;stroke:#150000;stroke-width:0.92612588;stroke-linecap:butt;stroke-linejoin:round;stroke-miterlimit:4;stroke-dasharray:none;stroke-dashoffset:0;stroke-opacity:1"
       d="m 61.781563,198.50063 c 0,0 -8.9446,0.26678 -16.966526,-6.15185 -7.977594,-6.38316 -16.004006,-18.17944 -18.362939,-23.02675 -3.855751,-7.16193 -0.09026,-14.36383 13.521141,-10.76252 5.554802,1.84485 12.431057,8.54283 16.045987,15.07193 3.263928,5.89514 3.311975,11.39212 3.311975,11.39212"
       id="path4765"
       inkscape:connector-curvature="0"
       sodipodi:nodetypes="csccsc" />
    <path
       style="opacity:1;vector-effect:none;fill:#6b6d6e;fill-opacity:1;stroke:#000000;stroke-width:0.74090064;stroke-linecap:butt;stroke-linejoin:miter;stroke-miterlimit:4;stroke-dasharray:none;stroke-dashoffset:0;stroke-opacity:1"
       d="m 30.207232,167.53962 c 1.056681,-1.0089 1.703277,-2.38659 2.955984,-3.39851 2.033413,-1.64258 4.683647,-2.11763 6.747003,-1.19307 4.402132,1.9725 3.75377,8.85356 1.819311,12.64852 -1.912462,3.75182 -7.265712,7.4548 -11.175762,5.89111 -2.772676,-1.10885 -3.595811,-6.28099 -2.858915,-8.49011 -0.775378,0.71048 -2.768611,3.02102 -4.764865,2.20914 -3.133886,-1.27455 -2.829252,-6.66482 -1.905943,-9.91955 0.947382,-3.33959 2.981799,-6.48389 6.237635,-6.06438 2.916903,0.37584 4.258586,3.2021 2.945552,8.31685 z"
       id="path4771"
       inkscape:connector-curvature="0"
       sodipodi:nodetypes="csssscsssc" />
    <path
       style="opacity:1;vector-effect:none;fill:#ee1c25;fill-opacity:1;stroke:#000000;stroke-width:0.92612588;stroke-linecap:butt;stroke-linejoin:miter;stroke-miterlimit:4;stroke-dasharray:none;stroke-dashoffset:0;stroke-opacity:1"
       d="m 12.100763,173.69064 c 2.911621,2.64242 6.48947,5.63097 10.744802,9.06833 4.814199,3.88878 12.841519,6.13396 17.671093,5.83268 -4.857908,-5.28137 -7.533493,-10.64099 -13.168342,-13.3416 -4.607221,-2.20812 -6.843951,-2.46637 -15.247553,-1.55941 z"
       id="path4769"
       inkscape:connector-curvature="0"
       sodipodi:nodetypes="csccc" />
    <path
       style="opacity:1;vector-effect:none;fill:#fefefe;fill-opacity:1;fill-rule:evenodd;stroke:#000000;stroke-width:0.27391306;stroke-linecap:butt;stroke-linejoin:miter;stroke-miterlimit:4;stroke-dasharray:none;stroke-dashoffset:0;stroke-opacity:1"
       d="m 30.013013,169.86462 c -0.880765,1.968 -1.946671,7.73208 1.104153,9.23636 1.218606,0.60086 3.099072,0.4783 4.736356,-0.47475 1.593088,-0.92731 2.952682,-2.66369 3.480449,-3.66013 1.195183,-2.25653 1.020789,-4.05536 0.858276,-5.48002 -0.282655,-2.47788 -1.980312,-3.75802 -2.882602,-4.06696 -2.850728,-0.97609 -6.415868,2.47751 -7.296632,4.4455 z"
       id="path4788"
       inkscape:connector-curvature="0"
       sodipodi:nodetypes="sssssss" />
    <path
       sodipodi:nodetypes="sssssss"
       inkscape:connector-curvature="0"
       id="path4790"
       d="m 28.646693,168.45103 c -0.342293,1.56373 -2.863106,5.45722 -5.15484,4.96353 -0.915392,-0.19719 -1.446747,-1.38336 -1.560509,-2.77548 -0.112725,-1.37942 0.06668,-3.0666 0.195394,-3.89544 0.291469,-1.87704 0.91208,-2.51801 1.454023,-3.39306 1.016319,-1.64096 2.719501,-1.48763 3.357597,-1.31527 2.568366,0.69376 2.050628,4.85198 1.708335,6.41572 z"
       style="opacity:1;vector-effect:none;fill:#fefefe;fill-opacity:1;fill-rule:evenodd;stroke:#000000;stroke-width:0.38156384;stroke-linecap:butt;stroke-linejoin:miter;stroke-miterlimit:4;stroke-dasharray:none;stroke-dashoffset:0;stroke-opacity:1" />
    <path
       style="opacity:1;vector-effect:none;fill:#ee1c25;fill-opacity:1;fill-rule:evenodd;stroke:#000000;stroke-width:0.27391306;stroke-linecap:butt;stroke-linejoin:miter;stroke-miterlimit:4;stroke-dasharray:none;stroke-dashoffset:0;stroke-opacity:1"
       d="m 28.448799,168.51501 c -0.683908,2.10933 -2.371424,3.4523 -3.815335,3.19246 -1.032413,-0.28151 -1.524979,-2.53092 -0.768026,-4.6884 0.729624,-2.07969 2.068216,-3.27906 3.468831,-3.01919 1.032406,0.28152 1.760692,2.52253 1.11453,4.51513 z"
       id="path4773"
       inkscape:connector-curvature="0"
       sodipodi:nodetypes="scscs" />
    <path
       sodipodi:nodetypes="scscs"
       inkscape:connector-curvature="0"
       id="path4776"
       d="m 30.013013,169.86462 c -0.905861,2.02395 -0.748168,4.56314 0.497717,5.33784 0.954954,0.48291 4.477076,-0.28834 5.097987,-2.48885 1.306893,-4.6316 -1.016325,-5.5471 -1.244622,-5.64845 -0.954964,-0.48286 -3.495416,0.88742 -4.351082,2.79946 z"
       style="opacity:1;vector-effect:none;fill:#ee1c25;fill-opacity:1;fill-rule:evenodd;stroke:#000000;stroke-width:0.27391306;stroke-linecap:butt;stroke-linejoin:miter;stroke-miterlimit:4;stroke-dasharray:none;stroke-dashoffset:0;stroke-opacity:1" />
    <path
       style="opacity:1;vector-effect:none;fill:#fbb36b;fill-opacity:1;stroke:#040000;stroke-width:0.92612588;stroke-linecap:butt;stroke-linejoin:miter;stroke-miterlimit:4;stroke-dasharray:none;stroke-dashoffset:0;stroke-opacity:1"
       d="m 185.28048,142.87714 c 1.69015,-1.73197 5.24275,-0.68862 6.1872,3.79807 7.21862,2.35438 10.42158,12.32594 5.1458,14.45719 -2.65308,-7.45125 -7.55534,-13.94139 -11.333,-18.25526 z"
       id="path4763"
       inkscape:connector-curvature="0"
       sodipodi:nodetypes="cccc" />
    <path
       sodipodi:nodetypes="cssscc"
       inkscape:connector-curvature="0"
       id="path879"
       d="m 110.97003,101.91966 c -0.30008,-0.97142 -0.96567,-2.520674 -1.78592,-3.324112 -0.32293,-0.316297 -1.17787,-0.572657 -1.55819,-0.397781 -0.46217,0.21252 -0.55303,1.2377 -0.51324,1.634766 0.0769,0.766787 0.82318,2.266957 1.03954,2.395177 0.26508,-0.0571 1.6588,-0.4518 2.81781,-0.30805 z"
       style="opacity:1;vector-effect:none;fill:#000000;fill-opacity:1;stroke:none;stroke-width:0.21696129;stroke-linecap:butt;stroke-linejoin:miter;stroke-miterlimit:4;stroke-dasharray:none;stroke-dashoffset:0;stroke-opacity:1" />
    <path
       style="opacity:1;vector-effect:none;fill:#ffffff;fill-opacity:1;fill-rule:evenodd;stroke:none;stroke-width:0.16946244;stroke-linecap:butt;stroke-linejoin:miter;stroke-miterlimit:4;stroke-dasharray:none;stroke-dashoffset:0;stroke-opacity:1"
       d="m 108.66059,100.534 c -0.27499,0.10556 -0.63123,-0.17711 -0.80088,-0.635393 -0.17022,-0.457998 -0.0906,-0.923294 0.17856,-1.04561 0.26882,-0.122285 0.62795,0.143272 0.81886,0.62787 0.17078,0.493046 0.0795,0.947563 -0.19652,1.053133 z"
       id="path881"
       inkscape:connector-curvature="0"
       sodipodi:nodetypes="csccc" />
    <path
       sodipodi:nodetypes="cscccc"
       inkscape:connector-curvature="0"
       id="path884"
       d="m 127.18705,101.15859 c -1.87137,0.62652 -4.29567,-1.05121 -5.45013,-3.771211 -1.15843,-2.718323 -0.61644,-5.479972 1.21511,-6.20594 1.82933,-0.725795 4.0108,1.025377 5.30999,3.90159 1.1622,2.926342 0.80331,5.448971 -1.07484,6.075561 z"
       style="opacity:1;vector-effect:none;fill:#15bedd;fill-opacity:1;fill-rule:evenodd;stroke:#000000;stroke-width:0.60753858;stroke-linecap:butt;stroke-linejoin:miter;stroke-miterlimit:4;stroke-dasharray:none;stroke-dashoffset:0;stroke-opacity:1" />
    <path
       sodipodi:nodetypes="csccc"
       inkscape:connector-curvature="0"
       id="path886"
       d="m 126.4445,99.211311 c -0.68326,0.58965 -1.96225,-0.20241 -2.87528,-1.780314 -0.91443,-1.576438 -1.12477,-3.359918 -0.47391,-4.007507 0.65,-0.647251 1.92117,0.07924 2.91941,1.739456 0.94891,1.706056 1.11593,3.457943 0.42983,4.048352 z"
       style="opacity:1;vector-effect:none;fill:#000000;fill-opacity:1;fill-rule:evenodd;stroke:none;stroke-width:0.56791455;stroke-linecap:butt;stroke-linejoin:miter;stroke-miterlimit:4;stroke-dasharray:none;stroke-dashoffset:0;stroke-opacity:1" />
    <path
       sodipodi:nodetypes="csccc"
       inkscape:connector-curvature="0"
       id="path888"
       d="m 124.47532,96.015034 c -0.38168,0.09398 -0.84048,-0.266951 -1.03152,-0.811319 -0.19182,-0.544101 -0.0444,-1.07162 0.33081,-1.185464 0.3747,-0.113841 0.8389,0.227679 1.0565,0.804461 0.1896,0.584489 0.0273,1.098428 -0.35575,1.192326 z"
       style="opacity:1;vector-effect:none;fill:#ffffff;fill-opacity:1;fill-rule:evenodd;stroke:none;stroke-width:0.21221766;stroke-linecap:butt;stroke-linejoin:miter;stroke-miterlimit:4;stroke-dasharray:none;stroke-dashoffset:0;stroke-opacity:1" />
    <path
       style="opacity:1;vector-effect:none;fill:#0064b3;fill-opacity:1;fill-rule:evenodd;stroke:#000000;stroke-width:0.89348966;stroke-linecap:butt;stroke-linejoin:round;stroke-miterlimit:4;stroke-dasharray:none;stroke-dashoffset:0;stroke-opacity:1"
       d="m 128.45169,161.9911 c -4.42106,-2.83296 -5.42671,-5.46131 -5.77749,-10.01668 7.64316,5.61574 18.00165,-7.63805 33.16812,-14.67529 4.32699,-3.34259 3.05956,-4.04866 5.09745,-4.56975 4.57735,1.55132 9.00576,11.79154 4.66095,21.12467"
       id="path1047"
       inkscape:connector-curvature="0"
       sodipodi:nodetypes="ccccc" />
    <path
       style="opacity:1;vector-effect:none;fill:#ee1c25;fill-opacity:1;stroke:#000000;stroke-width:0.92612588;stroke-linecap:butt;stroke-linejoin:miter;stroke-miterlimit:4;stroke-dasharray:none;stroke-dashoffset:0;stroke-opacity:1"
       d="m 157.16913,125.91207 c 1.05854,2.00005 1.40532,4.78759 3.77063,6.81731 -0.55925,2.88857 -6.84612,5.57133 -6.84612,5.57133 0,0 -1.14297,-11.83308 3.07549,-12.38864 z"
       id="path4822"
       inkscape:connector-curvature="0"
       sodipodi:nodetypes="cccc" />
    <path
       style="opacity:1;vector-effect:none;fill:#ee1c25;fill-opacity:1;stroke:#0a0000;stroke-width:0.92612588;stroke-linecap:butt;stroke-linejoin:miter;stroke-miterlimit:4;stroke-dasharray:none;stroke-dashoffset:0;stroke-opacity:1"
       d="m 146.9154,123.03459 c 1.12249,-1.86544 -1.63878,-2.13838 2.15529,-5.82306 0.95987,-1.13627 1.98824,-2.00639 3.4728,-1.91397 1.65725,0.10321 3.15873,0.97412 4.08792,2.35025 1.37401,1.6806 1.30415,9.36618 0.5,13.17139 -0.93356,3.69537 -1.59889,5.99496 -3.65659,9.17086 -6.11373,2.46792 -16.12043,-1.87916 -16.90952,-8.42483 5.17765,-4.51088 7.90974,-5.90468 10.3501,-8.53064 z"
       id="path892"
       inkscape:connector-curvature="0"
       sodipodi:nodetypes="cccccccc" />
    <path
       style="opacity:1;vector-effect:none;fill:#fefefe;fill-opacity:1;stroke:#080000;stroke-width:0.92612588;stroke-linecap:butt;stroke-linejoin:miter;stroke-miterlimit:4;stroke-dasharray:none;stroke-dashoffset:0;stroke-opacity:1"
       d="m 131.74211,142.63239 c 0.0434,0.15171 2.66463,3.88321 1.13802,4.51856 -1.30651,0.54374 -2.83411,-0.39598 -4.53377,-0.12559 -1.41062,0.2244 -2.32891,1.18911 -2.61479,2.21225 -0.28587,1.02316 -0.28573,1.62013 1.31002,2.73332 1.59576,1.11318 5.22868,0.51489 7.9493,-0.0254 1.74044,1.87943 7.22184,3.32186 9.25494,-2.16366 6.59601,0.7193 6.29604,-2.46943 7.79614,-3.38616 3.00564,-2.44389 0.5117,-12.1212 -3.2035,-12.91094 -5.90644,-2.6245 -17.1397,8.99608 -17.09636,9.14768 z"
       id="path914"
       inkscape:connector-curvature="0"
       sodipodi:nodetypes="sssssccccs" />
    <path
       style="opacity:1;vector-effect:none;fill:#fefefe;fill-opacity:1;stroke:#000000;stroke-width:0.92612588;stroke-linecap:round;stroke-linejoin:round;stroke-miterlimit:4;stroke-dasharray:none;stroke-dashoffset:0;stroke-opacity:1"
       d="m 144.90544,139.63261 c -1.63518,3.03021 -3.87981,1.86844 -4.68157,0.81268 -1.68509,-1.66519 -0.91935,-8.99645 0.76633,-10.22837 0.73095,-0.69782 3.08212,-0.74701 4.21419,0.3489 1.83265,1.77416 1.84243,2.4801 1.99592,3.18879"
       id="path906"
       inkscape:connector-curvature="0"
       sodipodi:nodetypes="cccsc" />
    <path
       sodipodi:nodetypes="cccsc"
       inkscape:connector-curvature="0"
       id="path896"
       d="m 128.75963,142.54561 c -0.0652,2.93884 -3.36301,2.36397 -3.7628,1.21534 -2.07888,-5.25326 -0.0148,-9.95847 1.94933,-10.78816 2.7246,-0.93617 3.13706,0.5651 3.13509,1.71156 -0.006,3.1465 -1.27118,4.58246 -1.32162,7.86126 z"
       style="opacity:1;vector-effect:none;fill:#fefefe;fill-opacity:1;stroke:#080000;stroke-width:0.92612588;stroke-linecap:butt;stroke-linejoin:miter;stroke-miterlimit:4;stroke-dasharray:none;stroke-dashoffset:0;stroke-opacity:1" />
    <path
       style="opacity:1;vector-effect:none;fill:#000000;fill-opacity:1;stroke:none;stroke-width:0.18522516;stroke-linecap:butt;stroke-linejoin:miter;stroke-miterlimit:4;stroke-dasharray:none;stroke-dashoffset:0;stroke-opacity:1"
       d="m 145.36067,139.70652 c 0.19679,-0.62011 0.0942,-2.52011 -0.98089,-3.1499 0.233,0.93885 0.5426,2.23543 0.0322,3.00739 0.26078,0.0356 0.68564,0.13318 0.94866,0.14244 z"
       id="path908"
       inkscape:connector-curvature="0"
       sodipodi:nodetypes="cccc" />
    <path
       style="opacity:1;vector-effect:none;fill:#000000;fill-opacity:1;stroke:none;stroke-width:0.18522516;stroke-linecap:butt;stroke-linejoin:miter;stroke-miterlimit:4;stroke-dasharray:none;stroke-dashoffset:0;stroke-opacity:1"
       d="m 141.76075,149.27764 c 2.61925,-0.46443 5.88901,0.75787 8.04516,-1.02296 1.4989,-1.49343 1.5099,-2.65402 1.03784,-6.07088 1.36568,2.73869 1.4399,4.89225 -0.0828,6.5436 -2.76519,1.39741 -6.29608,1.43912 -9.00021,0.55024 z"
       id="path916"
       inkscape:connector-curvature="0"
       sodipodi:nodetypes="ccccc" />
    <path
       sodipodi:nodetypes="cccc"
       inkscape:connector-curvature="0"
       id="path910"
       d="m 147.63959,133.54628 c 0.15448,0.84086 0.31004,1.51847 0.26289,3.50907 -0.4246,-1.08213 -0.78762,-2.26971 -1.15682,-3.20273 0.40404,-0.11886 0.51261,-0.2996 0.89393,-0.30634 z"
       style="opacity:1;vector-effect:none;fill:#080000;fill-opacity:1;stroke:none;stroke-width:0.18522516;stroke-linecap:butt;stroke-linejoin:miter;stroke-miterlimit:4;stroke-dasharray:none;stroke-dashoffset:0;stroke-opacity:1" />
    <path
       style="opacity:1;vector-effect:none;fill:#000104;fill-opacity:1;stroke:none;stroke-width:0.18522516;stroke-linecap:butt;stroke-linejoin:miter;stroke-miterlimit:4;stroke-dasharray:none;stroke-dashoffset:0;stroke-opacity:1"
       d="m 98.301429,150.38613 c 1.914481,-6.30072 0.632346,-9.26783 -2.881604,-11.37441 -1.720447,-1.0314 -6.819139,-1.17399 -7.784885,0.20302 -0.988806,1.4357 -0.871614,3.25288 -0.11391,4.51545 1.209132,1.52481 3.52815,2.59624 4.144488,3.20109 -0.354077,1.53332 -1.457445,2.61773 -0.47777,6.2989 -0.0055,-2.81216 0.286857,-3.26006 1.430734,-6.02231 0.326886,-0.84378 -0.308066,-1.19375 -0.435093,-1.27221 -1.495712,-0.92379 -2.826129,-1.66544 -3.888266,-3.08668 -0.533097,-0.93004 -0.90214,-2.20153 0.528132,-3.37963 1.588769,-0.69003 4.048078,-0.17429 5.362584,0.10333 3.268771,1.66445 4.580846,2.44662 4.1155,10.81345 z"
       id="path918"
       inkscape:connector-curvature="0"
       sodipodi:nodetypes="cccccccscccc" />
    <path
       style="opacity:1;vector-effect:none;fill:#080000;fill-opacity:1;stroke:none;stroke-width:0.18522516;stroke-linecap:butt;stroke-linejoin:round;stroke-miterlimit:4;stroke-dasharray:none;stroke-dashoffset:0;stroke-opacity:1"
       d="m 84.916483,145.75122 c -3.508128,-4.76758 -5.489148,-6.22115 -9.269816,-7.32057 -1.491341,-0.43369 -3.890785,-0.83242 -4.726798,0.47649 -0.501424,0.78504 -0.442595,2.22231 1.124075,2.81079 3.180355,1.2658 4.195277,1.69741 6.157978,3.21507 1.188812,0.99234 2.413632,2.02114 3.180076,3.53451 -2.843262,-3.0436 -5.421078,-3.43075 -8.507614,-3.23609 -1.282611,0.0809 -3.418609,0.56167 -3.57518,1.83725 -0.119655,0.97475 0.239866,1.68571 1.780348,2.0871 2.185175,0.48312 6.3886,0.44897 9.461931,1.67404 0.637342,0.38694 1.695181,3.14023 1.859235,4.48143 0.193356,2.43507 0.992696,3.33524 2.696471,4.1535 3.035581,1.26283 6.161163,1.16808 9.002479,0.32331 2.555089,-0.75965 5.162103,-2.06701 6.423622,-4.41522 1.16978,-2.17743 1.40824,-3.92438 0.46907,-7.16216 1.77799,1.99688 1.64671,6.54976 -0.92552,9.56132 0.97203,0.47397 3.67906,-0.28911 4.64254,-3.05613 0.67876,0.0478 0.95993,0.48974 0.60552,0.70281 -2.65816,4.33447 -4.93154,2.98 -6.133572,3.08161 -2.143874,0.94652 -3.976216,1.88793 -4.738177,2.13619 -3.708171,0.97722 -6.855703,0.62646 -9.559472,-0.38985 -2.123124,-1.01874 -2.004062,-1.26551 -2.75991,-2.59069 -0.496719,-0.6513 -0.758719,-5.27236 -1.809705,-5.92698 -1.777051,-1.27787 -7.274256,-1.30163 -9.873298,-1.87315 -1.000532,-0.24841 -2.205513,-1.35047 -2.071336,-2.50185 0.346352,-2.56156 2.350266,-2.70468 3.877948,-2.84841 1.480096,-0.19606 2.707195,-0.18116 3.593591,-0.0971 -1.22697,-1.26857 -4.616516,-1.22686 -5.695545,-2.94554 -0.55362,-0.88182 -0.624431,-2.18647 0.01116,-3.01161 1.132947,-1.47216 3.487086,-1.35133 5.320074,-1.04968 2.509523,0.413 4.546222,2.09026 6.538244,3.67143 1.587843,1.41713 2.912019,2.83072 3.758052,4.29626 0.941111,-0.33708 1.266274,-0.58454 2.459458,-0.97725 0,0 0.32607,0.27662 0.583237,0.53621 -0.67835,0.19295 -4.621313,1.63555 -6.403476,3.27784 0.660606,-1.21487 2.136739,-1.96238 2.504874,-2.45488 z"
       id="path920"
       inkscape:connector-curvature="0"
       sodipodi:nodetypes="ccccccccccccccccccccccccccccccccccccc" />
    <path
       style="opacity:1;vector-effect:none;fill:#000000;fill-opacity:1;stroke:none;stroke-width:0.18522516;stroke-linecap:butt;stroke-linejoin:miter;stroke-miterlimit:4;stroke-dasharray:none;stroke-dashoffset:0;stroke-opacity:1"
       d="m 85.772908,145.36933 c -3.061475,-4.33754 -3.295525,-5.55843 -9.258443,-9.44514 -1.183755,-0.78644 -2.375549,-2.89933 -0.949242,-4.3689 1.048264,-1.27863 3.108856,-1.25783 4.686031,-0.76156 3.657586,1.15086 6.404734,4.59638 8.228405,7.84043 -0.06297,0.32383 -0.195134,0.43423 -0.518223,0.36756 -1.114333,-2.32144 -4.460148,-6.35588 -7.771437,-7.5801 -1.210427,-0.44749 -2.947154,-0.60654 -3.859351,0.30631 -1.991986,2.36 1.458796,3.82763 1.684641,4.07375 2.476664,2.04905 5.453251,3.44885 7.757619,9.56765 z"
       id="path922"
       inkscape:connector-curvature="0"
       sodipodi:nodetypes="cccccccccc" />
    <path
       sodipodi:nodetypes="ccccccsccccscc"
       inkscape:connector-curvature="0"
       id="path924"
       d="m 88.824253,138.51931 c -0.01667,-3.03087 0.06539,-3.11516 -3.483049,-7.02994 -0.893489,-1.10519 -1.396913,-3.47821 0.404421,-4.45249 1.38341,-0.90548 3.342962,-0.26779 4.698755,0.67854 2.747038,1.9174 4.871033,6.27818 5.000523,10.58724 0.45308,-0.22259 1.229644,-0.38686 2.18205,-0.2409 -0.0289,0.0534 0.644516,0.70714 0.470903,0.76553 -0.448783,0.15096 -1.944522,-0.20203 -2.252736,0.52724 -0.469065,-0.2512 -1.327195,-0.67654 -1.425308,-0.73117 0.536598,-2.13526 -1.430272,-8.16653 -4.222133,-10.32729 -1.020554,-0.78984 -2.62968,-1.46232 -3.773611,-0.86499 -2.607971,1.65414 0.139104,4.25118 0.407291,4.57554 0.440298,0.53242 2.532343,1.62956 2.861914,6.26024 z"
       style="opacity:1;vector-effect:none;fill:#000000;fill-opacity:1;stroke:none;stroke-width:0.18522516;stroke-linecap:butt;stroke-linejoin:miter;stroke-miterlimit:4;stroke-dasharray:none;stroke-dashoffset:0;stroke-opacity:1" />
    <path
       style="opacity:1;vector-effect:none;fill:#fffdff;fill-opacity:1;fill-rule:evenodd;stroke:none;stroke-width:0.12822184;stroke-linecap:butt;stroke-linejoin:miter;stroke-miterlimit:4;stroke-dasharray:none;stroke-dashoffset:0;stroke-opacity:1"
       d="m 99.078028,157.77609 c -2.327761,2.56442 -8.789034,3.91988 -13.81936,2.3496 -3.34363,-1.42871 -2.37818,-4.57124 -5.123791,-9.06396 -1.961795,-0.16633 -4.54111,-0.83904 -5.960473,-1.06827 -12.524091,-2.02276 0.365524,-9.10887 7.207594,-1.52595 -4.770067,-6.03105 -12.741436,-5.97068 -11.160169,-9.74247 0.600705,-0.99461 6.204321,-4.49845 15.280577,6.89203 -1.385281,-7.27657 -13.578524,-11.02775 -9.446354,-13.98006 8.09471,-3.22632 12.248366,9.00461 12.618539,7.30036 2.983106,-3.9096 -6.853517,-8.08984 -2.424227,-11.89026 8.903254,0.10666 8.571924,10.21433 8.475736,11.62219 5.84189,0.0978 7.42093,0.94724 9.97978,7.02937 1.00981,3.26289 0.2257,8.66403 -0.1165,9.98262 -0.81333,3.13346 -4.52248,2.0907 -5.511302,2.0948 z"
       id="path1026"
       inkscape:connector-curvature="0"
       sodipodi:nodetypes="cccsccccccccscc" />
    <path
       sodipodi:nodetypes="cccccccscccc"
       inkscape:connector-curvature="0"
       id="path939"
       d="m 98.301429,150.38613 c 1.914481,-6.30072 0.632346,-9.26783 -2.881604,-11.37441 -1.720447,-1.0314 -6.819139,-1.17399 -7.784885,0.20302 -0.988806,1.4357 -0.871614,3.25288 -0.11391,4.51545 1.209132,1.52481 3.52815,2.59624 4.144488,3.20109 -0.354077,1.53332 -1.457445,2.61773 -0.47777,6.2989 -0.0055,-2.81216 0.286857,-3.26006 1.430734,-6.02231 0.326886,-0.84378 -0.308066,-1.19375 -0.435093,-1.27221 -1.495712,-0.92379 -2.826129,-1.66544 -3.888266,-3.08668 -0.533097,-0.93004 -0.90214,-2.20153 0.528132,-3.37963 1.588769,-0.69003 4.048078,-0.17429 5.362584,0.10333 3.268771,1.66445 4.580846,2.44662 4.1155,10.81345 z"
       style="opacity:1;vector-effect:none;fill:#000104;fill-opacity:1;stroke:none;stroke-width:0.18522516;stroke-linecap:butt;stroke-linejoin:miter;stroke-miterlimit:4;stroke-dasharray:none;stroke-dashoffset:0;stroke-opacity:1" />
    <path
       sodipodi:nodetypes="ccccccccccccccccccccccccccccccccccccc"
       inkscape:connector-curvature="0"
       id="path941"
       d="m 84.916483,145.75122 c -3.508128,-4.76758 -5.489148,-6.22115 -9.269816,-7.32057 -1.491341,-0.43369 -3.890785,-0.83242 -4.726798,0.47649 -0.501424,0.78504 -0.442595,2.22231 1.124075,2.81079 3.180355,1.2658 4.195277,1.69741 6.157978,3.21507 1.188812,0.99234 2.413632,2.02114 3.180076,3.53451 -2.843262,-3.0436 -5.421078,-3.43075 -8.507614,-3.23609 -1.282611,0.0809 -3.418609,0.56167 -3.57518,1.83725 -0.119655,0.97475 0.239866,1.68571 1.780348,2.0871 2.185175,0.48312 6.3886,0.44897 9.461931,1.67404 0.637342,0.38694 1.695181,3.14023 1.859235,4.48143 0.193356,2.43507 0.992696,3.33524 2.696471,4.1535 3.035581,1.26283 6.161163,1.16808 9.002479,0.32331 2.555089,-0.75965 5.162103,-2.06701 6.423622,-4.41522 1.16978,-2.17743 1.40824,-3.92438 0.46907,-7.16216 1.77799,1.99688 1.64671,6.54976 -0.92552,9.56132 0.97203,0.47397 3.67906,-0.28911 4.64254,-3.05613 0.67876,0.0478 0.95993,0.48974 0.60552,0.70281 -2.65816,4.33447 -4.93154,2.98 -6.133572,3.08161 -2.143874,0.94652 -3.976216,1.88793 -4.738177,2.13619 -3.708171,0.97722 -6.855703,0.62646 -9.559472,-0.38985 -2.123124,-1.01874 -2.004062,-1.26551 -2.75991,-2.59069 -0.496719,-0.6513 -0.758719,-5.27236 -1.809705,-5.92698 -1.777051,-1.27787 -7.274256,-1.30163 -9.873298,-1.87315 -1.000532,-0.24841 -2.205513,-1.35047 -2.071336,-2.50185 0.346352,-2.56156 2.350266,-2.70468 3.877948,-2.84841 1.480096,-0.19606 2.707195,-0.18116 3.593591,-0.0971 -1.22697,-1.26857 -4.616516,-1.22686 -5.695545,-2.94554 -0.55362,-0.88182 -0.624431,-2.18647 0.01116,-3.01161 1.132947,-1.47216 3.487086,-1.35133 5.320074,-1.04968 2.509523,0.413 4.546222,2.09026 6.538244,3.67143 1.587843,1.41713 2.912019,2.83072 3.758052,4.29626 0.941111,-0.33708 1.266274,-0.58454 2.459458,-0.97725 0,0 0.32607,0.27662 0.583237,0.53621 -0.67835,0.19295 -4.621313,1.63555 -6.403476,3.27784 0.660606,-1.21487 2.136739,-1.96238 2.504874,-2.45488 z"
       style="opacity:1;vector-effect:none;fill:#080000;fill-opacity:1;stroke:none;stroke-width:0.18522516;stroke-linecap:butt;stroke-linejoin:round;stroke-miterlimit:4;stroke-dasharray:none;stroke-dashoffset:0;stroke-opacity:1" />
    <path
       sodipodi:nodetypes="cccccccccc"
       inkscape:connector-curvature="0"
       id="path943"
       d="m 85.772908,145.36933 c -3.061475,-4.33754 -3.295525,-5.55843 -9.258443,-9.44514 -1.183755,-0.78644 -2.375549,-2.89933 -0.949242,-4.3689 1.048264,-1.27863 3.108856,-1.25783 4.686031,-0.76156 3.657586,1.15086 6.404734,4.59638 8.228405,7.84043 -0.06297,0.32383 -0.195134,0.43423 -0.518223,0.36756 -1.114333,-2.32144 -4.460148,-6.35588 -7.771437,-7.5801 -1.210427,-0.44749 -2.947154,-0.60654 -3.859351,0.30631 -1.991986,2.36 1.458796,3.82763 1.684641,4.07375 2.476664,2.04905 5.453251,3.44885 7.757619,9.56765 z"
       style="opacity:1;vector-effect:none;fill:#000000;fill-opacity:1;stroke:none;stroke-width:0.18522516;stroke-linecap:butt;stroke-linejoin:miter;stroke-miterlimit:4;stroke-dasharray:none;stroke-dashoffset:0;stroke-opacity:1" />
    <path
       style="opacity:1;vector-effect:none;fill:#000000;fill-opacity:1;stroke:none;stroke-width:0.18522516;stroke-linecap:butt;stroke-linejoin:miter;stroke-miterlimit:4;stroke-dasharray:none;stroke-dashoffset:0;stroke-opacity:1"
       d="m 88.824253,138.51931 c -0.01667,-3.03087 0.06539,-3.11516 -3.483049,-7.02994 -0.893489,-1.10519 -1.396913,-3.47821 0.404421,-4.45249 1.38341,-0.90548 3.342962,-0.26779 4.698755,0.67854 2.747038,1.9174 4.871033,6.27818 5.000523,10.58724 0.45308,-0.22259 1.229644,-0.38686 2.18205,-0.2409 -0.0289,0.0534 0.644516,0.70714 0.470903,0.76553 -0.448783,0.15096 -1.944522,-0.20203 -2.252736,0.52724 -0.469065,-0.2512 -1.327195,-0.67654 -1.425308,-0.73117 0.536598,-2.13526 -1.430272,-8.16653 -4.222133,-10.32729 -1.020554,-0.78984 -2.62968,-1.46232 -3.773611,-0.86499 -2.607971,1.65414 0.139104,4.25118 0.407291,4.57554 0.440298,0.53242 2.532343,1.62956 2.861914,6.26024 z"
       id="path945"
       inkscape:connector-curvature="0"
       sodipodi:nodetypes="ccccccsccccscc" />
    <path
       style="opacity:1;vector-effect:none;fill:#000000;fill-opacity:1;stroke:none;stroke-width:0.18522516;stroke-linecap:butt;stroke-linejoin:miter;stroke-miterlimit:4;stroke-dasharray:none;stroke-dashoffset:0;stroke-opacity:1"
       d="m 127.26964,144.63581 c 0.34206,0.76683 0.0219,1.88177 -0.19491,2.42575 0.12892,0.12242 0.26951,0.055 0.38986,-0.0757 0.22848,-0.65491 0.38242,-1.58881 0.18411,-2.38244 -0.18356,-0.11391 -0.25158,0.006 -0.37906,0.0324 z"
       id="path1037"
       inkscape:connector-curvature="0"
       sodipodi:nodetypes="ccccc" />
    <path
       style="opacity:1;vector-effect:none;fill:#894c2e;fill-opacity:1;stroke:#000000;stroke-width:0.92612588;stroke-linecap:butt;stroke-linejoin:miter;stroke-miterlimit:4;stroke-dasharray:none;stroke-dashoffset:0;stroke-opacity:1"
       d="m 179.33833,143.79601 c 2.95338,-2.46238 8.67462,-1.41166 10.65913,4.41068 9.37174,4.69992 8.04056,14.46275 3.73681,16.96885 -4.64506,2.26463 -7.85299,1.5312 -10.10777,-1.40898 3.22507,-9.42086 -1.18632,-14.5691 -4.28817,-19.97055 z"
       id="path4761"
       inkscape:connector-curvature="0"
       sodipodi:nodetypes="ccccc" />
    <path
       sodipodi:nodetypes="cccsc"
       inkscape:connector-curvature="0"
       id="path904"
       d="m 138.99838,139.29562 c -0.0652,2.93883 -3.62552,2.45147 -4.02531,1.30284 -2.6915,-4.64067 -1.065,-8.8208 0.89915,-9.6505 2.72459,-0.93617 3.70589,0.93704 3.70393,2.08349 -0.006,3.14652 -0.52734,2.98536 -0.57777,6.26417 z"
       style="opacity:1;vector-effect:none;fill:#fefefe;fill-opacity:1;stroke:#000000;stroke-width:0.92612588;stroke-linecap:butt;stroke-linejoin:miter;stroke-miterlimit:4;stroke-dasharray:none;stroke-dashoffset:0;stroke-opacity:1" />
    <path
       style="opacity:1;vector-effect:none;fill:#fefefe;fill-opacity:1;stroke:#080000;stroke-width:0.92612588;stroke-linecap:butt;stroke-linejoin:miter;stroke-miterlimit:4;stroke-dasharray:none;stroke-dashoffset:0;stroke-opacity:1"
       d="m 134.44798,140.94851 c -0.0652,2.93884 -3.84431,2.03579 -4.2441,0.88715 -2.69148,-4.64066 -0.58366,-9.21461 1.38049,-10.0443 2.72459,-0.93617 3.13705,0.5651 3.13509,1.71156 -0.006,3.14652 -0.22103,4.16679 -0.27148,7.44559 z"
       id="path902"
       inkscape:connector-curvature="0"
       sodipodi:nodetypes="cccsc" />
    <path
       style="opacity:1;vector-effect:none;fill:#894c2f;fill-opacity:1;stroke:#000000;stroke-width:0.92612588;stroke-linecap:butt;stroke-linejoin:miter;stroke-miterlimit:4;stroke-dasharray:none;stroke-dashoffset:0;stroke-opacity:1"
       d="m 119.18163,193.96744 c -8.31471,-2.59915 -16.33217,-10.89272 -16.47877,-19.603 -0.0441,-2.61799 1.8493,-5.29567 4.28816,-6.24845 3.43066,-1.34025 8.08464,-0.66751 10.87391,1.73781 5.48856,4.62913 4.64592,9.51215 5.12716,14.83932 0.52388,2.64062 1.53137,3.88334 -0.0735,7.98787 -0.88629,1.26623 -2.26164,1.74758 -3.73682,1.28645 z"
       id="path4753"
       inkscape:connector-curvature="0"
       sodipodi:nodetypes="ccccccc" />
    <path
       style="opacity:1;vector-effect:none;fill:none;fill-opacity:1;stroke:#000000;stroke-width:0.64828807;stroke-linecap:butt;stroke-linejoin:miter;stroke-miterlimit:4;stroke-dasharray:none;stroke-dashoffset:0;stroke-opacity:1"
       d="m 120.40445,196.48607 c -4.86788,-6.78781 -15.63959,-3.02706 -15.63959,-3.02706"
       id="path4808"
       inkscape:connector-curvature="0"
       sodipodi:nodetypes="cc" />
    <path
       sodipodi:nodetypes="cccccccc"
       inkscape:connector-curvature="0"
       id="path4755"
       d="m 111.76926,196.96914 c -2.97088,-0.92868 -4.08816,-3.53061 -3.19206,-6.26783 -3.59213,-2.02087 -6.57647,-5.65428 -6.6707,-11.25233 -0.0441,-2.618 1.29797,-6.15331 3.73683,-7.1061 3.43065,-1.34025 6.98197,-1.03508 9.58746,1.98286 6.03988,8.24342 5.53636,13.81888 5.18098,18.08607 0.003,5.56414 -6.19972,5.30072 -8.64251,4.55739 z"
       style="opacity:1;vector-effect:none;fill:#fbb36b;fill-opacity:1;stroke:#000000;stroke-width:0.74090064;stroke-linecap:butt;stroke-linejoin:miter;stroke-miterlimit:4;stroke-dasharray:none;stroke-dashoffset:0;stroke-opacity:1" />
    <path
       style="opacity:1;vector-effect:none;fill:#fbb36b;fill-opacity:1;stroke:#000000;stroke-width:0.74090064;stroke-linecap:butt;stroke-linejoin:miter;stroke-miterlimit:4;stroke-dasharray:none;stroke-dashoffset:0;stroke-opacity:1"
       d="m 108.5772,190.70131 c -6.70284,-4.08177 -8.47527,-13.01369 -3.24016,-15.2342 8.49101,-3.83749 12.66854,6.80219 11.88925,13.51418 0.12429,1.85362 3.3999,6.27907 -0.29853,8.02145 -6.63363,1.20438 -9.42009,-1.90179 -8.35056,-6.30143 z"
       id="path4757"
       inkscape:connector-curvature="0"
       sodipodi:nodetypes="ccccc" />
    <path
       style="opacity:1;vector-effect:none;fill:none;fill-opacity:1;stroke:#000000;stroke-width:0.55567551;stroke-linecap:butt;stroke-linejoin:miter;stroke-miterlimit:4;stroke-dasharray:none;stroke-dashoffset:0;stroke-opacity:1"
       d="m 108.5772,190.70131 c 0,0 2.38459,-1.12325 3.66146,-1.40166 1.62769,-0.35489 5.04889,-0.0809 5.04889,-0.0809"
       id="path4759"
       inkscape:connector-curvature="0"
       sodipodi:nodetypes="csc" />
    <path
       style="opacity:1;vector-effect:none;fill:#000000;fill-opacity:1;fill-rule:evenodd;stroke:none;stroke-width:0.21541964;stroke-linecap:butt;stroke-linejoin:miter;stroke-miterlimit:4;stroke-dasharray:none;stroke-dashoffset:0;stroke-opacity:1"
       d="m 29.933605,170.00102 c -0.704832,1.60889 -0.535212,2.52712 -0.39967,3.04549 1.233103,1.37932 3.493701,0.30573 4.198397,-1.36656 1.338476,-3.17634 -0.224129,-3.59781 -0.401763,-3.67836 -0.743036,-0.38384 -2.731189,0.47951 -3.396964,1.99943 z"
       id="path4780"
       inkscape:connector-curvature="0"
       sodipodi:nodetypes="scscs" />
    <path
       sodipodi:nodetypes="scscs"
       inkscape:connector-curvature="0"
       id="path4782"
       d="m 28.4033,168.63128 c -0.57599,1.65937 -1.259359,2.15289 -1.711013,2.44114 -1.647005,-0.28054 -2.056428,-1.35892 -1.437246,-3.06474 1.176061,-3.23997 2.642405,-2.48006 2.642405,-2.48006 0.61106,0.30984 1.050056,1.53611 0.505854,3.10366 z"
       style="opacity:1;vector-effect:none;fill:#000000;fill-opacity:1;fill-rule:evenodd;stroke:none;stroke-width:0.21541964;stroke-linecap:butt;stroke-linejoin:miter;stroke-miterlimit:4;stroke-dasharray:none;stroke-dashoffset:0;stroke-opacity:1" />
    <ellipse
       style="opacity:1;vector-effect:none;fill:#ffffff;fill-opacity:1;fill-rule:evenodd;stroke:none;stroke-width:19.72952652;stroke-linecap:butt;stroke-linejoin:miter;stroke-miterlimit:4;stroke-dasharray:none;stroke-dashoffset:0;stroke-opacity:1"
       id="path4784"
       cx="120.36832"
       cy="172.40968"
       rx="0.61868793"
       ry="0.90641981"
       transform="matrix(0.98616133,0.16578853,-0.5011943,0.86533478,0,0)" />
    <ellipse
       transform="matrix(-0.59306707,-0.80515306,-0.64372861,0.76525386,0,0)"
       ry="0.8896209"
       rx="0.56427807"
       cy="79.327614"
       cx="-131.93451"
       id="ellipse4786"
       style="opacity:1;vector-effect:none;fill:#ffffff;fill-opacity:1;fill-rule:evenodd;stroke:none;stroke-width:18.66660118;stroke-linecap:butt;stroke-linejoin:miter;stroke-miterlimit:4;stroke-dasharray:none;stroke-dashoffset:0;stroke-opacity:1" />
    <path
       style="opacity:1;vector-effect:none;fill:#000000;fill-opacity:1;stroke:#000000;stroke-width:0.37045032;stroke-linecap:butt;stroke-linejoin:miter;stroke-miterlimit:4;stroke-dasharray:none;stroke-dashoffset:0;stroke-opacity:1"
       d="m 44.805029,195.86888 c 0.742886,0.56549 1.189974,0.97648 1.547265,1.35495 1.022638,1.08325 1.35497,1.46066 1.35497,1.46066"
       id="path4792"
       inkscape:connector-curvature="0"
       sodipodi:nodetypes="csc" />
    <path
       sodipodi:nodetypes="cc"
       inkscape:connector-curvature="0"
       id="path4794"
       d="m 48.804386,200.69141 c 0.22286,0.49498 1.105928,1.30026 1.105928,1.30026"
       style="opacity:1;vector-effect:none;fill:#000000;fill-opacity:1;stroke:#000000;stroke-width:0.64828807;stroke-linecap:butt;stroke-linejoin:miter;stroke-miterlimit:4;stroke-dasharray:none;stroke-dashoffset:0;stroke-opacity:1" />
    <path
       style="opacity:1;vector-effect:none;fill:#000000;fill-opacity:1;stroke:#000000;stroke-width:0.64828807;stroke-linecap:butt;stroke-linejoin:miter;stroke-miterlimit:4;stroke-dasharray:none;stroke-dashoffset:0;stroke-opacity:1"
       d="m 51.591688,203.90752 c 0.222861,0.49498 2.637411,3.84254 2.637411,3.84254"
       id="path4796"
       inkscape:connector-curvature="0"
       sodipodi:nodetypes="cc" />
    <path
       sodipodi:nodetypes="cc"
       inkscape:connector-curvature="0"
       id="path4798"
       d="m 55.446899,209.84194 c 0.222863,0.49498 1.825709,2.81644 1.825709,2.81644"
       style="opacity:1;vector-effect:none;fill:#000000;fill-opacity:1;stroke:#000000;stroke-width:0.64828807;stroke-linecap:butt;stroke-linejoin:miter;stroke-miterlimit:4;stroke-dasharray:none;stroke-dashoffset:0;stroke-opacity:1" />
    <path
       style="opacity:1;vector-effect:none;fill:none;fill-opacity:1;stroke:#000000;stroke-width:0.64828807;stroke-linecap:butt;stroke-linejoin:miter;stroke-miterlimit:4;stroke-dasharray:none;stroke-dashoffset:0;stroke-opacity:1"
       d="m 73.488386,203.38773 c -2.592745,0.8415 -5.104991,5.56705 -5.104991,5.56705"
       id="path4800"
       inkscape:connector-curvature="0"
       sodipodi:nodetypes="cc" />
    <path
       sodipodi:nodetypes="cc"
       inkscape:connector-curvature="0"
       id="path4802"
       d="m 82.326739,202.30209 c -2.894626,-1.05953 -6.483437,0.15615 -6.483437,0.15615"
       style="opacity:1;vector-effect:none;fill:none;fill-opacity:1;stroke:#000000;stroke-width:0.64828807;stroke-linecap:butt;stroke-linejoin:miter;stroke-miterlimit:4;stroke-dasharray:none;stroke-dashoffset:0;stroke-opacity:1" />
    <path
       style="opacity:1;vector-effect:none;fill:none;fill-opacity:1;stroke:#000000;stroke-width:0.64828807;stroke-linecap:butt;stroke-linejoin:miter;stroke-miterlimit:4;stroke-dasharray:none;stroke-dashoffset:0;stroke-opacity:1"
       d="m 88.123323,205.55415 c -1.521754,-1.59147 -2.992312,-2.34981 -2.992312,-2.34981"
       id="path4804"
       inkscape:connector-curvature="0"
       sodipodi:nodetypes="cc" />
    <path
       sodipodi:nodetypes="cc"
       inkscape:connector-curvature="0"
       id="path4806"
       d="m 102.38081,194.59441 c -2.592753,0.8415 -5.105023,5.56705 -5.105023,5.56705"
       style="opacity:1;vector-effect:none;fill:none;fill-opacity:1;stroke:#000000;stroke-width:0.46306294;stroke-linecap:butt;stroke-linejoin:miter;stroke-miterlimit:4;stroke-dasharray:none;stroke-dashoffset:0;stroke-opacity:1" />
    <path
       sodipodi:nodetypes="cc"
       inkscape:connector-curvature="0"
       id="path4810"
       d="m 126.98228,201.13424 c -1.52175,-1.59145 -4.42177,-3.25945 -4.42177,-3.25945"
       style="opacity:1;vector-effect:none;fill:none;fill-opacity:1;stroke:#000000;stroke-width:0.64828807;stroke-linecap:butt;stroke-linejoin:miter;stroke-miterlimit:4;stroke-dasharray:none;stroke-dashoffset:0;stroke-opacity:1" />
    <path
       style="opacity:1;vector-effect:none;fill:#fef100;fill-opacity:1;stroke:#000000;stroke-width:0.55567551;stroke-linecap:butt;stroke-linejoin:round;stroke-miterlimit:4;stroke-dasharray:none;stroke-dashoffset:0;stroke-opacity:1"
       d="m 64.324742,210.00995 2.441953,5.1783 3.845682,-2.64187 -2.459531,4.89433 1.992578,3.94183 -4.418324,-1.51609 -2.858914,3.50867 0.25989,-4.63491 -2.988849,-2.90224 2.988849,-0.21658 z"
       id="path4812"
       inkscape:connector-curvature="0"
       sodipodi:nodetypes="ccccccccccc" />
    <path
       sodipodi:nodetypes="ccccccccccc"
       inkscape:connector-curvature="0"
       id="path4814"
       d="m 91.696242,199.81802 4.218485,4.13687 2.681765,-1.69235 -1.663178,5.35379 1.961971,3.75805 -4.234569,-1.76112 -3.502145,3.84558 1.362572,-5.43127 -3.050121,-1.98335 2.77445,-0.70666 z"
       style="opacity:1;vector-effect:none;fill:#fef100;fill-opacity:1;stroke:#000000;stroke-width:0.55567551;stroke-linecap:butt;stroke-linejoin:round;stroke-miterlimit:4;stroke-dasharray:none;stroke-dashoffset:0;stroke-opacity:1" />
    <ellipse
       style="opacity:1;vector-effect:none;fill:#080000;fill-opacity:1;fill-rule:evenodd;stroke:none;stroke-width:0.1430126;stroke-linecap:butt;stroke-linejoin:miter;stroke-miterlimit:4;stroke-dasharray:none;stroke-dashoffset:0;stroke-opacity:1"
       id="path4816"
       cx="-4.2527676"
       cy="223.68317"
       rx="13.181231"
       ry="4.4830317"
       transform="matrix(0.99319734,-0.11644333,0.17471993,0.98461817,0,0)" />
    <ellipse
       transform="matrix(0.97345702,-0.22886991,0.29795864,0.95457878,0,0)"
       ry="6.2129259"
       rx="19.373753"
       cy="229.4872"
       cx="96.212669"
       id="ellipse4818"
       style="opacity:1;vector-effect:none;fill:#000000;fill-opacity:1;fill-rule:evenodd;stroke:none;stroke-width:0.20411052;stroke-linecap:butt;stroke-linejoin:miter;stroke-miterlimit:4;stroke-dasharray:none;stroke-dashoffset:0;stroke-opacity:1" />
  </g>
</svg>
