<?xml version="1.0" encoding="UTF-8" standalone="no"?>
<!-- Created with Inkscape (http://www.inkscape.org/) -->

<svg
   xmlns:dc="http://purl.org/dc/elements/1.1/"
   xmlns:cc="http://creativecommons.org/ns#"
   xmlns:rdf="http://www.w3.org/1999/02/22-rdf-syntax-ns#"
   xmlns:svg="http://www.w3.org/2000/svg"
   xmlns="http://www.w3.org/2000/svg"
   xmlns:sodipodi="http://sodipodi.sourceforge.net/DTD/sodipodi-0.dtd"
   xmlns:inkscape="http://www.inkscape.org/namespaces/inkscape"
   width="210mm"
   height="297mm"
   viewBox="0 0 210 297"
   version="1.1"
   id="svg8"
   inkscape:version="0.92.4 (5da689c313, 2019-01-14)"
   sodipodi:docname="Marvin-The-Martian.svg">
  <defs
     id="defs2" />
  <sodipodi:namedview
     id="base"
     pagecolor="#ffffff"
     bordercolor="#666666"
     borderopacity="1.0"
     inkscape:pageopacity="0.0"
     inkscape:pageshadow="2"
     inkscape:zoom="0.35"
     inkscape:cx="-1054.3162"
     inkscape:cy="94.940461"
     inkscape:document-units="mm"
     inkscape:current-layer="layer1"
     showgrid="false"
     inkscape:window-width="1920"
     inkscape:window-height="1017"
     inkscape:window-x="-8"
     inkscape:window-y="-8"
     inkscape:window-maximized="1" />
  <metadata
     id="metadata5">
    <rdf:RDF>
      <cc:Work
         rdf:about="">
        <dc:format>image/svg+xml</dc:format>
        <dc:type
           rdf:resource="http://purl.org/dc/dcmitype/StillImage" />
        <dc:title />
      </cc:Work>
    </rdf:RDF>
  </metadata>
  <g
     inkscape:label="Camada 1"
     inkscape:groupmode="layer"
     id="layer1">
    <path
       style="opacity:1;vector-effect:none;fill:#db6206;fill-opacity:1;stroke:#000000;stroke-width:0.65200531;stroke-linecap:butt;stroke-linejoin:round;stroke-miterlimit:4;stroke-dasharray:none;stroke-dashoffset:0;stroke-opacity:1"
       d="m 141.98749,104.60445 c 5.26415,5.40936 12.48872,-22.399818 13.28742,-36.485927 -6.09914,-6.571098 -13.06959,-10.528277 -19.27764,-12.19828 -1.16175,0.943915 -2.32348,1.887829 -3.48522,2.831743 0.25413,5.808705 0.50826,11.617409 0.76239,17.426114 7.27209,8.456659 10.75957,17.582278 8.71305,28.42635 z"
       id="path1001"
       inkscape:connector-curvature="0"
       sodipodi:nodetypes="cccccc" />
    <path
       style="opacity:1;vector-effect:none;fill:#f8b659;fill-opacity:1;stroke:#000000;stroke-width:0.40750331;stroke-linecap:butt;stroke-linejoin:miter;stroke-miterlimit:4;stroke-dasharray:none;stroke-dashoffset:0;stroke-opacity:1"
       d="m 138.78183,56.407087 c 0.96415,-3.001909 6.00727,-3.117967 7.93237,-9.318606 l 20.17748,12.476151 c 0.12154,4.885249 0.54796,5.067001 0.0267,8.995419 l -0.79348,0.401895 0.01,2.973493 c -0.0816,0.382396 -0.71298,-0.03776 -0.80477,0.371951 0.17848,0.326418 0.24402,1.009758 0.12189,2.060264 l -0.58491,0.46161 c 0.11422,2.25138 -0.0581,4.961612 -0.0684,8.022839 0.0605,0.195527 0,0 -0.75203,0.662823 -0.26503,0.755348 0,0 -1.49715,4.509578 -0.94303,-0.04966 -0.62335,0.0806 -0.79844,0.821761 0.8892,0.931725 0,0 0.8892,0.931725 0.10961,0.568788 0.3748,3.076095 -0.97991,2.305138 0.0726,1.788209 -2.2847,7.481449 -3.7112,10.130372 -0.86445,0.1302 -0.66938,0.23529 -0.86445,0.1302 -0.32871,1.20493 0,0 -0.32871,1.20493 -0.45234,1.22311 0,0 -0.45234,1.22311 2.00119,0.57443 -0.19707,0.9904 -0.19707,0.9904 -0.0983,0.47024 -0.35689,1.15447 -0.45899,1.39669 l -11.01285,-1.7713 c 4.5269,-9.210063 10.79642,-22.776654 10.64006,-37.269007 -3.86399,-4.012725 -9.19832,-9.060125 -16.49308,-11.711436 z"
       id="path1009"
       inkscape:connector-curvature="0"
       sodipodi:nodetypes="cccccccccccccccccccccccc" />
    <path
       style="opacity:1;vector-effect:none;fill:#f4a006;fill-opacity:1;stroke:#000000;stroke-width:0.40750331;stroke-linecap:butt;stroke-linejoin:miter;stroke-miterlimit:4;stroke-dasharray:none;stroke-dashoffset:0;stroke-opacity:1"
       d="m 140.86973,87.969316 c 7.91061,-4.90856 0.86687,-12.885408 -4.62948,-8.447163"
       id="path1005"
       inkscape:connector-curvature="0"
       sodipodi:nodetypes="cc" />
    <path
       style="opacity:1;vector-effect:none;fill:#ffffff;fill-opacity:1;stroke:#000000;stroke-width:0.57050461;stroke-linecap:butt;stroke-linejoin:miter;stroke-miterlimit:4;stroke-dasharray:none;stroke-dashoffset:0;stroke-opacity:1"
       d="m 95.481552,213.46321 c -6.335118,14.73959 -40.824303,-3.63044 -45.634636,21.40145 13.831979,18.82384 29.40657,13.19665 49.664428,-3.70305 0.863846,-4.7427 1.727696,-9.48539 2.591546,-14.22809 -0.35252,-0.93442 -0.70504,-1.86883 -1.05756,-2.80325 -1.854596,-0.22235 -3.709187,-0.4447 -5.563778,-0.66706 z"
       id="path961"
       inkscape:connector-curvature="0"
       sodipodi:nodetypes="cccccc" />
    <path
       style="opacity:1;vector-effect:none;fill:#07f307;fill-opacity:1;stroke:#000000;stroke-width:0.40750331;stroke-linecap:butt;stroke-linejoin:round;stroke-miterlimit:4;stroke-dasharray:none;stroke-dashoffset:0;stroke-opacity:1"
       d="m 61.019733,170.13286 0.440773,4.25857 14.247456,1.38624 -20.860724,3.106 0.06714,7.13676 c 4.646468,5.39093 11.218267,10.08874 15.556682,9.93471 0.02057,-1.30243 0.04113,-2.60486 0.0617,-3.90729 0,0 10.472768,-15.21637 10.181058,-17.57941 -5.682639,-3.86479 -19.694089,-4.33558 -19.694089,-4.33558 z"
       id="path892"
       inkscape:connector-curvature="0"
       sodipodi:nodetypes="ccccccccc" />
    <path
       style="opacity:1;vector-effect:none;fill:#07f307;fill-opacity:1;stroke:#000000;stroke-width:0.40750331;stroke-linecap:butt;stroke-linejoin:round;stroke-miterlimit:4;stroke-dasharray:none;stroke-dashoffset:0;stroke-opacity:1"
       d="m 113.91928,168.79374 c -1.68944,0.20303 0,0 -3.51662,0.55962 0.2809,-3.77263 0,0 0.2809,-3.77263 -17.801634,6.19225 0,0 -17.801634,6.19225 -1.677773,7.83088 12.132594,12.33416 17.482014,16.48083 4.65887,-5.07833 8.1821,-14.76168 3.55534,-19.46007 z"
       id="path942"
       inkscape:connector-curvature="0"
       sodipodi:nodetypes="cccccc" />
    <path
       style="opacity:1;vector-effect:none;fill:#fe0204;fill-opacity:1;stroke:#000000;stroke-width:0.40750331;stroke-linecap:butt;stroke-linejoin:miter;stroke-miterlimit:4;stroke-dasharray:none;stroke-dashoffset:0;stroke-opacity:1"
       d="m 89.317559,198.6374 7.261,17.57223 c 1.219372,0.96267 3.747981,-0.19254 4.466771,-2.07936 l -6.595112,-16.85495 z"
       id="path944"
       inkscape:connector-curvature="0"
       sodipodi:nodetypes="ccccc" />
    <path
       sodipodi:nodetypes="cscccc"
       inkscape:connector-curvature="0"
       id="path983"
       d="m 105.41709,213.77003 c 4.13504,1.92866 15.83211,7.09275 20.01648,8.58217 12.65687,4.50518 24.93834,1.31358 29.27283,18.03326 -15.33406,18.62899 -48.23225,12.93376 -55.195056,-9.22385 0.352523,-0.93441 2.239026,-13.29368 2.591546,-14.22809 1.85459,-0.22235 1.45961,-2.94114 3.3142,-3.16349 z"
       style="opacity:1;vector-effect:none;fill:#fcfcfc;fill-opacity:1;stroke:#000000;stroke-width:0.57050461;stroke-linecap:butt;stroke-linejoin:miter;stroke-miterlimit:4;stroke-dasharray:none;stroke-dashoffset:0;stroke-opacity:1" />
    <path
       sodipodi:nodetypes="ccccc"
       inkscape:connector-curvature="0"
       id="path946"
       d="m 94.450218,197.27532 7.761582,19.76711 c 2.64412,0.46208 2.93934,-0.15403 3.65813,-2.04085 l -7.249722,-19.20386 z"
       style="opacity:1;vector-effect:none;fill:#fe0204;fill-opacity:1;stroke:#000000;stroke-width:0.40750331;stroke-linecap:butt;stroke-linejoin:miter;stroke-miterlimit:4;stroke-dasharray:none;stroke-dashoffset:0;stroke-opacity:1" />
    <path
       style="opacity:1;vector-effect:none;fill:#07f307;fill-opacity:1;stroke:#000000;stroke-width:0.40750331;stroke-linecap:butt;stroke-linejoin:round;stroke-miterlimit:4;stroke-dasharray:none;stroke-dashoffset:0;stroke-opacity:1"
       d="m 70.471058,195.95514 c 5.312383,-4.04175 14.786551,-17.25097 14.786551,-17.25097 l -4.259891,17.4457 2.026505,3.19386 c 7.264914,0.0513 16.840231,-3.51694 19.715397,-5.1599 l -0.56721,-2.75316 -11.24465,-15.12873 c 0,0 12.87415,8.20331 19.43618,11.95187 l -0.21222,-3.51713 c 0,0 -11.52236,-8.39739 -18.308039,-9.56217 -2.241203,-0.38471 -4.74282,-0.10039 -6.753926,0.96095 -6.357769,3.58628 -14.556992,15.91239 -14.556992,15.91239 0,0 2e-6,0 -0.0617,3.90729 z"
       id="path896"
       inkscape:connector-curvature="0"
       sodipodi:nodetypes="cccccccccscccc" />
    <path
       style="opacity:1;vector-effect:none;fill:#0a8a46;fill-opacity:1;fill-rule:evenodd;stroke:#110000;stroke-width:0.37734807;stroke-linecap:butt;stroke-linejoin:round;stroke-miterlimit:4;stroke-dasharray:none;stroke-dashoffset:0;stroke-opacity:1"
       d="m 110.15172,184.73668 c -2.46443,-1.06563 -14.542505,-8.9568 -18.308039,-9.56217 0.07832,2.80355 8.486009,13.26883 10.328729,16.25616 -5.973082,2.91045 -13.600908,4.7192 -21.174691,4.7192 -0.776268,-3.85066 3.55767,-17.28732 4.092037,-20.01441 -3.797405,2.95354 -10.303318,11.65617 -14.556991,15.91239 -9.347935,-2.73805 -14.83838,-7.70874 -15.685527,-13.16418 1.371389,-1.56318 25.153048,-3.73999 26.206902,-4.61958 0,0 -13.27276,-2.85849 -20.044034,-4.14086 12.451422,-9.84622 39.500134,-14.48171 49.727914,-4.5425 -5.80546,2.17033 -11.688516,4.07734 -17.866282,6.79591 4.844016,-0.1212 15.656552,-2.78962 21.047542,-3.5829 2.85963,3.98855 -1.45716,14.44614 -3.76756,15.94294 z"
       id="path889"
       inkscape:connector-curvature="0"
       sodipodi:nodetypes="ccccccccccccc" />
    <path
       style="opacity:1;vector-effect:none;fill:#ffffff;fill-opacity:1;stroke:#000000;stroke-width:0.40750331;stroke-linecap:butt;stroke-linejoin:miter;stroke-miterlimit:4;stroke-dasharray:none;stroke-dashoffset:0;stroke-opacity:1"
       d="m 141.7689,156.99487 c 0.6378,-0.70967 2.01518,-1.15813 2.848,-1.55482 11.93572,-5.68527 13.80018,3.19166 2.32834,7.63042"
       id="path885"
       inkscape:connector-curvature="0"
       sodipodi:nodetypes="csc" />
    <path
       style="opacity:1;vector-effect:none;fill:#fe0204;fill-opacity:1;stroke:#120000;stroke-width:0.48900399;stroke-linecap:butt;stroke-linejoin:miter;stroke-miterlimit:4;stroke-dasharray:none;stroke-dashoffset:0;stroke-opacity:1"
       d="M 79.307942,137.82298 C 70.213486,124.82826 59.855365,91.996162 58.167623,82.129519 c 0.632905,-1.770591 2.937034,-3.218378 4.720367,-2.62232 4.048864,9.854865 20.285639,44.089961 22.567155,52.962571 -1.721571,0.82777 -3.973807,2.4717 -6.147203,5.35321 z"
       id="path855"
       inkscape:connector-curvature="0"
       sodipodi:nodetypes="ccccc" />
    <path
       style="opacity:1;vector-effect:none;fill:#ffffff;fill-opacity:1;stroke:none;stroke-width:0.24450199;stroke-linecap:butt;stroke-linejoin:miter;stroke-miterlimit:4;stroke-dasharray:none;stroke-dashoffset:0;stroke-opacity:1"
       d="m 78.649365,101.88457 c 1.044473,-4.606247 -0.261827,-10.892142 -3.707898,-11.663143 -0.192558,-0.07629 -0.764003,0.312341 -0.835435,0.506754 1.185497,2.716997 2.570405,4.814922 4.543333,11.156389 z"
       id="path853"
       inkscape:connector-curvature="0"
       sodipodi:nodetypes="cccc" />
    <path
       style="opacity:1;vector-effect:none;fill:#058a42;fill-opacity:1;stroke:#000000;stroke-width:0.40750331;stroke-linecap:butt;stroke-linejoin:miter;stroke-miterlimit:4;stroke-dasharray:none;stroke-dashoffset:0;stroke-opacity:1"
       d="m 72.049833,135.53823 9.49083,-6.80951 -5.986728,-14.90824 -8.124901,9.16458 z"
       id="path851"
       inkscape:connector-curvature="0"
       sodipodi:nodetypes="ccccc" />
    <path
       style="opacity:1;vector-effect:none;fill:#04fd04;fill-opacity:1;stroke:#000000;stroke-width:0.40750331;stroke-linecap:butt;stroke-linejoin:miter;stroke-miterlimit:4;stroke-dasharray:none;stroke-dashoffset:0;stroke-opacity:1"
       d="m 60.844399,123.2161 c 1.821796,-5.10518 6.528522,-8.28957 9.74218,-10.89738 4.967357,1.50176 0,0 4.967357,1.50176 -3.690896,3.91676 -3.640507,4.11444 -8.124902,9.16458 z"
       id="path849"
       inkscape:connector-curvature="0"
       sodipodi:nodetypes="ccccc" />
    <path
       style="opacity:1;vector-effect:none;fill:#ffffff;fill-opacity:1;stroke:#000000;stroke-width:0.40750331;stroke-linecap:butt;stroke-linejoin:miter;stroke-miterlimit:4;stroke-dasharray:none;stroke-dashoffset:0;stroke-opacity:1"
       d="m 147.21533,159.49671 c 0.54782,5.79055 -6.78892,14.14058 -9.69328,19.22319 14.70089,-11.50461 22.73505,5.02428 4.58377,2.337 -3.61834,4.77521 -14.06664,7.25236 -15.98651,3.9071 -1.99348,0.73512 -7.78567,-3.8492 -7.26598,-8.7122 0.88503,-1.87169 2.85722,-4.54347 4.90804,-10.23291 0.48686,-0.72681 1.11916,-1.67102 1.29358,-2.55741 0.21174,-1.07612 0.52271,-2.02064 0.76605,-2.17475 16.2282,-18.8287 11.65843,-1.28297 12.30311,-2.44765 0.96726,0.24117 0.65922,0.47112 1.23949,0.77029 0.65269,-0.81032 2.51498,-2.72657 2.51498,-2.72657"
       id="path875"
       inkscape:connector-curvature="0"
       sodipodi:nodetypes="ccccccscccc" />
    <path
       style="opacity:1;vector-effect:none;fill:#fe0204;fill-opacity:1;stroke:#250000;stroke-width:0.7335059;stroke-linecap:butt;stroke-linejoin:miter;stroke-miterlimit:4;stroke-dasharray:none;stroke-dashoffset:0;stroke-opacity:1"
       d="m 80.598302,174.2759 c 6.295777,2.27803 13.182111,1.9125 12.283624,-2.50292 -6.978977,-14.23595 8.107624,-21.86358 10.823754,-24.46507 1.39737,-1.20437 1.70995,-1.26921 4.90089,3.02091 2.85053,3.3093 12.95418,19.68284 14.11526,26.83508 1.07819,-0.51342 2.77521,-1.14236 3.8534,-1.65578 -4.16989,-11.58647 -9.95318,-57.85827 -41.120086,-43.03835 -20.821335,14.8181 -6.231007,28.26949 -4.856842,41.80613 z"
       id="path869"
       inkscape:connector-curvature="0"
       sodipodi:nodetypes="cccccccc" />
    <path
       style="opacity:1;vector-effect:none;fill:#000008;fill-opacity:1;fill-rule:evenodd;stroke:none;stroke-width:0.40098327;stroke-linecap:butt;stroke-linejoin:miter;stroke-miterlimit:4;stroke-dasharray:none;stroke-dashoffset:0;stroke-opacity:1"
       d="m 129.21676,107.56099 c 0,16.32639 -13.4106,29.56154 -29.953414,29.56154 -16.542814,0 -29.572218,-13.34407 -29.572218,-29.67046 -1.089133,-3.31791 3.836099,-14.731365 -0.587032,-7.14493 -1.920732,-10.520224 5.070861,-18.471575 9.54527,1.57743 -0.01723,-3.559017 0.759858,-8.616839 -3.707897,-11.663143 4.172675,-6.40508 9.979176,-10.261553 18.331652,-11.350686 16.403939,-2.139014 35.943639,12.363852 35.943639,28.690249 z"
       id="path834"
       inkscape:connector-curvature="0"
       sodipodi:nodetypes="scccccss" />
    <path
       style="opacity:1;vector-effect:none;fill:#ffffff;fill-opacity:1;stroke:none;stroke-width:0.40750331;stroke-linecap:round;stroke-linejoin:round;stroke-miterlimit:4;stroke-dasharray:none;stroke-dashoffset:0;stroke-opacity:1"
       d="m 85.411634,102.53804 c -4.768469,4.65119 -5.222004,11.29303 -3.96225,12.18962 1.695358,1.20663 6.058967,-2.20757 7.004277,-2.83251 2.544092,-1.80135 7.594622,-6.52185 10.633717,-9.41904 3.326372,-3.171042 7.686892,-5.240123 10.814482,-0.93925 0.42338,0.34917 0.52913,1.57578 0.077,1.88683 -2.20055,-3.28494 -3.90946,-4.894331 -8.20191,-1.96384 1.07426,8.18248 -9.504969,31.45464 -17.520516,14.32447 -1.175931,0.004 -1.291709,0.002 -2.944391,-0.17658 -1.384935,4.51674 -7.514092,0.99467 -6.874801,-11.37541 -1.00859,-2.49372 -2.236413,-4.875232 -2.271892,-8.548473 1.84934,1.987221 3.386815,12.353643 7.89386,13.554333 0.907164,-1.49665 1.320134,-4.33856 2.368158,-6.02629 1.089212,-1.75406 0.874578,-3.18231 3.600371,-3.523354 -2.060203,1.514644 -1.790066,1.771384 -3.234558,4.081704 1.013495,-0.1153 1.662874,-1.36407 2.618453,-1.23221 z"
       id="path836"
       inkscape:connector-curvature="0"
       sodipodi:nodetypes="cscsccccccccccccc" />
    <path
       style="opacity:1;vector-effect:none;fill:#028c45;fill-opacity:1;stroke:none;stroke-width:0.40750331;stroke-linecap:butt;stroke-linejoin:miter;stroke-miterlimit:4;stroke-dasharray:none;stroke-dashoffset:0;stroke-opacity:1"
       d="M 85.488648,80.319707 74.398736,90.523968 69.310482,78.393739 Z"
       id="path832"
       inkscape:connector-curvature="0"
       sodipodi:nodetypes="cccc" />
    <path
       style="opacity:1;vector-effect:none;fill:#05fe06;fill-opacity:1;stroke:#050000;stroke-width:0.40750331;stroke-linecap:butt;stroke-linejoin:miter;stroke-miterlimit:4;stroke-dasharray:none;stroke-dashoffset:0;stroke-opacity:1"
       d="m 66.158317,135.65374 5.891516,-0.11551 -4.620797,-12.55317 -6.584636,0.23104 z"
       id="path847"
       inkscape:connector-curvature="0"
       sodipodi:nodetypes="ccccc" />
    <path
       style="opacity:1;vector-effect:none;fill:#ffffff;fill-opacity:1;stroke:#000000;stroke-width:0.40750331;stroke-linecap:butt;stroke-linejoin:round;stroke-miterlimit:4;stroke-dasharray:none;stroke-dashoffset:0;stroke-opacity:1"
       d="m 121.64638,173.23622 c 0.0761,3.96792 6.32196,4.71948 3.81603,-1.88956 6.08581,2.00943 4.19408,9.29711 0.9973,10.36103 -4.45512,1.37447 -12.07542,-2.8154 -4.81333,-8.47147 z"
       id="path871"
       inkscape:connector-curvature="0"
       sodipodi:nodetypes="cccc" />
    <path
       style="opacity:1;vector-effect:none;fill:#000000;fill-opacity:1;stroke:none;stroke-width:0.16300133;stroke-linecap:butt;stroke-linejoin:miter;stroke-miterlimit:4;stroke-dasharray:none;stroke-dashoffset:0;stroke-opacity:1"
       d="m 88.810617,112.99077 c 0.522191,1.3861 -1.719675,6.17285 -3.566906,3.26739 -0.858337,-1.26863 2.464436,-1.27487 3.566906,-3.26739 z"
       id="path838"
       inkscape:connector-curvature="0"
       sodipodi:nodetypes="ccc" />
    <path
       style="opacity:1;vector-effect:none;fill:#000000;fill-opacity:1;stroke:#000008;stroke-width:0.08150066;stroke-linecap:butt;stroke-linejoin:miter;stroke-miterlimit:4;stroke-dasharray:none;stroke-dashoffset:0;stroke-opacity:1"
       d="m 77.033138,108.26892 c 1.096555,1.31579 1.108741,1.31715 2.448474,2.74138 -1.047721,4.2592 -3.577497,-0.94298 -2.448474,-2.74138 z"
       id="path840"
       inkscape:connector-curvature="0"
       sodipodi:nodetypes="ccc" />
    <path
       style="opacity:1;vector-effect:none;fill:#06fe07;fill-opacity:1;stroke:#000000;stroke-width:0.40750331;stroke-linecap:butt;stroke-linejoin:miter;stroke-miterlimit:4;stroke-dasharray:none;stroke-dashoffset:0;stroke-opacity:1"
       d="m 118.10828,119.06268 c 0.96352,1.36137 1.54213,1.98024 2.72282,2.42331 -2.14758,3.25777 -5.25511,5.82377 -12.85458,8.70944 -3.18289,-2.71921 0,0 -3.18289,-2.71921 5.72305,-2.09741 10.91585,-4.26886 13.31465,-8.41354 z"
       id="path845"
       inkscape:connector-curvature="0"
       sodipodi:nodetypes="ccccc" />
    <path
       style="opacity:1;vector-effect:none;fill:#06fe07;fill-opacity:1;stroke:#000000;stroke-width:0.40750331;stroke-linecap:butt;stroke-linejoin:miter;stroke-miterlimit:4;stroke-dasharray:none;stroke-dashoffset:0;stroke-opacity:1"
       d="m 75.939003,88.983702 c -9.174867,-9.200488 5.241401,-8.699029 19.861258,-3.602839 10.171939,3.545734 21.449469,13.91415 24.657529,23.277537 -5.59817,1.07472 -3.60173,16.18787 3.84555,12.43984 -6.58763,-6.3083 -2.73953,-9.90206 -1.11158,-12.1703 -3.829,-15.283114 -18.36765,-28.372735 -33.387992,-31.639082 -15.065182,-3.847847 -31.520884,0.649329 -15.405032,13.23511 0.942371,-0.977217 0,0 1.540267,-1.540266 z"
       id="path830"
       inkscape:connector-curvature="0"
       sodipodi:nodetypes="cscccccc" />
    <path
       style="opacity:1;vector-effect:none;fill:#ffffff;fill-opacity:1;stroke:#000000;stroke-width:0.40750331;stroke-linecap:butt;stroke-linejoin:miter;stroke-miterlimit:4;stroke-dasharray:none;stroke-dashoffset:0;stroke-opacity:1"
       d="m 63.616878,81.263122 c 7.02234,-5.311335 -2.11659,-9.391408 -7.162234,-6.911943 -2.535995,1.38924 -7.726294,8.946209 1.61671,8.24042 2.030091,-3.350964 4.816636,-3.0844 5.545524,-1.328477 z"
       id="path857"
       inkscape:connector-curvature="0"
       sodipodi:nodetypes="cccc" />
    <path
       sodipodi:nodetypes="cccc"
       inkscape:connector-curvature="0"
       id="path867"
       d="m 53.001061,74.886068 c -3.601212,0.302705 -10.683423,-5.386337 -8.625487,-9.717545 -0.181522,-14.649602 6.546063,-22.46604 13.20418,-16.582719 2.577614,2.478735 1.447838,26.49522 -4.578693,26.300264 z"
       style="opacity:0.98999999;vector-effect:none;fill:#ffffff;fill-opacity:1;stroke:#000000;stroke-width:0.6057142;stroke-linecap:butt;stroke-linejoin:miter;stroke-miterlimit:4;stroke-dasharray:none;stroke-dashoffset:0;stroke-opacity:1" />
    <path
       sodipodi:nodetypes="cccc"
       inkscape:connector-curvature="0"
       id="path865"
       d="m 44.375574,65.168523 c -4.024785,-1.434025 -6.770368,-5.378526 -6.637764,-7.420252 -0.181522,-9.548058 6.175619,-9.963357 10.677365,-6.931939 2.577613,1.615546 1.98693,14.479256 -4.039601,14.352191 z"
       style="opacity:0.98999999;vector-effect:none;fill:#ffffff;fill-opacity:1;stroke:#000000;stroke-width:0.48900399;stroke-linecap:butt;stroke-linejoin:miter;stroke-miterlimit:4;stroke-dasharray:none;stroke-dashoffset:0;stroke-opacity:1" />
    <path
       style="opacity:0.98999999;vector-effect:none;fill:#ffffff;fill-opacity:1;stroke:#000000;stroke-width:0.48900399;stroke-linecap:butt;stroke-linejoin:miter;stroke-miterlimit:4;stroke-dasharray:none;stroke-dashoffset:0;stroke-opacity:1"
       d="M 51.807355,65.014496 C 46.742891,63.580472 47.886479,59.096878 47.287456,54.66774 47.105934,45.119682 53.078008,44.665877 57.579754,47.697294 60.157368,49.31284 57.833887,65.141561 51.807355,65.014496 Z"
       id="path863"
       inkscape:connector-curvature="0"
       sodipodi:nodetypes="cccc" />
    <path
       style="opacity:1;vector-effect:none;fill:#ffffff;fill-opacity:1;stroke:#000000;stroke-width:0.48900399;stroke-linecap:butt;stroke-linejoin:miter;stroke-miterlimit:4;stroke-dasharray:none;stroke-dashoffset:0;stroke-opacity:1"
       d="M 55.07475,75.088968 C 44.513289,65.580284 52.380842,62.342281 53.941445,61.498426 55.283281,59.694213 56.232161,58.71226 56.746053,55.163788 58.650592,44.888129 55.00477,31.75512 63.455594,27.52032 c 2.439326,-1.229207 8.766256,0.01262 6.552348,3.22889 -5.045525,7.800429 -7.701989,17.784731 -8.275613,26.88295 -0.39918,6.331385 0.607474,12.273386 0.857435,16.585502 -3.916397,0.341387 0,0 -7.515014,0.871306 z"
       id="path859"
       inkscape:connector-curvature="0"
       sodipodi:nodetypes="cccccscc" />
    <path
       style="opacity:1;vector-effect:none;fill:#ffffff;fill-opacity:1;stroke:#000000;stroke-width:0.48900399;stroke-linecap:round;stroke-linejoin:miter;stroke-miterlimit:4;stroke-dasharray:none;stroke-dashoffset:0;stroke-opacity:1"
       d="m 58.418483,56.368581 c -8.137735,-7.996545 -9.382784,-0.936995 -11.975563,-1.270719 -12.206605,-1.001173 -5.50645,5.737488 -2.3104,6.007034 3.308149,0.631763 7.15539,0.916967 10.810098,0.39353"
       id="path861"
       inkscape:connector-curvature="0"
       sodipodi:nodetypes="cccc" />
    <path
       style="opacity:1;vector-effect:none;fill:#ffffff;fill-opacity:1;stroke:#000000;stroke-width:0.48900399;stroke-linecap:butt;stroke-linejoin:miter;stroke-miterlimit:4;stroke-dasharray:none;stroke-dashoffset:0;stroke-opacity:1"
       d="m 128.88563,168.30738 c 1.864,-6.7241 12.01864,-11.44708 10.46927,-8.69069 -0.88075,1.56687 -2.80861,3.98025 -4.73178,8.34413"
       id="path883"
       inkscape:connector-curvature="0"
       sodipodi:nodetypes="csc" />
    <path
       style="opacity:1;vector-effect:none;fill:#068945;fill-opacity:1;stroke:#000000;stroke-width:0.40750331;stroke-linecap:butt;stroke-linejoin:miter;stroke-miterlimit:4;stroke-dasharray:none;stroke-dashoffset:0;stroke-opacity:1"
       d="m 130.61843,124.56384 c 1.69429,5.85301 0.58677,1.87255 1.69429,5.85301 -3.22636,5.67317 -20.74063,14.54388 -29.18803,13.09225 2.61001,-7.49154 2.43262,-6.76212 5.00586,-13.70837 27.00293,-7.58901 26.46355,-52.669587 -4.00469,-63.150875 19.91269,-7.766202 58.42389,25.082865 26.49257,57.913985 z"
       id="path826"
       inkscape:connector-curvature="0"
       sodipodi:nodetypes="cccccc" />
    <path
       style="opacity:1;vector-effect:none;fill:#068945;fill-opacity:1;stroke:#0e0000;stroke-width:0.40750331;stroke-linecap:butt;stroke-linejoin:miter;stroke-miterlimit:4;stroke-dasharray:none;stroke-dashoffset:0;stroke-opacity:1"
       d="m 69.310482,78.393739 c 34.543808,-8.987158 52.171758,22.998851 53.072638,31.111801 -5.03856,4.4888 -0.84234,12.08327 3.22003,11.82793 4.12722,-0.25941 8.56598,-9.31228 1.78998,-14.33293 3.09411,-20.908858 -10.9409,-46.790533 -45.948168,-42.757779 -5.899569,6.547798 -6.233123,6.882101 -12.13448,14.150978 z"
       id="path828"
       inkscape:connector-curvature="0"
       sodipodi:nodetypes="ccsccc" />
    <path
       style="opacity:1;vector-effect:none;fill:#06fe07;fill-opacity:1;stroke:#000000;stroke-width:0.40750331;stroke-linecap:butt;stroke-linejoin:miter;stroke-miterlimit:4;stroke-dasharray:none;stroke-dashoffset:0;stroke-opacity:1"
       d="m 103.12469,143.5091 -4.048429,-1.60461 5.717369,-14.42827 3.18289,2.71921 z"
       id="path843"
       inkscape:connector-curvature="0"
       sodipodi:nodetypes="ccccc" />
    <path
       style="opacity:1;vector-effect:none;fill:none;fill-opacity:1;stroke:#000000;stroke-width:0.40750331;stroke-linecap:butt;stroke-linejoin:miter;stroke-miterlimit:4;stroke-dasharray:none;stroke-dashoffset:0;stroke-opacity:1"
       d="m 141.52631,157.24697 c 0.2511,-0.25721 0.46232,-0.47308 0.7573,-0.68411"
       id="path887"
       inkscape:connector-curvature="0"
       sodipodi:nodetypes="cc" />
    <path
       sodipodi:nodetypes="cccc"
       inkscape:connector-curvature="0"
       id="path948"
       d="m 102.10289,216.93352 c 2.09096,0.86132 4.49414,-0.98304 3.3142,-3.16349 2.08084,-0.79337 2.41733,2.63352 1.16121,4.08291 -1.87492,1.35002 -4.20852,0.72834 -4.47541,-0.91942 z"
       style="opacity:1;vector-effect:none;fill:#ffffff;fill-opacity:1;stroke:#000000;stroke-width:0.48900399;stroke-linecap:butt;stroke-linejoin:round;stroke-miterlimit:4;stroke-dasharray:none;stroke-dashoffset:0;stroke-opacity:1" />
    <path
       style="opacity:1;vector-effect:none;fill:#da0a0c;fill-opacity:1;stroke:#000000;stroke-width:0.40750331;stroke-linecap:butt;stroke-linejoin:miter;stroke-miterlimit:4;stroke-dasharray:none;stroke-dashoffset:0;stroke-opacity:1"
       d="m 49.846916,234.86466 c 15.683504,21.14732 33.545271,9.72958 49.664428,-3.70305 l -0.541498,3.7529 c -16.097563,15.28921 -35.935248,20.31229 -50.279528,1.56202 0,0 -0.154697,-1.58284 1.156598,-1.61187 z"
       id="path963"
       inkscape:connector-curvature="0"
       sodipodi:nodetypes="ccccc" />
    <path
       style="opacity:1;vector-effect:none;fill:none;fill-opacity:1;stroke:#000000;stroke-width:0.57050461;stroke-linecap:butt;stroke-linejoin:miter;stroke-miterlimit:4;stroke-dasharray:none;stroke-dashoffset:0;stroke-opacity:1"
       d="m 98.041015,217.43855 c -9.094251,17.33535 -27.555044,8.20479 -37.084951,27.17384"
       id="path965"
       inkscape:connector-curvature="0"
       sodipodi:nodetypes="cc" />
    <path
       style="opacity:1;vector-effect:none;fill:#ffffff;fill-opacity:1;stroke:#000000;stroke-width:0.48900399;stroke-linecap:butt;stroke-linejoin:round;stroke-miterlimit:4;stroke-dasharray:none;stroke-dashoffset:0;stroke-opacity:1"
       d="m 95.481552,213.46321 c -0.221062,1.5676 3.641914,4.21403 5.454868,0.66706 0.14847,1.774 -2.517046,4.19321 -4.524244,3.59164 -1.260359,-0.45951 -2.573547,-3.87327 -0.930624,-4.2587 z"
       id="path959"
       inkscape:connector-curvature="0"
       sodipodi:nodetypes="cccc" />
    <path
       sodipodi:nodetypes="cc"
       inkscape:connector-curvature="0"
       id="path967"
       d="M 95.481552,213.46321 C 86.387303,230.79857 61.391717,213.0094 53.277683,239.11227"
       style="opacity:1;vector-effect:none;fill:none;fill-opacity:1;stroke:#000000;stroke-width:0.57050461;stroke-linecap:butt;stroke-linejoin:miter;stroke-miterlimit:4;stroke-dasharray:none;stroke-dashoffset:0;stroke-opacity:1" />
    <path
       style="opacity:1;vector-effect:none;fill:none;fill-opacity:1;stroke:#000000;stroke-width:0.57050461;stroke-linecap:butt;stroke-linejoin:miter;stroke-miterlimit:4;stroke-dasharray:none;stroke-dashoffset:0;stroke-opacity:1"
       d="m 55.183664,234.59237 c 2.732174,2.19808 5.425841,4.20364 8.6586,5.55458"
       id="path969"
       inkscape:connector-curvature="0"
       sodipodi:nodetypes="cc" />
    <path
       sodipodi:nodetypes="cc"
       inkscape:connector-curvature="0"
       id="path971"
       d="m 60.824887,227.41089 c 2.789933,2.08256 6.484773,4.70421 9.486492,6.80603"
       style="opacity:1;vector-effect:none;fill:none;fill-opacity:1;stroke:#000000;stroke-width:0.57050461;stroke-linecap:butt;stroke-linejoin:round;stroke-miterlimit:4;stroke-dasharray:none;stroke-dashoffset:0;stroke-opacity:1" />
    <path
       style="opacity:1;vector-effect:none;fill:none;fill-opacity:1;stroke:#000000;stroke-width:0.57050461;stroke-linecap:butt;stroke-linejoin:round;stroke-miterlimit:4;stroke-dasharray:none;stroke-dashoffset:0;stroke-opacity:1"
       d="m 70.028054,223.59892 c 2.898846,1.91919 7.029339,4.64977 9.649862,6.8605"
       id="path973"
       inkscape:connector-curvature="0"
       sodipodi:nodetypes="cc" />
    <path
       sodipodi:nodetypes="cc"
       inkscape:connector-curvature="0"
       id="path975"
       d="m 82.144649,222.04691 c 2.898846,1.9192 3.680257,2.82547 6.300788,5.0362"
       style="opacity:1;vector-effect:none;fill:none;fill-opacity:1;stroke:#000000;stroke-width:0.57050461;stroke-linecap:butt;stroke-linejoin:round;stroke-miterlimit:4;stroke-dasharray:none;stroke-dashoffset:0;stroke-opacity:1" />
    <path
       style="opacity:1;vector-effect:none;fill:none;fill-opacity:1;stroke:#000000;stroke-width:0.57050461;stroke-linecap:butt;stroke-linejoin:round;stroke-miterlimit:4;stroke-dasharray:none;stroke-dashoffset:0;stroke-opacity:1"
       d="m 90.394827,219.13348 c 2.898848,1.9192 1.801507,0.94671 4.422038,3.15744"
       id="path977"
       inkscape:connector-curvature="0"
       sodipodi:nodetypes="cc" />
    <ellipse
       style="opacity:1;vector-effect:none;fill:#939293;fill-opacity:1;fill-rule:evenodd;stroke:#000000;stroke-width:0.32600266;stroke-linecap:butt;stroke-linejoin:miter;stroke-miterlimit:4;stroke-dasharray:none;stroke-dashoffset:0;stroke-opacity:1"
       id="path979"
       cx="162.3998"
       cy="182.70419"
       rx="1.1980454"
       ry="3.7847345"
       transform="rotate(18.175609)" />
    <ellipse
       transform="matrix(0.9965614,-0.08285755,0.09231272,0.99573006,0,0)"
       ry="3.5970047"
       rx="1.2013301"
       cy="235.88292"
       cx="81.35556"
       id="ellipse981"
       style="opacity:1;vector-effect:none;fill:#939293;fill-opacity:1;fill-rule:evenodd;stroke:#000000;stroke-width:0.31825006;stroke-linecap:butt;stroke-linejoin:miter;stroke-miterlimit:4;stroke-dasharray:none;stroke-dashoffset:0;stroke-opacity:1" />
    <path
       sodipodi:nodetypes="cc"
       inkscape:connector-curvature="0"
       id="path985"
       d="m 101.62231,218.92245 c 7.24273,14.72144 21.51036,9.4573 33.87201,32.02049"
       style="opacity:1;vector-effect:none;fill:none;fill-opacity:1;stroke:#000000;stroke-width:0.57050461;stroke-linecap:butt;stroke-linejoin:miter;stroke-miterlimit:4;stroke-dasharray:none;stroke-dashoffset:0;stroke-opacity:1" />
    <path
       style="opacity:1;vector-effect:none;fill:none;fill-opacity:1;stroke:#000000;stroke-width:0.57050461;stroke-linecap:butt;stroke-linejoin:miter;stroke-miterlimit:4;stroke-dasharray:none;stroke-dashoffset:0;stroke-opacity:1"
       d="m 133.51769,224.55122 c 7.0089,4.39803 10.95489,3.73775 17.60567,19.36681"
       id="path987"
       inkscape:connector-curvature="0"
       sodipodi:nodetypes="cc" />
    <path
       sodipodi:nodetypes="cc"
       inkscape:connector-curvature="0"
       id="path989"
       d="m 147.91043,237.65553 c -2.73218,2.19808 -11.57944,7.00814 -15.54736,8.03234"
       style="opacity:1;vector-effect:none;fill:none;fill-opacity:1;stroke:#000000;stroke-width:0.57050461;stroke-linecap:butt;stroke-linejoin:miter;stroke-miterlimit:4;stroke-dasharray:none;stroke-dashoffset:0;stroke-opacity:1" />
    <path
       style="opacity:1;vector-effect:none;fill:none;fill-opacity:1;stroke:#000000;stroke-width:0.57050461;stroke-linecap:butt;stroke-linejoin:round;stroke-miterlimit:4;stroke-dasharray:none;stroke-dashoffset:0;stroke-opacity:1"
       d="m 141.3979,229.19431 c -3.06222,1.97364 -11.93043,6.17454 -15.42226,9.17489"
       id="path991"
       inkscape:connector-curvature="0"
       sodipodi:nodetypes="cc" />
    <path
       sodipodi:nodetypes="cc"
       inkscape:connector-curvature="0"
       id="path993"
       d="m 133.68107,224.71459 c -3.11668,1.42909 -10.53057,5.07246 -14.51251,8.80798"
       style="opacity:1;vector-effect:none;fill:none;fill-opacity:1;stroke:#000000;stroke-width:0.57050461;stroke-linecap:butt;stroke-linejoin:round;stroke-miterlimit:4;stroke-dasharray:none;stroke-dashoffset:0;stroke-opacity:1" />
    <path
       style="opacity:1;vector-effect:none;fill:none;fill-opacity:1;stroke:#000000;stroke-width:0.57050461;stroke-linecap:butt;stroke-linejoin:round;stroke-miterlimit:4;stroke-dasharray:none;stroke-dashoffset:0;stroke-opacity:1"
       d="m 124.21684,221.78821 c -3.22559,1.42908 -9.28929,4.18688 -12.01874,7.65011"
       id="path995"
       inkscape:connector-curvature="0"
       sodipodi:nodetypes="cc" />
    <path
       sodipodi:nodetypes="cc"
       inkscape:connector-curvature="0"
       id="path997"
       d="m 115.63992,218.33021 c -3.38895,1.64692 -7.30162,4.32303 -9.59542,6.96941"
       style="opacity:1;vector-effect:none;fill:none;fill-opacity:1;stroke:#000000;stroke-width:0.57050461;stroke-linecap:butt;stroke-linejoin:round;stroke-miterlimit:4;stroke-dasharray:none;stroke-dashoffset:0;stroke-opacity:1" />
    <path
       sodipodi:nodetypes="ccccc"
       inkscape:connector-curvature="0"
       id="path999"
       d="m 154.7064,240.38546 c -26.90156,23.21667 -50.72962,4.04541 -55.195056,-9.22385 l -0.813784,4.02519 c 10.59745,21.82399 36.88347,25.68443 56.78233,8.13221 0,0 0.53781,-2.90452 -0.77349,-2.93355 z"
       style="opacity:1;vector-effect:none;fill:#da0a0c;fill-opacity:1;stroke:#000000;stroke-width:0.40750331;stroke-linecap:butt;stroke-linejoin:round;stroke-miterlimit:4;stroke-dasharray:none;stroke-dashoffset:0;stroke-opacity:1" />
    <path
       style="opacity:1;vector-effect:none;fill:none;fill-opacity:1;stroke:#000000;stroke-width:0.40750331;stroke-linecap:butt;stroke-linejoin:miter;stroke-miterlimit:4;stroke-dasharray:none;stroke-dashoffset:0;stroke-opacity:1"
       d="m 132.51205,58.751986 c 5.78656,3.223058 11.57312,7.293261 16.66657,11.055412 0.15648,11.14984 -2.68215,24.750229 -6.3921,31.652452"
       id="path1003"
       inkscape:connector-curvature="0"
       sodipodi:nodetypes="ccc" />
    <path
       sodipodi:nodetypes="cc"
       inkscape:connector-curvature="0"
       id="path1007"
       d="m 140.29793,86.308388 c 2.71085,-1.72954 1.0139,-6.522351 -2.50491,-4.900982"
       style="opacity:1;vector-effect:none;fill:none;fill-opacity:1;stroke:#000000;stroke-width:0.25886828;stroke-linecap:butt;stroke-linejoin:miter;stroke-miterlimit:4;stroke-dasharray:none;stroke-dashoffset:0;stroke-opacity:1" />
    <path
       style="opacity:1;vector-effect:none;fill:none;fill-opacity:1;stroke:#000000;stroke-width:0.7335059;stroke-linecap:butt;stroke-linejoin:miter;stroke-miterlimit:4;stroke-dasharray:none;stroke-dashoffset:0;stroke-opacity:1"
       d="m 155.27491,68.118523 c 2.70173,-1.61856 8.87225,-3.655317 11.61677,-8.553891"
       id="path1011"
       inkscape:connector-curvature="0"
       sodipodi:nodetypes="cc" />
    <path
       style="opacity:1;vector-effect:none;fill:#f6b65c;fill-opacity:1;stroke:#000000;stroke-width:0.40750331;stroke-linecap:butt;stroke-linejoin:miter;stroke-miterlimit:4;stroke-dasharray:none;stroke-dashoffset:0;stroke-opacity:1"
       d="m 144.1113,54.831111 c 1.80368,-1.761833 5.49418,-3.908732 5.06447,-7.133816 -0.82053,-0.202938 -1.64104,-0.405876 -2.46157,-0.608814 -0.515,2.56606 -2.60877,4.593027 -3.8554,5.618822"
       id="path1013"
       inkscape:connector-curvature="0"
       sodipodi:nodetypes="cccc" />
    <path
       sodipodi:nodetypes="ccssc"
       inkscape:connector-curvature="0"
       id="path1021"
       d="m 154.26491,62.197764 c 2.20937,-1.521449 6.99675,-3.746494 7.56821,-6.971579 -0.1193,0.006 -1.17207,0.188239 -1.72998,-0.053 -0.4,-0.172964 0.11497,-1.005606 -0.0669,-0.921719 -2.37338,1.094713 -6.77673,5.867925 -8.53927,6.715216"
       style="opacity:1;vector-effect:none;fill:#f8b659;fill-opacity:1;stroke:#000000;stroke-width:0.40750331;stroke-linecap:butt;stroke-linejoin:miter;stroke-miterlimit:4;stroke-dasharray:none;stroke-dashoffset:0;stroke-opacity:1" />
    <path
       sodipodi:nodetypes="cccccc"
       inkscape:connector-curvature="0"
       id="path1019"
       d="m 152.08217,58.989831 c 2.07322,-1.684819 5.37866,-3.215611 7.33637,-5.901603 l -0.36555,-0.798219 c -0.95346,0.21072 -1.53481,0.02806 -1.53649,-0.944016 -1.01388,0.205775 -0.9973,0.324584 -1.09469,-0.510088 l -1.5278,0.09595"
       style="opacity:1;vector-effect:none;fill:#f8b659;fill-opacity:1;stroke:#000000;stroke-width:0.40750331;stroke-linecap:butt;stroke-linejoin:round;stroke-miterlimit:4;stroke-dasharray:none;stroke-dashoffset:0;stroke-opacity:1" />
    <path
       style="opacity:1;vector-effect:none;fill:#f8b659;fill-opacity:1;stroke:#000000;stroke-width:0.40750331;stroke-linecap:butt;stroke-linejoin:miter;stroke-miterlimit:4;stroke-dasharray:none;stroke-dashoffset:0;stroke-opacity:1"
       d="m 148.193,57.950148 c 2.07322,-1.684819 6.53386,-4.563343 7.10533,-7.788428 -1.32111,0.06661 0,0 -2.19488,0.07701"
       id="path1017"
       inkscape:connector-curvature="0"
       sodipodi:nodetypes="ccc" />
    <path
       style="opacity:1;vector-effect:none;fill:none;fill-opacity:1;stroke:#000000;stroke-width:0.16300133;stroke-linecap:butt;stroke-linejoin:miter;stroke-miterlimit:4;stroke-dasharray:none;stroke-dashoffset:0;stroke-opacity:1"
       d="m 158.05219,70.841354 c 3.37631,-1.216198 5.88132,-2.759135 8.33186,-4.955551"
       id="path1023"
       inkscape:connector-curvature="0"
       sodipodi:nodetypes="cc" />
    <path
       sodipodi:nodetypes="cc"
       inkscape:connector-curvature="0"
       id="path1025"
       d="m 155.81947,73.564184 c 3.37631,-1.216197 8.22295,-3.684896 10.67349,-5.881313"
       style="opacity:1;vector-effect:none;fill:none;fill-opacity:1;stroke:#000000;stroke-width:0.16300133;stroke-linecap:butt;stroke-linejoin:miter;stroke-miterlimit:4;stroke-dasharray:none;stroke-dashoffset:0;stroke-opacity:1" />
    <path
       sodipodi:nodetypes="cc"
       inkscape:connector-curvature="0"
       id="path1027"
       d="m 155.11154,76.613754 c 2.88619,-1.270654 2.0149,-0.635327 4.73772,-2.341634"
       style="opacity:1;vector-effect:none;fill:none;fill-opacity:1;stroke:#000000;stroke-width:0.16300133;stroke-linecap:butt;stroke-linejoin:miter;stroke-miterlimit:4;stroke-dasharray:none;stroke-dashoffset:0;stroke-opacity:1" />
    <path
       style="opacity:1;vector-effect:none;fill:none;fill-opacity:1;stroke:#000000;stroke-width:0.16300133;stroke-linecap:butt;stroke-linejoin:miter;stroke-miterlimit:4;stroke-dasharray:none;stroke-dashoffset:0;stroke-opacity:1"
       d="m 154.36556,84.45562 c 3.86642,-0.344892 8.05958,-1.561089 10.51013,-3.757506"
       id="path1029"
       inkscape:connector-curvature="0"
       sodipodi:nodetypes="cc" />
    <path
       sodipodi:nodetypes="cc"
       inkscape:connector-curvature="0"
       id="path1031"
       d="m 153.60901,89.035393 c 3.87265,-0.411414 5.93893,0.591698 9.03136,0.742597"
       style="opacity:1;vector-effect:none;fill:none;fill-opacity:1;stroke:#000000;stroke-width:0.16300133;stroke-linecap:butt;stroke-linejoin:miter;stroke-miterlimit:4;stroke-dasharray:none;stroke-dashoffset:0;stroke-opacity:1" />
    <path
       style="opacity:1;vector-effect:none;fill:none;fill-opacity:1;stroke:#000000;stroke-width:0.16300133;stroke-linecap:butt;stroke-linejoin:miter;stroke-miterlimit:4;stroke-dasharray:none;stroke-dashoffset:0;stroke-opacity:1"
       d="m 153.5549,90.6326 c 3.87265,-0.411415 5.93893,0.591698 9.03136,0.742596"
       id="path1033"
       inkscape:connector-curvature="0"
       sodipodi:nodetypes="cc" />
    <path
       style="opacity:1;vector-effect:none;fill:none;fill-opacity:1;stroke:#000000;stroke-width:0.16300133;stroke-linecap:butt;stroke-linejoin:miter;stroke-miterlimit:4;stroke-dasharray:none;stroke-dashoffset:0;stroke-opacity:1"
       d="m 150.45345,101.41599 c 3.15268,0.073 4.21206,0.39443 6.63136,0.92771"
       id="path1035"
       inkscape:connector-curvature="0"
       sodipodi:nodetypes="cc" />
    <path
       sodipodi:nodetypes="cc"
       inkscape:connector-curvature="0"
       id="path1037"
       d="m 147.20797,103.69 c 3.15268,0.073 6.67649,0.54846 9.09579,1.08174"
       style="opacity:1;vector-effect:none;fill:none;fill-opacity:1;stroke:#000000;stroke-width:0.16300133;stroke-linecap:butt;stroke-linejoin:miter;stroke-miterlimit:4;stroke-dasharray:none;stroke-dashoffset:0;stroke-opacity:1" />
    <path
       style="opacity:1;vector-effect:none;fill:none;fill-opacity:1;stroke:#000000;stroke-width:0.16300133;stroke-linecap:butt;stroke-linejoin:miter;stroke-miterlimit:4;stroke-dasharray:none;stroke-dashoffset:0;stroke-opacity:1"
       d="m 147.58329,102.81345 c 3.15268,0.0729 6.67649,0.54846 9.09579,1.08174"
       id="path1039"
       inkscape:connector-curvature="0"
       sodipodi:nodetypes="cc" />
    <path
       sodipodi:nodetypes="ccc"
       inkscape:connector-curvature="0"
       id="path1015"
       d="m 147.34586,56.486896 c 2.07322,-1.684819 5.18612,-3.023078 5.75759,-6.248163 -0.97455,-0.665017 -1.79507,-1.445555 -3.61676,-1.725506"
       style="opacity:1;vector-effect:none;fill:#f8b659;fill-opacity:1;stroke:#000000;stroke-width:0.40750331;stroke-linecap:butt;stroke-linejoin:miter;stroke-miterlimit:4;stroke-dasharray:none;stroke-dashoffset:0;stroke-opacity:1" />
  </g>
</svg>
