<?xml version="1.0" encoding="UTF-8" standalone="no"?>
<!-- Created with Inkscape (http://www.inkscape.org/) -->

<svg
   xmlns:dc="http://purl.org/dc/elements/1.1/"
   xmlns:cc="http://creativecommons.org/ns#"
   xmlns:rdf="http://www.w3.org/1999/02/22-rdf-syntax-ns#"
   xmlns:svg="http://www.w3.org/2000/svg"
   xmlns="http://www.w3.org/2000/svg"
   xmlns:sodipodi="http://sodipodi.sourceforge.net/DTD/sodipodi-0.dtd"
   xmlns:inkscape="http://www.inkscape.org/namespaces/inkscape"
   width="210mm"
   height="297mm"
   viewBox="0 0 210 297"
   version="1.1"
   id="svg2641"
   inkscape:version="0.92.4 (5da689c313, 2019-01-14)"
   sodipodi:docname="meu-avatar.svg">
  <defs
     id="defs2635" />
  <sodipodi:namedview
     id="base"
     pagecolor="#ffffff"
     bordercolor="#666666"
     borderopacity="1.0"
     inkscape:pageopacity="0.0"
     inkscape:pageshadow="2"
     inkscape:zoom="2.8"
     inkscape:cx="469.6559"
     inkscape:cy="536.90494"
     inkscape:document-units="mm"
     inkscape:current-layer="layer1"
     showgrid="false"
     inkscape:window-width="1920"
     inkscape:window-height="1017"
     inkscape:window-x="-8"
     inkscape:window-y="-8"
     inkscape:window-maximized="1" />
  <metadata
     id="metadata2638">
    <rdf:RDF>
      <cc:Work
         rdf:about="">
        <dc:format>image/svg+xml</dc:format>
        <dc:type
           rdf:resource="http://purl.org/dc/dcmitype/StillImage" />
        <dc:title />
      </cc:Work>
    </rdf:RDF>
  </metadata>
  <g
     inkscape:label="Camada 1"
     inkscape:groupmode="layer"
     id="layer1">
    <path
       style="opacity:1;fill:#ffffff;fill-opacity:1;fill-rule:nonzero;stroke:none;stroke-width:0.21634203;stroke-miterlimit:4;stroke-dasharray:none;stroke-opacity:1"
       id="path925"
       sodipodi:type="arc"
       sodipodi:cx="116.83665"
       sodipodi:cy="149.45825"
       sodipodi:rx="42.222229"
       sodipodi:ry="42.222229"
       sodipodi:start="0.037434694"
       sodipodi:end="0.030437495"
       sodipodi:open="true"
       d="m 159.0293,151.03846 a 42.222229,42.222229 0 0 1 -43.69905,40.61514 42.222229,42.222229 0 0 1 -40.691522,-43.62793 42.222229,42.222229 0 0 1 43.556682,-40.76778 42.222229,42.222229 0 0 1 40.84391,43.4853"
       inkscape:export-filename="O:\Ciencias_da_Computacao\GitHub\meu-avatar-fundo-branco.png"
       inkscape:export-xdpi="96"
       inkscape:export-ydpi="96" />
    <path
       sodipodi:nodetypes="ccscssc"
       inkscape:connector-curvature="0"
       id="path5310-2-9-7"
       d="m 90.64037,159.30345 c -0.39941,-0.17562 -0.658974,-0.60865 -0.579965,-0.96758 0.03142,-0.14312 0.0984,-0.38632 0.324873,-0.67939 0.349922,-0.45293 0.220023,-1.16717 0.413057,-1.27213 0.228679,0.0709 0.11223,0.94217 0.484095,1.39939 0.279065,0.3432 0.320796,0.6069 0.310956,0.87459 -0.009,0.24495 -0.362079,0.84541 -0.953016,0.64512"
       inkscape:transform-center-y="0.87984305"
       inkscape:transform-center-x="4.14624e-06"
       style="display:inline;opacity:1;fill:#9eddee;fill-opacity:1;fill-rule:nonzero;stroke:none;stroke-width:2.59060884;stroke-miterlimit:4;stroke-dasharray:none;stroke-opacity:1"
       inkscape:export-filename="O:\Ciencias_da_Computacao\GitHub\meu-avatar-fundo-branco.png"
       inkscape:export-xdpi="96"
       inkscape:export-ydpi="96" />
    <path
       sodipodi:nodetypes="csssssc"
       inkscape:connector-curvature="0"
       id="path5491-2"
       d="m 138.8874,177.44195 c 1.8e-4,1.78165 -2.81112,6.19995 -11.78207,6.67735 -3.81609,0.20305 -5.55738,0.0192 -10.68694,0.007 -9.80044,-0.0255 -9.28783,0.13431 -13.86463,-0.69663 -4.593181,-0.83395 -8.503754,-3.15438 -8.590683,-6.2213 -0.116359,-4.10265 10.009383,-7.43818 22.411733,-7.44887 12.40234,-0.0108 21.62458,2.29562 22.49426,7.22646"
       style="display:inline;opacity:1;fill:#9cdaef;fill-opacity:1;fill-rule:nonzero;stroke:none;stroke-width:0.53403378;stroke-miterlimit:4;stroke-dasharray:none;stroke-opacity:1"
       inkscape:export-filename="O:\Ciencias_da_Computacao\GitHub\meu-avatar-fundo-branco.png"
       inkscape:export-xdpi="96"
       inkscape:export-ydpi="96" />
    <path
       sodipodi:nodetypes="ccccccc"
       inkscape:connector-curvature="0"
       id="rect5246-8-5-18"
       d="m 119.54227,178.39361 c -1.57576,0.13772 -2.04773,0.65989 -2.39692,1.66681 -0.25999,1.41847 -0.21902,2.78553 -0.17436,4.06658 l 3.65515,0.0483 c 0.0126,-0.99778 0.044,-2.11183 0.123,-3.20218 0.16108,-0.61344 0.16754,-0.65167 0.58193,-1.14196 1.24702,-1.20378 -0.29067,-1.01521 -1.78879,-1.43755 z"
       style="display:inline;fill:#7bbae5;fill-opacity:1;fill-rule:evenodd;stroke-width:0.14955315"
       inkscape:export-filename="O:\Ciencias_da_Computacao\GitHub\meu-avatar-fundo-branco.png"
       inkscape:export-xdpi="96"
       inkscape:export-ydpi="96" />
    <path
       sodipodi:nodetypes="czsssscsszcc"
       inkscape:connector-curvature="0"
       id="path5289-2"
       d="m 106.5681,164.62159 c -2.09928,0.86076 -5.1855,0.83923 -7.232666,-0.0984 -2.047171,-0.93763 -1.700374,-0.91822 -2.914803,-2.31977 -0.53924,-0.62236 -1.101572,-1.63801 -1.529121,-2.45445 -0.330977,-0.63202 -0.657987,-1.24348 -1.447597,-2.02388 -1.888433,-1.86633 -3.494929,-1.85701 -3.538815,-2.51746 -0.065,-0.97704 0.545291,-0.97925 1.794897,-1.04086 1.049695,0.0162 2.434246,0.50087 4.143903,2.06493 0.882033,0.80692 1.081819,2.09575 2.222554,3.12976 1.139729,1.03311 1.40662,1.34347 3.061278,1.86168 1.65464,0.51823 4.03429,0.13234 5.72143,-0.89419 -0.18808,2.14834 -0.28106,3.95324 -0.28106,4.29264 z"
       style="display:inline;opacity:1;fill:#221a19;fill-opacity:1;fill-rule:nonzero;stroke:none;stroke-width:0.53110063;stroke-miterlimit:4;stroke-dasharray:none;stroke-opacity:1"
       inkscape:export-filename="O:\Ciencias_da_Computacao\GitHub\meu-avatar-fundo-branco.png"
       inkscape:export-xdpi="96"
       inkscape:export-ydpi="96" />
    <path
       sodipodi:nodetypes="zcccz"
       inkscape:connector-curvature="0"
       id="rect5417-1-8"
       d="m 105.83093,161.21039 c -0.30818,0.11008 -0.3588,0.42631 -0.19711,0.68134 0.0959,0.17597 0.65885,0.28204 0.93698,0.18457 l 0.0291,-0.77445 c -0.25639,-0.12498 -0.46068,-0.20155 -0.76887,-0.0914 z"
       style="display:inline;fill:#c1d8d7;fill-opacity:1;fill-rule:evenodd;stroke-width:0.19608377"
       inkscape:export-filename="O:\Ciencias_da_Computacao\GitHub\meu-avatar-fundo-branco.png"
       inkscape:export-xdpi="96"
       inkscape:export-ydpi="96" />
    <path
       inkscape:transform-center-x="-0.59162411"
       inkscape:transform-center-y="0.43236978"
       sodipodi:open="true"
       transform="matrix(0.89750549,-0.44100329,0.68536125,0.72820324,0,0)"
       d="m -36.556694,200.24489 a 0.57150674,0.53421301 0 0 1 -0.571009,0.53421 0.57150674,0.53421301 0 0 1 -0.572003,-0.53328 0.57150674,0.53421301 0 0 1 0.570013,-0.53514 0.57150674,0.53421301 0 0 1 0.572996,0.53235"
       sodipodi:end="6.2797034"
       sodipodi:start="0"
       sodipodi:ry="0.53421301"
       sodipodi:rx="0.57150674"
       sodipodi:cy="200.24489"
       sodipodi:cx="-37.128201"
       sodipodi:type="arc"
       id="path5310-2-0-9-8-1-8-9"
       style="display:inline;opacity:1;fill:#bddde3;fill-opacity:1;fill-rule:nonzero;stroke:none;stroke-width:2.02261901;stroke-miterlimit:4;stroke-dasharray:none;stroke-opacity:1"
       inkscape:export-filename="O:\Ciencias_da_Computacao\GitHub\meu-avatar-fundo-branco.png"
       inkscape:export-xdpi="96"
       inkscape:export-ydpi="96" />
    <path
       inkscape:transform-center-x="-0.50349094"
       inkscape:transform-center-y="0.53239683"
       sodipodi:open="true"
       transform="matrix(0.96255157,-0.27109864,0.54208613,0.84032293,0,0)"
       d="m -2.1912112,192.04547 a 0.5715068,0.53421301 0 0 1 -0.5710093,0.53421 0.5715068,0.53421301 0 0 1 -0.5720034,-0.53328 0.5715068,0.53421301 0 0 1 0.5700135,-0.53514 0.5715068,0.53421301 0 0 1 0.5729958,0.53235"
       sodipodi:end="6.2797034"
       sodipodi:start="0"
       sodipodi:ry="0.53421301"
       sodipodi:rx="0.5715068"
       sodipodi:cy="192.04547"
       sodipodi:cx="-2.762718"
       sodipodi:type="arc"
       id="path5310-2-0-9-8-1-0"
       style="display:inline;opacity:1;fill:#b3e1e3;fill-opacity:1;fill-rule:nonzero;stroke:none;stroke-width:2.02261901;stroke-miterlimit:4;stroke-dasharray:none;stroke-opacity:1"
       inkscape:export-filename="O:\Ciencias_da_Computacao\GitHub\meu-avatar-fundo-branco.png"
       inkscape:export-xdpi="96"
       inkscape:export-ydpi="96" />
    <path
       inkscape:transform-center-x="-0.31186664"
       inkscape:transform-center-y="0.66312156"
       sodipodi:open="true"
       transform="matrix(0.99906073,0.04333198,0.25228206,0.96765374,0,0)"
       d="m 58.461201,164.23987 a 0.57150686,0.53421301 0 0 1 -0.571009,0.53421 0.57150686,0.53421301 0 0 1 -0.572004,-0.53328 0.57150686,0.53421301 0 0 1 0.570014,-0.53514 0.57150686,0.53421301 0 0 1 0.572996,0.53235"
       sodipodi:end="6.2797034"
       sodipodi:start="0"
       sodipodi:ry="0.53421301"
       sodipodi:rx="0.57150686"
       sodipodi:cy="164.23987"
       sodipodi:cx="57.889694"
       sodipodi:type="arc"
       id="path5310-2-0-9-8-5"
       style="display:inline;opacity:1;fill:#bbdde4;fill-opacity:1;fill-rule:nonzero;stroke:none;stroke-width:2.02261901;stroke-miterlimit:4;stroke-dasharray:none;stroke-opacity:1"
       inkscape:export-filename="O:\Ciencias_da_Computacao\GitHub\meu-avatar-fundo-branco.png"
       inkscape:export-xdpi="96"
       inkscape:export-ydpi="96" />
    <path
       inkscape:transform-center-x="1.753614e-05"
       inkscape:transform-center-y="0.7327759"
       sodipodi:open="true"
       transform="matrix(0.88562228,0.46440627,-0.18353432,0.9830133,0,0)"
       d="m 131.54184,100.75342 a 0.5715068,0.53421301 0 0 1 -0.57101,0.53421 0.5715068,0.53421301 0 0 1 -0.572,-0.53328 0.5715068,0.53421301 0 0 1 0.57001,-0.53514 0.5715068,0.53421301 0 0 1 0.573,0.53235"
       sodipodi:end="6.2797034"
       sodipodi:start="0"
       sodipodi:ry="0.53421301"
       sodipodi:rx="0.5715068"
       sodipodi:cy="100.75342"
       sodipodi:cx="130.97034"
       sodipodi:type="arc"
       id="path5310-2-0-9-9"
       style="display:inline;opacity:1;fill:#b2d7db;fill-opacity:1;fill-rule:nonzero;stroke:none;stroke-width:2.02261901;stroke-miterlimit:4;stroke-dasharray:none;stroke-opacity:1"
       inkscape:export-filename="O:\Ciencias_da_Computacao\GitHub\meu-avatar-fundo-branco.png"
       inkscape:export-xdpi="96"
       inkscape:export-ydpi="96" />
    <path
       inkscape:transform-center-x="-1.1118324e-05"
       inkscape:transform-center-y="0.73278988"
       sodipodi:open="true"
       transform="matrix(0.88562228,0.46440627,-0.18353432,0.9830133,0,0)"
       d="m 129.72745,99.81707 a 0.5715068,0.53421301 0 0 1 -0.57101,0.53421 0.5715068,0.53421301 0 0 1 -0.572,-0.53328 0.5715068,0.53421301 0 0 1 0.57001,-0.535141 0.5715068,0.53421301 0 0 1 0.573,0.532351"
       sodipodi:end="6.2797034"
       sodipodi:start="0"
       sodipodi:ry="0.53421301"
       sodipodi:rx="0.5715068"
       sodipodi:cy="99.81707"
       sodipodi:cx="129.15594"
       sodipodi:type="arc"
       id="path5310-2-0-7"
       style="display:inline;opacity:1;fill:#bad1d4;fill-opacity:1;fill-rule:nonzero;stroke:none;stroke-width:2.02261901;stroke-miterlimit:4;stroke-dasharray:none;stroke-opacity:1"
       inkscape:export-filename="O:\Ciencias_da_Computacao\GitHub\meu-avatar-fundo-branco.png"
       inkscape:export-xdpi="96"
       inkscape:export-ydpi="96" />
    <path
       sodipodi:nodetypes="cccccccccccc"
       id="rect5246-8-5-0-1-4-7"
       d="m 105.95643,176.27005 c 0.26066,0.005 1.11633,0.24548 1.4632,0.2838 1.24729,0.23191 2.68113,1.03885 2.68939,2.1081 0.0312,2.39047 0.0126,3.97252 -0.0108,5.46144 l -1.75786,-0.0201 -1.77081,-0.0691 c 0.0601,-1.86892 0.0921,-2.8006 -0.11547,-4.45194 -0.0251,-0.1212 -0.54478,-1.38071 -1.15113,-1.84763 -0.79925,-0.42051 -0.55093,-0.84966 -0.45868,-1.15737 0.0576,-0.19231 0.35232,-0.29172 0.86621,-0.30601 0.077,-0.002 0.15892,-0.002 0.24584,-7.6e-4 z"
       style="display:inline;fill:#7bbae5;fill-opacity:1;fill-rule:evenodd;stroke-width:0.14248247"
       inkscape:connector-curvature="0"
       inkscape:export-filename="O:\Ciencias_da_Computacao\GitHub\meu-avatar-fundo-branco.png"
       inkscape:export-xdpi="96"
       inkscape:export-ydpi="96" />
    <path
       sodipodi:nodetypes="cscccssssccccczcccsccsccccccccccc"
       inkscape:connector-curvature="0"
       id="rect5246-83"
       d="m 109.59575,155.78171 c 1.4291,-0.66025 4.27152,-0.9493 6.59946,-0.95287 2.7661,-0.004 5.02871,0.40124 6.45194,1.16045 0.6981,0.21399 2.46827,1.57999 3.02428,5.36774 0.009,1.93586 -0.10953,6.7872 0.0532,10.54685 0.0637,0.61904 -0.0436,1.00922 0.37059,1.82977 0.67854,1.34377 2.02591,1.83093 2.27985,2.05087 0.44644,0.38662 0.31013,1.22989 -0.49101,1.26671 -0.85359,0.0393 -1.17444,-0.12102 -2.31113,-0.28723 -1.57576,-0.23033 -3.31418,-1.64785 -3.66335,-3.33305 -0.3972,-3.62655 -0.0961,-6.99096 -0.14401,-10.0764 -0.28722,-1.6448 -1.01622,-2.33644 -1.13813,-1.81436 -0.0713,2.38906 -0.37896,10.10276 0.002,14.69825 0.0276,0.20277 0.005,0.62051 0.67382,1.40192 0.88055,0.70379 1.17611,1.03727 1.07448,1.55223 -0.10164,0.51498 -0.87133,0.63197 -2.23,0.40428 -1.37415,-0.3881 -3.5609,-2.10349 -3.57,-3.89298 -0.0591,-6.9011 0.0411,-9.87209 0.063,-14.65868 0.007,-0.56456 -0.25365,-0.74456 -0.45161,-0.74896 -0.36572,-0.009 -0.50366,0.0776 -0.56005,0.68385 -0.21264,2.49943 0.21029,14.14722 -0.14724,15.64373 -0.23244,0.98652 -2.62883,3.28124 -4.91292,3.12613 -0.37014,-0.0251 -0.70758,-0.33185 -0.79961,-0.73345 -7.6e-4,-1.12451 1.5194,-1.071 1.59629,-2.11722 0.18343,-3.76841 0.11834,-10.25287 0.17436,-14.06394 -0.0936,-3.41784 -1.18131,0.081 -0.99724,2.35669 -0.2798,5.05892 0.0343,7.43955 -0.48201,8.70417 -0.3371,2.02898 -3.94586,3.26192 -5.96649,2.9496 -0.3415,-0.0824 -0.54529,-0.24358 -0.52784,-0.71137 0.19385,-0.89893 2.41484,-0.88344 2.77349,-2.35799 0.51832,-1.44477 0.14419,-6.17157 0.22832,-9.51385 0.16322,-2.62038 -0.4034,-6.11908 3.02863,-8.48087 z"
       style="display:inline;fill:#020001;fill-opacity:1;fill-rule:evenodd;stroke-width:0.19347426"
       inkscape:export-filename="O:\Ciencias_da_Computacao\GitHub\meu-avatar-fundo-branco.png"
       inkscape:export-xdpi="96"
       inkscape:export-ydpi="96" />
    <path
       sodipodi:nodetypes="cccccccc"
       inkscape:connector-curvature="0"
       id="rect5246-8-5-1-5"
       d="m 112.68868,178.22436 c 1.66236,0.13773 2.1603,0.65986 2.52868,1.66678 0.28278,1.46239 0.25455,2.92181 0.20596,4.23843 l -3.88971,-0.005 c -0.0144,-1.01432 -0.0334,-2.21079 -0.11833,-3.32107 -0.16987,-0.61342 -0.17651,-0.65194 -0.61363,-1.14221 -1.31555,-1.2038 0.30657,-1.01491 1.88703,-1.43727 z"
       style="display:inline;fill:#7bbae5;fill-opacity:1;fill-rule:evenodd;stroke-width:0.15360747"
       inkscape:export-filename="O:\Ciencias_da_Computacao\GitHub\meu-avatar-fundo-branco.png"
       inkscape:export-xdpi="96"
       inkscape:export-ydpi="96" />
    <path
       sodipodi:nodetypes="cccccccccccc"
       inkscape:connector-curvature="0"
       id="rect5246-8-5-0-1-6"
       d="m 126.6759,176.27367 c -0.28715,0.005 -0.62276,0.0273 -1.0049,0.0657 -1.37415,0.23191 -3.56097,1.25698 -3.57004,2.32623 -0.0343,2.39047 -0.009,4.04715 0.018,5.53607 l 2.02767,0.009 1.86311,-0.0384 c -0.0664,-1.86893 -0.0853,-4.1757 0.14348,-5.82706 0.0276,-0.1212 0.005,-0.37042 0.67377,-0.83733 0.88054,-0.42053 1.17612,-0.62007 1.07449,-0.92777 -0.0636,-0.1923 -0.38817,-0.29173 -0.95431,-0.30604 -0.0849,-0.002 -0.17508,-0.002 -0.27088,-7.5e-4 z"
       style="display:inline;fill:#7bbae5;fill-opacity:1;fill-rule:evenodd;stroke-width:0.14955315"
       inkscape:export-filename="O:\Ciencias_da_Computacao\GitHub\meu-avatar-fundo-branco.png"
       inkscape:export-xdpi="96"
       inkscape:export-ydpi="96" />
    <path
       sodipodi:nodetypes="ccccssssccccczcccsccscccccccccccc"
       inkscape:connector-curvature="0"
       id="rect5246-8-7"
       d="m 116.22802,156.53449 c 2.7661,-0.004 3.01142,-0.18916 5.10709,0.40604 2.28895,0.78801 3.97712,2.41641 4.25432,5.17093 0.009,1.93586 -0.0277,6.03277 0.13503,9.79242 0.0638,0.61904 -0.0436,1.00922 0.37059,1.82977 0.67855,1.34377 2.02589,1.83095 2.27985,2.05087 0.44644,0.38664 0.31013,1.22989 -0.491,1.26671 -0.85359,0.0393 -1.17446,-0.12102 -2.31116,-0.28723 -1.57573,-0.23033 -3.31416,-1.64783 -3.66332,-3.33305 -0.39721,-3.62655 -0.0961,-6.99096 -0.14402,-10.0764 -0.28723,-1.6448 -1.01624,-2.33644 -1.13811,-1.81436 -0.0713,2.38906 -0.37898,10.10276 0.002,14.69825 0.0277,0.20277 0.005,0.62051 0.67383,1.40194 0.88054,0.70377 1.17611,1.03725 1.07447,1.55223 -0.10163,0.51496 -0.87131,0.63195 -2.22999,0.40427 -1.37416,-0.38811 -3.56092,-2.1035 -3.57001,-3.89299 -0.0591,-6.9011 0.0411,-9.87209 0.063,-14.65868 0.007,-0.56456 -0.25366,-0.74456 -0.4516,-0.74896 -0.36574,-0.009 -0.50368,0.0776 -0.56008,0.68385 -0.21263,2.49943 0.21031,14.14722 -0.14725,15.64373 -0.23243,0.98652 -2.62882,3.28124 -4.91291,3.12613 -0.37014,-0.0251 -0.70761,-0.33185 -0.79962,-0.73345 -7.5e-4,-1.12451 1.51941,-1.07098 1.5963,-2.11721 0.18343,-3.76842 0.11834,-10.25288 0.17436,-14.06395 -0.0936,-3.41784 -1.1813,0.081 -0.99722,2.35669 -0.27981,5.05892 0.0343,7.43955 -0.48203,8.70417 -0.3371,2.02898 -3.94584,3.26192 -5.96648,2.9496 -0.34148,-0.0824 -0.54529,-0.24358 -0.52781,-0.71137 0.19382,-0.89893 2.41481,-0.88344 2.77346,-2.35797 0.51832,-1.44479 0.14437,-6.17159 0.22832,-9.51387 0.16323,-2.62038 -0.4854,-3.62619 1.25736,-6.05358 1.22713,-1.3785 3.03718,-1.53314 4.1798,-1.6281 2.57458,-0.0591 2.85578,-0.0587 4.22342,-0.0463 z"
       style="display:inline;fill:#201e1f;fill-opacity:1;fill-rule:evenodd;stroke-width:0.19347426"
       inkscape:export-filename="O:\Ciencias_da_Computacao\GitHub\meu-avatar-fundo-branco.png"
       inkscape:export-xdpi="96"
       inkscape:export-ydpi="96" />
    <path
       inkscape:transform-center-x="-1.5960509e-05"
       inkscape:transform-center-y="0.57959531"
       sodipodi:open="true"
       transform="matrix(0.92149917,0.38838034,-0.22627294,0.97406394,0,0)"
       d="m 130.13871,109.00526 a 0.54051971,0.42641816 0 0 1 -0.54005,0.42641 0.54051971,0.42641816 0 0 1 -0.54099,-0.42567 0.54051971,0.42641816 0 0 1 0.53911,-0.42716 0.54051971,0.42641816 0 0 1 0.54193,0.42493"
       sodipodi:end="6.2797034"
       sodipodi:start="0"
       sodipodi:ry="0.42641816"
       sodipodi:rx="0.54051971"
       sodipodi:cy="109.00526"
       sodipodi:cx="129.59819"
       sodipodi:type="arc"
       id="path5310-2-4"
       style="display:inline;opacity:1;fill:#c3dade;fill-opacity:1;fill-rule:nonzero;stroke:none;stroke-width:1.75739682;stroke-miterlimit:4;stroke-dasharray:none;stroke-opacity:1"
       inkscape:export-filename="O:\Ciencias_da_Computacao\GitHub\meu-avatar-fundo-branco.png"
       inkscape:export-xdpi="96"
       inkscape:export-ydpi="96" />
    <path
       sodipodi:open="true"
       transform="matrix(0.95230522,0.30514713,-0.29220877,0.95635455,0,0)"
       d="m 135.29285,119.5502 a 0.50612676,0.31952441 0 0 1 -0.50568,0.31953 0.50612676,0.31952441 0 0 1 -0.50657,-0.31897 0.50612676,0.31952441 0 0 1 0.50481,-0.32008 0.50612676,0.31952441 0 0 1 0.50744,0.31841"
       sodipodi:end="6.2797034"
       sodipodi:start="0"
       sodipodi:ry="0.31952441"
       sodipodi:rx="0.50612676"
       sodipodi:cy="119.5502"
       sodipodi:cx="134.78673"
       sodipodi:type="arc"
       id="path5310-5"
       style="display:inline;opacity:1;fill:#ced6dc;fill-opacity:1;fill-rule:nonzero;stroke:none;stroke-width:1.47206819;stroke-miterlimit:4;stroke-dasharray:none;stroke-opacity:1"
       inkscape:export-filename="O:\Ciencias_da_Computacao\GitHub\meu-avatar-fundo-branco.png"
       inkscape:export-xdpi="96"
       inkscape:export-ydpi="96" />
    <path
       style="display:inline;fill:#ffffff;fill-rule:evenodd;stroke-width:0.18368678"
       d="m 96.320271,119.95408 c 0,0 0.617638,2.47702 1.226945,3.36627 0.609325,0.88927 1.945931,2.14329 1.945931,2.14329 l -0.06608,0.0383 c 0,0 -1.455911,-1.23806 -2.002459,-2.15384 -0.546566,-0.91575 -1.104481,-3.39394 -1.104481,-3.39394 z"
       id="rect2490"
       inkscape:connector-curvature="0"
       sodipodi:nodetypes="czcczc"
       inkscape:export-filename="O:\Ciencias_da_Computacao\GitHub\meu-avatar-fundo-branco.png"
       inkscape:export-xdpi="96"
       inkscape:export-ydpi="96" />
    <path
       style="display:inline;fill:#ffffff;fill-rule:evenodd;stroke-width:0.18368678"
       d="m 96.566691,119.79171 c 0,0 0.61762,2.47702 1.226945,3.36629 0.609288,0.88927 1.948768,2.17199 1.948768,2.17199 l -0.05154,0.0296 c 0,0 -1.473113,-1.25816 -2.019679,-2.17393 -0.546548,-0.91576 -1.104462,-3.39394 -1.104462,-3.39394 z"
       id="rect2490-5"
       inkscape:connector-curvature="0"
       sodipodi:nodetypes="czcczc"
       inkscape:export-filename="O:\Ciencias_da_Computacao\GitHub\meu-avatar-fundo-branco.png"
       inkscape:export-xdpi="96"
       inkscape:export-ydpi="96" />
    <path
       style="display:inline;fill:#ffffff;fill-rule:evenodd;stroke-width:0.18368678"
       d="m 96.639164,119.0974 c 0,0 0.747519,2.83421 1.356844,3.72348 0.609306,0.88925 2.077952,2.33557 2.077952,2.33557 l -0.0458,0.0469 c 0,0 -1.608007,-1.43899 -2.154573,-2.35475 -0.546566,-0.91576 -1.234379,-3.75112 -1.234379,-3.75112 z"
       id="rect2490-5-0"
       inkscape:connector-curvature="0"
       sodipodi:nodetypes="czcczc"
       inkscape:export-filename="O:\Ciencias_da_Computacao\GitHub\meu-avatar-fundo-branco.png"
       inkscape:export-xdpi="96"
       inkscape:export-ydpi="96" />
    <path
       sodipodi:nodetypes="cccc"
       inkscape:connector-curvature="0"
       id="path1397-0"
       d="m 100.91607,126.95859 c -2.516881,3.40762 -5.559589,8.25431 -8.808817,8.92586 -5.15113,-5.15506 -3.730306,-11.07987 -3.730306,-11.07987 0,0 5.383525,-1.22092 12.539123,2.15401 z"
       style="display:inline;opacity:1;fill:#201e1f;fill-opacity:1;fill-rule:nonzero;stroke:none;stroke-width:0.20566413;stroke-opacity:1"
       inkscape:export-filename="O:\Ciencias_da_Computacao\GitHub\meu-avatar-fundo-branco.png"
       inkscape:export-xdpi="96"
       inkscape:export-ydpi="96" />
    <path
       style="display:inline;fill:#ffffff;fill-rule:evenodd;stroke-width:0.18368678"
       d="m 96.184626,120.16895 c 0,0 0.617621,2.47703 1.226945,3.3663 0.609307,0.88927 1.851192,2.06003 1.851192,2.06003 l -0.07165,0.0497 c 0,0 -1.355444,-1.16632 -1.90201,-2.08208 -0.546547,-0.91575 -1.104462,-3.39394 -1.104462,-3.39394 z"
       id="rect2490-5-7"
       inkscape:connector-curvature="0"
       sodipodi:nodetypes="czcczc"
       inkscape:export-filename="O:\Ciencias_da_Computacao\GitHub\meu-avatar-fundo-branco.png"
       inkscape:export-xdpi="96"
       inkscape:export-ydpi="96" />
    <path
       sodipodi:nodetypes="cccc"
       inkscape:connector-curvature="0"
       id="path1397-1-6"
       d="m 138.85824,133.48951 c -2.66334,-2.74881 -7.34731,-6.50005 -7.40425,-9.36885 6.20717,-1.79698 10.51986,0.31693 10.51986,0.31693 0,0 -0.12839,6.04414 -3.11561,9.05192 z"
       style="display:inline;opacity:1;fill:#201e1f;fill-opacity:1;fill-rule:nonzero;stroke:none;stroke-width:0.18368678;stroke-opacity:1"
       inkscape:export-filename="O:\Ciencias_da_Computacao\GitHub\meu-avatar-fundo-branco.png"
       inkscape:export-xdpi="96"
       inkscape:export-ydpi="96" />
    <g
       transform="matrix(0.6942492,0,0,0.6942492,-107.25026,115.38936)"
       style="display:inline"
       id="g2560"
       inkscape:export-filename="O:\Ciencias_da_Computacao\GitHub\meu-avatar-fundo-branco.png"
       inkscape:export-xdpi="96"
       inkscape:export-ydpi="96">
      <path
         style="display:inline;fill:#373737;fill-opacity:1;fill-rule:evenodd;stroke-width:1.00225246"
         d="m 365.78874,43.545676 c 6.79082,0.499779 10.37865,0.973669 13.34031,1.628399 l -0.11067,0.244531 c -1.14009,-0.36906 -9.51136,-1.44943 -13.23253,-1.5928 -2.65785,-0.126881 -5.08338,-0.171 -7.48704,-0.143039 -2.44616,0.0284 -4.26406,0.162809 -5.27339,0.198199 0.13908,-0.277521 0,0 0.21326,-0.502279 4.85173,-0.138121 5.88192,-0.0692 12.55006,0.166989 z"
         id="rect5220-9-2-4"
         inkscape:connector-curvature="0"
         sodipodi:nodetypes="ccccsccc" />
      <path
         style="display:inline;fill:#373737;fill-opacity:1;fill-rule:evenodd;stroke-width:1.00225246"
         d="m 365.66595,47.008656 c 6.72873,1.04358 10.26691,1.804091 13.16642,2.69458 l -0.12995,0.23485 c -1.10676,-0.459439 -9.36422,-2.20866 -13.06186,-2.650429 -2.63906,-0.33994 -5.05323,-0.578731 -7.45137,-0.743911 -2.44053,-0.168111 -4.26335,-0.180181 -5.27227,-0.22597 0.16093,-0.265459 0,0 0.25291,-0.483528 4.84717,0.251989 5.86849,0.403428 12.49612,1.174408 z"
         id="rect5220-9-5"
         inkscape:connector-curvature="0"
         sodipodi:nodetypes="ccccsccc" />
      <path
         style="display:inline;fill:#373737;fill-opacity:1;fill-rule:evenodd;stroke-width:0.97746938"
         d="m 277.18978,43.458826 c -6.45912,0.49978 -9.87172,0.97367 -12.68873,1.6284 l 0.10528,0.24453 c 1.0844,-0.369059 9.0468,-1.44943 12.5862,-1.592799 2.52804,-0.126881 4.8351,-0.171001 7.12136,-0.143039 2.32668,0.0284 4.05579,0.162808 5.01582,0.198199 -0.1323,-0.277522 0,0 -0.20284,-0.50228 -4.61477,-0.13812 -5.59464,-0.0692 -11.93709,0.166989 z"
         id="rect5220-9-2-7-6"
         inkscape:connector-curvature="0"
         sodipodi:nodetypes="ccccsccc" />
      <path
         style="fill:#201e1f;fill-opacity:1;stroke-width:0.29280499"
         d="m 355.30139,33.272602 c 0.0763,-13.01628 -5.92937,-18.69883 -15.9821,-23.33333 -5.02369,-2.316022 -9.47496,-3.218188 -18.3852,-3.064521 -19.05151,0.328566 -34.45057,10.135231 -34.10003,25.596041 0.46869,20.67181 14.81653,27.29578 37.4409,25.99695 15.04529,0.66817 31.75198,-3.22534 31.02643,-25.19514 z"
         id="path3724-9"
         inkscape:connector-curvature="0"
         sodipodi:nodetypes="cssscc" />
      <path
         style="display:inline;fill:#373737;fill-opacity:1;fill-rule:evenodd;stroke-width:1.00278294"
         d="m 277.58733,47.007185 c -6.73586,1.04358 -10.27779,1.804091 -13.18037,2.69458 l 0.13009,0.234852 c 1.10793,-0.459441 9.37414,-2.208662 13.07568,-2.650431 2.64187,-0.33994 5.05859,-0.578729 7.45926,-0.743911 2.44313,-0.168108 4.26788,-0.180178 5.27786,-0.22597 -0.1611,-0.265459 0,0 -0.25318,-0.483529 -4.85229,0.25199 -5.87469,0.403429 -12.50934,1.174409 z"
         id="rect5220-9-4-8"
         inkscape:connector-curvature="0"
         sodipodi:nodetypes="ccccsccc" />
      <path
         style="opacity:1;fill:#f4cab1;fill-opacity:1;fill-rule:nonzero;stroke:none;stroke-width:0.26458332;stroke-opacity:1"
         d="m 347.15906,42.734052 c 0,3.61982 -2.00387,8.68211 -8.25695,11.32465 -4.45641,1.88327 -12.14052,3.716792 -17.94496,3.716792 -7.3259,0 -14.82589,-2.592242 -19.48885,-5.648222 -4.21564,-2.76283 -5.95711,-7.58353 -5.95711,-10.52715 0,-3.05486 1.73018,-8.8257 6.29919,-11.37886 4.75799,-2.93114 12.54364,-0.6969 19.24126,-0.88589 7.04053,-0.18899 16.36824,-1.62961 20.29336,0.85189 5.51267,2.58144 5.81406,9.51834 5.81406,12.54679 z"
         id="path5129-8"
         inkscape:connector-curvature="0"
         sodipodi:nodetypes="ssssscccs" />
      <path
         style="opacity:1;fill:#c39a86;fill-opacity:1;fill-rule:nonzero;stroke:none;stroke-width:0.76499999;stroke-miterlimit:4;stroke-dasharray:none;stroke-opacity:1"
         d="m 346.25511,36.046022 c -2.16838,-2.47576 -4.49559,-5.29495 -7.77905,-5.85062 -5.22871,-0.88488 -10.24576,0.0486 -16.38781,0.51171 -5.5923,0 -12.9842,-1.65384 -17.40341,-0.53875 -6.04553,1.52544 -5.6719,4.03919 -7.8525,5.78891 1.75801,-3.78932 4.38328,-6.11064 7.70953,-6.87832 4.90076,-1.13106 10.98151,0.39231 17.40464,0.1635 4.95407,-0.10837 8.34199,-0.4573 11.97697,-0.64843 2.58329,0.0301 6.12807,0.54228 8.26332,2.00197 3.03519,2.07492 3.40318,3.65962 4.06831,5.45003 z"
         id="path5136-5"
         inkscape:connector-curvature="0"
         sodipodi:nodetypes="cscscsccsc" />
      <path
         style="fill:#000000;fill-rule:evenodd;stroke-width:0.26458332"
         d="m 303.92007,29.514792 c 2.54464,-0.65165 5.02767,-0.50242 7.48354,0 1.01544,0.20774 1.67044,0.83441 1.67044,1.87088 -0.52741,1.77987 -2.05806,0.097 -5.47442,0.306 -3.41636,0.20905 -4.88839,0.98505 -5.11614,-0.40623 -0.22775,-1.39127 0.4325,-1.51352 1.43658,-1.77065 z"
         id="rect2274"
         inkscape:connector-curvature="0"
         sodipodi:nodetypes="ssczzs" />
      <path
         style="display:inline;fill:#000000;fill-rule:evenodd;stroke-width:0.26458332"
         d="m 332.59192,29.715282 c 2.54464,-0.65165 5.02768,-0.50242 7.48354,0 1.01544,0.20774 1.67044,0.83441 1.67044,1.87088 -0.52741,1.77987 -2.05806,0.097 -5.47441,0.306 -3.41637,0.20905 -4.88839,0.98505 -5.11615,-0.40623 -0.22775,-1.39127 0.43251,-1.51352 1.43658,-1.77065 z"
         id="rect2274-9"
         inkscape:connector-curvature="0"
         sodipodi:nodetypes="ssczzs" />
      <path
         id="path5147-0-1-8-0"
         d="m 328.02795,39.065636 a 5.479025,7.6505901 20.342295 0 0 2.47775,9.078103 5.479025,7.6505901 20.342295 0 0 7.79688,-5.268779 5.479025,7.6505901 20.342295 0 0 -2.47776,-9.078107 5.479025,7.6505901 20.342295 0 0 -7.79687,5.268783 z"
         style="display:inline;opacity:1;fill:#fbfeff;fill-opacity:1;fill-rule:nonzero;stroke:none;stroke-width:0.76499999;stroke-miterlimit:4;stroke-dasharray:none;stroke-opacity:1"
         inkscape:connector-curvature="0" />
      <path
         sodipodi:nodetypes="scscs"
         inkscape:connector-curvature="0"
         id="path5227-1"
         d="m 323.63189,47.739666 c 0,0.639299 -1.57884,1.157552 -2.24423,1.157552 -0.66539,0 -2.24281,-0.484598 -2.24281,-1.123897 0,-0.639299 1.57742,-1.191207 2.24281,-1.191207 0.66539,0 2.24423,0.518253 2.24423,1.157552 z"
         style="display:inline;opacity:1;fill:#9f6551;fill-opacity:1;fill-rule:nonzero;stroke:none;stroke-width:0.76499999;stroke-miterlimit:4;stroke-dasharray:none;stroke-opacity:1" />
      <path
         id="path5147-0-1-8"
         d="m 313.59929,39.04673 a 7.6505901,5.479025 69.657705 0 1 -2.47775,9.078103 7.6505901,5.479025 69.657705 0 1 -7.79688,-5.268779 7.6505901,5.479025 69.657705 0 1 2.47776,-9.078107 7.6505901,5.479025 69.657705 0 1 7.79687,5.268783 z"
         style="display:inline;opacity:1;fill:#fbfeff;fill-opacity:1;fill-rule:nonzero;stroke:none;stroke-width:0.76499999;stroke-miterlimit:4;stroke-dasharray:none;stroke-opacity:1"
         inkscape:connector-curvature="0" />
      <ellipse
         transform="matrix(0.89785313,-0.44029509,0.26989907,0.96288862,0,0)"
         style="display:inline;opacity:1;fill:#a95c4f;fill-opacity:1;fill-rule:nonzero;stroke:none;stroke-width:0.3849664;stroke-miterlimit:4;stroke-dasharray:none;stroke-opacity:1"
         id="path5166-8-6-9"
         cx="292.21536"
         cy="180.58099"
         rx="1.559248"
         ry="2.8192964" />
      <ellipse
         transform="matrix(0.84131061,-0.54055199,0.36497455,0.9310175,0,0)"
         style="display:inline;opacity:1;fill:#fff0ed;fill-opacity:1;fill-rule:nonzero;stroke:none;stroke-width:0.5924229;stroke-miterlimit:4;stroke-dasharray:none;stroke-opacity:1"
         id="path5192-0-9-7"
         cx="278.6828"
         cy="208.43961"
         rx="0.71622807"
         ry="0.91260022" />
      <path
         sodipodi:nodetypes="sscsscs"
         id="path5147-0-1-6-5"
         d="m 313.59929,39.04673 c 0.89273,2.407901 -0.83111,-1.414873 -3.19355,-3.787838 -1.52455,-1.531335 -3.4905,-1.893526 -4.60332,-1.480945 -0.95238,0.353097 -2.21429,1.73794 -2.41645,3.538591 -0.4001,3.563731 0.91448,8.171458 -0.0613,5.539516 -1.46883,-3.96179 -0.66661,-8.687654 2.17065,-9.739565 2.83726,-1.051915 6.63515,1.968458 8.10398,5.930241 z"
         style="display:inline;opacity:1;fill:#a47d6c;fill-opacity:1;fill-rule:nonzero;stroke:none;stroke-width:0.76499999;stroke-miterlimit:4;stroke-dasharray:none;stroke-opacity:1"
         inkscape:connector-curvature="0" />
      <ellipse
         transform="matrix(-0.89785313,-0.44029509,-0.26989907,0.96288862,0,0)"
         style="display:inline;opacity:1;fill:#a95c4f;fill-opacity:1;fill-rule:nonzero;stroke:none;stroke-width:0.3849664;stroke-miterlimit:4;stroke-dasharray:none;stroke-opacity:1"
         id="path5166-8-6-9-6"
         cx="-336.05478"
         cy="-106.68519"
         rx="1.559248"
         ry="2.8192964" />
      <ellipse
         transform="matrix(-0.84131061,-0.54055199,-0.36497456,0.93101749,0,0)"
         style="display:inline;opacity:1;fill:#fff0ed;fill-opacity:1;fill-rule:nonzero;stroke:none;stroke-width:0.5924229;stroke-miterlimit:4;stroke-dasharray:none;stroke-opacity:1"
         id="path5192-0-9-7-4"
         cx="-330.5318"
         cy="-145.2522"
         rx="0.71622801"
         ry="0.91260022" />
      <path
         sodipodi:nodetypes="sscsscs"
         id="path5147-0-1-6-5-3"
         d="m 328.02795,39.065636 c -0.89273,2.407901 0.83111,-1.414873 3.19355,-3.787838 1.52455,-1.531335 3.4905,-1.893526 4.60332,-1.480945 0.95238,0.353097 2.21429,1.73794 2.41645,3.538591 0.4001,3.563731 -0.91448,8.171458 0.0613,5.539516 1.46883,-3.96179 0.66661,-8.687654 -2.17065,-9.739565 -2.83726,-1.051915 -6.63515,1.968458 -8.10398,5.930241 z"
         style="display:inline;opacity:1;fill:#a47d6c;fill-opacity:1;fill-rule:nonzero;stroke:none;stroke-width:0.76499999;stroke-miterlimit:4;stroke-dasharray:none;stroke-opacity:1"
         inkscape:connector-curvature="0" />
      <path
         sodipodi:nodetypes="ssczzs"
         inkscape:connector-curvature="0"
         id="rect2274-6"
         d="m 306.14616,47.734715 c 1.37472,0.06359 2.69114,0.292901 3.98186,0.5953 0.53368,0.125034 0.86224,0.31065 0.82922,0.53147 -0.33731,0.337247 -1.09814,-0.143045 -2.92258,-0.370282 -1.82444,-0.227229 -2.63241,-0.178998 -2.70926,-0.493526 -0.0769,-0.31453 0.27832,-0.28805 0.82076,-0.262962 z"
         style="display:inline;fill:#c0a386;fill-opacity:1;fill-rule:evenodd;stroke-width:0.09007242" />
      <path
         style="display:inline;fill:#c0a386;fill-opacity:1;fill-rule:evenodd;stroke-width:0.09007242"
         d="m 335.52832,47.734715 c -1.37472,0.06359 -2.69114,0.292901 -3.98186,0.5953 -0.53368,0.125034 -0.86224,0.31065 -0.82922,0.53147 0.33731,0.337247 1.09814,-0.143045 2.92258,-0.370282 1.82444,-0.227229 2.63241,-0.178998 2.70926,-0.493526 0.0769,-0.31453 -0.27832,-0.28805 -0.82076,-0.262962 z"
         id="path2440"
         inkscape:connector-curvature="0"
         sodipodi:nodetypes="ssczzs" />
      <path
         sodipodi:nodetypes="ccssczsscc"
         inkscape:connector-curvature="0"
         id="rect2274-6-5"
         d="m 316.00479,53.148033 c 3.02855,0.536153 7.41347,0.57095 11.34642,-0.02735 3.93295,-0.5983 4.78701,-1.765496 5.24669,-1.711101 0.43096,0.051 0.43806,0.657329 0.63624,0.552246 0.35116,-0.186203 0.0902,-0.706011 -0.49155,-1.176684 -2.06174,0.698422 -3.56875,2.2478 -11.59517,2.174351 -8.02642,-0.07345 -9.31244,-2.627219 -9.66048,-2.312804 -0.12096,0.109272 -1.01003,0.748983 -0.57749,1.111632 0.13047,0.109388 0.64288,-0.575405 0.80873,-0.418162 1.91276,1.060058 2.31575,1.323665 4.28661,1.807872 z"
         style="display:inline;fill:#9f6551;fill-opacity:1;fill-rule:evenodd;stroke-width:0.19165689" />
      <path
         sodipodi:open="true"
         d="m 321.37466,47.35487 a 0.44933847,0.33426076 0 0 1 -2.1e-4,0.01017"
         sodipodi:end="0.03043742"
         sodipodi:start="0"
         sodipodi:ry="0.33426076"
         sodipodi:rx="0.44933847"
         sodipodi:cy="47.35487"
         sodipodi:cx="320.92532"
         sodipodi:type="arc"
         id="path2465"
         style="opacity:1;fill:#a47d6c;fill-opacity:1;fill-rule:nonzero;stroke:none;stroke-width:1.15046382;stroke-miterlimit:4;stroke-dasharray:none;stroke-opacity:1" />
    </g>
    <path
       sodipodi:nodetypes="ccccscscccccccccccc"
       inkscape:connector-curvature="0"
       id="rect2162"
       d="m 102.57784,117.25343 c 0,0 -0.89301,0.9057 -1.79634,2.66382 -1.906781,-1.23083 -3.694909,-1.87276 -3.694909,-1.87276 0,0 -6.075379,14.08433 -4.979338,17.83996 0,0 3.484658,-4.61906 8.051367,-6.70595 4.78798,-2.188 11.13617,-1.91544 15.71836,-0.59023 3.93306,-1.7241 6.61736,-2.56666 11.77657,-1.38402 6.48831,1.48729 11.71139,9.55711 11.71139,9.55711 -0.27409,-7.77968 -7.98604,-18.63879 -8.03584,-18.57657 0,0 -1.4133,0.87404 -2.03742,1.853 -2.13196,-1.52291 -4.35503,-2.32049 -4.35503,-2.32049 0,0 -0.54824,0.56063 -1.21907,1.64494 -1.76184,-1.07898 -3.3268,-1.64494 -3.3268,-1.64494 0,0 -0.61217,0.62579 -1.33494,1.8358 -2.12263,-1.50875 -4.32455,-2.29967 -4.32455,-2.29967 0,0 -0.91019,0.92766 -1.82252,2.71943 -2.14358,-1.54092 -4.39341,-2.34847 -4.39341,-2.34847 0,0 -0.68176,0.69435 -1.45623,2.04172 -2.16951,-1.58226 -4.48129,-2.41268 -4.48129,-2.41268 z"
       style="display:inline;fill:#000000;fill-rule:evenodd;stroke-width:0.15409361"
       inkscape:export-filename="O:\Ciencias_da_Computacao\GitHub\meu-avatar-fundo-branco.png"
       inkscape:export-xdpi="96"
       inkscape:export-ydpi="96" />
  </g>
</svg>
