<?xml version="1.0" encoding="UTF-8" standalone="no"?>
<!-- Created with Inkscape (http://www.inkscape.org/) -->

<svg
   xmlns:dc="http://purl.org/dc/elements/1.1/"
   xmlns:cc="http://creativecommons.org/ns#"
   xmlns:rdf="http://www.w3.org/1999/02/22-rdf-syntax-ns#"
   xmlns:svg="http://www.w3.org/2000/svg"
   xmlns="http://www.w3.org/2000/svg"
   xmlns:sodipodi="http://sodipodi.sourceforge.net/DTD/sodipodi-0.dtd"
   xmlns:inkscape="http://www.inkscape.org/namespaces/inkscape"
   width="210mm"
   height="297mm"
   viewBox="0 0 210 297"
   version="1.1"
   id="svg8"
   inkscape:version="0.92.4 (5da689c313, 2019-01-14)"
   sodipodi:docname="Mickey-Mouse.svg">
  <defs
     id="defs2" />
  <sodipodi:namedview
     id="base"
     pagecolor="#ffffff"
     bordercolor="#666666"
     borderopacity="1.0"
     inkscape:pageopacity="0.0"
     inkscape:pageshadow="2"
     inkscape:zoom="0.49497475"
     inkscape:cx="-598.2501"
     inkscape:cy="253.005"
     inkscape:document-units="mm"
     inkscape:current-layer="layer1"
     showgrid="false"
     inkscape:window-width="1920"
     inkscape:window-height="1017"
     inkscape:window-x="-8"
     inkscape:window-y="-8"
     inkscape:window-maximized="1" />
  <metadata
     id="metadata5">
    <rdf:RDF>
      <cc:Work
         rdf:about="">
        <dc:format>image/svg+xml</dc:format>
        <dc:type
           rdf:resource="http://purl.org/dc/dcmitype/StillImage" />
        <dc:title />
      </cc:Work>
    </rdf:RDF>
  </metadata>
  <g
     inkscape:label="Camada 1"
     inkscape:groupmode="layer"
     id="layer1">
    <path
       style="opacity:1;vector-effect:none;fill:#fffdff;fill-opacity:1;stroke:none;stroke-width:0.1;stroke-linecap:butt;stroke-linejoin:round;stroke-miterlimit:4;stroke-dasharray:none;stroke-dashoffset:0;stroke-opacity:1"
       d="m 120.27129,99.086912 c -5.56535,-12.879883 -12.80382,-34.591921 9.84701,-46.354026 10.36558,-0.565836 17.35254,4.975824 21.16667,16.252976 1.9261,-1.399852 0.15562,-9.707838 7.18155,1.228423 6.25461,10.870475 6.40941,19.829098 6.04762,27.899365 21.76209,3.66084 15.15373,13.9452 10.68103,25.16116 -12.72597,15.59255 -32.36137,10.82338 -41.90816,10.36766 -21.67632,15.5568 -32.17604,4.73449 -36.919641,-3.30173 -41.432791,-27.04506 0.03404,-57.706871 23.903921,-31.253828 z"
       id="path847"
       inkscape:connector-curvature="0"
       sodipodi:nodetypes="ccccccccc" />
    <g
       id="g4657"
       transform="matrix(1.3115755,0,0,1.3115755,13.415161,-35.037994)">
      <path
         sodipodi:nodetypes="ccccccccccc"
         inkscape:connector-curvature="0"
         id="path858"
         d="m 67.385329,194.71929 -1.995449,2.30601 c -2.905989,-0.62718 -9.607102,-6.60869 -8.294574,-8.99678 2.887684,-2.43791 7.501528,-4.70638 6.632819,-6.02444 -7.297253,-7.06641 -0.457146,-28.17866 11.6502,-30.22025 13.753225,0.79411 37.048515,2.32621 36.206705,-13.91778 17.39856,6.18743 14.25095,28.77648 7.07321,40.32726 0.21309,2.4457 0.51666,4.89141 1.9553,7.33712 -2.18949,4.70266 -19.07593,12.49905 -31.360661,11.64863 -0.827886,0.33748 -0.65016,3.42585 -0.94891,5.49117 -9.562738,1.48812 -14.941692,-3.90873 -20.91864,-7.95094 z"
         style="opacity:1;vector-effect:none;fill:#dd303b;fill-opacity:1;stroke:none;stroke-width:0.1;stroke-linecap:butt;stroke-linejoin:round;stroke-miterlimit:4;stroke-dasharray:none;stroke-dashoffset:0;stroke-opacity:1" />
      <path
         style="opacity:1;vector-effect:none;fill:#000000;fill-opacity:1;stroke:none;stroke-width:0.40000001;stroke-linecap:round;stroke-linejoin:round;stroke-miterlimit:4;stroke-dasharray:none;stroke-dashoffset:0;stroke-opacity:1"
         d="m 67.251643,105.89715 c 0,0 -1.148934,-0.0735 -3.282038,0.6816 0.816184,-1.29246 7.866046,-3.39743 11.944654,0.19233 0,0 -3.989498,-1.20219 -5.891715,-0.79427 0.497564,2.8192 2.231834,7.36678 8.526676,13.6833 7.734272,9.2214 24.01763,10.17228 32.95618,7.80191 11.88988,-3.15302 13.00034,-10.90832 14.80685,-14.50686 -2.38387,18.36952 -22.76552,18.73969 -37.230002,14.99995 -4.610974,2.15502 -15.032909,6.75133 -19.547806,1.18955 -5.156964,-6.35272 0.653009,-16.779 -2.282799,-23.24751 z"
         id="path844"
         inkscape:connector-curvature="0"
         sodipodi:nodetypes="cccccsccsc" />
      <path
         sodipodi:nodetypes="cccccccccccccccc"
         inkscape:connector-curvature="0"
         id="path850"
         d="m 63.896988,117.52712 c 0.319574,3.2945 -0.501659,7.15597 1.718389,10.73395 3.279373,6.81017 14.096143,9.07061 25.779935,0.16966 l 8.390402,1.3148 c 4.653956,2.3273 8.757766,4.89911 11.811756,7.9375 1.166,17.93623 -27.462661,14.80993 -37.088915,14.17411 5.675679,-6.51114 1.839865,-13.35884 -2.69308,-16.91443 -1.166001,-0.5326 -2.4141,-1.24529 -3.425408,-2.19699 -3.337378,7.26119 -7.429859,12.12852 -11.812449,18.275 -0.01607,-0.74018 8.4e-4,-2.34893 -2.53906,-2.3386 -2.279074,0.84163 8.830889,6.76787 13.580631,8.60273 l -6.401036,8.07205 c -8.419505,-2.66948 -14.065192,-7.6265 -16.499541,-10.36524 -1.38245,-1.82673 -1.625768,-3.82871 0.260554,-6.15833 6.146051,-7.48078 13.154656,-14.41059 18.721633,-23.43452 -0.89467,-2.95667 -0.532719,-5.91415 0.196189,-7.87169 z"
         style="opacity:1;vector-effect:none;fill:#000000;fill-opacity:1;stroke:none;stroke-width:0.2;stroke-linecap:butt;stroke-linejoin:round;stroke-miterlimit:4;stroke-dasharray:none;stroke-dashoffset:0;stroke-opacity:1" />
      <path
         sodipodi:nodetypes="ccccccc"
         inkscape:connector-curvature="0"
         id="path884"
         d="m 98.20603,221.89796 c 9.32864,-1.52308 18.93263,-6.31095 27.07656,6.21332 6.02991,18.01268 -14.36919,20.17037 -22.38382,21.31474 -24.616842,1.35802 -32.379473,-4.02349 -36.749561,-9.55488 -1.657433,-4.19978 -1.021242,-8.33919 4.075858,-12.36122 -3.796155,-8.09197 9.318348,-10.02143 11.076863,-10.05028 6.169239,-0.12418 10.834481,-0.95334 16.9041,4.43832 z"
         style="opacity:1;vector-effect:none;fill:#fdbc35;fill-opacity:1;stroke:none;stroke-width:0.1;stroke-linecap:butt;stroke-linejoin:round;stroke-miterlimit:4;stroke-dasharray:none;stroke-dashoffset:0;stroke-opacity:1" />
      <path
         sodipodi:nodetypes="cccccc"
         inkscape:connector-curvature="0"
         id="path864"
         d="m 66.949031,194.97005 c -6.449765,7.95979 -13.615063,15.37109 -20.945263,22.45044 2.254269,-0.24405 11.8207,5.70809 7.763346,14.80384 2.086403,-1.82435 1.908486,-4.18837 1.892253,-6.67567 14.136457,-17.31562 13.956453,-18.35274 18.801941,-25.16883 z"
         style="opacity:1;vector-effect:none;fill:#000000;fill-opacity:1;stroke:none;stroke-width:0.1;stroke-linecap:butt;stroke-linejoin:round;stroke-miterlimit:4;stroke-dasharray:none;stroke-dashoffset:0;stroke-opacity:1" />
      <path
         sodipodi:nodetypes="cccccc"
         inkscape:connector-curvature="0"
         id="path880"
         d="m 6.6817382,209.13514 c 2.6000943,16.5538 15.4614348,35.61902 33.8095948,39.62271 6.728808,1.36794 18.89295,-3.35571 12.49485,-15.68538 5.72141,-5.88313 -1.211786,-15.87304 -6.982415,-15.65198 -4.827608,-16.72551 -11.642504,-21.8112 -18.942727,-24.05425 -10.90989,-0.54081 -18.1944649,4.02341 -20.3793028,15.7689 z"
         style="opacity:1;vector-effect:none;fill:#fdbc35;fill-opacity:1;stroke:none;stroke-width:0.1;stroke-linecap:butt;stroke-linejoin:round;stroke-miterlimit:4;stroke-dasharray:none;stroke-dashoffset:0;stroke-opacity:1" />
      <path
         inkscape:connector-curvature="0"
         d="m 15.291043,206.1541 c 3.80597,0.0473 8.13402,2.04968 10.50195,5.34571 a 0.050005,0.050005 0 0 0 0.002,0 c 1.42913,1.90386 3.45967,5.63032 5.58593,9.51562 2.12627,3.8853 4.34772,7.93138 6.16993,10.48633 2.49474,3.49792 5.27166,6.1375 7.42578,8.10547 1.07706,0.98398 1.9986,1.79892 2.65039,2.46875 0.65179,0.66983 1.02774,1.19793 1.0332,1.57422 -0.0168,0.31812 0.0918,0.87212 0.0723,1.49804 -0.0196,0.62755 -0.16604,1.31696 -0.6875,1.89063 -0.52147,0.57367 -1.42191,1.03538 -2.9668,1.18945 -1.54452,0.15404 -3.73208,-9.9e-4 -6.81055,-0.65625 h -0.002 c -3.90516,-0.95929 -9.76996,-3.37966 -14.63672,-8.46094 -3.65216,-3.81314 -7.54401,-8.63236 -10.54297,-13.41601 -2.99749,-4.78131 -5.1017203,-9.52934 -5.1855403,-13.19531 4e-5,-7.2e-4 -5e-5,-0.001 0,-0.002 0.15537,-2.25092 1.05305,-3.84594 2.3847603,-4.875 1.33213,-1.02938 3.10288,-1.49239 5.00586,-1.46875 z m 0.2481,-1.29686 c -1.92646,-0.0164 -3.78277,0.43286 -5.28711,1.48437 -1.5043403,1.05152 -2.6526703,2.7057 -3.1660203,5.08594 a 0.050005,0.050005 0 0 0 -0.002,0.006 c -0.65522,8.81636 6.4127803,19.81468 14.1347703,27.74609 5.07906,5.21681 11.49382,8.25531 15.82617,9.21875 a 0.050005,0.050005 0 0 0 0,0.002 c 6.81526,1.31393 9.99343,0.44364 11.47851,-0.92578 0.74254,-0.68472 1.05672,-1.49329 1.18946,-2.20313 0.13273,-0.70984 0.0857,-1.32607 0.10351,-1.61914 a 0.050005,0.050005 0 0 0 -0.008,-0.0332 c -2.19147,-3.10546 -3.54266,-4.40725 -5.0293,-5.80274 -1.48664,-1.39549 -3.10978,-2.88387 -5.85937,-6.375 -2.00215,-2.5421 -4.5618,-7.41438 -6.98828,-11.95703 -1.21325,-2.27132 -2.39437,-4.46072 -3.45704,-6.23828 -1.06266,-1.77756 -2.00445,-3.14107 -2.75585,-3.76953 -2.19747,-2.69671 -6.33022,-4.5863 -10.17969,-4.61914 z"
         style="color:#000000;font-style:normal;font-variant:normal;font-weight:normal;font-stretch:normal;font-size:medium;line-height:normal;font-family:sans-serif;font-variant-ligatures:normal;font-variant-position:normal;font-variant-caps:normal;font-variant-numeric:normal;font-variant-alternates:normal;font-feature-settings:normal;text-indent:0;text-align:start;text-decoration:none;text-decoration-line:none;text-decoration-style:solid;text-decoration-color:#000000;letter-spacing:normal;word-spacing:normal;text-transform:none;writing-mode:lr-tb;direction:ltr;text-orientation:mixed;dominant-baseline:auto;baseline-shift:baseline;text-anchor:start;white-space:normal;shape-padding:0;clip-rule:nonzero;display:inline;overflow:visible;visibility:visible;opacity:1;isolation:auto;mix-blend-mode:normal;color-interpolation:sRGB;color-interpolation-filters:linearRGB;solid-color:#000000;solid-opacity:1;vector-effect:none;fill:#000000;fill-opacity:1;fill-rule:nonzero;stroke:none;stroke-width:0.1;stroke-linecap:butt;stroke-linejoin:round;stroke-miterlimit:4;stroke-dasharray:none;stroke-dashoffset:0;stroke-opacity:1;color-rendering:auto;image-rendering:auto;shape-rendering:auto;text-rendering:auto;enable-background:accumulate"
         id="path893" />
      <ellipse
         transform="matrix(0.8815095,-0.47216629,0.49617835,0.86822062,0,0)"
         ry="18.848967"
         rx="21.016609"
         cy="73.882835"
         cx="32.378357"
         id="path826"
         style="opacity:1;vector-effect:none;fill:#000000;fill-opacity:1;fill-rule:evenodd;stroke:none;stroke-width:0.41412136;stroke-linecap:butt;stroke-linejoin:miter;stroke-miterlimit:4;stroke-dasharray:none;stroke-dashoffset:0;stroke-opacity:1" />
      <ellipse
         style="opacity:1;vector-effect:none;fill:#000000;fill-opacity:1;fill-rule:evenodd;stroke:none;stroke-width:0.41205966;stroke-linecap:butt;stroke-linejoin:miter;stroke-miterlimit:4;stroke-dasharray:none;stroke-dashoffset:0;stroke-opacity:1"
         id="ellipse828"
         cx="-91.070343"
         cy="39.858723"
         rx="21.015148"
         ry="18.663054"
         transform="matrix(0.10828461,-0.99411993,0.99656065,0.08286653,0,0)" />
      <path
         sodipodi:nodetypes="sccssssccccs"
         inkscape:connector-curvature="0"
         id="path830"
         d="m 97.36338,109.95961 c 0,3.13429 -2.177472,11.47214 -1.84506,8.49241 1.84506,-8.49241 -0.750056,-22.234986 -3.766832,-24.314858 -1.483439,-0.525251 -2.524584,5.470361 -2.811976,3.167716 C 87.491952,85.706725 78.670945,79.757153 72.294536,83.300502 52.947732,94.051455 65.915139,123.04267 62.082408,116.10557 54.47694,102.33996 39.516902,103.99994 35.793672,107.12841 c -7.476139,6.2819 -8.783392,17.29117 4.863006,28.10625 -0.268714,0.21252 -0.506073,0.49805 -0.70908,0.86598 -8.025946,-6.15095 -13.160709,-15.57578 -13.16071,-26.14103 -2e-6,-18.532574 15.799086,-33.556194 35.288246,-33.556194 19.48916,0 35.288248,15.02362 35.288246,33.556194 z"
         style="opacity:1;vector-effect:none;fill:#000000;fill-opacity:1;fill-rule:evenodd;stroke:none;stroke-width:0.29462636;stroke-linecap:butt;stroke-linejoin:miter;stroke-miterlimit:4;stroke-dasharray:none;stroke-dashoffset:0;stroke-opacity:1"
         transform="matrix(0.98453095,-0.17521074,0.17766321,0.98409135,0,0)" />
      <ellipse
         ry="9.673851"
         rx="2.9921129"
         cy="96.180359"
         cx="100.79401"
         id="path835"
         style="opacity:1;vector-effect:none;fill:#000000;fill-opacity:1;fill-rule:evenodd;stroke:none;stroke-width:0.39615566;stroke-linecap:butt;stroke-linejoin:miter;stroke-miterlimit:4;stroke-dasharray:none;stroke-dashoffset:0;stroke-opacity:1" />
      <path
         sodipodi:nodetypes="scscs"
         inkscape:connector-curvature="0"
         id="ellipse837"
         d="m 113.17327,98.099487 c 0,4.623313 -0.98697,5.634993 -3.77437,6.897713 -1.32081,-1e-5 -1.00869,-2.2744 -1.00869,-6.897713 0,-4.623316 1.07072,-8.371256 2.39153,-8.37126 1.32081,4e-6 2.39153,3.747944 2.39153,8.37126 z"
         style="opacity:1;vector-effect:none;fill:#000000;fill-opacity:1;fill-rule:evenodd;stroke:none;stroke-width:0.3294661;stroke-linecap:butt;stroke-linejoin:miter;stroke-miterlimit:4;stroke-dasharray:none;stroke-dashoffset:0;stroke-opacity:1"
         transform="matrix(0.99998917,-0.00465429,-0.00269752,0.99999636,0,0)" />
      <path
         sodipodi:nodetypes="ccc"
         inkscape:connector-curvature="0"
         id="path840"
         d="m 97.687012,107.27204 c 1.336647,-2.26012 4.537428,-3.28777 7.216278,-1.40316 -2.26616,-0.36788 -4.59716,-0.34673 -7.216278,1.40316 z"
         style="opacity:1;vector-effect:none;fill:#000000;fill-opacity:1;stroke:none;stroke-width:0.40000001;stroke-linecap:round;stroke-linejoin:round;stroke-miterlimit:4;stroke-dasharray:none;stroke-dashoffset:0;stroke-opacity:1" />
      <path
         sodipodi:nodetypes="ccc"
         inkscape:connector-curvature="0"
         id="path842"
         d="m 105.50464,107.33886 c 4.85672,-8.027858 17.43893,-7.25219 18.30797,-1.90429 -7.63448,-6.328926 -14.85758,-1.28863 -18.30797,1.90429 z"
         style="opacity:1;vector-effect:none;fill:#000000;fill-opacity:1;stroke:none;stroke-width:0.40000001;stroke-linecap:round;stroke-linejoin:round;stroke-miterlimit:4;stroke-dasharray:none;stroke-dashoffset:0;stroke-opacity:1" />
      <path
         sodipodi:nodetypes="sssss"
         inkscape:connector-curvature="0"
         id="path848"
         d="m 118.46722,109.10952 c 1.24296,-3.24828 6.18061,-9.888973 6.18061,-9.888973 2.933,-3.095369 9.12339,-1.594047 8.98693,4.443353 -0.0762,3.37078 -4.01264,9.98094 -11.62622,10.18965 -2.41722,0.0663 -4.22546,-2.95616 -3.54132,-4.74403 z"
         style="opacity:1;vector-effect:none;fill:#000000;fill-opacity:1;stroke:none;stroke-width:0.40000001;stroke-linecap:butt;stroke-linejoin:round;stroke-miterlimit:4;stroke-dasharray:none;stroke-dashoffset:0;stroke-opacity:1" />
      <path
         style="opacity:1;vector-effect:none;fill:#000000;fill-opacity:1;stroke:none;stroke-width:0.1;stroke-linecap:butt;stroke-linejoin:round;stroke-miterlimit:4;stroke-dasharray:none;stroke-dashoffset:0;stroke-opacity:1"
         d="m 95.996368,197.65407 c -5.199914,8.82715 -11.233581,16.70492 -18.429159,24.09982 -1.077341,1.10718 -0.915988,2.04338 0.893064,2.22255 3.898644,0.38615 9.322819,0.37078 13.521392,-1.49612 5.530868,-6.19258 13.376265,-20.78411 16.497505,-27.4394 z"
         id="path866"
         inkscape:connector-curvature="0"
         sodipodi:nodetypes="cssccc" />
      <path
         sodipodi:nodetypes="cccc"
         inkscape:connector-curvature="0"
         id="path876"
         d="m 22.253348,237.70498 c 6.802849,1.47181 15.928677,-0.80721 15.449777,-1.34654 -9.051284,2.25902 -12.713174,1.2473 -16.134859,0.61421 z"
         style="opacity:1;vector-effect:none;fill:#000000;fill-opacity:1;stroke:none;stroke-width:0.1;stroke-linecap:butt;stroke-linejoin:round;stroke-miterlimit:4;stroke-dasharray:none;stroke-dashoffset:0;stroke-opacity:1" />
      <path
         sodipodi:nodetypes="ccccsscccccccccscccc"
         inkscape:connector-curvature="0"
         id="path852"
         d="m 74.709355,151.62091 c -15.196316,4.83904 -18.427143,24.06966 -11.398345,30.75781 -2.172803,1.81462 -4.421823,3.74415 -6.744511,5.46884 -1.270826,2.46137 5.313427,9.36326 7.578746,8.9162 0.498706,-0.12085 -2.319936,-1.59063 -4.217889,-3.74157 -1.305961,-1.48003 -2.684737,-2.92772 -2.852951,-4.26512 -0.37894,-3.01278 6.786308,3.96216 9.447377,6.33599 8.456617,8.00066 17.48536,9.34823 22.312407,8.13913 0.204382,-2.61454 0.346826,-5.50022 0.673618,-8.33301 4.583256,-0.33076 8.3277,-1.90197 11.353363,-3.95254 -5.045505,1.97347 -8.3691,2.42428 -11.162696,2.58237 0.219168,-1.54434 0.331818,-3.04983 0.850445,-4.65383 -2.723131,2.71487 -2.491132,7.9297 -2.463764,13.53292 -7.51183,0.75489 -11.051783,-1.80121 -14.946763,-4.05989 -4.934695,-2.98948 -10.155618,-9.07185 -14.835565,-10.84319 3.646787,-1.72676 7.863361,-6.34159 7.693923,-8.02647 -0.02914,-0.28976 -0.4819,0.31687 -0.589123,0.42541 -0.579102,0.77864 -1.001411,1.2953 -1.896657,1.83285 -5.058952,-8.51823 -1.095415,-24.38808 11.796154,-29.84347 z"
         style="opacity:1;vector-effect:none;fill:#000000;fill-opacity:1;stroke:none;stroke-width:0.1;stroke-linecap:butt;stroke-linejoin:round;stroke-miterlimit:4;stroke-dasharray:none;stroke-dashoffset:0;stroke-opacity:1" />
      <path
         sodipodi:nodetypes="cccccccscccsc"
         inkscape:connector-curvature="0"
         id="path854"
         d="m 111.5555,137.85424 -0.28122,-0.44756 c 20.17192,6.71543 13.86718,33.93575 7.69963,40.71981 -0.21165,2.69973 0.97626,5.04608 1.69499,6.56734 2.18111,2.72152 -8.42368,8.70946 -12.18973,10.34709 -6.5999,2.09263 -12.189489,3.76004 -19.371285,2.3151 l 0.144994,-0.34232 c 7.189071,-0.37835 9.261943,-0.65445 16.096851,-2.73734 6.97056,-2.12423 15.30103,-7.72507 15.13018,-8.77934 -3.00019,-4.00812 -1.5119,-6.64371 -2.55134,-5.71689 -2.07908,2.29983 -3.0988,3.01929 -4.7247,3.9215 6.57721,-5.85459 11.99721,-18.18091 10.32713,-28.64228 -1.1575,-7.25057 -3.68823,-13.51561 -11.9755,-17.20511 z"
         style="opacity:1;vector-effect:none;fill:#000000;fill-opacity:1;stroke:none;stroke-width:0.1;stroke-linecap:butt;stroke-linejoin:round;stroke-miterlimit:4;stroke-dasharray:none;stroke-dashoffset:0;stroke-opacity:1" />
      <path
         sodipodi:nodetypes="csscsc"
         inkscape:connector-curvature="0"
         id="path868"
         d="m 6.6817382,209.13514 c 0.6822166,-1.71264 3.3345068,-16.15976 19.8908658,-14.82189 10.815722,0.87398 17.366729,17.76708 18.341657,21.47864 1.462124,5.56633 4.27745,11.16962 3.450058,8.65017 C 43.694973,206.9418 41.278044,203.44675 38.873743,200.1026 29.317086,186.81022 7.1145273,191.94499 6.6817382,209.13514 Z"
         style="opacity:1;vector-effect:none;fill:#000000;fill-opacity:1;stroke:none;stroke-width:0.1;stroke-linecap:butt;stroke-linejoin:round;stroke-miterlimit:4;stroke-dasharray:none;stroke-dashoffset:0;stroke-opacity:1" />
      <ellipse
         transform="matrix(0.98914613,0.14693512,-0.17143311,0.98519576,0,0)"
         ry="8.5467634"
         rx="5.2384381"
         cy="151.87878"
         cx="127.77562"
         id="path886"
         style="opacity:1;vector-effect:none;fill:#fffdff;fill-opacity:1;fill-rule:evenodd;stroke:#000000;stroke-width:0.92214197;stroke-linecap:butt;stroke-linejoin:miter;stroke-miterlimit:4;stroke-dasharray:none;stroke-dashoffset:0;stroke-opacity:1" />
      <ellipse
         style="opacity:1;vector-effect:none;fill:#fffdff;fill-opacity:1;fill-rule:evenodd;stroke:#000000;stroke-width:0.79533631;stroke-linecap:butt;stroke-linejoin:miter;stroke-miterlimit:4;stroke-dasharray:none;stroke-dashoffset:0;stroke-opacity:1"
         id="ellipse888"
         cx="128.53537"
         cy="151.40163"
         rx="3.8701839"
         ry="8.6055346"
         transform="matrix(0.9972623,0.07394531,-0.07724728,0.99701196,0,0)" />
      <path
         sodipodi:nodetypes="ccscc"
         inkscape:connector-curvature="0"
         id="path878"
         d="m 52.05074,231.78623 c -0.08521,-0.15403 0.208145,-0.35261 0.367496,-0.16704 0.815472,1.39809 2.014949,2.8978 2.340387,4.1628 3.366451,13.08563 -8.422895,15.63691 -18.543602,12.34109 11.155209,2.50195 23.602709,-2.67755 15.835719,-16.33685 z"
         style="opacity:1;vector-effect:none;fill:#000000;fill-opacity:1;stroke:none;stroke-width:0.1;stroke-linecap:butt;stroke-linejoin:round;stroke-miterlimit:4;stroke-dasharray:none;stroke-dashoffset:0;stroke-opacity:1" />
      <path
         sodipodi:nodetypes="cscccssccccccccccssc"
         inkscape:connector-curvature="0"
         id="path882"
         d="m 78.294454,229.23571 c -0.139505,0 -8.644044,0.22632 -8.140762,-5.51582 0.260236,-2.96913 7.22938,-5.67948 11.14824,-5.99298 10.117108,-1.84901 17.2848,3.74686 15.870111,4.46935 -5.325336,2.96224 -8.803296,5.59375 -12.065923,8.60323 -0.341244,0.42152 -0.03394,0.51446 0.225036,0.33788 0.409702,-0.27935 1.375799,-1.11439 1.776139,-1.38874 14.828485,-10.16192 25.873445,-12.5496 35.368965,-4.5105 4.65389,4.2648 6.1471,14.18786 -3.87541,19.37704 -12.04332,5.50754 -28.023031,4.05022 -39.555887,2.07134 -14.236669,-3.53171 -15.593244,-11.22016 -10.156243,-17.97388 -4.55977,2.119 -8.910465,13.66998 9.220798,19.44386 9.12832,1.69925 26.069822,4.6915 41.426782,-1.67043 2.9389,-1.97893 6.94372,-6.21908 7.08264,-10.95805 0.20972,-3.17821 -0.30016,-7.35867 -3.2872,-11.07142 -3.90185,-4.14327 -10.49493,-8.4945 -25.125708,-2.55863 -0.05668,-1.48599 -2.49668,-3.19427 -3.581853,-2.91635 -6.602903,-1.77329 -12.414751,-2.9234 -20.113588,-0.44332 -2.408579,0.77589 -9.652888,5.47444 -3.381629,10.07495 1.336725,0.9806 4.975372,1.5246 7.165492,0.62247 z"
         style="opacity:1;vector-effect:none;fill:#000000;fill-opacity:1;stroke:none;stroke-width:0.1;stroke-linecap:butt;stroke-linejoin:round;stroke-miterlimit:4;stroke-dasharray:none;stroke-dashoffset:0;stroke-opacity:1" />
      <path
         sodipodi:nodetypes="cccccc"
         inkscape:connector-curvature="0"
         id="path846"
         d="m 68.775453,118.41821 c -0.782584,15.8237 9.145731,12.21945 13.717848,10.9966 0.05727,-4.71468 -4.504211,-6.29961 -5.480653,-6.47285 -0.439808,-0.0512 0.475077,3.25108 -0.614211,4.25223 -1.796558,1.49573 2.316888,-6.09342 -6.898066,-9.59114 -0.640495,-0.23777 -0.681497,0.21402 -0.724918,0.81516 z"
         style="opacity:1;vector-effect:none;fill:#dd313b;fill-opacity:1;stroke:none;stroke-width:0.40000001;stroke-linecap:butt;stroke-linejoin:round;stroke-miterlimit:4;stroke-dasharray:none;stroke-dashoffset:0;stroke-opacity:1" />
    </g>
  </g>
</svg>
