<?xml version="1.0" encoding="UTF-8" standalone="no"?>
<!-- Created with Inkscape (http://www.inkscape.org/) -->

<svg
   xmlns:dc="http://purl.org/dc/elements/1.1/"
   xmlns:cc="http://creativecommons.org/ns#"
   xmlns:rdf="http://www.w3.org/1999/02/22-rdf-syntax-ns#"
   xmlns:svg="http://www.w3.org/2000/svg"
   xmlns="http://www.w3.org/2000/svg"
   xmlns:sodipodi="http://sodipodi.sourceforge.net/DTD/sodipodi-0.dtd"
   xmlns:inkscape="http://www.inkscape.org/namespaces/inkscape"
   width="119.062mm"
   height="139.593mm"
   viewBox="0 0 119.062 139.593"
   version="1.1"
   id="svg8"
   inkscape:version="0.92.4 (5da689c313, 2019-01-14)"
   sodipodi:docname="Python.svg">
  <defs
     id="defs2" />
  <sodipodi:namedview
     id="base"
     pagecolor="#ffffff"
     bordercolor="#666666"
     borderopacity="1.0"
     inkscape:pageopacity="0.0"
     inkscape:pageshadow="2"
     inkscape:zoom="0.70710681"
     inkscape:cx="285.85852"
     inkscape:cy="-26.925032"
     inkscape:document-units="mm"
     inkscape:current-layer="layer1"
     showgrid="false"
     showguides="false"
     inkscape:guide-bbox="true"
     inkscape:window-width="1920"
     inkscape:window-height="1001"
     inkscape:window-x="-9"
     inkscape:window-y="-9"
     inkscape:window-maximized="1">
    <sodipodi:guide
       position="144.20861,242.56381"
       orientation="0,1"
       id="guide26"
       inkscape:locked="false" />
    <sodipodi:guide
       position="147.60442,241.38268"
       orientation="0,1"
       id="guide4583"
       inkscape:locked="false" />
    <sodipodi:guide
       position="152.47726,222.86937"
       orientation="0,1"
       id="guide4614"
       inkscape:locked="false" />
    <sodipodi:guide
       position="155.47067,223.99191"
       orientation="0,1"
       id="guide4616"
       inkscape:locked="false" />
    <sodipodi:guide
       position="126.05098,235.17045"
       orientation="1,0"
       id="guide4618"
       inkscape:locked="false" />
    <sodipodi:guide
       position="162.53327,227.49982"
       orientation="1,0"
       id="guide4620"
       inkscape:locked="false" />
    <sodipodi:guide
       position="158.23023,250.79236"
       orientation="0,1"
       id="guide4622"
       inkscape:locked="false" />
    <sodipodi:guide
       position="154.95618,214.54393"
       orientation="0,1"
       id="guide4624"
       inkscape:locked="false" />
    <sodipodi:guide
       position="90.176732,250.79237"
       orientation="1,0"
       id="guide4647"
       inkscape:locked="false" />
    <sodipodi:guide
       position="195.88182,223.99192"
       orientation="1,0"
       id="guide4649"
       inkscape:locked="false" />
    <sodipodi:guide
       position="189.7079,258.55654"
       orientation="0,1"
       id="guide4651"
       inkscape:locked="false" />
    <sodipodi:guide
       position="187.83701,152.85144"
       orientation="0,1"
       id="guide4653"
       inkscape:locked="false" />
    <sodipodi:guide
       position="188.38332,187.06041"
       orientation="0,1"
       id="guide4655"
       inkscape:locked="false" />
    <sodipodi:guide
       position="0,286.61984"
       orientation="1,0"
       id="guide4929"
       inkscape:locked="false" />
    <sodipodi:guide
       position="339.00465,223.99192"
       orientation="1,0"
       id="guide4931"
       inkscape:locked="false" />
    <sodipodi:guide
       position="175.48916,290.36161"
       orientation="1,0"
       id="guide4933"
       inkscape:locked="false" />
  </sodipodi:namedview>
  <metadata
     id="metadata5">
    <rdf:RDF>
      <cc:Work
         rdf:about="">
        <dc:format>image/svg+xml</dc:format>
        <dc:type
           rdf:resource="http://purl.org/dc/dcmitype/StillImage" />
        <dc:title></dc:title>
      </cc:Work>
    </rdf:RDF>
  </metadata>
  <g
     inkscape:label="Camada 1"
     inkscape:groupmode="layer"
     id="layer1"
     transform="translate(0,-157.407)">
    <rect
       style="fill:#fccd3d;fill-opacity:1;fill-rule:evenodd;stroke-width:0.32229868"
       id="rect4645"
       width="119.0625"
       height="139.59251"
       x="0.42868334"
       y="157.57857"
       inkscape:export-filename="O:\Ciencias_da_Computacao\GitHub\Python.png"
       inkscape:export-xdpi="96"
       inkscape:export-ydpi="96" />
    <path
       style="opacity:1;vector-effect:none;fill:#ffffff;fill-opacity:1;fill-rule:evenodd;stroke:none;stroke-width:0.76589501;stroke-linecap:butt;stroke-linejoin:miter;stroke-miterlimit:4;stroke-dasharray:none;stroke-dashoffset:0;stroke-opacity:1"
       d="m 59.903302,173.32203 a 43.380771,42.343793 0 0 0 -43.38078,42.34436 43.380771,42.343793 0 0 0 32.0942,40.83501 c 0.23685,-5.19429 0.18133,-7.30739 0.25091,-9.46459 0.002,-0.0714 0.007,-0.15086 0.009,-0.22331 -0.22628,0.0455 -6.30174,1.25114 -8.89842,-0.0131 -5.47986,-3.84467 -3.99911,-4.68158 -6.00321,-8.37824 -2.59119,-3.60468 -3.19773,-2.9006 -4.66727,-3.98419 -0.35044,-0.63352 -0.22511,-1.18322 0.16158,-1.50935 0.7322,-0.61752 2.01578,-0.18191 2.86761,0.17997 1.07975,0.45869 2.10746,1.65659 2.91228,2.51031 4.15235,4.98359 3.48926,5.98986 8.35984,6.93064 2.87782,0.55587 5.30376,-0.92126 5.89419,-1.31624 0.85717,-4.10805 1.03118,-3.64224 1.64989,-4.70538 0.32944,-0.56606 0.65018,-1.03635 0.96945,-1.43315 -11.6879,-1.59874 -19.40258,-7.66902 -19.79484,-20.57776 0.29768,-4.44947 1.97687,-8.40101 4.70536,-11.64651 -0.0884,-0.37605 -1.90173,-8.24542 0.56092,-12.40971 5.4104,-0.36289 11.89602,4.23961 12.19952,4.4571 3.14776,-0.92126 6.60389,-1.41871 10.27772,-1.41871 3.84409,0 7.54995,0.53305 10.93451,1.52905 1.01242,-0.73073 6.56439,-4.60872 10.98707,-4.64363 0.32405,-0.002 0.64048,0.0169 0.94711,0.0604 2.15163,4.34189 0.96111,10.51198 0.60952,12.08787 2.90957,3.29476 4.52795,7.36031 4.26531,11.98411 0,13.64155 -8.26992,19.01187 -19.6359,20.52785 0.29373,0.18029 0.37298,0.22724 0.72906,0.444 1.42737,0.8689 2.22396,4.08516 2.33955,6.47087 0.15495,3.19876 -0.20985,6.8775 -0.1734,13.37521 0.0572,0.39145 0.39398,0.73312 0.77765,1.02068 a 43.380771,42.343793 0 0 0 31.432328,-40.6892 43.380771,42.343793 0 0 0 -43.380758,-42.34436 z"
       id="path4874"
       inkscape:connector-curvature="0"
       inkscape:export-filename="O:\Ciencias_da_Computacao\GitHub\Python.png"
       inkscape:export-xdpi="96"
       inkscape:export-ydpi="96" />
    <path
       style="fill:#ffffff;fill-opacity:1;fill-rule:evenodd;stroke-width:0.27269036"
       d="m 59.903342,197.7591 c -3.16689,0.001 -6.11123,0.52987 -7.88634,1.90583 -1.54003,1.81763 -0.76843,6.31538 -0.76843,6.31538 5.83944,0.0278 1.04651,0.008 8.93899,0.0393 0.003,1.32865 -10e-4,1.21077 -10e-4,1.21077 0,0 -0.30414,-0.0915 -12.51913,-0.11317 -0.51952,-9.2e-4 -1.62671,0.1145 -2.61638,0.77308 -0.98967,0.65859 -1.13531,0.74562 -1.80971,1.57097 -1.58474,2.34351 -1.24188,4.35377 -1.30638,7.68119 -0.0689,3.55457 0.82845,4.81533 1.22887,5.37073 0.74231,0.96936 1.29066,1.5329 2.13888,1.91462 2.16099,0.97248 4.63206,0.49027 5.12889,0.50694 0.10549,-7.13735 0.15131,-5.67683 0.26665,-6.62337 0.0223,-0.18326 0.73746,-1.4201 1.43919,-1.92908 0.68216,-0.4948 1.05796,-0.66137 2.59932,-0.90434 1.54136,-0.24297 3.58501,-0.21399 5.40898,-0.20929 2.40218,0.006 4.03177,0.20671 5.78982,-0.18603 0.53953,-0.12054 1.14467,-0.42261 1.70687,-0.73846 0.33286,-0.19748 1.43898,-1.45343 1.44798,-2.68356 0.0961,-9.96213 0.0848,-10.28329 -0.6165,-11.39466 -0.92536,-1.31255 -2.88902,-2.18504 -6.35413,-2.42725 -0.7429,-0.0519 -1.48559,-0.0799 -2.21641,-0.0796 z m -4.69532,2.85667 a 1.554427,1.554427 0 0 1 1.55443,1.55443 1.554427,1.554427 0 0 1 -1.55443,1.55443 1.554427,1.554427 0 0 1 -1.55443,-1.55443 1.554427,1.554427 0 0 1 1.55443,-1.55443 z"
       id="rect21"
       inkscape:connector-curvature="0"
       inkscape:export-filename="O:\Ciencias_da_Computacao\GitHub\Python.png"
       inkscape:export-xdpi="96"
       inkscape:export-ydpi="96" />
    <path
       style="fill:#ffffff;fill-opacity:1;fill-rule:evenodd;stroke-width:0.27286899"
       d="m 60.493452,233.98651 c 3.15503,-0.001 6.08836,-0.53257 7.85683,-1.9155 1.53426,-1.82685 0.76555,-6.34741 0.76555,-6.34741 -5.81759,-0.0281 -1.04259,-0.009 -8.90553,-0.0395 -0.003,-1.3354 9.9e-4,-1.21692 9.9e-4,-1.21692 0,0 0.303,0.092 12.47228,0.11373 0.51757,9.3e-4 1.62062,-0.11505 2.60658,-0.777 0.98597,-0.66193 1.13107,-0.7494 1.80294,-1.57893 1.57881,-2.3554 1.23723,-4.37586 1.30149,-7.72015 0.0686,-3.5726 -0.82535,-4.83975 -1.22428,-5.39798 -0.73953,-0.97427 -1.28583,-1.54067 -2.13087,-1.92432 -2.1529,-0.97741 -4.61473,-0.49276 -5.1097,-0.50952 -0.10509,7.17355 -0.15074,5.70563 -0.26565,6.65697 -0.0222,0.18417 -0.7347,1.4273 -1.43381,1.93886 -0.6796,0.49731 -1.054,0.66472 -2.58958,0.90893 -1.5356,0.24417 -3.5716,0.2151 -5.38874,0.21032 -2.39319,-0.006 -4.01668,-0.20772 -5.76816,0.18702 -0.5375,0.12114 -1.14038,0.42474 -1.70047,0.74221 -0.33162,0.19846 -1.43361,1.46079 -1.44257,2.69717 -0.0957,10.01265 -0.0845,10.33544 0.61419,11.45245 0.9219,1.31921 2.87821,2.19612 6.33036,2.43955 0.74012,0.0522 1.48002,0.0803 2.20811,0.08 z m 4.67775,-2.87116 a 1.5486096,1.5623112 0 0 1 -1.54861,-1.56232 1.5486096,1.5623112 0 0 1 1.54861,-1.56231 1.5486096,1.5623112 0 0 1 1.54861,1.56231 1.5486096,1.5623112 0 0 1 -1.54861,1.56232 z"
       id="rect21-5"
       inkscape:connector-curvature="0"
       inkscape:export-filename="O:\Ciencias_da_Computacao\GitHub\Python.png"
       inkscape:export-xdpi="96"
       inkscape:export-ydpi="96" />
    <text
       xml:space="preserve"
       style="font-style:normal;font-weight:normal;font-size:10.58333302px;line-height:1.25;font-family:sans-serif;letter-spacing:0px;word-spacing:0px;fill:#ffffff;fill-opacity:1;stroke:none;stroke-width:4;stroke-miterlimit:4;stroke-dasharray:none"
       x="22.115925"
       y="272.63889"
       id="text4643"
       inkscape:export-filename="O:\Ciencias_da_Computacao\GitHub\Python.png"
       inkscape:export-xdpi="96"
       inkscape:export-ydpi="96"><tspan
         sodipodi:role="line"
         id="tspan4641"
         x="22.115925"
         y="272.63889"
         style="font-style:normal;font-variant:normal;font-weight:normal;font-stretch:normal;font-size:25.39999962px;line-height:2;font-family:'Bauhaus 93';-inkscape-font-specification:'Bauhaus 93, ';fill:#ffffff;fill-opacity:1;stroke-width:4;stroke-miterlimit:4;stroke-dasharray:none">python</tspan></text>
  </g>
</svg>
