<?xml version="1.0" encoding="UTF-8" standalone="no"?>
<!-- Created with Inkscape (http://www.inkscape.org/) -->

<svg
   xmlns:dc="http://purl.org/dc/elements/1.1/"
   xmlns:cc="http://creativecommons.org/ns#"
   xmlns:rdf="http://www.w3.org/1999/02/22-rdf-syntax-ns#"
   xmlns:svg="http://www.w3.org/2000/svg"
   xmlns="http://www.w3.org/2000/svg"
   xmlns:sodipodi="http://sodipodi.sourceforge.net/DTD/sodipodi-0.dtd"
   xmlns:inkscape="http://www.inkscape.org/namespaces/inkscape"
   width="210mm"
   height="297mm"
   viewBox="0 0 210 297"
   version="1.1"
   id="svg8"
   inkscape:version="0.92.4 (5da689c313, 2019-01-14)"
   sodipodi:docname="Python.svg">
  <defs
     id="defs2" />
  <sodipodi:namedview
     id="base"
     pagecolor="#ffffff"
     bordercolor="#666666"
     borderopacity="1.0"
     inkscape:pageopacity="0.0"
     inkscape:pageshadow="2"
     inkscape:zoom="0.70710681"
     inkscape:cx="374.10732"
     inkscape:cy="719.78132"
     inkscape:document-units="mm"
     inkscape:current-layer="layer1"
     showgrid="false"
     showguides="false"
     inkscape:guide-bbox="true"
     inkscape:window-width="1920"
     inkscape:window-height="1017"
     inkscape:window-x="-8"
     inkscape:window-y="-8"
     inkscape:window-maximized="1">
    <sodipodi:guide
       position="144.20861,242.56381"
       orientation="0,1"
       id="guide26"
       inkscape:locked="false" />
    <sodipodi:guide
       position="147.60442,241.38268"
       orientation="0,1"
       id="guide4583"
       inkscape:locked="false" />
    <sodipodi:guide
       position="152.47726,222.86937"
       orientation="0,1"
       id="guide4614"
       inkscape:locked="false" />
    <sodipodi:guide
       position="155.47067,223.99191"
       orientation="0,1"
       id="guide4616"
       inkscape:locked="false" />
    <sodipodi:guide
       position="126.05098,235.17045"
       orientation="1,0"
       id="guide4618"
       inkscape:locked="false" />
    <sodipodi:guide
       position="162.53327,227.49982"
       orientation="1,0"
       id="guide4620"
       inkscape:locked="false" />
    <sodipodi:guide
       position="158.23023,250.79236"
       orientation="0,1"
       id="guide4622"
       inkscape:locked="false" />
    <sodipodi:guide
       position="154.95618,214.54393"
       orientation="0,1"
       id="guide4624"
       inkscape:locked="false" />
    <sodipodi:guide
       position="90.176732,250.79237"
       orientation="1,0"
       id="guide4647"
       inkscape:locked="false" />
    <sodipodi:guide
       position="195.88182,223.99192"
       orientation="1,0"
       id="guide4649"
       inkscape:locked="false" />
    <sodipodi:guide
       position="189.7079,258.55654"
       orientation="0,1"
       id="guide4651"
       inkscape:locked="false" />
    <sodipodi:guide
       position="187.83701,152.85144"
       orientation="0,1"
       id="guide4653"
       inkscape:locked="false" />
    <sodipodi:guide
       position="188.38332,187.06041"
       orientation="0,1"
       id="guide4655"
       inkscape:locked="false" />
    <sodipodi:guide
       position="0,286.61984"
       orientation="1,0"
       id="guide4929"
       inkscape:locked="false" />
    <sodipodi:guide
       position="339.00465,223.99192"
       orientation="1,0"
       id="guide4931"
       inkscape:locked="false" />
    <sodipodi:guide
       position="175.48916,290.36161"
       orientation="1,0"
       id="guide4933"
       inkscape:locked="false" />
  </sodipodi:namedview>
  <metadata
     id="metadata5">
    <rdf:RDF>
      <cc:Work
         rdf:about="">
        <dc:format>image/svg+xml</dc:format>
        <dc:type
           rdf:resource="http://purl.org/dc/dcmitype/StillImage" />
        <dc:title />
      </cc:Work>
    </rdf:RDF>
  </metadata>
  <g
     inkscape:label="Camada 1"
     inkscape:groupmode="layer"
     id="layer1">
    <rect
       style="fill:#fccd3d;fill-opacity:1;fill-rule:evenodd;stroke-width:0.59680986"
       id="rect4645"
       width="338.66666"
       height="168.27501"
       x="0"
       y="10.38016"
       inkscape:export-filename="O:\Ciencias_da_Computacao\GitHub\Python.png"
       inkscape:export-xdpi="96"
       inkscape:export-ydpi="96" />
    <path
       style="opacity:1;vector-effect:none;fill:#ffffff;fill-opacity:1;fill-rule:evenodd;stroke:none;stroke-width:0.76589501;stroke-linecap:butt;stroke-linejoin:miter;stroke-miterlimit:4;stroke-dasharray:none;stroke-dashoffset:0;stroke-opacity:1"
       d="m 175.3621,23.585294 a 43.380771,42.343793 0 0 0 -43.38078,42.344336 43.380771,42.343793 0 0 0 32.0942,40.83498 c 0.23685,-5.19429 0.18133,-7.307386 0.25091,-9.464581 0.002,-0.07141 0.007,-0.150864 0.009,-0.223313 -0.22628,0.04545 -6.30174,1.251138 -8.89842,-0.01314 -5.47986,-3.844666 -3.99911,-4.681572 -6.00321,-8.378225 -2.59119,-3.604674 -3.19773,-2.9006 -4.66727,-3.984191 -0.35044,-0.633515 -0.22511,-1.183213 0.16158,-1.509342 0.7322,-0.617527 2.01578,-0.18191 2.86761,0.179966 1.07975,0.458686 2.10746,1.656594 2.91228,2.510315 4.15235,4.983576 3.48926,5.989841 8.35984,6.930625 2.87782,0.555867 5.30376,-0.921259 5.89419,-1.31624 0.85717,-4.108044 1.03118,-3.642229 1.64989,-4.705366 0.32944,-0.566063 0.65018,-1.036358 0.96945,-1.433154 -11.6879,-1.598739 -19.40258,-7.669021 -19.79484,-20.577753 0.29768,-4.449468 1.97687,-8.401006 4.70536,-11.646501 -0.0884,-0.376047 -1.90173,-8.24542 0.56092,-12.409705 5.4104,-0.362892 11.89602,4.239613 12.19952,4.457095 3.14776,-0.921259 6.60389,-1.418705 10.27772,-1.418705 3.84409,0 7.54995,0.533045 10.93451,1.529047 1.01242,-0.730727 6.56439,-4.608719 10.98707,-4.643626 0.32405,-0.0025 0.64048,0.01691 0.94711,0.06043 2.15163,4.341892 0.96111,10.511975 0.60952,12.087868 2.90957,3.294759 4.52795,7.360297 4.26531,11.984096 0,13.641544 -8.26992,19.011862 -19.6359,20.527842 0.29373,0.180296 0.37298,0.227242 0.72906,0.443998 1.42737,0.8689 2.22396,4.085164 2.33955,6.470864 0.15495,3.198757 -0.20985,6.87749 -0.1734,13.375196 0.0572,0.39145 0.39398,0.73312 0.77765,1.02068 A 43.380771,42.343793 0 0 0 218.74286,65.92963 43.380771,42.343793 0 0 0 175.3621,23.585294 Z"
       id="path4874"
       inkscape:connector-curvature="0"
       inkscape:export-filename="O:\Ciencias_da_Computacao\GitHub\Python.png"
       inkscape:export-xdpi="96"
       inkscape:export-ydpi="96" />
    <path
       style="fill:#ffffff;fill-opacity:1;fill-rule:evenodd;stroke-width:0.27269036"
       d="m 175.36214,48.022352 c -3.16689,0.0012 -6.11123,0.529868 -7.88634,1.905826 -1.54003,1.817632 -0.76843,6.315376 -0.76843,6.315376 5.83944,0.02784 1.04651,0.0085 8.93899,0.03927 0.003,1.328655 -10e-4,1.210778 -10e-4,1.210778 0,0 -0.30414,-0.0915 -12.51913,-0.11317 -0.51952,-9.23e-4 -1.62671,0.114496 -2.61638,0.773078 -0.98967,0.658585 -1.13531,0.745617 -1.80971,1.570964 -1.58474,2.343507 -1.24188,4.353771 -1.30638,7.681184 -0.0689,3.554574 0.82845,4.81533 1.22887,5.370733 0.74231,0.969356 1.29066,1.532895 2.13888,1.914612 2.16099,0.972481 4.63206,0.490275 5.12889,0.506944 0.10549,-7.137342 0.15131,-5.676828 0.26665,-6.623367 0.0223,-0.183256 0.73746,-1.420098 1.43919,-1.92908 0.68216,-0.494795 1.05796,-0.661366 2.59932,-0.904338 1.54136,-0.242972 3.58501,-0.21399 5.40898,-0.209291 2.40218,0.0062 4.03177,0.206714 5.78982,-0.186033 0.53953,-0.120534 1.14467,-0.422601 1.70687,-0.738458 0.33286,-0.197477 1.43898,-1.453425 1.44798,-2.683557 0.0961,-9.962124 0.0848,-10.28328 -0.6165,-11.394652 -0.92536,-1.31255 -2.88902,-2.18504 -6.35413,-2.427242 -0.7429,-0.05193 -1.48559,-0.07987 -2.21641,-0.07958 z m -4.69532,2.856672 a 1.554427,1.554427 0 0 1 1.55443,1.554427 1.554427,1.554427 0 0 1 -1.55443,1.554427 1.554427,1.554427 0 0 1 -1.55443,-1.554427 1.554427,1.554427 0 0 1 1.55443,-1.554427 z"
       id="rect21"
       inkscape:connector-curvature="0"
       inkscape:export-filename="O:\Ciencias_da_Computacao\GitHub\Python.png"
       inkscape:export-xdpi="96"
       inkscape:export-ydpi="96" />
    <path
       style="fill:#ffffff;fill-opacity:1;fill-rule:evenodd;stroke-width:0.27286899"
       d="m 175.95225,84.249742 c 3.15503,-0.0012 6.08836,-0.532563 7.85683,-1.915493 1.53426,-1.826852 0.76555,-6.347409 0.76555,-6.347409 -5.81759,-0.02814 -1.04259,-0.0086 -8.90553,-0.03947 -0.003,-1.335399 9.9e-4,-1.216919 9.9e-4,-1.216919 0,0 0.303,0.09195 12.47228,0.113729 0.51757,9.31e-4 1.62062,-0.115056 2.60658,-0.777 0.98597,-0.661926 1.13107,-0.749397 1.80294,-1.578929 1.57881,-2.355397 1.23723,-4.375858 1.30149,-7.72015 0.0686,-3.572598 -0.82535,-4.839749 -1.22428,-5.397973 -0.73953,-0.974271 -1.28583,-1.540666 -2.13087,-1.924321 -2.1529,-0.977409 -4.61473,-0.49276 -5.1097,-0.509519 -0.10509,7.173545 -0.15074,5.705627 -0.26565,6.656967 -0.0222,0.184171 -0.7347,1.427296 -1.43381,1.938862 -0.6796,0.497303 -1.054,0.66472 -2.58958,0.908927 -1.5356,0.24417 -3.5716,0.215096 -5.38874,0.210321 -2.39319,-0.0061 -4.01668,-0.207721 -5.76816,0.187022 -0.5375,0.121133 -1.14038,0.424738 -1.70047,0.742203 -0.33162,0.198458 -1.43361,1.460796 -1.44257,2.697165 -0.0957,10.012653 -0.0845,10.335441 0.61419,11.452448 0.9219,1.319209 2.87821,2.19612 6.33036,2.439553 0.74012,0.0522 1.48002,0.08027 2.20811,0.07996 z M 180.63,81.37858 a 1.5486096,1.5623112 0 0 1 -1.54861,-1.562315 1.5486096,1.5623112 0 0 1 1.54861,-1.562306 1.5486096,1.5623112 0 0 1 1.54861,1.562306 1.5486096,1.5623112 0 0 1 -1.54861,1.562315 z"
       id="rect21-5"
       inkscape:connector-curvature="0"
       inkscape:export-filename="O:\Ciencias_da_Computacao\GitHub\Python.png"
       inkscape:export-xdpi="96"
       inkscape:export-ydpi="96" />
    <text
       xml:space="preserve"
       style="font-style:normal;font-weight:normal;font-size:10.58333302px;line-height:1.25;font-family:sans-serif;letter-spacing:0px;word-spacing:0px;fill:#ffffff;fill-opacity:1;stroke:none;stroke-width:4;stroke-miterlimit:4;stroke-dasharray:none"
       x="137.57472"
       y="122.90215"
       id="text4643"
       inkscape:export-filename="O:\Ciencias_da_Computacao\GitHub\Python.png"
       inkscape:export-xdpi="96"
       inkscape:export-ydpi="96"><tspan
         sodipodi:role="line"
         id="tspan4641"
         x="137.57472"
         y="122.90215"
         style="font-style:normal;font-variant:normal;font-weight:normal;font-stretch:normal;font-size:25.39999962px;line-height:2;font-family:'Bauhaus 93';-inkscape-font-specification:'Bauhaus 93, ';fill:#ffffff;fill-opacity:1;stroke-width:4;stroke-miterlimit:4;stroke-dasharray:none">python</tspan></text>
    <ellipse
       style="opacity:1;vector-effect:none;fill:#1b1f23;fill-opacity:1;fill-rule:evenodd;stroke:none;stroke-width:0.30129656;stroke-linecap:butt;stroke-linejoin:miter;stroke-miterlimit:4;stroke-dasharray:none;stroke-dashoffset:0;stroke-opacity:1"
       id="path4874-3"
       cx="-67.35392"
       cy="-14.284369"
       rx="17.065624"
       ry="16.657686" />
    <path
       inkscape:connector-curvature="0"
       style="fill:#ffffff;fill-opacity:1;stroke:none;stroke-width:0.26458332px;stroke-linecap:butt;stroke-linejoin:miter;stroke-opacity:1"
       d="m -58.664005,-24.229853 c -1.739844,0.01373 -3.92394,1.539301 -4.322217,1.826763 -1.331461,-0.391819 -2.789312,-0.601514 -4.301546,-0.601514 -1.445249,0 -2.804866,0.195691 -4.043164,0.558106 -0.119393,-0.08555 -2.670786,-1.896141 -4.79919,-1.753383 -0.968783,1.638194 -0.255429,4.733936 -0.22066,4.881872 -1.073367,1.27675 -1.733944,2.831251 -1.851049,4.581634 0.154313,5.0781845 3.1892,7.4661815 7.787122,8.0951115 -0.125598,0.156096 -0.251775,0.341106 -0.381373,0.56379 -0.243396,0.41823 -0.311849,0.234982 -0.649055,1.851051 -0.232267,0.155382 -1.186614,0.73647 -2.318721,0.517797 -1.916047,-0.370096 -1.655191,-0.765953 -3.288689,-2.726448 -0.316611,-0.335846 -0.720905,-0.807093 -1.145667,-0.987536 -0.335103,-0.142359 -0.840055,-0.313727 -1.128096,-0.0708 -0.15212,0.128297 -0.201425,0.344544 -0.06356,0.593762 0.578104,0.426276 0.81671,0.1493 1.836063,1.567347 0.788397,1.454231 0.205882,1.783463 2.361612,3.295922 1.021515,0.497356 3.411544,0.02304 3.500563,0.0052 -0.0011,0.0285 -0.0027,0.05976 -0.0036,0.08785 -0.02797,0.867256 -0.0028,1.698072 -0.103354,3.842144 -0.117343,0.123412 -0.222486,0.08614 -0.224274,0.123508 1.709944,0.140313 3.161083,0.389969 4.733044,0.406175 2.22445,0.02294 4.374163,-0.327356 5.104079,-0.3452 0.300842,-0.0074 -0.707038,-0.307202 -0.773594,-0.762227 -0.01434,-2.556145 0.129173,-4.003328 0.06821,-5.261692 -0.04547,-0.938513 -0.358842,-2.203764 -0.920359,-2.545582 -0.140078,-0.08527 -0.171251,-0.103738 -0.286803,-0.174665 4.471279,-0.596373 7.724593,-2.70901 7.724593,-8.0754765 0.10332,-1.818963 -0.533336,-3.418311 -1.677935,-4.714441 0.138314,-0.619943 0.606653,-3.047201 -0.239779,-4.755264 -0.120629,-0.01712 -0.24511,-0.02474 -0.372586,-0.02379 z"
       id="path4902-1" />
  </g>
</svg>
