<?xml version="1.0" encoding="UTF-8" standalone="no"?>
<!-- Created with Inkscape (http://www.inkscape.org/) -->

<svg
   xmlns:dc="http://purl.org/dc/elements/1.1/"
   xmlns:cc="http://creativecommons.org/ns#"
   xmlns:rdf="http://www.w3.org/1999/02/22-rdf-syntax-ns#"
   xmlns:svg="http://www.w3.org/2000/svg"
   xmlns="http://www.w3.org/2000/svg"
   xmlns:sodipodi="http://sodipodi.sourceforge.net/DTD/sodipodi-0.dtd"
   xmlns:inkscape="http://www.inkscape.org/namespaces/inkscape"
   width="210mm"
   height="297mm"
   viewBox="0 0 210 297"
   version="1.1"
   id="svg8"
   inkscape:version="0.92.4 (5da689c313, 2019-01-14)"
   sodipodi:docname="Scooby-Doo.svg">
  <defs
     id="defs2" />
  <sodipodi:namedview
     id="base"
     pagecolor="#ffffff"
     bordercolor="#666666"
     borderopacity="1.0"
     inkscape:pageopacity="0.0"
     inkscape:pageshadow="2"
     inkscape:zoom="1.4"
     inkscape:cx="250.82591"
     inkscape:cy="229.70603"
     inkscape:document-units="mm"
     inkscape:current-layer="layer1"
     showgrid="false"
     inkscape:window-width="1920"
     inkscape:window-height="1017"
     inkscape:window-x="-8"
     inkscape:window-y="-8"
     inkscape:window-maximized="1" />
  <metadata
     id="metadata5">
    <rdf:RDF>
      <cc:Work
         rdf:about="">
        <dc:format>image/svg+xml</dc:format>
        <dc:type
           rdf:resource="http://purl.org/dc/dcmitype/StillImage" />
        <dc:title></dc:title>
      </cc:Work>
    </rdf:RDF>
  </metadata>
  <g
     inkscape:label="Camada 1"
     inkscape:groupmode="layer"
     id="layer1">
    <path
       style="opacity:1;vector-effect:none;fill:#d3723f;fill-opacity:1;stroke:none;stroke-width:0.60000002;stroke-linecap:butt;stroke-linejoin:miter;stroke-miterlimit:4;stroke-dasharray:none;stroke-dashoffset:0;stroke-opacity:1"
       d="m 129.95135,241.738 20.79746,2.07397 -2.76914,4.17781 z"
       id="path1044"
       inkscape:connector-curvature="0"
       sodipodi:nodetypes="cccc" />
    <path
       sodipodi:nodetypes="csscccccccscccscc"
       inkscape:connector-curvature="0"
       id="path1022"
       d="m 75.791932,235.23357 c 0,0 -3.59058,3.21784 -7.030703,-0.58688 -6.41501,-7.09489 -16.86184,-5.96717 -19.22981,2.0988 -0.282828,0.9634 0.233328,4.45061 2.529841,6.26085 0.992134,1.70765 1.864237,3.24011 2.658366,3.85272 -2.110111,6.07685 2.128668,10.19383 6.178267,9.79256 1.121554,0.78976 1.760055,0.89638 2.694251,0.78657 2.496724,2.11009 3.778442,1.77561 5.337067,1.82923 1.511103,1.0673 2.775401,4.67222 18.205051,-2.02012 0.79264,-1.47179 0.77778,-5.47711 0.63739,-8.78557 1.17518,-0.86458 1.65235,-1.47189 2.2847,-0.96091 5.43053,4.38809 0.88081,-28.45156 2.39463,-42.66666 -1.68904,-3.99643 -7.54267,-4.60941 -10.05133,-5.1603 0.69242,-2.60838 0.69242,-2.60838 0.69242,-2.60838 -5.10262,-4.62451 -24.84546,-27.06172 -24.632297,-22.32703 0.330664,7.34461 3.349209,17.44853 5.654003,23.89915 -11.29658,7.9544 6.832594,35.28138 11.678154,36.59597 z"
       style="opacity:1;vector-effect:none;fill:#d3723f;fill-opacity:1;stroke:none;stroke-width:0.66119564;stroke-linecap:butt;stroke-linejoin:round;stroke-miterlimit:4;stroke-dasharray:none;stroke-dashoffset:0;stroke-opacity:1" />
    <path
       sodipodi:nodetypes="cc"
       inkscape:transform-center-y="0.74759408"
       inkscape:transform-center-x="-1.865888"
       inkscape:connector-curvature="0"
       id="path842"
       d="m 65.008645,236.68485 c -9.389361,-1.9365 -10.045515,6.65893 -9.111157,8.72502"
       style="opacity:1;vector-effect:none;fill:none;fill-opacity:1;stroke:#000000;stroke-width:0.99179345;stroke-linecap:butt;stroke-linejoin:miter;stroke-miterlimit:4;stroke-dasharray:none;stroke-dashoffset:0;stroke-opacity:1" />
    <path
       sodipodi:nodetypes="cc"
       inkscape:connector-curvature="0"
       id="path1034"
       d="m 90.351012,202.39134 c -2.88255,-1.1958 -5.51331,-2.16332 -7.91002,-2.92389"
       style="opacity:1;vector-effect:none;fill:none;fill-opacity:1;stroke:#000000;stroke-width:0.99179345;stroke-linecap:butt;stroke-linejoin:round;stroke-miterlimit:4;stroke-dasharray:none;stroke-dashoffset:0;stroke-opacity:1" />
    <path
       style="opacity:1;vector-effect:none;fill:none;fill-opacity:1;stroke:#000000;stroke-width:0.99179345;stroke-linecap:butt;stroke-linejoin:round;stroke-miterlimit:4;stroke-dasharray:none;stroke-dashoffset:0;stroke-opacity:1"
       d="m 64.312232,198.57682 c -11.388935,6.5163 5.369892,34.30215 11.4797,36.65675 0,0 -3.52788,3.1602 -7.030703,-0.58688 -10.428914,-11.15613 -25.542388,0.0379 -16.609657,8.42374"
       id="path838"
       inkscape:connector-curvature="0"
       sodipodi:nodetypes="ccsc" />
    <path
       style="opacity:1;vector-effect:none;fill:#d3723f;fill-opacity:1;stroke:#000000;stroke-width:0.99179345;stroke-linecap:butt;stroke-linejoin:round;stroke-miterlimit:4;stroke-dasharray:none;stroke-dashoffset:0;stroke-opacity:1"
       d="m 118.98708,260.51596 c 3.46701,-1.84305 9.1381,-0.46606 -0.37518,-25.33975 2.69579,-14.32022 17.18867,-18.47231 19.23623,-33.59726 3.0429,-20.86401 -7.94643,-37.64813 -21.76046,-55.60579 -2.26514,-10.58933 -6.50678,-20.09298 -12.15663,-25.87522 -16.152108,17.15147 -28.598988,12.341 -40.344726,3.4442 -13.405938,21.62634 -17.378452,38.17217 -7.882429,45.25319 -1.115182,-7.9444 -1.909919,-16.71813 0.209796,-24.36845 -7.860715,45.35359 25.750181,44.63762 36.706441,60.76087 l 0.18087,33.80107 c 9.314618,11.48842 15.905948,25.39635 26.186088,21.52714 z"
       id="path834"
       inkscape:connector-curvature="0"
       sodipodi:nodetypes="ccccccccccc" />
    <path
       style="opacity:1;vector-effect:none;fill:#d07850;fill-opacity:1;stroke:#000000;stroke-width:0.99179345;stroke-linecap:butt;stroke-linejoin:round;stroke-miterlimit:4;stroke-dasharray:none;stroke-dashoffset:0;stroke-opacity:1"
       d="m 94.568152,43.716041 c 2.31369,-1.243378 4.30772,-3.046144 4.97019,-7.179146 5.996878,5.408332 16.584258,-3.164201 10.732198,-2.541487 -2.82885,0.301009 -8.71984,-3.915154 -11.475298,-4.890897 -7.2801,-0.612895 -8.24901,8.291839 -9.06478,10.162312 -0.0278,-0.416438 0.26448,-0.737167 -0.0527,-1.007265 -3.08869,-2.629873 -12.49706,-5.316608 -15.567,-3.171012 l 1.44483,-0.780988 c 0.59414,-1.189127 -0.21308,-3.9358 -7.028893,-11.949127 0.246821,-8.412055 -4.508483,-0.05537 -2.069619,6.716491 -2.795844,8.81468 -3.195122,15.668518 3.123953,17.025539 0.374865,4.670306 -1.249171,7.341702 -3.045854,9.840462 l 4.217333,29.59945 c -1.799714,6.38771 -1.302766,10.71777 -4.77703,25.659647 2.803679,6.17702 20.55395,16.35829 33.61813,1.10448 14.495958,-43.243637 1.407558,-62.517642 -5.0254,-68.588459 z"
       id="path867"
       inkscape:connector-curvature="0"
       sodipodi:nodetypes="ccsccscccccccccc" />
    <ellipse
       style="opacity:1;vector-effect:none;fill:#ffffff;fill-opacity:1;fill-rule:evenodd;stroke:#000000;stroke-width:0.33087483;stroke-linecap:butt;stroke-linejoin:miter;stroke-miterlimit:4;stroke-dasharray:none;stroke-dashoffset:0;stroke-opacity:1"
       id="path900"
       cx="89.354546"
       cy="7.8587193"
       rx="3.1589127"
       ry="4.6585712"
       transform="matrix(0.87095405,0.49136447,-0.44016909,0.8979149,0,0)" />
    <path
       style="opacity:1;vector-effect:none;fill:#000000;fill-opacity:1;fill-rule:evenodd;stroke:#000000;stroke-width:0.16529891;stroke-linecap:butt;stroke-linejoin:miter;stroke-miterlimit:4;stroke-dasharray:none;stroke-dashoffset:0;stroke-opacity:1"
       d="m 76.266522,54.319953 c -0.6064,0.98159 -2.41855,1.34331 -3.23008,0.84198 -0.81152,-0.50134 -0.45318,-2.00724 0.15323,-2.988836 0.60641,-0.981595 1.78348,-1.288075 2.595,-0.78674 0.81152,0.501335 1.08825,1.951996 0.48185,2.933596 z"
       id="path895"
       inkscape:connector-curvature="0"
       sodipodi:nodetypes="ccccc" />
    <path
       style="opacity:1;vector-effect:none;fill:#f7fbe8;fill-opacity:1;stroke:#000000;stroke-width:0.99179345;stroke-linecap:butt;stroke-linejoin:round;stroke-miterlimit:4;stroke-dasharray:none;stroke-dashoffset:0;stroke-opacity:0.9748744"
       d="m 103.08536,38.368688 c -0.0213,4.530198 -1.55033,7.696449 -5.935508,8.278467 l -2.5817,-2.931114 c 2.26314,-1.394263 4.44265,-2.926253 4.97019,-7.179146 z"
       id="path869"
       inkscape:connector-curvature="0"
       sodipodi:nodetypes="ccccc" />
    <path
       style="opacity:1;vector-effect:none;fill:#33d1d9;fill-opacity:1;stroke:#000000;stroke-width:0.99179345;stroke-linecap:butt;stroke-linejoin:round;stroke-miterlimit:4;stroke-dasharray:none;stroke-dashoffset:0;stroke-opacity:1"
       d="m 100.75327,112.3045 c -17.928498,17.00515 -33.904326,2.02443 -35.012143,-1.10448 1.701986,-3.45839 -1.621497,-2.568 -2.208968,-0.88359 l -2.982108,9.82991 c 15.645481,17.61594 33.142561,12.15759 43.380989,-0.0484 l -0.74791,-9.45017 c -1.1981,-4.34026 -3.737818,-0.80845 -2.42986,1.65676 z"
       id="path865"
       inkscape:connector-curvature="0"
       sodipodi:nodetypes="ccccccc" />
    <path
       sodipodi:nodetypes="ccccc"
       inkscape:connector-curvature="0"
       id="path929"
       d="m 67.587405,124.15955 c 3.291177,-1.29867 4.315197,-0.85033 5.037597,9.09271 0.11845,2.46815 1.11307,2.01334 -8.997624,7.03663 -3.610398,1.5892 -3.67497,-0.69938 -4.043562,-9.86033 -0.05711,-2.80175 1.091037,-2.95123 8.003589,-6.26901 z"
       style="opacity:1;vector-effect:none;fill:#f8fa8f;fill-opacity:1;stroke:#000000;stroke-width:0.49589673;stroke-linecap:butt;stroke-linejoin:round;stroke-miterlimit:4;stroke-dasharray:none;stroke-dashoffset:0;stroke-opacity:1" />
    <path
       style="opacity:1;vector-effect:none;fill:none;fill-opacity:1;stroke:#000000;stroke-width:0.99179345;stroke-linecap:butt;stroke-linejoin:miter;stroke-miterlimit:4;stroke-dasharray:none;stroke-dashoffset:0;stroke-opacity:1"
       d="m 58.412844,175.04161 c 1.371494,23.50461 21.141278,48.88952 16.869338,68.88315"
       id="path844"
       inkscape:connector-curvature="0"
       sodipodi:nodetypes="cc" />
    <path
       style="opacity:1;vector-effect:none;fill:none;fill-opacity:1;stroke:#000000;stroke-width:0.99179345;stroke-linecap:butt;stroke-linejoin:miter;stroke-miterlimit:4;stroke-dasharray:none;stroke-dashoffset:0;stroke-opacity:1"
       d="m 69.330699,244.01422 c -13.012735,0.13422 -8.155564,16.4678 -0.773138,15.18665"
       id="path857"
       inkscape:connector-curvature="0"
       sodipodi:nodetypes="cc" />
    <path
       style="opacity:1;vector-effect:none;fill:none;fill-opacity:1;stroke:#000000;stroke-width:0.99179345;stroke-linecap:butt;stroke-linejoin:miter;stroke-miterlimit:4;stroke-dasharray:none;stroke-dashoffset:0;stroke-opacity:1"
       d="m 87.693552,248.46173 c 0.60764,-0.69986 1.93008,-1.31756 3.78205,-0.19525"
       id="path863"
       inkscape:connector-curvature="0"
       sodipodi:nodetypes="cc" />
    <path
       style="opacity:1;vector-effect:none;fill:none;fill-opacity:1;stroke:#000000;stroke-width:0.99179345;stroke-linecap:butt;stroke-linejoin:miter;stroke-miterlimit:4;stroke-dasharray:none;stroke-dashoffset:0;stroke-opacity:1"
       d="m 76.928762,102.94089 c 0.0229,16.04573 25.529828,11.38515 21.06329,-20.346997"
       id="path871"
       inkscape:connector-curvature="0"
       sodipodi:nodetypes="cc" />
    <path
       style="opacity:1;vector-effect:none;fill:none;fill-opacity:1;stroke:#000000;stroke-width:0.99179345;stroke-linecap:butt;stroke-linejoin:miter;stroke-miterlimit:4;stroke-dasharray:none;stroke-dashoffset:0;stroke-opacity:1"
       d="m 69.737172,84.759383 c 2.83971,1.27099 4.67529,5.75604 4.04278,8.25872 -1.68739,6.6764 1.50139,10.026497 7.5344,11.886357 6.74054,2.07799 12.92246,-6.074667 12.92246,-6.074667"
       id="path873"
       inkscape:connector-curvature="0"
       sodipodi:nodetypes="cssc" />
    <path
       style="opacity:1;vector-effect:none;fill:none;fill-opacity:1;stroke:#000000;stroke-width:0.99179345;stroke-linecap:butt;stroke-linejoin:miter;stroke-miterlimit:4;stroke-dasharray:none;stroke-dashoffset:0;stroke-opacity:1"
       d="m 99.317432,75.414733 c 3.224268,7.50119 0.952388,12.41999 -0.66268,12.14933"
       id="path875"
       inkscape:connector-curvature="0"
       sodipodi:nodetypes="cc" />
    <path
       sodipodi:nodetypes="cc"
       inkscape:connector-curvature="0"
       id="path877"
       d="m 105.84545,68.942523 c 0.48765,7.73081 -3.64474,11.7412 -4.81525,11.77316"
       style="opacity:1;vector-effect:none;fill:none;fill-opacity:1;stroke:#000000;stroke-width:0.99179345;stroke-linecap:butt;stroke-linejoin:miter;stroke-miterlimit:4;stroke-dasharray:none;stroke-dashoffset:0;stroke-opacity:1" />
    <path
       style="opacity:1;vector-effect:none;fill:#000000;fill-opacity:1;stroke:#000000;stroke-width:0.16529891;stroke-linecap:butt;stroke-linejoin:round;stroke-miterlimit:4;stroke-dasharray:none;stroke-dashoffset:0;stroke-opacity:1"
       d="m 93.596362,62.462173 c -1.1344,-2.73832 2.05382,-6.39586 3.6316,-3.82685 -1.57823,-0.4869 -3.0804,-0.12596 -3.6316,3.82685 z"
       id="path881"
       inkscape:connector-curvature="0"
       sodipodi:nodetypes="ccc" />
    <path
       style="opacity:1;vector-effect:none;fill:none;fill-opacity:1;stroke:#000000;stroke-width:0.66119564;stroke-linecap:butt;stroke-linejoin:miter;stroke-miterlimit:4;stroke-dasharray:none;stroke-dashoffset:0;stroke-opacity:1"
       d="m 90.901952,63.047913 c -0.73637,-5.73324 0.90154,-10.05766 5.23262,-8.12228"
       id="path883"
       inkscape:connector-curvature="0"
       sodipodi:nodetypes="cc" />
    <path
       style="opacity:1;vector-effect:none;fill:#000000;fill-opacity:1;stroke:none;stroke-width:0.16529891;stroke-linecap:butt;stroke-linejoin:miter;stroke-miterlimit:4;stroke-dasharray:none;stroke-dashoffset:0;stroke-opacity:1"
       d="m 82.974922,41.141197 c 2.88956,0.181581 4.69697,1.890937 5.81836,4.568779 3.14528,-2.20641 0.94702,-5.264952 -1.19374,-6.536547 -1.16987,-0.6949 -3.09755,-2.347658 -4.62462,1.967768 z"
       id="path891"
       inkscape:connector-curvature="0"
       sodipodi:nodetypes="ccsc" />
    <path
       sodipodi:nodetypes="ccsc"
       inkscape:connector-curvature="0"
       id="path893"
       d="m 78.305432,38.759173 c -2.26478,-0.67751 -5.12652,1.344244 -6.24791,4.022086 -3.30148,-2.3626 -0.28318,-5.147804 1.74043,-6.536546 1.12192,-0.76993 3.87854,-2.152407 4.50748,2.51446 z"
       style="opacity:1;vector-effect:none;fill:#000000;fill-opacity:1;stroke:none;stroke-width:0.16529891;stroke-linecap:butt;stroke-linejoin:miter;stroke-miterlimit:4;stroke-dasharray:none;stroke-dashoffset:0;stroke-opacity:1" />
    <path
       style="opacity:1;vector-effect:none;fill:#ffffff;fill-opacity:1;fill-rule:evenodd;stroke:#000000;stroke-width:0.33059782;stroke-linecap:butt;stroke-linejoin:miter;stroke-miterlimit:4;stroke-dasharray:none;stroke-dashoffset:0;stroke-opacity:1"
       d="m 87.854122,53.536183 c -0.8618,2.69639 -3.78488,3.53674 -5.71397,2.53565 -1.9291,-1.00106 -2.6023,-4.245467 -1.31096,-6.668518 1.29134,-2.42305 3.90202,-3.575795 5.83111,-2.574712 1.9291,1.001083 2.02972,4.092239 1.19382,6.70758 z"
       id="ellipse902"
       inkscape:connector-curvature="0"
       sodipodi:nodetypes="sssss" />
    <path
       sodipodi:nodetypes="ccccc"
       inkscape:connector-curvature="0"
       id="path898"
       d="m 87.173302,54.651293 c -0.99296,1.31293 -1.89393,2.00602 -3.14724,1.3114 -1.41899,-0.88791 -0.97781,-3.084117 -0.3714,-4.065711 0.6064,-0.981595 1.89392,-1.205244 2.70546,-0.703909 0.8115,0.501335 1.44719,2.50425 0.81318,3.45822 z"
       style="opacity:1;vector-effect:none;fill:#000000;fill-opacity:1;fill-rule:evenodd;stroke:#000000;stroke-width:0.16529891;stroke-linecap:butt;stroke-linejoin:miter;stroke-miterlimit:4;stroke-dasharray:none;stroke-dashoffset:0;stroke-opacity:1" />
    <ellipse
       transform="matrix(0.89040145,0.45517608,-0.47583146,0.87953648,0,0)"
       ry="0.99045449"
       rx="0.71017003"
       cy="13.002336"
       cx="90.557594"
       id="ellipse905"
       style="opacity:1;vector-effect:none;fill:#ffffff;fill-opacity:1;fill-rule:evenodd;stroke:none;stroke-width:0.02500395;stroke-linecap:butt;stroke-linejoin:miter;stroke-miterlimit:4;stroke-dasharray:none;stroke-dashoffset:0;stroke-opacity:1" />
    <ellipse
       style="opacity:1;vector-effect:none;fill:#ffffff;fill-opacity:1;fill-rule:evenodd;stroke:none;stroke-width:0.02766504;stroke-linecap:butt;stroke-linejoin:miter;stroke-miterlimit:4;stroke-dasharray:none;stroke-dashoffset:0;stroke-opacity:1"
       id="ellipse907"
       cx="99.908394"
       cy="10.568047"
       rx="0.7990126"
       ry="1.0776765"
       transform="matrix(0.90088522,0.4340574,-0.49782202,0.86727921,0,0)" />
    <path
       style="opacity:1;vector-effect:none;fill:none;fill-opacity:1;stroke:#000000;stroke-width:0.99179345;stroke-linecap:butt;stroke-linejoin:miter;stroke-miterlimit:4;stroke-dasharray:none;stroke-dashoffset:0;stroke-opacity:1"
       d="m 75.681482,111.80748 c 0.49136,-1.56646 1.05788,-3.04835 2.70599,-3.31345"
       id="path911"
       inkscape:connector-curvature="0"
       sodipodi:nodetypes="cc" />
    <path
       sodipodi:nodetypes="cc"
       inkscape:connector-curvature="0"
       id="path913"
       d="m 73.454682,108.53628 c 0.95792,-1.33327 2.45769,-2.67312 4.10578,-2.40788"
       style="opacity:1;vector-effect:none;fill:none;fill-opacity:1;stroke:#000000;stroke-width:0.99179345;stroke-linecap:butt;stroke-linejoin:miter;stroke-miterlimit:4;stroke-dasharray:none;stroke-dashoffset:0;stroke-opacity:1" />
    <path
       style="opacity:1;vector-effect:none;fill:#000000;fill-opacity:1;stroke:#000000;stroke-width:0.33059782;stroke-linecap:butt;stroke-linejoin:miter;stroke-miterlimit:4;stroke-dasharray:none;stroke-dashoffset:0;stroke-opacity:1"
       d="m 73.638182,81.378963 c 1.97869,5.29933 5.70369,9.27907 5.74332,13.58514 -0.10822,0.80692 -1.47504,0.79877 -1.18509,1.13826 8.36125,9.789607 16.66913,-3.04811 14.71501,-12.29354 -5.32047,3.73826 -11.36156,4.50761 -19.27324,-2.42986 z"
       id="path915"
       inkscape:connector-curvature="0"
       sodipodi:nodetypes="ccscc" />
    <path
       style="opacity:1;vector-effect:none;fill:#fafefe;fill-opacity:1;stroke:#000000;stroke-width:0.365;stroke-linecap:butt;stroke-linejoin:miter;stroke-miterlimit:4;stroke-dasharray:none;stroke-dashoffset:0;stroke-opacity:1"
       d="m 72.431582,81.713543 c 0.66445,2.39958 1.5529,4.63951 3.12395,7.22414 1.00137,0.45077 2.14619,1.26196 3.35825,0.62478 -0.40597,-1.81419 -0.66466,-3.33385 -0.97624,-4.95927 -1.48441,-1.47608 -2.72791,-3.30427 -5.50596,-2.88965 z"
       id="path917"
       inkscape:connector-curvature="0"
       sodipodi:nodetypes="ccccc" />
    <path
       sodipodi:nodetypes="ccccc"
       inkscape:connector-curvature="0"
       id="path919"
       d="m 78.328042,86.008963 c 6.1e-4,0.60331 -0.0739,1.7487 0.93089,4.21618 1.00137,0.45077 5.31548,0.20879 6.3323,-0.58459 -0.15208,-1.75561 -0.0593,-1.49852 -0.37097,-3.12394 -1.91395,-0.26555 -4.11417,-0.92227 -6.89222,-0.50765 z"
       style="opacity:1;vector-effect:none;fill:#fafefe;fill-opacity:1;stroke:#000000;stroke-width:0.365;stroke-linecap:butt;stroke-linejoin:miter;stroke-miterlimit:4;stroke-dasharray:none;stroke-dashoffset:0;stroke-opacity:1" />
    <path
       style="opacity:1;vector-effect:none;fill:#fafefe;fill-opacity:1;stroke:#000000;stroke-width:0.365;stroke-linecap:butt;stroke-linejoin:miter;stroke-miterlimit:4;stroke-dasharray:none;stroke-dashoffset:0;stroke-opacity:1"
       d="m 85.513122,86.770433 c 6.3e-4,0.60331 -0.10909,2.52691 0.58328,2.61236 1.00138,0.45077 3.04679,-1.64328 3.71216,-2.45619 0.57093,-1.52677 -2.57104,-0.40673 -4.29544,-0.15621 z"
       id="path921"
       inkscape:connector-curvature="0"
       sodipodi:nodetypes="cccc" />
    <path
       style="opacity:1;vector-effect:none;fill:#fdfb87;fill-opacity:1;stroke:#000000;stroke-width:0.33059782;stroke-linecap:butt;stroke-linejoin:round;stroke-miterlimit:4;stroke-dasharray:none;stroke-dashoffset:0;stroke-opacity:1"
       d="m 75.129242,118.76573 c 0.62512,0.57971 1.12365,0.52471 1.8224,0.22089 -1.39152,-11.30666 -12.00888,-0.6561 -9.940359,6.57169 0.795699,0.31787 1.466548,0.30281 1.822399,-0.55225 -0.904948,-3.61725 3.52223,-12.59538 6.29556,-6.24033 z"
       id="path925"
       inkscape:connector-curvature="0"
       sodipodi:nodetypes="ccccc" />
    <path
       style="opacity:1;vector-effect:none;fill:#d3723f;fill-opacity:1;stroke:#000000;stroke-width:0.99179345;stroke-linecap:butt;stroke-linejoin:miter;stroke-miterlimit:4;stroke-dasharray:none;stroke-dashoffset:0;stroke-opacity:1"
       d="m 168.90682,257.20937 c 6.5038,5.33333 13.01461,-15.80235 2.76811,-13.68317"
       id="path941"
       inkscape:connector-curvature="0"
       sodipodi:nodetypes="cc" />
    <path
       sodipodi:nodetypes="cc"
       inkscape:connector-curvature="0"
       id="path939"
       d="m 166.72006,258.26369 c 5.7228,0.33501 9.50016,-21.34734 -1.13684,-16.9633"
       style="opacity:1;vector-effect:none;fill:#d3723f;fill-opacity:1;stroke:#000000;stroke-width:0.99179345;stroke-linecap:butt;stroke-linejoin:miter;stroke-miterlimit:4;stroke-dasharray:none;stroke-dashoffset:0;stroke-opacity:1" />
    <path
       style="opacity:1;vector-effect:none;fill:#d3723f;fill-opacity:1;stroke:#000000;stroke-width:0.99179345;stroke-linecap:butt;stroke-linejoin:miter;stroke-miterlimit:4;stroke-dasharray:none;stroke-dashoffset:0;stroke-opacity:1"
       d="m 158.04919,258.85612 c 3.9035,1.83062 8.21,1.01534 9.16579,-1.47268 3.50778,-9.13093 -1.01743,-23.22567 -9.91213,-15.41252"
       id="path937"
       inkscape:connector-curvature="0"
       sodipodi:nodetypes="csc" />
    <path
       style="opacity:1;vector-effect:none;fill:#45cfbb;fill-opacity:1;stroke:#000000;stroke-width:0.33059782;stroke-linecap:butt;stroke-linejoin:round;stroke-miterlimit:4;stroke-dasharray:none;stroke-dashoffset:0;stroke-opacity:1"
       d="m 67.066507,128.01579 c 1.086503,-0.54241 1.11408,0.16133 1.380605,4.44554 -0.141579,1.18159 0.770805,0.89777 -4.307488,3.36869 -1.19967,0.15273 -1.204146,-0.30838 -1.380604,-4.69406 -0.02734,-1.3413 0.9982,-1.53183 4.307487,-3.12017 z"
       id="path927"
       inkscape:connector-curvature="0"
       sodipodi:nodetypes="ccccc" />
    <path
       style="opacity:1;vector-effect:none;fill:none;fill-opacity:1;stroke:#000000;stroke-width:0.99179345;stroke-linecap:butt;stroke-linejoin:round;stroke-miterlimit:4;stroke-dasharray:none;stroke-dashoffset:0;stroke-opacity:1"
       d="m 83.092072,197.06548 c -4.91252,9.48819 8.23239,37.98598 3.60883,40.84311 -1.03646,0.64046 0.57345,4.78155 0.7647,7.03147 0.31853,3.74744 0.82648,8.82692 -0.33134,12.30724 -18.181747,8.30416 -19.025834,1.46222 -19.133017,-1.88232 -0.183152,-5.71506 7.579477,-6.6429 8.513197,-6.75428"
       id="path846"
       inkscape:connector-curvature="0"
       sodipodi:nodetypes="csscsc" />
    <path
       style="opacity:1;vector-effect:none;fill:none;fill-opacity:1;stroke:#000000;stroke-width:0.99179345;stroke-linecap:butt;stroke-linejoin:miter;stroke-miterlimit:4;stroke-dasharray:none;stroke-dashoffset:0;stroke-opacity:1"
       d="m 63.808279,257.54415 c -3.294305,0.12843 -6.913779,-3.61312 -6.016893,-9.20558"
       id="path859"
       inkscape:connector-curvature="0"
       sodipodi:nodetypes="cc" />
    <path
       style="opacity:1;vector-effect:none;fill:#d3723f;fill-opacity:1;stroke:#000000;stroke-width:0.99179345;stroke-linecap:butt;stroke-linejoin:miter;stroke-miterlimit:4;stroke-dasharray:none;stroke-dashoffset:0;stroke-opacity:1"
       d="m 129.95135,241.738 c 13.74086,12.9702 37.36774,-4.09981 21.95917,-28.18811 0.56577,-29.60668 -13.85284,-22.32355 -19.3038,1.63451 -6.57726,-1.04725 -39.806148,28.24431 -3.59256,38.58082 7.91701,1.6815 27.38606,11.98812 32.20351,1.87437 3.81284,-8.30078 -4.91546,-21.6665 -13.61598,-8.12228"
       id="path836"
       inkscape:connector-curvature="0"
       sodipodi:nodetypes="cccccc" />
    <path
       sodipodi:nodetypes="cscc"
       inkscape:connector-curvature="0"
       id="path933"
       d="m 123.2319,155.85562 c 0.53952,5.04799 0.12547,12.40955 -1.23546,17.81927 -3.93199,15.62919 -2.57815,35.12058 16.08838,21.74203 1.06091,-12.14198 -6.9847,-31.12782 -14.85292,-39.5613 z"
       style="opacity:1;vector-effect:none;fill:#000000;fill-opacity:1;stroke:none;stroke-width:0.16529891;stroke-linecap:butt;stroke-linejoin:round;stroke-miterlimit:4;stroke-dasharray:none;stroke-dashoffset:0;stroke-opacity:1" />
    <path
       style="opacity:1;vector-effect:none;fill:#000000;fill-opacity:1;stroke:none;stroke-width:0.16529891;stroke-linecap:butt;stroke-linejoin:round;stroke-miterlimit:4;stroke-dasharray:none;stroke-dashoffset:0;stroke-opacity:1"
       d="m 104.45568,120.45691 c -1.18294,16.51134 1.68027,25.36837 10.76632,22.55224 -2.76595,-12.45438 -6.80306,-17.47701 -10.76632,-22.55224 z"
       id="path931"
       inkscape:connector-curvature="0"
       sodipodi:nodetypes="ccc" />
    <path
       sodipodi:nodetypes="ccc"
       inkscape:connector-curvature="0"
       id="path935"
       d="m 104.61188,156.34331 c -11.101498,5.96801 -4.958128,15.02029 3.62029,11.46221 2.58382,-1.36434 -0.24278,-12.90822 -3.62029,-11.46221 z"
       style="opacity:1;vector-effect:none;fill:#000000;fill-opacity:1;stroke:none;stroke-width:0.16529891;stroke-linecap:butt;stroke-linejoin:round;stroke-miterlimit:4;stroke-dasharray:none;stroke-dashoffset:0;stroke-opacity:1" />
    <path
       sodipodi:nodetypes="cc"
       inkscape:connector-curvature="0"
       id="path830"
       d="m 118.98708,260.51596 c 8.15323,3.20484 12.42286,-12.99989 3.69451,-14.25679"
       style="opacity:1;vector-effect:none;fill:#d3723f;fill-opacity:1;stroke:#000000;stroke-width:0.99179345;stroke-linecap:butt;stroke-linejoin:miter;stroke-miterlimit:4;stroke-dasharray:none;stroke-dashoffset:0;stroke-opacity:1" />
    <path
       style="opacity:1;vector-effect:none;fill:#d3723f;fill-opacity:1;stroke:none;stroke-width:0.99179345;stroke-linecap:butt;stroke-linejoin:round;stroke-miterlimit:4;stroke-dasharray:none;stroke-dashoffset:0;stroke-opacity:1"
       d="m 110.5505,242.63614 c 13.38538,-2.53357 13.37667,5.78695 12.57391,11.98817 z"
       id="path1020"
       inkscape:connector-curvature="0"
       sodipodi:nodetypes="ccc" />
    <path
       style="opacity:1;vector-effect:none;fill:none;fill-opacity:1;stroke:#000000;stroke-width:0.99179345;stroke-linecap:butt;stroke-linejoin:round;stroke-miterlimit:4;stroke-dasharray:none;stroke-dashoffset:0;stroke-opacity:1"
       d="m 115.49813,260.8576 c 8.7353,1.65542 14.20313,-22.13622 -3.58958,-18.33445 -8.31925,0.16572 -11.21232,-13.27282 -7.58902,-26.37448 4.50833,-16.30184 14.15692,-32.23181 5.82184,-44.69905 l 0.6627,-1.21493"
       id="path832"
       inkscape:connector-curvature="0"
       sodipodi:nodetypes="ccscc" />
    <path
       style="opacity:1;vector-effect:none;fill:#d3723f;fill-opacity:1;stroke:#000000;stroke-width:0.99179345;stroke-linecap:butt;stroke-linejoin:miter;stroke-miterlimit:4;stroke-dasharray:none;stroke-dashoffset:0;stroke-opacity:1"
       d="m 109.09212,262.0173 c 10.48889,3.70615 13.62665,-19.60061 2.00197,-16.69945 -0.0957,0.0238 -0.19234,0.0496 -0.29002,0.077"
       id="path828"
       inkscape:connector-curvature="0"
       sodipodi:nodetypes="csc" />
    <path
       sodipodi:nodetypes="csc"
       inkscape:connector-curvature="0"
       id="path1018"
       d="m 109.09212,262.0173 c 10.48889,3.70615 13.62665,-19.60061 2.00197,-16.69945 -0.0957,0.0238 -0.19234,0.0496 -0.29002,0.077"
       style="opacity:1;vector-effect:none;fill:#d3723f;fill-opacity:1;stroke:#000000;stroke-width:0.99179345;stroke-linecap:butt;stroke-linejoin:miter;stroke-miterlimit:4;stroke-dasharray:none;stroke-dashoffset:0;stroke-opacity:1" />
    <path
       style="opacity:1;vector-effect:none;fill:#d3723f;fill-opacity:1;stroke:#000000;stroke-width:0.99179345;stroke-linecap:butt;stroke-linejoin:miter;stroke-miterlimit:4;stroke-dasharray:none;stroke-dashoffset:0;stroke-opacity:1"
       d="m 98.654752,142.78826 c -0.64789,16.29262 -15.06065,18.41998 -4.92577,49.04356 -0.68185,14.31434 -3.84443,29.27519 -3.15632,43.34619 0.12315,1.94106 1.97278,2.82746 2.22833,3.81081 -0.67492,9.25728 -3.98161,16.16363 -0.67452,19.64389 4.51701,4.75353 12.279098,6.91172 15.672518,4.40982 4.69736,-3.46324 2.54968,-16.34146 -4.50541,-12.89842"
       id="path826"
       inkscape:connector-curvature="0"
       sodipodi:nodetypes="ccccssc" />
    <path
       style="opacity:1;vector-effect:none;fill:#d07850;fill-opacity:1;stroke:#000000;stroke-width:0.99179345;stroke-linecap:butt;stroke-linejoin:miter;stroke-miterlimit:4;stroke-dasharray:none;stroke-dashoffset:0;stroke-opacity:1"
       d="m 83.638762,57.581003 c -14.800462,-6.656772 -41.048584,2.70182 -23.507745,22.25816 4.245801,11.30699 13.124025,3.59269 13.575795,0.51041"
       id="path885"
       inkscape:connector-curvature="0"
       sodipodi:nodetypes="ccc" />
    <path
       style="opacity:1;vector-effect:none;fill:#000000;fill-opacity:1;stroke:none;stroke-width:0.16529891;stroke-linecap:butt;stroke-linejoin:round;stroke-miterlimit:4;stroke-dasharray:none;stroke-dashoffset:0;stroke-opacity:1"
       d="m 61.516476,59.648223 c -5.033977,3.50727 1.371877,15.16578 7.482878,15.71127 6.004818,0.53602 13.247278,-9.14644 11.569468,-13.50231 -1.71535,-4.45333 -13.453847,-6.10955 -19.052346,-2.20896 z"
       id="path887"
       inkscape:connector-curvature="0"
       sodipodi:nodetypes="ssss" />
    <path
       style="opacity:1;vector-effect:none;fill:#ffffff;fill-opacity:1;stroke:none;stroke-width:0.16529891;stroke-linecap:butt;stroke-linejoin:miter;stroke-miterlimit:4;stroke-dasharray:none;stroke-dashoffset:0;stroke-opacity:1"
       d="m 70.932202,61.857203 c 1.96232,0.1329 7.48932,2.44617 7.95228,-0.0276 0.82482,-4.05624 -9.878977,-4.0539 -12.232156,-3.58958 -6.101382,1.31829 -8.417118,4.82217 -1.709948,4.55354 1.43477,-0.0575 3.252313,-1.12182 5.989824,-0.93635 z"
       id="path889"
       inkscape:connector-curvature="0"
       sodipodi:nodetypes="sccss" />
    <path
       style="opacity:1;vector-effect:none;fill:none;fill-opacity:1;stroke:#000000;stroke-width:0.99179345;stroke-linecap:butt;stroke-linejoin:miter;stroke-miterlimit:4;stroke-dasharray:none;stroke-dashoffset:0;stroke-opacity:1"
       d="m 70.830552,75.856123 c 9.36184,20.34215 33.125718,8.36527 21.94577,-7.3413 -2.09093,-2.93749 6.92676,-4.67662 2.18676,-9.60614"
       id="path879"
       inkscape:connector-curvature="0"
       sodipodi:nodetypes="csc" />
    <path
       style="opacity:1;vector-effect:none;fill:#f65850;fill-opacity:1;stroke:none;stroke-width:0.16529891;stroke-linecap:butt;stroke-linejoin:miter;stroke-miterlimit:4;stroke-dasharray:none;stroke-dashoffset:0;stroke-opacity:1"
       d="m 86.036012,95.709633 c 2.51903,-7.5979 -5.34105,0.71948 -2.95449,2.9821 0.70822,0.54065 3.1086,0.67674 6.03659,-2.13321 4.62295,-4.43656 2.59989,-11.26697 -3.0821,-0.84889 z"
       id="path923"
       inkscape:connector-curvature="0"
       sodipodi:nodetypes="ccsc" />
    <path
       style="opacity:1;vector-effect:none;fill:none;fill-opacity:1;stroke:#000000;stroke-width:0.99179345;stroke-linecap:butt;stroke-linejoin:miter;stroke-miterlimit:4;stroke-dasharray:none;stroke-dashoffset:0;stroke-opacity:1"
       d="m 59.666464,233.13505 c -9.521311,-0.80221 -9.317498,10.86432 -4.936611,13.72917"
       id="path840"
       inkscape:connector-curvature="0"
       inkscape:transform-center-x="-1.3253808"
       inkscape:transform-center-y="0.2208968"
       sodipodi:nodetypes="cc" />
    <path
       style="opacity:1;vector-effect:none;fill:none;fill-opacity:1;stroke:#000000;stroke-width:0.99179345;stroke-linecap:butt;stroke-linejoin:miter;stroke-miterlimit:4;stroke-dasharray:none;stroke-dashoffset:0;stroke-opacity:1"
       d="m 77.234662,243.96382 c -4.41058,0.85492 -11.061714,-9.63749 -18.275127,-0.078 -6.206323,-0.15605 -7.217003,12.95126 1.913421,12.69107"
       id="path861"
       inkscape:connector-curvature="0"
       sodipodi:nodetypes="ccc" />
  </g>
</svg>
