<?xml version="1.0" encoding="UTF-8" standalone="no"?>
<!-- Created with Inkscape (http://www.inkscape.org/) -->

<svg
   xmlns:dc="http://purl.org/dc/elements/1.1/"
   xmlns:cc="http://creativecommons.org/ns#"
   xmlns:rdf="http://www.w3.org/1999/02/22-rdf-syntax-ns#"
   xmlns:svg="http://www.w3.org/2000/svg"
   xmlns="http://www.w3.org/2000/svg"
   xmlns:sodipodi="http://sodipodi.sourceforge.net/DTD/sodipodi-0.dtd"
   xmlns:inkscape="http://www.inkscape.org/namespaces/inkscape"
   width="297mm"
   height="210mm"
   viewBox="0 0 297 210"
   version="1.1"
   id="SVGRoot"
   inkscape:version="0.92.4 (5da689c313, 2019-01-14)"
   sodipodi:docname="The-Beatles.svg">
  <defs
     id="defs6749" />
  <sodipodi:namedview
     id="base"
     pagecolor="#ffffff"
     bordercolor="#666666"
     borderopacity="1.0"
     inkscape:pageopacity="0.0"
     inkscape:pageshadow="2"
     inkscape:zoom="0.7"
     inkscape:cx="492.31005"
     inkscape:cy="458.83598"
     inkscape:document-units="mm"
     inkscape:current-layer="layer1"
     showgrid="false"
     inkscape:window-width="1920"
     inkscape:window-height="1017"
     inkscape:window-x="-8"
     inkscape:window-y="-8"
     inkscape:window-maximized="1" />
  <metadata
     id="metadata6752">
    <rdf:RDF>
      <cc:Work
         rdf:about="">
        <dc:format>image/svg+xml</dc:format>
        <dc:type
           rdf:resource="http://purl.org/dc/dcmitype/StillImage" />
        <dc:title></dc:title>
      </cc:Work>
    </rdf:RDF>
  </metadata>
  <g
     inkscape:label="Camada 1"
     inkscape:groupmode="layer"
     id="layer1">
    <path
       inkscape:connector-curvature="0"
       style="opacity:1;vector-effect:none;fill:#000000;fill-opacity:1;stroke:none;stroke-width:0.1;stroke-linecap:butt;stroke-linejoin:miter;stroke-miterlimit:4;stroke-dasharray:none;stroke-dashoffset:0;stroke-opacity:1"
       d="m 183.26467,45.966342 c -17.86289,1.992309 -22.26483,22.432453 -14.14952,33.891472 2.84636,5.99785 19.98096,6.604953 25.19019,-2.739369 7.43468,-22.05613 3.34496,-30.139014 -11.04067,-31.152103 z m -7.95145,4.01991 c -7.59624,8.715111 -0.87926,5.250297 -0.63511,7.283276 -0.0213,1.588849 -2.68009,-0.582041 -6.24716,3.274219 -0.0236,-4.98189 4.93582,-9.908625 6.88227,-10.557495 z"
       id="path6536" />
    <path
       style="opacity:1;vector-effect:none;fill:#000000;fill-opacity:1;stroke:none;stroke-width:0.1;stroke-linecap:butt;stroke-linejoin:miter;stroke-miterlimit:4;stroke-dasharray:none;stroke-dashoffset:0;stroke-opacity:1"
       d="m 166.87678,82.49363 c 11.18055,17.046941 -2.00321,2.742301 -2.68382,-0.0855 -1.46722,-8.66635 -3.29641,-13.910889 -2.09051,-19.31744 1.7052,-7.645109 2.4563,-14.28432 1.178,-13.910069 -1.85546,-1.109472 -5.54604,-1.249412 -7.21397,-3.436182 -0.46005,-0.603149 0.56889,-2.235569 -0.18899,-2.267859 -6.90334,4.542249 -4.03947,11.234121 -5.21358,18.662451 -0.85027,5.379461 -0.83933,8.359119 -1.46782,16.0596 -0.72979,7.53178 6.87636,16.18579 7.62634,17.06069 3.48237,3.194021 -8.26502,19.699059 -7.55952,29.482139 4.44401,3.68543 11.42939,1.55446 15.875,1.70089 2.56191,-5.18803 8.41357,-8.45819 12.04438,-18.47495 4.82669,-21.241309 10.91806,-20.70117 0.33629,0.1441 -1.3015,7.63001 -10.99895,16.31894 -10.30181,18.51984 -0.0396,2.23704 6.80032,4.3431 12.23062,3.68413 5.70988,-0.69289 7.31761,2.79497 17.6295,0.19012 1.56473,-11.75585 2.12476,-26.13813 2.12612,-33.970599 5.65483,-1.366771 19.80367,1.41963 24.00148,-6.425591 -0.0183,-2.34214 0.0358,-3.854879 0.0945,-6.661838 -0.63481,-0.519002 -7.72659,-0.262692 -16.16234,0.507158 -4.67738,0.42685 -10.78119,-0.695139 -12.89458,-0.223678 -1.62018,2.225079 -7.76248,7.102959 -0.94494,-0.944941 4.64415,-3.07884 -1.24592,-9.7638 -1.36484,-2.73557 -3.7462,3.574849 -9.01787,3.849439 -13.66296,3.844629 -4.09071,-0.004 -7.28092,-0.695669 -7.00552,-5.751219 -1.33826,0.885521 -2.78851,1.921169 -4.38703,4.34966 z"
       id="path6513"
       inkscape:connector-curvature="0"
       sodipodi:nodetypes="ccscccscccccccsccccscccsccc" />
    <path
       style="opacity:1;vector-effect:none;fill:none;fill-opacity:1;stroke:#000000;stroke-width:0.30000001;stroke-linecap:butt;stroke-linejoin:miter;stroke-miterlimit:4;stroke-dasharray:none;stroke-dashoffset:0;stroke-opacity:1"
       d="m 77.9409,106.97704 c 4.6372,0.65663 6.47638,0.31604 9.38993,0.54315 -0.57133,-1.96993 -2.627,-3.61917 -4.86143,-4.40796 -2.55124,0.53717 -3.41281,2.17278 -4.5285,3.86481 z"
       id="path6343"
       inkscape:connector-curvature="0"
       sodipodi:nodetypes="cccc" />
    <path
       inkscape:connector-curvature="0"
       style="opacity:1;vector-effect:none;fill:#000000;fill-opacity:1;stroke:none;stroke-width:0.1;stroke-linecap:butt;stroke-linejoin:miter;stroke-miterlimit:4;stroke-dasharray:none;stroke-dashoffset:0;stroke-opacity:1"
       d="m 51.50165,84.555719 c -5.29514,0.673259 -5.23924,0.740225 -11.80031,0.492474 0.20458,6.30011 -0.24808,15.266727 -1.213884,21.336167 3.564284,2.78521 5.188534,4.04283 8.296134,5.0214 2.38102,-1.4272 3.91641,-2.82238 8.27443,-6.95927 -0.59331,-7.086795 -2.57438,-13.787503 -3.55637,-19.890771 z m -4.93407,8.54728 c 1.26517,0.06931 1.1211,3.672726 0.2713,3.746026 -1.18318,0.03793 -2.32784,-0.751681 -2.33784,-1.823662 -0.01,-1.07197 0.86553,-1.881362 2.06654,-1.922364 z m 0.45269,11.983761 a 1.3701636,0.9921875 0 0 1 1.37046,0.99219 1.3701636,0.9921875 0 0 1 -1.37046,0.99219 1.3701636,0.9921875 0 0 1 -1.36994,-0.99219 1.3701636,0.9921875 0 0 1 1.36994,-0.99219 z"
       id="path6316" />
    <path
       style="opacity:1;vector-effect:none;fill:#000000;fill-opacity:1;stroke:none;stroke-width:0.5;stroke-linecap:butt;stroke-linejoin:round;stroke-miterlimit:4;stroke-dasharray:none;stroke-dashoffset:0;stroke-opacity:1"
       d="M 28.397904,56.137631 C 28.828321,50.72907 22.79545,45.11267 24.870828,40.41597 37.930736,34.49518 45.44069,35.24474 54.37029,35.44045 c 1.00135,4.77285 0.89341,13.71753 3.08843,18.332291 0.52644,0.488629 2.03489,-0.457561 2.58294,0.007 0.40541,1.81293 1.35447,3.81783 1.29721,5.36496 -1.7014,0.10658 -1.2117,-0.77298 -3.27405,0 0.5352,6.163401 5.23485,23.00658 -1.33774,25.331889 C 48.46474,85.427762 38.729413,86.700622 30.364675,83.43855 29.648356,76.533351 30.379065,67.64683 29.466982,62.552389 27.068,61.753361 22.821,65.13454 22.376231,64.288252 23.466224,61.06439 27.951798,57.31187 28.397904,56.137921 Z"
       id="path6289"
       inkscape:connector-curvature="0"
       sodipodi:nodetypes="cccccccccccc" />
    <path
       style="opacity:1;vector-effect:none;fill:#000000;fill-opacity:1;stroke:none;stroke-width:0.1;stroke-linecap:butt;stroke-linejoin:miter;stroke-miterlimit:4;stroke-dasharray:none;stroke-dashoffset:0;stroke-opacity:1"
       d="m 100.57743,83.114311 c 0.19059,-5.220049 -2.04467,-2.105041 -3.82534,-2.989241 -0.049,-3.797761 -0.92402,-10.53659 -1.26954,-13.163029 -8.31478,-0.839139 1.74347,-19.208162 19.88721,-18.241151 0.62179,-0.16806 0.37507,-1.72516 0.57381,-2.249301 0,0 0.65666,-0.0595 0.91345,0.0254 0.20372,0.5481 -0.11299,2.710481 0.35394,2.651301 10.70708,0.776751 16.17092,12.042841 9.54213,17.145609 -0.35983,4.458502 -1.15821,10.274472 -1.73725,13.563931 -1.22937,1.533782 -3.62194,1.601481 -5.54584,2.00452 -6.17725,1.29407 -12.86047,3.1085 -18.89257,1.25199 z"
       id="path6511"
       inkscape:connector-curvature="0"
       sodipodi:nodetypes="ccccccccccc" />
    <path
       sodipodi:nodetypes="cccc"
       inkscape:connector-curvature="0"
       id="path6324"
       d="m 73.1836,96.30946 c -1.15181,5.69006 -6.05386,16.68624 -15.5637,21.44665 1.11301,-9.54202 -5.02597,-25.89097 -5.05027,-34.62704 6.01749,1.054211 17.44793,9.698791 20.61397,13.18039 z"
       style="opacity:1;vector-effect:none;fill:#000000;fill-opacity:1;stroke:none;stroke-width:0.30000001;stroke-linecap:butt;stroke-linejoin:miter;stroke-miterlimit:4;stroke-dasharray:none;stroke-dashoffset:0;stroke-opacity:1" />
    <path
       style="opacity:1;vector-effect:none;fill:#fffff5;fill-opacity:1;stroke:#000000;stroke-width:0.30000001;stroke-linecap:round;stroke-linejoin:round;stroke-miterlimit:4;stroke-dasharray:none;stroke-dashoffset:0;stroke-opacity:1"
       d="m 37.71268,65.72422 c 2.54157,1.249241 7.93651,-3.874249 8.87433,-4.074699 1.13827,0.0334 2.81094,2.830109 5.01293,4.978129 0.67758,-0.97513 0.56228,-2.173758 0.17516,-3.207059 -0.45727,-1.220521 -1.86559,-1.83103 -2.39241,-2.93505 -0.10017,-0.84115 1.34392,-0.66379 1.88988,-0.33073 3.36067,2.80152 2.53203,5.745079 3.82701,12.284229 3.43228,-12.81455 9.25187,4.032991 0.8977,2.504091 -0.33181,2.864649 -0.31163,7.404489 -0.94494,8.457219 -2.77297,1.667962 -15.14756,3.92362 -19.985494,-0.661459 -0.760643,-2.317739 -0.873193,-4.87794 -0.661459,-7.606771 -9.771101,2.338959 -4.16127,-13.17712 -0.852034,-2.211829 1.473368,0.558181 0.180315,0.206269 1.473368,0.558181 0.386667,-4.096681 -0.48701,-6.967871 0.60234,-9.806821 18.629279,-8.76185 3.051814,1.579121 2.083619,2.052569 z"
       id="path6291"
       inkscape:connector-curvature="0"
       sodipodi:nodetypes="ccccccccccccccc" />
    <path
       style="opacity:1;vector-effect:none;fill:#000000;fill-opacity:1;stroke:none;stroke-width:0.2;stroke-linecap:butt;stroke-linejoin:round;stroke-miterlimit:4;stroke-dasharray:none;stroke-dashoffset:0;stroke-opacity:1"
       d="m 36.909478,69.698711 c 2.146489,-1.834531 5.092272,-2.27167 6.803572,-2.83483 -2.78244,-0.9275 -6.425902,0.679569 -6.803572,2.83483 z"
       id="path6293"
       inkscape:connector-curvature="0"
       sodipodi:nodetypes="ccc" />
    <path
       style="opacity:1;vector-effect:none;fill:#000000;fill-opacity:1;fill-rule:evenodd;stroke:none;stroke-width:0.16500001;stroke-linecap:butt;stroke-linejoin:miter;stroke-miterlimit:4;stroke-dasharray:none;stroke-dashoffset:0;stroke-opacity:1"
       d="m 47.2404,66.52773 c 2.25211,-0.433099 3.41898,-0.18016 4.84426,0.01669 0.005,0.159401 0.0299,0.291611 0.0334,0.51783 -1.28354,-0.157491 -2.79092,-0.440971 -4.87766,0 -0.009,-0.284679 -0.009,-0.291611 0,-0.53453 z"
       id="rect6295"
       inkscape:connector-curvature="0"
       sodipodi:nodetypes="ccccc" />
    <path
       style="opacity:1;vector-effect:none;fill:#000000;fill-opacity:1;stroke:none;stroke-width:0.1;stroke-linecap:butt;stroke-linejoin:miter;stroke-miterlimit:4;stroke-dasharray:none;stroke-dashoffset:0;stroke-opacity:1"
       d="m 42.96409,70.135872 c 0.0703,0.456059 -0.88874,0.166169 -1.16119,0.538588 -0.35531,0.48568 0.0475,1.119442 -0.20857,1.733201 -0.55438,-0.390631 -0.45902,-0.655071 -0.91755,-1.016931 -0.32483,-0.145558 -0.73461,0.0718 -0.98991,-0.130631 -0.1026,-0.512468 -0.0853,-0.925078 -0.0339,-1.293309 1.13457,-5.3e-4 2.0053,-0.01691 3.31116,0.169082 z"
       id="path6298"
       inkscape:connector-curvature="0"
       sodipodi:nodetypes="cccccccc" />
    <path
       style="opacity:1;vector-effect:none;fill:#000000;fill-opacity:1;stroke:none;stroke-width:0.2;stroke-linecap:butt;stroke-linejoin:round;stroke-miterlimit:4;stroke-dasharray:none;stroke-dashoffset:0;stroke-opacity:1"
       d="m 48.36688,70.1948 c 1.75479,-0.324538 2.33496,-0.333989 3.30729,0.0236 -1.33339,0.186942 -0.86675,0.3945 -1.46465,1.15755 -0.63419,-0.0349 0.19397,-0.906971 -1.84264,-1.18115 z"
       id="path6300"
       inkscape:connector-curvature="0"
       sodipodi:nodetypes="cccc" />
    <path
       style="opacity:1;vector-effect:none;fill:#000000;fill-opacity:1;stroke:none;stroke-width:0.2;stroke-linecap:butt;stroke-linejoin:miter;stroke-miterlimit:4;stroke-dasharray:none;stroke-dashoffset:0;stroke-opacity:1"
       d="m 46.68961,70.07669 c 0.60932,1.208071 0.43456,6.35232 0.18899,6.709071 -0.35208,-0.371361 -0.68561,-5.29486 -1.6064,-6.756321 -0.0315,-0.23015 1.40883,-0.116609 1.41741,0.0473 z"
       id="path6302"
       inkscape:connector-curvature="0"
       sodipodi:nodetypes="cccc" />
    <path
       style="opacity:1;vector-effect:none;fill:#000000;fill-opacity:1;stroke:none;stroke-width:0.2;stroke-linecap:butt;stroke-linejoin:miter;stroke-miterlimit:4;stroke-dasharray:none;stroke-dashoffset:0;stroke-opacity:1"
       d="m 44.46748,77.753051 c 1.05346,1.263211 1.36604,1.388049 2.2718,1.503389 0.43225,-0.57491 1.62835,-1.709169 1.06907,-2.372008 -1.06907,2.372008 -2.58379,0.301569 -3.34087,0.868619 z"
       id="path6306"
       inkscape:connector-curvature="0"
       sodipodi:nodetypes="cccc" />
    <path
       style="opacity:1;vector-effect:none;fill:#000000;fill-opacity:1;stroke:none;stroke-width:0.1;stroke-linecap:butt;stroke-linejoin:round;stroke-miterlimit:4;stroke-dasharray:none;stroke-dashoffset:0;stroke-opacity:1"
       d="m 46.22189,80.301621 c -0.84284,0.432131 -0.39135,1.354069 -1.71137,2.137569 1.0214,0.387072 1.85951,-0.0904 2.53177,-0.692489 0.59324,-0.750541 -0.22596,-1.69753 -0.8204,-1.44508 z"
       id="path6308"
       inkscape:connector-curvature="0"
       sodipodi:nodetypes="cccc" />
    <path
       style="opacity:1;vector-effect:none;fill:#000000;fill-opacity:1;stroke:none;stroke-width:0.30000001;stroke-linecap:butt;stroke-linejoin:miter;stroke-miterlimit:4;stroke-dasharray:none;stroke-dashoffset:0;stroke-opacity:1"
       d="m 20.613678,101.50663 c 4.081125,7.01298 11.156543,12.85923 16.036171,15.63527 -0.262559,-5.1953 2.380141,-23.528618 1.837478,-32.406429 -4.50559,0.628989 -14.660363,13.147821 -17.873649,16.771159 z"
       id="path6312"
       inkscape:connector-curvature="0"
       sodipodi:nodetypes="cccc" />
    <path
       style="opacity:1;vector-effect:none;fill:none;fill-opacity:1;stroke:#000000;stroke-width:0.30000001;stroke-linecap:round;stroke-linejoin:round;stroke-miterlimit:4;stroke-dasharray:none;stroke-dashoffset:0;stroke-opacity:1"
       d="m 16.095153,107.56613 c -1.498771,1.17904 -3.249064,2.31456 -4.037609,4.04069 -0.756003,1.6549 -2.1257749,4.57854 -0.519718,5.43341 2.289896,-0.54452 2.697315,-3.37844 4.771951,-3.92151 0.819768,3.79517 4.53112,0.48356 3.401785,-0.66145 0.746544,-0.4761 0.300678,-0.13363 0.952228,-0.65242 -2.43883,-1.94043 -2.77084,-2.52372 -4.568637,-4.23872 z"
       id="path6341"
       inkscape:connector-curvature="0"
       sodipodi:nodetypes="ccccccc" />
    <path
       style="opacity:1;vector-effect:none;fill:#000000;fill-opacity:1;stroke:none;stroke-width:0.1;stroke-linecap:round;stroke-linejoin:round;stroke-miterlimit:4;stroke-dasharray:none;stroke-dashoffset:0;stroke-opacity:1"
       d="m 19.892527,101.93975 c 1.293844,1.57033 3.836486,4.50698 4.396107,5.89782 1.518561,2.20295 -1.813498,1.89877 -3.457801,4.14268 -1.356627,-1.01953 -3.140973,-2.8417 -4.844258,-4.49347 1.537358,-2.18631 2.912786,-4.04376 3.905952,-5.54703 z"
       id="path6314"
       inkscape:connector-curvature="0"
       sodipodi:nodetypes="ccccc" />
    <path
       sodipodi:nodetypes="cccccc"
       inkscape:connector-curvature="0"
       id="path6326"
       d="m 74.44537,96.926231 c -0.65418,2.037069 -1.88698,4.684429 -2.31177,6.122199 0.10372,1.32735 3.03208,1.86062 3.84155,3.69756 0.66339,0.37368 1.061,0.34278 1.96575,0.23105 1.32031,-1.64508 2.12143,-3.09418 4.5285,-3.86481 0.23276,-0.62699 -6.87567,-6.354229 -8.02403,-6.185999 z"
       style="opacity:1;vector-effect:none;fill:#000000;fill-opacity:1;stroke:none;stroke-width:0.1;stroke-linecap:round;stroke-linejoin:round;stroke-miterlimit:4;stroke-dasharray:none;stroke-dashoffset:0;stroke-opacity:1" />
    <path
       style="opacity:1;vector-effect:none;fill:#000000;fill-opacity:1;stroke:none;stroke-width:0.1;stroke-linecap:butt;stroke-linejoin:miter;stroke-miterlimit:4;stroke-dasharray:none;stroke-dashoffset:0;stroke-opacity:1"
       d="m 30.602875,131.374 c -1.1431,-1.52949 -0.985046,-11.31926 0.51497,-16.09014 2.425193,1.31946 4.390295,3.74481 6.834944,2.32576 0.528495,-1.84726 -1.230759,-7.19067 0.487421,-10.23307 2.61535,1.48859 4.33396,4.45726 8.39118,5.37022 4.26094,-1.2859 4.38917,-5.46521 8.22663,-6.74113 1.84303,3.1206 1.09183,8.79085 1.38071,12.45918 1.6766,1.04674 5.22953,-1.05458 6.85742,-2.63635 1.23923,2.73002 2.47611,7.47896 1.65086,10.53422 -3.80986,7.08403 -24.80723,9.93638 -34.344135,5.01131 z"
       id="path6328"
       inkscape:connector-curvature="0"
       sodipodi:nodetypes="cccccccccc" />
    <path
       inkscape:connector-curvature="0"
       style="opacity:1;vector-effect:none;fill:#000000;fill-opacity:1;stroke:none;stroke-width:0.1;stroke-linecap:butt;stroke-linejoin:miter;stroke-miterlimit:4;stroke-dasharray:none;stroke-dashoffset:0;stroke-opacity:1"
       d="m 39.55664,133.98009 c -0.36998,3.75141 -5.3e-4,9.47387 -0.0672,14.43219 -0.0946,1.044 -3.453089,-1.26321 -4.446242,-1.13637 1.094896,7.51841 4.973062,10.62479 -0.531233,17.17003 1.012319,3.25567 8.239525,4.73093 10.823115,0.40047 -4.25028,-7.02407 0.39978,-10.05451 0.44751,-17.99062 -0.18188,-0.57629 -2.04245,2.23039 -3.0856,1.62367 -0.2467,-4.84004 0.68312,-10.04994 0.86869,-14.33245 -1.02433,0.16446 -2.32534,0.186 -4.00906,-0.16692 z M 40.6651,162.275 a 2.7747653,2.7607178 0 0 1 2.68097,2.05309 H 37.986711 A 2.7747653,2.7607178 0 0 1 40.6651,162.275 Z"
       id="path6330" />
    <path
       sodipodi:nodetypes="cccscccccccc"
       inkscape:connector-curvature="0"
       id="path6338"
       d="m 57.23869,132.53184 c -0.18556,4.28252 0.16034,8.92533 1.11575,13.52913 1.04315,0.60671 1.58118,-1.5385 1.76306,-0.96221 -0.0306,5.08589 -0.86601,9.4772 -0.0668,12.55785 1.27086,4.89886 3.67825,2.7051 4.93453,3.42513 3.07794,5.1651 -9.22111,4.67088 -10.5007,2.71813 -0.52735,-0.881 -0.55213,-2.79594 0.72884,-4.69509 1.33625,-1.39881 -2.81402,-5.87853 -3.39911,-12.0963 0,0 2.34741,1.71296 2.442,0.66896 0.0666,-4.95833 -2.10527,-10.14381 -1.73529,-13.89523 1.68373,0.35292 3.69342,-0.66069 4.71775,-1.25037 z"
       style="opacity:1;vector-effect:none;fill:#000000;fill-opacity:1;stroke:none;stroke-width:0.1;stroke-linecap:butt;stroke-linejoin:miter;stroke-miterlimit:4;stroke-dasharray:none;stroke-dashoffset:0;stroke-opacity:1" />
    <path
       style="opacity:1;vector-effect:none;fill:#000000;fill-opacity:1;stroke:none;stroke-width:0.1;stroke-linecap:butt;stroke-linejoin:miter;stroke-miterlimit:4;stroke-dasharray:none;stroke-dashoffset:0;stroke-opacity:1"
       d="m 139.53969,69.930772 c -0.26642,0.0013 -0.55375,0.03137 -0.86403,0.09405 -4.60662,4.464582 -12.29171,10.410381 -17.85291,13.468684 -6.79276,3.735578 -11.53812,5.076727 -18.30819,0.754737 -5.84999,-2.90213 -10.44214,-7.096519 -20.32125,-12.368239 -1.50209,1.277932 -3.04533,2.351625 -4.07003,4.169257 5.03288,6.414108 10.32743,9.170283 12.4566,14.733984 -0.57138,5.237348 -0.39139,12.348095 -0.13177,16.106505 -3.90751,13.38752 -11.93026,16.25598 -7.2223,19.61948 6.89485,3.15236 12.13713,5.15098 19.79724,9.9999 6.25564,1.12028 6.13682,-13.45436 8.94416,-14.34848 0.68796,3.25082 -1.63699,4.6433 -1.3379,11.24687 0.75291,2.10368 2.4266,4.26078 4.63021,4.6302 16.44117,-10.22932 20.19099,-8.68473 18.09398,-13.60175 -0.25152,-1.41614 -2.9731,-6.51123 -4.87308,-13.41365 -0.0204,-4.16985 -0.0926,-8.01696 -0.31472,-13.204363 0.67437,-9.47915 15.92579,-22.359246 15.44196,-23.894666 -0.85476,-1.358088 -1.49255,-4.005651 -4.06797,-3.992519 z M 100.0507,83.923714 c -1.12858,2.406155 0.49262,3.175296 0.49262,3.175296 -2.76327,0.02946 -1.53741,-2.723004 -0.49262,-3.175296 z m 21.26751,0.661239 c 0.31781,1.51879 0.12068,3.582805 -2.21736,4.143933 0.69187,-1.34194 2.23419,-2.447642 2.21736,-4.143933 z m -0.89725,6.175555 c -0.56338,3.079313 -2.41006,8.525533 -4.56303,10.920782 1.38738,-3.306175 2.54089,-7.480974 4.56303,-10.920782 z m -9.89914,1.657262 c 0.72971,0.236241 1.03789,0.475054 1.48673,1.111044 1e-5,0.848601 -0.85107,2.292882 -1.58078,2.292884 -0.72971,0 -1.48674,-1.37297 -1.48673,-2.221571 0.56696,-1.013971 0.85107,-1.064236 1.58078,-1.182357 z m -9.2506,0.194305 c 0.29176,3.199133 3.44914,4.975072 1.78129,7.320481 0.0347,-2.343777 -3.6045,-5.197676 -1.78129,-7.320481 z m 8.91987,11.711945 c 0.72969,-7e-5 1.32128,0.68776 1.32137,1.53634 1.6e-4,0.84878 -0.5915,1.53692 -1.32137,1.53686 -0.72966,-2.6e-4 -1.32101,-0.68831 -1.32085,-1.53686 9e-5,-0.84835 0.59136,-1.53608 1.32085,-1.53634 z m -0.16691,10.57351 c 0.8456,-1.6e-4 1.53116,0.84899 1.53117,1.89653 -1e-5,1.04754 -0.68557,1.89669 -1.53117,1.89652 -0.8454,-1.9e-4 -1.53065,-0.84923 -1.53066,-1.89652 1e-5,-1.04729 0.68526,-1.89634 1.53066,-1.89653 z"
       id="path6441"
       inkscape:connector-curvature="0"
       sodipodi:nodetypes="ccscccccccccccccccccccccccccccccccccccccccccc" />
    <path
       id="path6452"
       d="m 97.50192,132.94065 c -0.36998,3.75142 0.88089,6.06619 0.81431,11.02451 -0.0946,1.04399 -4.18809,0.40721 -5.18124,-0.53501 0.60547,6.11778 4.01814,10.95412 3.6008,15.07437 -0.32455,3.20417 -1.72046,3.68632 -2.19433,5.70379 1.01232,3.25568 6.76954,3.92912 9.35313,-0.40133 -1.77803,-6.82362 0.53342,-14.46446 0.58115,-22.40058 0.007,-1.85195 -0.83499,2.90333 -2.49235,2.24936 -0.90816,-4.55656 -0.79972,-4.37579 -0.18893,-8.61106 -2.41292,-1.38586 -2.09304,-0.69866 -4.29254,-2.10405 z m 2.12358,29.23036 c 0.92405,0.16754 0.98873,0.27519 1.61189,1.15106 l -3.85597,0.0668 c 0.52269,-0.90834 0.9869,-1.21621 2.24408,-1.21788 z"
       style="opacity:1;vector-effect:none;fill:#000000;fill-opacity:1;stroke:none;stroke-width:0.1;stroke-linecap:butt;stroke-linejoin:miter;stroke-miterlimit:4;stroke-dasharray:none;stroke-dashoffset:0;stroke-opacity:1"
       inkscape:connector-curvature="0"
       sodipodi:nodetypes="cccscccccccccc" />
    <path
       inkscape:connector-curvature="0"
       style="opacity:1;vector-effect:none;fill:#000000;fill-opacity:1;stroke:none;stroke-width:0.1;stroke-linecap:butt;stroke-linejoin:miter;stroke-miterlimit:4;stroke-dasharray:none;stroke-dashoffset:0;stroke-opacity:1"
       d="m 111.39255,132.60992 c -0.36998,3.75142 -0.19769,4.15615 -0.26427,9.11448 -0.0946,1.044 -0.84721,-0.86231 -1.84036,-0.73546 -0.97645,8.38703 1.09765,15.83654 -2.73621,21.84723 1.01232,3.25568 6.66555,4.7343 9.24914,0.40383 -6.18741,-8.39422 1.91168,-12.03888 1.95942,-19.97499 -0.18188,-0.57629 -1.33374,1.61618 -2.37689,1.00946 -0.24671,-4.84004 -0.49806,-7.12062 -0.31249,-11.40314 -1.50528,0.12318 -2.52295,-0.0268 -3.67834,-0.26141 z m -0.30895,29.49972 c 1.25814,0.2131 1.79152,0.67777 1.94865,1.74598 l -4.34356,-0.82682 c 0.67659,-0.92554 1.13773,-0.91751 2.39491,-0.91916 z"
       id="path6454"
       sodipodi:nodetypes="ccccccccccccc" />
    <path
       id="path6456"
       d="m 164.40558,126.72583 c -0.31267,4.32175 -3.06623,6.97869 -2.94382,10.75583 -1.03952,2.60315 -4.913,-0.21232 -5.90615,-0.0855 0.56579,3.88516 -2.35145,4.52529 -1.92569,9.17094 0.39358,4.29461 -4.16416,11.25059 -6.82409,14.41355 -0.12357,4.52521 10.17723,6.06729 13.76308,2.0041 0.0843,-4.45505 -2.96766,-6.78513 -0.95547,-9.29799 3.29379,-4.11338 6.08074,-8.74484 6.68156,-13.9044 -0.18188,-0.57628 -1.70836,0.55997 -2.61788,-0.64811 -0.68482,-5.89049 6.15376,-8.95177 0.72846,-12.40845 z m -11.2539,33.01935 c 1.25814,5.3e-4 2.42531,-0.15911 2.74779,1.05084 h -5.35936 c 0.32224,-1.20902 1.3544,-1.04917 2.61157,-1.05084 z"
       style="opacity:1;vector-effect:none;fill:#000000;fill-opacity:1;stroke:none;stroke-width:0.1;stroke-linecap:butt;stroke-linejoin:miter;stroke-miterlimit:4;stroke-dasharray:none;stroke-dashoffset:0;stroke-opacity:1"
       inkscape:connector-curvature="0"
       sodipodi:nodetypes="cccsccscccccccc" />
    <path
       style="opacity:1;vector-effect:none;fill:#000000;fill-opacity:1;stroke:none;stroke-width:0.1;stroke-linecap:butt;stroke-linejoin:miter;stroke-miterlimit:4;stroke-dasharray:none;stroke-dashoffset:0;stroke-opacity:1"
       d="m 191.7122,131.01975 c -1.22305,2.0092 -1.62955,5.52677 -2.18897,9.61365 l 1.9795,0.16046 c -1.15519,4.95305 -2.0523,12.21044 -3.78875,14.87762 -1.97074,3.02702 4.64216,5.01109 6.41668,6.13299 6.34724,3.6865 -6.90499,4.43444 -11.64227,4.04234 -4.96495,-0.41026 -3.20555,-6.2031 -1.13519,-7.47106 1.37879,-1.16868 0.11562,-11.26916 0.92085,-17.46227 l 4.17057,0.0115 c 1.77628,-4.91518 -0.0448,-6.29497 1.90205,-10.06052 1.57182,0.51834 1.8173,0.62472 3.36553,0.15524 z"
       id="path6460"
       inkscape:connector-curvature="0"
       sodipodi:nodetypes="cccscccccccc" />
    <path
       inkscape:connector-curvature="0"
       style="opacity:1;vector-effect:none;fill:#000013;fill-opacity:1;stroke:none;stroke-width:0.1;stroke-linecap:butt;stroke-linejoin:miter;stroke-miterlimit:4;stroke-dasharray:none;stroke-dashoffset:0;stroke-opacity:1"
       d="m 248.48068,145.64903 c -0.0946,1.044 -3.82829,-1.52378 -4.82144,-1.39694 0.52206,3.58484 4.21458,11.08401 3.32818,14.10135 -0.89184,3.03582 -1.65206,2.54413 -1.87503,4.67508 1.01232,3.25567 9.56244,4.11673 12.14603,-0.21373 -4.25028,-7.02407 -1.86808,-11.99164 -1.82034,-19.92777 -0.18188,-0.57627 -2.89823,2.85944 -3.94137,2.25271 0.41475,-5.12351 -0.53999,-19.93938 3.61433,-25.07234 -8.35233,9.22917 -6.35025,12.31475 -6.63036,25.58164 z m 2.87933,13.79115 c 1.25814,5.2e-4 1.69704,-0.007 2.01953,1.20264 l -3.94196,0.18898 c 0.32224,-1.20901 0.66525,-1.38997 1.92243,-1.39162 z"
       id="path6462"
       sodipodi:nodetypes="ccscccccccccc" />
    <path
       id="path6464"
       d="m 268.09389,132.90282 c -0.36998,3.75141 0.11846,6.44204 0.0519,11.40037 -0.0946,1.044 -3.5638,-0.92914 -4.55695,-0.8023 0.84261,5.33994 1.36696,13.54167 1.36696,13.54167 -1.98954,-0.18216 -1.36936,4.38246 -1.96501,6.50151 1.01232,3.25568 8.23952,2.52597 9.88767,-0.60178 0,0 0.86372,-4.97186 -1.94454,-5.90445 0.15028,-3.46323 3.15837,-8.65711 3.19387,-14.55842 -0.18188,-0.57629 -2.84427,2.43084 -3.88741,1.82413 -0.24671,-4.84004 -0.44443,-7.31042 -0.25883,-11.59294 -1.21934,0.14801 -0.42363,0.0512 -1.88762,0.19221 z m 0.315,25.93126 c 1.25814,5.3e-4 2.02441,0.57587 2.3469,1.78582 l -4.6912,0.26727 c 0.32224,-1.20903 1.08712,-2.05144 2.3443,-2.05309 z"
       style="opacity:1;vector-effect:none;fill:#000013;fill-opacity:1;stroke:none;stroke-width:0.1;stroke-linecap:butt;stroke-linejoin:miter;stroke-miterlimit:4;stroke-dasharray:none;stroke-dashoffset:0;stroke-opacity:1"
       inkscape:connector-curvature="0"
       sodipodi:nodetypes="ccccccccccccccc" />
    <path
       sodipodi:nodetypes="ccccsccccsccccc"
       inkscape:connector-curvature="0"
       id="path6492"
       d="m 106.12924,63.358159 c 2.54158,1.249241 8.77174,-3.840838 8.97456,-6.045808 1.11832,2.57512 2.75785,5.563161 4.76895,5.62198 1.07158,3.02174 0.13629,4.163669 0.26495,12.14799 1.74811,-0.384199 2.72824,-0.37845 2.74582,-1.314741 0.2346,-12.490439 7.32794,4.925012 -2.27335,2.92114 -0.33181,2.864651 0.25533,5.845341 -0.37798,6.898071 -6.78896,4.64452 -14.81683,4.112599 -19.65476,-0.47248 0.1843,-2.506721 -0.0228,-3.838501 0.18899,-6.567331 -4.63141,1.274051 -5.20504,-3.304638 -4.44084,-5.292008 1.56107,-4.059701 2.41516,0.665818 2.21864,1.898999 0.42535,-0.147849 2.65413,0.341119 2.4845,1.96619 0.58762,0.0588 1.34548,-0.0655 1.34548,-0.0655 0.38667,-4.096681 -0.21974,-7.836501 0.4353,-10.84249 1.09802,-1.856901 13.8497,-8.90131 3.31974,-0.854012 z"
       style="opacity:1;vector-effect:none;fill:#ffffff;fill-opacity:1;stroke:#000000;stroke-width:0.30000001;stroke-linecap:round;stroke-linejoin:round;stroke-miterlimit:4;stroke-dasharray:none;stroke-dashoffset:0;stroke-opacity:1" />
    <path
       sodipodi:nodetypes="cccccc"
       inkscape:connector-curvature="0"
       id="path6494"
       d="m 112.92189,65.592291 c 2.58284,-0.716579 5.75771,0.174191 7.20661,0.772649 0.005,0.159401 -0.1118,0.976691 -0.10833,1.20291 -1.11818,-1.31504 -4.70443,-1.527649 -7.09828,-1.44103 -0.009,-0.284678 -0.009,-0.29161 0,-0.534529 z"
       style="opacity:1;vector-effect:none;fill:#000000;fill-opacity:1;fill-rule:evenodd;stroke:none;stroke-width:0.16500001;stroke-linecap:butt;stroke-linejoin:miter;stroke-miterlimit:4;stroke-dasharray:none;stroke-dashoffset:0;stroke-opacity:1" />
    <path
       style="opacity:1;vector-effect:none;fill:#000000;fill-opacity:1;fill-rule:evenodd;stroke:none;stroke-width:0.16500001;stroke-linecap:butt;stroke-linejoin:miter;stroke-miterlimit:4;stroke-dasharray:none;stroke-dashoffset:0;stroke-opacity:1"
       d="m 104.33988,66.81379 c -0.005,0.159401 0.0882,0.71683 0.0847,0.943051 1.56703,-1.29142 3.3956,-1.810199 5.68087,-1.464661 0.009,-0.284679 -0.004,-0.415208 -0.0136,-0.65813 -2.34606,-0.50645 -4.15002,0.28594 -5.75199,1.17974 z"
       id="path6496"
       inkscape:connector-curvature="0"
       sodipodi:nodetypes="ccccc" />
    <path
       style="opacity:1;vector-effect:none;fill:none;fill-opacity:1;stroke:#000000;stroke-width:0.30000001;stroke-linecap:butt;stroke-linejoin:miter;stroke-miterlimit:4;stroke-dasharray:none;stroke-dashoffset:0;stroke-opacity:0.9748744"
       d="m 110.71692,78.120549 c 3.45169,0.915782 2.48579,-2.84589 2.20497,-11.993729"
       id="path6498"
       inkscape:connector-curvature="0"
       sodipodi:nodetypes="cc" />
    <path
       style="opacity:1;vector-effect:none;fill:#000000;fill-opacity:1;fill-rule:evenodd;stroke:none;stroke-width:0.1;stroke-linecap:butt;stroke-linejoin:miter;stroke-miterlimit:4;stroke-dasharray:none;stroke-dashoffset:0;stroke-opacity:1"
       d="m 108.48872,70.761781 c 0,0.50883 -0.26215,0.687458 -0.77098,0.687458 -0.50883,0 -0.75427,-0.145219 -0.75427,-0.65405 0,-0.508828 0.24544,-0.720867 0.75427,-0.720867 0.50883,0 0.77098,0.178628 0.77098,0.687459 z"
       id="path6500"
       inkscape:connector-curvature="0"
       sodipodi:nodetypes="cscsc" />
    <path
       sodipodi:nodetypes="cscccc"
       inkscape:connector-curvature="0"
       id="path6503"
       d="m 117.12228,70.165711 c 0.0714,0.0874 0.18067,0.833131 -0.15743,1.21103 -0.25088,0.280429 -0.98292,0.29001 -1.1347,0.23095 -0.11315,-0.132969 -0.0725,-1.431179 0.0236,-1.58753 0.19981,-0.0668 1.06786,0.0274 1.26851,0.14555 z"
       style="opacity:1;vector-effect:none;fill:#000000;fill-opacity:1;fill-rule:evenodd;stroke:none;stroke-width:0.1;stroke-linecap:butt;stroke-linejoin:miter;stroke-miterlimit:4;stroke-dasharray:none;stroke-dashoffset:0;stroke-opacity:1" />
    <path
       sodipodi:nodetypes="cccccc"
       inkscape:connector-curvature="0"
       id="path6505"
       d="m 108.73386,81.136101 c -0.005,-0.159401 0.0882,-0.71683 0.0847,-0.943049 1.21267,2.4726 3.84444,2.259049 4.7123,0.0709 0.009,0.284681 -0.005,0.41521 -0.0136,0.65813 -0.71604,2.75069 -3.77204,2.548882 -4.78342,0.21405 z"
       style="opacity:1;vector-effect:none;fill:#000000;fill-opacity:1;fill-rule:evenodd;stroke:none;stroke-width:0.16500001;stroke-linecap:butt;stroke-linejoin:miter;stroke-miterlimit:4;stroke-dasharray:none;stroke-dashoffset:0;stroke-opacity:1" />
    <path
       sodipodi:nodetypes="cccccc"
       inkscape:connector-curvature="0"
       id="path6507"
       d="M 82.19331,71.88 C 81.15677,70.24067 79.2966,69.151892 77.84242,69.555892 76.45927,66.85243 71.7112,64.26568 69.91143,65.398952 c -0.53807,1.758518 4.87913,3.387738 5.87768,5.198258 -2.27612,0.460531 1.17174,4.767032 2.33417,5.452052 1.95478,-2.427341 2.34446,-2.38161 4.07003,-4.169262 z"
       style="opacity:1;vector-effect:none;fill:none;fill-opacity:1;stroke:#000000;stroke-width:0.30000001;stroke-linecap:round;stroke-linejoin:round;stroke-miterlimit:4;stroke-dasharray:none;stroke-dashoffset:0;stroke-opacity:1" />
    <path
       style="opacity:1;vector-effect:none;fill:none;fill-opacity:1;stroke:#000000;stroke-width:0.30000001;stroke-linecap:round;stroke-linejoin:round;stroke-miterlimit:4;stroke-dasharray:none;stroke-dashoffset:0;stroke-opacity:1"
       d="m 140.62547,70.29827 c 1.03655,-1.639329 1.80887,-3.272351 3.26305,-2.86835 2.42258,-2.797951 3.67437,-3.589319 5.37965,-3.16475 0.53806,1.758521 -2.89476,2.206561 -3.89331,4.017081 2.27613,0.460529 -0.60478,4.956019 -1.7672,5.641038 -1.95478,-2.427337 -1.25662,-1.837369 -2.98219,-3.625019 z"
       id="path6509"
       inkscape:connector-curvature="0"
       sodipodi:nodetypes="cccccc" />
    <path
       style="opacity:1;vector-effect:none;fill:#000000;fill-opacity:1;stroke:none;stroke-width:0.1;stroke-linecap:butt;stroke-linejoin:miter;stroke-miterlimit:4;stroke-dasharray:none;stroke-dashoffset:0;stroke-opacity:1"
       d="m 166.64307,134.58123 c 4.23131,0.54234 11.7504,0.86403 14.69796,-0.13113 4.02929,-1.36038 5.60387,-1.02344 7.61904,-1.40567 -2.15843,-0.8548 -5.46121,-0.85047 -9.97315,-0.78277 -2.60728,0.0391 -8.02981,-1.11328 -10.90728,-2.85877 -1.23062,1.71316 -1.24623,3.2708 -1.43657,5.17834 z"
       id="path6515"
       inkscape:connector-curvature="0"
       sodipodi:nodetypes="cscscc" />
    <path
       style="opacity:1;vector-effect:none;fill:#000000;fill-opacity:1;stroke:none;stroke-width:0.1;stroke-linecap:butt;stroke-linejoin:miter;stroke-miterlimit:4;stroke-dasharray:none;stroke-dashoffset:0;stroke-opacity:1"
       d="m 163.03493,127.89949 c -0.41452,2.1755 -1.71342,2.81076 -2.00452,5.67948 -4.60989,2.07924 -8.31095,-2.61263 -11.42577,-7.41673 5.36982,3.28405 11.10943,2.71028 13.43029,1.73725 z"
       id="path6517"
       inkscape:connector-curvature="0"
       sodipodi:nodetypes="cccc" />
    <path
       style="opacity:1;vector-effect:none;fill:#fffff6;fill-opacity:1;stroke:#000000;stroke-width:0.30000001;stroke-linecap:round;stroke-linejoin:round;stroke-miterlimit:4;stroke-dasharray:none;stroke-dashoffset:0;stroke-opacity:1"
       d="m 181.60452,63.88604 c 3.3768,-0.220739 7.20153,-2.237219 8.10594,-3.606969 0.78423,4.14532 0.38583,2.15547 2.12966,1.34566 -0.9537,2.94263 -1.7973,8.893839 -0.79526,8.275331 1.82788,-1.12826 -0.34854,4.519879 -1.41204,6.7124 2.14066,0.179908 3.08567,-1.038972 3.42316,-1.981462 2.63548,-7.359978 3.75477,2.506641 -1.51411,3.019911 1.49449,3.765381 -5.46818,6.111119 -9.93582,6.326471 -5.79408,0.177549 -10.87868,0.0917 -10.34224,-5.833441 -3.32847,0.739511 -4.87095,-2.636469 -4.10676,-4.62384 2.35033,-4.06242 2.876,3.657921 4.04411,3.56583 0.37487,-4.098639 0.0787,-10.888189 1.20369,-13.815859 3.18232,-0.969931 7.53463,-6.511051 4.21798,0.220498 8.39204,-3.763279 11.90598,-4.896269 4.98169,0.39547 z"
       id="path6519"
       inkscape:connector-curvature="0"
       sodipodi:nodetypes="cccscscccccccc" />
    <path
       style="opacity:1;vector-effect:none;fill:#000000;fill-opacity:1;fill-rule:evenodd;stroke:none;stroke-width:0.16500001;stroke-linecap:butt;stroke-linejoin:miter;stroke-miterlimit:4;stroke-dasharray:none;stroke-dashoffset:0;stroke-opacity:1"
       d="m 176.93493,78.017801 c -0.005,-0.159401 0.84416,-0.102621 0.84066,-0.32884 1.02369,2.543461 5.28547,5.023001 7.14553,0.874099 0.009,0.284681 0.7047,0.226221 0.6951,0.46914 -3.35964,5.834071 -8.0127,1.307831 -8.68129,-1.014399 z"
       id="path6521"
       inkscape:connector-curvature="0"
       sodipodi:nodetypes="ccccc" />
    <path
       sodipodi:nodetypes="cscsc"
       inkscape:connector-curvature="0"
       id="path6523"
       d="m 187.755,70.883671 c -0.36682,0.01069 -0.58464,-0.44178 -0.59536,-0.80859 -0.0107,-0.366821 0.17232,-0.279551 0.53913,-0.290269 0.36681,-0.01069 0.62508,-0.13893 0.6358,0.227888 0.0107,0.366811 -0.21276,0.86024 -0.57957,0.870971 z"
       style="opacity:1;vector-effect:none;fill:#000000;fill-opacity:1;fill-rule:evenodd;stroke:none;stroke-width:0.07212108;stroke-linecap:butt;stroke-linejoin:miter;stroke-miterlimit:4;stroke-dasharray:none;stroke-dashoffset:0;stroke-opacity:1" />
    <path
       style="opacity:1;vector-effect:none;fill:#000000;fill-opacity:1;fill-rule:evenodd;stroke:none;stroke-width:0.14344607;stroke-linecap:butt;stroke-linejoin:miter;stroke-miterlimit:4;stroke-dasharray:none;stroke-dashoffset:0;stroke-opacity:1"
       d="m 177.07477,70.23173 c -0.0184,0.11012 -0.0311,0.228381 -0.0311,0.364792 0,0.805907 0.31917,1.035608 0.98019,1.035608 0.66104,0 1.00126,-0.282609 1.00126,-1.088559 0,-0.115221 -0.008,-0.21731 -0.0225,-0.311841 z"
       id="path6525"
       inkscape:connector-curvature="0" />
    <path
       sodipodi:nodetypes="ccccc"
       inkscape:connector-curvature="0"
       id="path6530"
       d="m 173.66736,68.035252 c -0.005,0.159398 0.34652,1.433489 0.34302,1.659707 1.39998,-2.377199 3.251,-2.629119 5.53627,-2.283579 0.009,-0.284678 0.0284,-0.498729 0.0198,-0.741651 -3.82342,-0.858297 -4.28834,0.390531 -5.89909,1.365523 z"
       style="opacity:1;vector-effect:none;fill:#000000;fill-opacity:1;fill-rule:evenodd;stroke:none;stroke-width:0.16500001;stroke-linecap:butt;stroke-linejoin:miter;stroke-miterlimit:4;stroke-dasharray:none;stroke-dashoffset:0;stroke-opacity:1" />
    <path
       sodipodi:nodetypes="ccccc"
       inkscape:connector-curvature="0"
       id="path6532"
       d="m 184.95735,66.41605 c -0.0428,0.152471 -0.0948,0.714801 -0.1524,0.93214 1.69747,-0.833991 3.44004,-0.85375 5.37826,0.0805 0.0765,-0.272298 0.0957,-0.401918 0.14661,-0.638548 -1.9532,-1.105461 -3.73995,-0.815231 -5.37248,-0.37407 z"
       style="opacity:1;vector-effect:none;fill:#000000;fill-opacity:1;fill-rule:evenodd;stroke:none;stroke-width:0.15799029;stroke-linecap:butt;stroke-linejoin:miter;stroke-miterlimit:4;stroke-dasharray:none;stroke-dashoffset:0;stroke-opacity:1" />
    <path
       sodipodi:nodetypes="cc"
       inkscape:connector-curvature="0"
       id="path6534"
       d="m 183.14333,72.4785 c 2.93198,0.471969 0.80853,-0.46178 1.09468,-4.846838"
       style="opacity:1;vector-effect:none;fill:none;fill-opacity:1;stroke:#000000;stroke-width:0.38600001;stroke-linecap:butt;stroke-linejoin:miter;stroke-miterlimit:4;stroke-dasharray:none;stroke-dashoffset:0;stroke-opacity:0.9748744" />
    <path
       sodipodi:nodetypes="ccccccc"
       inkscape:connector-curvature="0"
       id="path6542"
       d="m 155.82115,45.861009 c 0.0503,-1.906279 1.49824,-5.476559 2.48242,-6.549479 -0.0929,-1.80745 0.465,-4.48702 2.81866,-3.44977 1.14376,0.76794 -0.44659,4.20659 0.35714,6.19482 2.37581,-0.29573 2.74986,4.760789 1.4877,4.869759 0.0641,0.883121 -0.29759,1.350981 -0.32446,2.183411 -3.01301,-0.79682 -5.50608,-1.413951 -6.82146,-3.248741 z"
       style="opacity:1;vector-effect:none;fill:none;fill-opacity:1;stroke:#000000;stroke-width:0.30000001;stroke-linecap:round;stroke-linejoin:round;stroke-miterlimit:4;stroke-dasharray:none;stroke-dashoffset:0;stroke-opacity:1" />
    <path
       sodipodi:nodetypes="cccccc"
       inkscape:connector-curvature="0"
       id="path6544"
       d="m 223.29899,83.447562 c 2.6344,0.100708 6.53406,-0.985152 6.82284,0.762759 -0.27671,1.272659 -2.21306,0.51503 -4.16686,0.678421 1.43122,2.281788 -1.21182,4.935328 -2.75048,5.220658 -0.25467,-4.650349 0.1754,-0.475959 -0.62635,-0.250439 -0.14929,-3.113021 0.32685,-3.5828 0.72085,-6.411399 z"
       style="opacity:1;vector-effect:none;fill:none;fill-opacity:1;stroke:#000000;stroke-width:0.30000001;stroke-linecap:round;stroke-linejoin:round;stroke-miterlimit:4;stroke-dasharray:none;stroke-dashoffset:0;stroke-opacity:1" />
    <path
       inkscape:connector-curvature="0"
       style="opacity:1;vector-effect:none;fill:#000500;fill-opacity:1;stroke:none;stroke-width:0.1;stroke-linecap:butt;stroke-linejoin:miter;stroke-miterlimit:4;stroke-dasharray:none;stroke-dashoffset:0;stroke-opacity:1"
       d="m 242.43418,73.903655 c -5.37176,5.692859 -13.90668,11.560476 -17.01498,29.020965 -0.27625,1.55185 -0.76825,3.59689 -2.58589,4.55528 2.13295,1.52358 4.09104,3.27543 4.66018,5.98826 1.9607,9.34575 5.27411,18.80871 14.27923,18.45469 7.27691,-0.28608 13.22101,-16.64593 16.15819,-17.38653 0.74108,3.60317 -4.44937,7.71754 -4.42608,16.11426 7.88998,6.64681 31.33182,0.55157 30.22295,-6.09834 -1.76962,-15.55388 -5.94037,-26.852016 -12.9284,-35.447445 -1.28235,4.300361 -13.23015,4.306242 -15.48898,-0.350366 -2.30324,2.29762 -5.50444,3.457525 -7.16494,1.600935 -2.13224,-4.755901 -5.07013,-11.450129 -5.71128,-16.451709 z m 20.13779,20.049424 c 0.19564,-0.0089 0.40358,0.01233 0.62219,0.06976 0.46174,0.824738 0.56556,1.841125 0.2005,2.672705 -0.9507,0.381569 -1.76365,0.113871 -2.60604,-0.199988 -0.35551,-0.94116 0.41387,-2.480268 1.78335,-2.542479 z m -2.37711,12.518611 c 0.52666,0.004 1.0647,0.21997 1.48259,0.75396 -0.13144,0.93601 -0.66395,1.8078 -1.45779,2.24896 -0.98778,-0.27148 -1.47261,-0.97672 -1.95337,-1.73633 0.20462,-0.68887 1.05079,-1.27287 1.92857,-1.26659 z"
       id="path6546" />
    <path
       style="opacity:1;vector-effect:none;fill:#000013;fill-opacity:1;stroke:none;stroke-width:0.1;stroke-linecap:butt;stroke-linejoin:miter;stroke-miterlimit:4;stroke-dasharray:none;stroke-dashoffset:0;stroke-opacity:1"
       d="m 232.72546,83.399122 c 2.93964,-4.600051 6.87383,-8.540242 9.54153,-10.330651 -0.0833,-2.88476 0.0486,-4.840221 -0.0535,-7.309141 -1.97398,-0.625819 -6.4973,-1.580348 -9.55489,-0.0668 -0.20459,3.966339 -0.0659,12.320939 0.0668,17.706591 z"
       id="path6548"
       inkscape:connector-curvature="0"
       sodipodi:nodetypes="cccccc" />
    <path
       style="opacity:1;vector-effect:none;fill:none;fill-opacity:1;stroke:#000000;stroke-width:0.27868223;stroke-linecap:round;stroke-linejoin:round;stroke-miterlimit:4;stroke-dasharray:none;stroke-dashoffset:0;stroke-opacity:1"
       d="m 232.97719,61.271371 c -0.76416,-4.88989 -1.12721,-9.65817 1.34203,-10.92733 1.92075,0.383379 3.18937,4.797789 2.79596,6.94584 3.17859,-10e-4 2.39248,4.1848 2.39248,4.1848 -2.48075,-1.583921 -4.00662,-0.706551 -6.53046,-0.20331 z"
       id="path6550"
       inkscape:connector-curvature="0"
       sodipodi:nodetypes="cccccc" />
    <path
       sodipodi:nodetypes="czcccc"
       inkscape:connector-curvature="0"
       id="path6552"
       d="m 282.95363,126.80414 c 0.29644,1.61584 1.43116,11.57188 -0.23717,11.37688 -1.6683,-0.195 -2.588,-3.56167 -2.59551,-5.77654 -2.07267,0.56649 -4.17264,1.71105 -4.90084,1.13943 -0.57094,-0.81064 -0.0975,-2.48449 -0.0975,-2.48449 2.66974,0.11926 5.30719,-3.75204 7.83102,-4.25528 z"
       style="opacity:1;vector-effect:none;fill:none;fill-opacity:1;stroke:#000000;stroke-width:0.479;stroke-linecap:round;stroke-linejoin:round;stroke-miterlimit:4;stroke-dasharray:none;stroke-dashoffset:0;stroke-opacity:1" />
    <path
       style="opacity:1;vector-effect:none;fill:#ffffff;fill-opacity:1;stroke:#000000;stroke-width:0.30000001;stroke-linecap:butt;stroke-linejoin:miter;stroke-miterlimit:4;stroke-dasharray:none;stroke-dashoffset:0;stroke-opacity:1"
       d="m 232.56673,65.692531 c 0,0 -0.29209,-3.133 -0.0835,-4.1427 2.87794,-1.773961 6.88482,-0.912701 8.80319,0.183749 0.43869,1.03131 0.94802,2.401751 0.8352,4.02575 -5.20876,-1.6451 -9.55489,-0.0668 -9.55489,-0.0668 z"
       id="path6554"
       inkscape:connector-curvature="0"
       sodipodi:nodetypes="ccccc" />
    <path
       inkscape:connector-curvature="0"
       style="opacity:1;vector-effect:none;fill:#000500;fill-opacity:1;stroke:#000000;stroke-width:0.1;stroke-linecap:butt;stroke-linejoin:miter;stroke-miterlimit:4;stroke-dasharray:none;stroke-dashoffset:0;stroke-opacity:1"
       d="m 267.45694,57.904631 c -0.81043,-0.0071 -1.79988,0.06827 -2.98017,0.249597 -8.36948,0.933479 -18.57646,3.781685 -15.71842,12.251966 -1.39882,1.116041 -0.63988,4.272103 0.21083,3.704682 -1.29764,3.312462 -1.48017,7.423214 -1.09347,12.697934 2.36851,0.238519 3.2499,1.50459 5.12424,3.232362 2.84636,5.99785 19.11257,2.362009 24.7561,-6.180503 0.89339,-9.87661 -1.66873,-10.514182 -2.42567,-14.555184 -0.20329,-1.085186 5.94762,-2.95406 -1.36169,-2.951239 0.97009,-2.559431 2.16745,-4.543034 -3.71037,-6.784084 0.45261,-0.880356 -0.37008,-1.64433 -2.80138,-1.665531 z m 6.90139,17.646986 c 1.52524,-0.11449 1.30061,4.323945 0.98443,4.667414 -0.81285,-0.0653 -0.40689,0.0021 -1.07745,-0.06563 -0.0488,-1.342125 -0.28377,-3.872433 0.093,-4.601784 z m -22.38829,1.105358 c 1.31858,0.04053 0.66996,4.617797 0.57464,6.956166 -1.35287,0.122118 -0.53304,2.64e-4 -2.173,0.117821 -0.85692,-2.420281 -0.35855,-5.907635 1.46451,-7.063134 0.0467,-0.0084 0.0913,-0.01217 0.13385,-0.01085 z"
       id="path6556" />
    <path
       style="opacity:1;vector-effect:none;fill:#ffffff;fill-opacity:1;stroke:none;stroke-width:0.1;stroke-linecap:butt;stroke-linejoin:miter;stroke-miterlimit:4;stroke-dasharray:none;stroke-dashoffset:0;stroke-opacity:1"
       d="m 255.28522,72.43904 c 6.71183,-4.10768 11.2079,-2.696839 15.11905,-2.882069 0.30688,0.768689 -0.32485,2.815421 0.67159,2.573499 0.56112,-0.136229 1.37942,10.188202 0.0372,10.891901 -1.34225,0.703699 0.98522,0.151929 0.99218,0.7087 0.37033,1.422421 -0.24237,3.619111 -1.58719,3.73008 1.86957,5.781259 -13.08968,7.62458 -15.79971,-0.800759 -0.17481,-0.649692 1.53409,-0.137681 1.88988,-0.708702 -1.33918,-2.612718 -1.57765,-9.9836 -1.32297,-13.51265 z"
       id="path6558"
       inkscape:connector-curvature="0"
       sodipodi:nodetypes="ccszccccc" />
    <path
       style="opacity:1;vector-effect:none;fill:#cb3b56;fill-opacity:1;stroke:none;stroke-width:0.1;stroke-linecap:butt;stroke-linejoin:miter;stroke-miterlimit:4;stroke-dasharray:none;stroke-dashoffset:0;stroke-opacity:1"
       d="m 252.71026,91.03074 c -2.29148,0.96856 -0.90315,0.455242 -2.29148,0.96856 5.41274,14.47991 14.15889,12.03712 23.1038,2.26786 0,0 -0.32648,-0.822669 -0.70871,-2.031619 -8.05139,9.793229 -18.31534,7.827629 -20.10361,-1.204801 z"
       id="path6597"
       inkscape:connector-curvature="0"
       sodipodi:nodetypes="ccccc" />
    <path
       sodipodi:nodetypes="ssccs"
       inkscape:connector-curvature="0"
       id="path6587"
       d="m 265.45691,87.010552 c -0.36155,0.047 -0.63919,0.653219 -1.11617,0.957199 -0.56422,0.359579 -0.86092,0.3722 -0.88828,0.606679 1.0214,0.38707 1.67745,0.194072 2.34971,-0.408019 0.59325,-0.750541 0.29519,-1.23902 -0.34526,-1.155859 z"
       style="opacity:1;vector-effect:none;fill:#000000;fill-opacity:1;stroke:none;stroke-width:0.1;stroke-linecap:butt;stroke-linejoin:round;stroke-miterlimit:4;stroke-dasharray:none;stroke-dashoffset:0;stroke-opacity:1" />
    <path
       style="opacity:1;vector-effect:none;fill:none;fill-opacity:1;stroke:#000000;stroke-width:0.61687821;stroke-linecap:butt;stroke-linejoin:miter;stroke-miterlimit:4;stroke-dasharray:none;stroke-dashoffset:0;stroke-opacity:0.9748744"
       d="m 264.56031,85.0773 c 4.09911,3.24354 5.51945,-2.897018 3.32166,-4.72013 -2.79186,-2.315908 -2.47343,-7.862818 2.41683,-6.623129"
       id="path6560"
       inkscape:connector-curvature="0"
       sodipodi:nodetypes="csc" />
    <rect
       style="opacity:1;vector-effect:none;fill:#000000;fill-opacity:1;fill-rule:evenodd;stroke:none;stroke-width:0.49167421;stroke-linecap:butt;stroke-linejoin:miter;stroke-miterlimit:4;stroke-dasharray:none;stroke-dashoffset:0;stroke-opacity:1"
       id="rect6562"
       width="1.1766928"
       height="1.0873264"
       x="288.10214"
       y="-209.55521"
       transform="matrix(0.51365882,0.85799453,-0.5782064,0.81589053,0,0)" />
    <rect
       transform="matrix(0.51820805,0.85525459,-0.58283112,0.81259331,0,0)"
       y="-198.92917"
       x="279.05869"
       height="1.3417238"
       width="1.4507639"
       id="rect6564"
       style="opacity:1;vector-effect:none;fill:#000000;fill-opacity:1;fill-rule:evenodd;stroke:none;stroke-width:0.60645121;stroke-linecap:butt;stroke-linejoin:miter;stroke-miterlimit:4;stroke-dasharray:none;stroke-dashoffset:0;stroke-opacity:1" />
    <path
       style="opacity:1;vector-effect:none;fill:#000000;fill-opacity:1;fill-rule:evenodd;stroke:none;stroke-width:0.16500001;stroke-linecap:butt;stroke-linejoin:miter;stroke-miterlimit:4;stroke-dasharray:none;stroke-dashoffset:0;stroke-opacity:1"
       d="m 257.57985,76.639341 c 2.4275,-1.589511 2.46699,-1.356109 4.97725,-0.891141 -0.41482,-2.73639 -5.5994,-2.160871 -4.97725,0.891141 z"
       id="path6566"
       inkscape:connector-curvature="0"
       sodipodi:nodetypes="ccc" />
  </g>
</svg>
