<?xml version="1.0" encoding="UTF-8" standalone="no"?>
<!-- Created with Inkscape (http://www.inkscape.org/) -->

<svg
   xmlns:dc="http://purl.org/dc/elements/1.1/"
   xmlns:cc="http://creativecommons.org/ns#"
   xmlns:rdf="http://www.w3.org/1999/02/22-rdf-syntax-ns#"
   xmlns:svg="http://www.w3.org/2000/svg"
   xmlns="http://www.w3.org/2000/svg"
   xmlns:sodipodi="http://sodipodi.sourceforge.net/DTD/sodipodi-0.dtd"
   xmlns:inkscape="http://www.inkscape.org/namespaces/inkscape"
   width="210mm"
   height="297mm"
   viewBox="0 0 210 297"
   version="1.1"
   id="svg8"
   inkscape:version="0.92.4 (5da689c313, 2019-01-14)"
   sodipodi:docname="Toad.svg">
  <defs
     id="defs2" />
  <sodipodi:namedview
     id="base"
     pagecolor="#ffffff"
     bordercolor="#666666"
     borderopacity="1.0"
     inkscape:pageopacity="0.0"
     inkscape:pageshadow="2"
     inkscape:zoom="0.7"
     inkscape:cx="242.07071"
     inkscape:cy="559.77291"
     inkscape:document-units="mm"
     inkscape:current-layer="layer1"
     showgrid="false"
     inkscape:window-width="1920"
     inkscape:window-height="1001"
     inkscape:window-x="-9"
     inkscape:window-y="-9"
     inkscape:window-maximized="1" />
  <metadata
     id="metadata5">
    <rdf:RDF>
      <cc:Work
         rdf:about="">
        <dc:format>image/svg+xml</dc:format>
        <dc:type
           rdf:resource="http://purl.org/dc/dcmitype/StillImage" />
        <dc:title />
      </cc:Work>
    </rdf:RDF>
  </metadata>
  <g
     inkscape:label="Camada 1"
     inkscape:groupmode="layer"
     id="layer1">
    <path
       style="opacity:1;vector-effect:none;fill:#fefefe;fill-opacity:1;stroke:#000000;stroke-width:3.5999999;stroke-linecap:butt;stroke-linejoin:miter;stroke-miterlimit:4;stroke-dasharray:none;stroke-dashoffset:0;stroke-opacity:1"
       d="m 35.263615,107.25763 c 1.83739,-45.787965 39.194496,-63.45962 73.499115,-63.610148 49.37685,3.764342 68.41173,37.02765 66.28284,69.757338 -1.38238,21.25277 -11.08349,50.94237 -70.82642,49.9794 -28.723229,-1.23811 -69.173205,-13.25253 -68.955535,-56.12659 z"
       id="path4529"
       inkscape:connector-curvature="0"
       sodipodi:nodetypes="ccccc" />
    <path
       style="opacity:1;vector-effect:none;fill:#003f97;fill-opacity:1;stroke:none;stroke-width:0.1;stroke-linecap:butt;stroke-linejoin:miter;stroke-miterlimit:4;stroke-dasharray:none;stroke-dashoffset:0;stroke-opacity:1"
       d="m 49.027595,71.39546 c -12.38315,15.595552 -16.58755,41.70796 -6.30916,60.39593 8.15954,-6.60916 15.99955,-43.302682 6.30916,-60.39593 z"
       id="path843"
       inkscape:connector-curvature="0"
       sodipodi:nodetypes="ccc" />
    <path
       style="opacity:1;vector-effect:none;fill:#fbcead;fill-opacity:1;stroke:#000000;stroke-width:1.60000002;stroke-linecap:butt;stroke-linejoin:round;stroke-miterlimit:4;stroke-dasharray:none;stroke-dashoffset:0;stroke-opacity:1"
       d="m 47.958915,217.63993 c -11.56781,7.74549 3.27864,7.28444 6.68174,2.6727 3.41105,8.52889 7.34513,5.38783 6.14719,-2.93997 4.768024,-3.29478 16.246836,-5.26213 18.838856,-16.36393 6.82729,-2.37025 19.71386,-3.62207 26.854739,-2.30579 l -2.8779,-16.34259 c -8.243149,5.89954 -16.269749,-0.20289 -21.668969,-1.1015 -10.153806,7.55941 -19.678506,16.48317 -27.160286,25.82394 -2.11583,-0.32872 -5.50717,-0.11011 -8.72895,1.04564 -5.16716,1.85361 -9.15536,5.0778 -1.16002,4.5002 -2.64416,1.53146 -4.15012,2.15052 -3.60814,5.27857 l 4.54359,-2.93996 c -6.47026,4.17444 -5.44566,5.46667 -3.62305,6.1392 1.46579,0.54086 4.11084,-2.20844 5.7612,-3.46651 z"
       id="path4553"
       inkscape:connector-curvature="0"
       sodipodi:nodetypes="ccccccccscccsc" />
    <path
       style="opacity:1;vector-effect:none;fill:#864a2e;fill-opacity:1;stroke:#000000;stroke-width:3;stroke-linecap:butt;stroke-linejoin:round;stroke-miterlimit:4;stroke-dasharray:none;stroke-dashoffset:0;stroke-opacity:1"
       d="m 94.872021,245.12275 c -23.752002,-20.91787 -50.822536,4.61534 -42.711306,19.46578 6.48149,12.0773 50.459245,2.26743 42.711306,-19.46578 z"
       id="path4565"
       inkscape:connector-curvature="0"
       sodipodi:nodetypes="ccc" />
    <path
       style="opacity:1;vector-effect:none;fill:#fefefe;fill-opacity:1;stroke:#000001;stroke-width:3;stroke-linecap:butt;stroke-linejoin:miter;stroke-miterlimit:4;stroke-dasharray:none;stroke-dashoffset:0;stroke-opacity:1"
       d="m 68.00413,205.74644 c 23.505411,-11.98144 53.68218,-4.68223 63.93948,0.0649 15.02881,27.21422 -7.02929,45.29681 -30.92249,44.16373 -37.950965,-1.79974 -40.082985,-19.1362 -33.01699,-44.22858 z"
       id="path4563"
       inkscape:connector-curvature="0"
       sodipodi:nodetypes="ccsc" />
    <path
       sodipodi:nodetypes="cccccc"
       inkscape:connector-curvature="0"
       id="path4557"
       d="m 103.60354,182.36035 c 3.40588,8.12404 4.75801,20.52481 6.24359,27.25871 10.04632,-0.50146 19.95568,-0.31912 29.75009,0.43727 -1.86017,-5.74905 -3.96129,-10.91644 -6.98783,-16.70663 -5.9257,-2.08828 -12.70775,-6.18514 -13.41244,-14.16972 z"
       style="opacity:1;vector-effect:none;fill:#024da0;fill-opacity:1;stroke:#000000;stroke-width:1.79999995;stroke-linecap:butt;stroke-linejoin:round;stroke-miterlimit:4;stroke-dasharray:none;stroke-dashoffset:0;stroke-opacity:1" />
    <path
       style="opacity:1;vector-effect:none;fill:#024da0;fill-opacity:1;stroke:#000000;stroke-width:1.79999995;stroke-linecap:butt;stroke-linejoin:round;stroke-miterlimit:4;stroke-dasharray:none;stroke-dashoffset:0;stroke-opacity:1"
       d="m 87.247531,183.42943 c -6.59669,7.80979 -9.37809,17.76568 -12.02712,27.79603 l -13.497116,2.13816 c 3.298363,-10.19396 7.759527,-22.46145 20.211276,-32.10477 z"
       id="path4555"
       inkscape:connector-curvature="0"
       sodipodi:nodetypes="ccccc" />
    <path
       style="opacity:1;vector-effect:none;fill:#fbb632;fill-opacity:1;stroke:#000000;stroke-width:1.20000005;stroke-linecap:butt;stroke-linejoin:miter;stroke-miterlimit:4;stroke-dasharray:none;stroke-dashoffset:0;stroke-opacity:1"
       d="m 63.751466,208.66811 c 1.822893,-0.84268 4.730127,-1.5379 6.930083,-1.62646 2.980302,-9.21842 6.446402,-18.09679 12.945682,-24.85193 l 3.2194,1.23971 c -6.6475,5.09951 -9.6236,16.50197 -12.24043,27.18182 -4.589051,-0.57594 -7.863866,0.56047 -12.315046,1.99928 z"
       id="path4559"
       inkscape:connector-curvature="0"
       sodipodi:nodetypes="ccccccc" />
    <path
       inkscape:connector-curvature="0"
       id="path4561"
       d="m 136.00273,203.87343 c -7.06061,-0.35446 -12.92084,-1.12372 -20.96355,-0.49609 l -5.54747,-21.8551 -4.49575,0.83811 c 1.75987,8.77834 3.58168,17.4328 5.51934,25.85554 9.88035,-0.39028 18.6865,0.18429 27.39261,0.46495 z"
       style="opacity:1;vector-effect:none;fill:#fbb632;fill-opacity:1;stroke:#000000;stroke-width:1.20000005;stroke-linecap:butt;stroke-linejoin:miter;stroke-miterlimit:4;stroke-dasharray:none;stroke-dashoffset:0;stroke-opacity:1"
       sodipodi:nodetypes="ccccccc" />
    <path
       style="opacity:1;vector-effect:none;fill:#000000;fill-opacity:1;stroke:none;stroke-width:1.89999998;stroke-linecap:butt;stroke-linejoin:miter;stroke-miterlimit:4;stroke-dasharray:none;stroke-dashoffset:0;stroke-opacity:0.9859813"
       d="m 68.886164,129.84002 c -3.965647,11.15049 -15.048759,47.8204 26.080357,55.94047 37.390779,2.48269 44.478149,-34.2365 40.348949,-48.94791 9.12907,9.82833 -1.82612,-15.83874 -31.7691,-17.64468 -35.368128,-2.33245 -46.716835,21.71199 -34.660206,10.65212 z"
       id="path4533"
       inkscape:connector-curvature="0"
       sodipodi:nodetypes="ccccc" />
    <path
       style="opacity:1;vector-effect:none;fill:#fbcead;fill-opacity:1;stroke:none;stroke-width:0.89999992;stroke-linecap:butt;stroke-linejoin:miter;stroke-miterlimit:4;stroke-dasharray:none;stroke-dashoffset:0;stroke-opacity:1"
       d="m 73.10657,128.33276 c -10.261185,23.31555 -2.138003,43.63431 9.591821,48.58941 29.870609,12.61842 57.161579,-1.41475 49.316789,-42.5367 -10.1868,-6.45879 -31.68231,-17.89362 -58.90861,-6.05271 z"
       id="path4531"
       inkscape:connector-curvature="0"
       sodipodi:nodetypes="cscc" />
    <path
       style="opacity:1;vector-effect:none;fill:#0a0104;fill-opacity:1;stroke:none;stroke-width:0.2;stroke-linecap:butt;stroke-linejoin:miter;stroke-miterlimit:4;stroke-dasharray:none;stroke-dashoffset:0;stroke-opacity:1"
       d="m 87.432471,156.03431 c 8.36762,-0.21791 15.958199,0.88513 23.067509,2.80633 -1.04868,-2.63194 1.39077,-0.41401 1.78849,1.07347 0.54809,2.04989 0.31347,3.94327 -0.45214,2.40103 -5.76581,14.98616 -24.194429,11.11163 -26.259229,-3.55753 -1.7281,1.74851 -1.26103,-0.39568 -0.11544,-1.91628 1.17609,-1.56108 3.35276,-2.77519 1.97081,-0.80702 z"
       id="path4537"
       inkscape:connector-curvature="0"
       sodipodi:nodetypes="ccsccsc" />
    <path
       style="opacity:1;vector-effect:none;fill:#87191a;fill-opacity:1;stroke:none;stroke-width:0.89999992;stroke-linecap:butt;stroke-linejoin:round;stroke-miterlimit:4;stroke-dasharray:none;stroke-dashoffset:0;stroke-opacity:1"
       d="m 86.853871,157.48022 c -0.62139,14.95182 21.177659,19.48058 24.138479,2.80309 -8.4982,-2.69894 -16.395859,-3.43223 -24.138479,-2.80309 z"
       id="path4535"
       inkscape:connector-curvature="0"
       sodipodi:nodetypes="ccc" />
    <path
       style="opacity:1;vector-effect:none;fill:#0a0104;fill-opacity:1;stroke:none;stroke-width:0.2;stroke-linecap:butt;stroke-linejoin:miter;stroke-miterlimit:4;stroke-dasharray:none;stroke-dashoffset:0;stroke-opacity:1"
       d="m 83.131141,138.51055 c -0.27312,5.01408 1.34764,7.26614 2.44199,7.61385 2.10433,0.66861 4.27533,-3.87654 4.56273,-5.85802 0.74999,-5.17085 -0.46272,-8.5672 -1.88078,-9.03728 -2.11774,-0.70204 -4.8699,2.61747 -5.12394,7.28145 z"
       id="path4541"
       inkscape:connector-curvature="0"
       sodipodi:nodetypes="sssss" />
    <path
       sodipodi:nodetypes="sssss"
       inkscape:connector-curvature="0"
       id="path4543"
       d="m 111.12762,141.65097 c -0.27311,5.01408 1.38105,7.13251 2.47541,7.48022 2.10432,0.66861 4.47577,-4.077 4.72976,-6.1253 0.64298,-5.18524 -0.66317,-8.16629 -2.08122,-8.63637 -2.11775,-0.70204 -4.8699,2.61747 -5.12395,7.28145 z"
       style="opacity:1;vector-effect:none;fill:#0a0104;fill-opacity:1;stroke:none;stroke-width:0.2;stroke-linecap:butt;stroke-linejoin:miter;stroke-miterlimit:4;stroke-dasharray:none;stroke-dashoffset:0;stroke-opacity:1" />
    <path
       sodipodi:nodetypes="sssss"
       inkscape:connector-curvature="0"
       id="path4545"
       d="m 85.551661,136.07369 c -0.0983,1.8039 0.87143,2.39565 1.28015,2.45574 0.9933,0.14605 1.84523,-1.34741 1.94863,-2.06028 0.26982,-1.86031 -0.52083,-3.01134 -1.031,-3.18045 -0.76189,-0.25258 -2.10639,1.10703 -2.19778,2.78499 z"
       style="opacity:1;vector-effect:none;fill:#fefefe;fill-opacity:1;stroke:none;stroke-width:0.07195368;stroke-linecap:butt;stroke-linejoin:miter;stroke-miterlimit:4;stroke-dasharray:none;stroke-dashoffset:0;stroke-opacity:1" />
    <path
       style="opacity:1;vector-effect:none;fill:#fefefe;fill-opacity:1;stroke:none;stroke-width:0.07067707;stroke-linecap:butt;stroke-linejoin:miter;stroke-miterlimit:4;stroke-dasharray:none;stroke-dashoffset:0;stroke-opacity:1"
       d="m 113.48069,139.31385 c -0.0983,1.73979 0.87177,2.3105 1.28065,2.36846 0.99369,0.14086 1.84594,-1.29952 1.94938,-1.98705 0.26993,-1.79419 -0.52102,-2.90431 -1.03139,-3.06741 -0.7622,-0.2436 -2.10721,1.06768 -2.19864,2.686 z"
       id="path4547"
       inkscape:connector-curvature="0"
       sodipodi:nodetypes="sssss" />
    <path
       sodipodi:nodetypes="cscc"
       inkscape:connector-curvature="0"
       id="path4567"
       d="m 108.47261,246.44567 c 5.24647,-11.68359 23.31558,-11.58848 34.19197,-5.31226 8.7207,5.03228 11.62424,14.42007 8.51934,22.03771 -7.42643,14.62864 -54.427999,13.32323 -42.71131,-16.72545 z"
       style="opacity:1;vector-effect:none;fill:#864a2e;fill-opacity:1;stroke:#000000;stroke-width:3;stroke-linecap:butt;stroke-linejoin:round;stroke-miterlimit:4;stroke-dasharray:none;stroke-dashoffset:0;stroke-opacity:1" />
    <path
       style="opacity:1;vector-effect:none;fill:#ea1b23;fill-opacity:1;stroke:#040000;stroke-width:1.20000005;stroke-linecap:butt;stroke-linejoin:miter;stroke-miterlimit:4;stroke-dasharray:none;stroke-dashoffset:0;stroke-opacity:1"
       d="m 88.493681,163.85787 c 4.83161,-4.35723 14.526379,-5.05805 19.843749,2.07887 -5.97535,7.54877 -15.141279,5.93451 -19.843749,-2.07887 z"
       id="path4539"
       inkscape:connector-curvature="0"
       sodipodi:nodetypes="ccc" />
    <path
       style="opacity:1;vector-effect:none;fill:#fbcead;fill-opacity:1;stroke:#000000;stroke-width:1.60000002;stroke-linecap:butt;stroke-linejoin:round;stroke-miterlimit:4;stroke-dasharray:none;stroke-dashoffset:0;stroke-opacity:1"
       d="m 155.40126,157.77156 c 8.7188,-2.26994 5.84706,3.76954 0.95373,6.57225 -3.73569,2.13966 -6.55508,3.46186 -10.17453,3.31672 l -13.57107,25.68917 c -5.05621,-1.28005 -12.19344,-6.11975 -13.21198,-12.69974 7.8617,-9.45998 13.02371,-13.64997 17.46105,-19.26077 -3.19372,-2.8242 -4.38989,-17.858 4.11025,-8.29485 3.49702,-7.00556 7.26343,-9.21344 8.59678,-8.96981 1.0398,0.18999 1.56955,2.2382 -0.0171,6.04861 2.6181,-2.56021 3.67716,-3.43463 5.28161,-3.11857 1.34106,0.26417 2.21458,1.61406 1.62652,2.69568 4.75665,-0.0832 1.53859,4.8385 -1.05531,8.02131 z"
       id="path839"
       inkscape:connector-curvature="0"
       sodipodi:nodetypes="cscccccscsccc" />
    <path
       style="opacity:1;vector-effect:none;fill:#000002;fill-opacity:1;stroke:none;stroke-width:0.1;stroke-linecap:butt;stroke-linejoin:miter;stroke-miterlimit:4;stroke-dasharray:none;stroke-dashoffset:0;stroke-opacity:1"
       d="m 155.98277,148.28313 c -0.60988,-0.1532 0.46387,0.54456 -0.62485,1.64684 -1.6711,1.19643 -3.96611,3.65179 -4.9234,4.982 -0.84043,-0.963 -1.68086,-1.66308 -2.52128,-2.20439 l 2.00161,-1.90527 2.23252,-2.12507 -2.51605,-1.0251 c -0.53623,1.97944 -1.52029,3.79843 -2.67351,5.4253 1.35535,0.93551 2.96033,1.74288 5.69732,4.87456 -0.15539,-1.14211 -0.71336,-1.80113 -1.3067,-2.41771 1.42169,-1.81674 3.31873,-5.38315 6.34928,-5.00819 z"
       id="path841"
       inkscape:connector-curvature="0"
       sodipodi:nodetypes="cccccccccccc" />
    <path
       sodipodi:nodetypes="ccc"
       inkscape:connector-curvature="0"
       id="path845"
       d="m 169.80645,86.65022 c -8.98366,6.350004 -18.86707,39.04963 -8.0035,57.15115 10.41973,-10.56743 15.9269,-34.54867 8.0035,-57.15115 z"
       style="opacity:1;vector-effect:none;fill:#003f97;fill-opacity:1;stroke:none;stroke-width:0.1;stroke-linecap:butt;stroke-linejoin:miter;stroke-miterlimit:4;stroke-dasharray:none;stroke-dashoffset:0;stroke-opacity:1" />
    <ellipse
       style="opacity:1;vector-effect:none;fill:#003f97;fill-opacity:1;fill-rule:evenodd;stroke:none;stroke-width:0.10389684;stroke-linecap:butt;stroke-linejoin:miter;stroke-miterlimit:4;stroke-dasharray:none;stroke-dashoffset:0;stroke-opacity:1"
       id="path847"
       cx="107.19849"
       cy="80.522339"
       rx="31.334829"
       ry="29.775677" />
  </g>
</svg>
