<?xml version="1.0" encoding="UTF-8" standalone="no"?>
<!-- Created with Inkscape (http://www.inkscape.org/) -->

<svg
   xmlns:dc="http://purl.org/dc/elements/1.1/"
   xmlns:cc="http://creativecommons.org/ns#"
   xmlns:rdf="http://www.w3.org/1999/02/22-rdf-syntax-ns#"
   xmlns:svg="http://www.w3.org/2000/svg"
   xmlns="http://www.w3.org/2000/svg"
   xmlns:sodipodi="http://sodipodi.sourceforge.net/DTD/sodipodi-0.dtd"
   xmlns:inkscape="http://www.inkscape.org/namespaces/inkscape"
   width="1920"
   height="1080"
   viewBox="0 0 507.99999 285.75001"
   version="1.1"
   id="svg8"
   inkscape:version="0.92.4 (5da689c313, 2019-01-14)"
   sodipodi:docname="Melro-Preto.svg">
  <defs
     id="defs2" />
  <sodipodi:namedview
     id="base"
     pagecolor="#ffffff"
     bordercolor="#666666"
     borderopacity="1.0"
     inkscape:pageopacity="0.0"
     inkscape:pageshadow="2"
     inkscape:zoom="0.35"
     inkscape:cx="451.26758"
     inkscape:cy="595.87407"
     inkscape:document-units="mm"
     inkscape:current-layer="layer1"
     showgrid="false"
     inkscape:window-width="1920"
     inkscape:window-height="1001"
     inkscape:window-x="-9"
     inkscape:window-y="-9"
     inkscape:window-maximized="1"
     units="px" />
  <metadata
     id="metadata5">
    <rdf:RDF>
      <cc:Work
         rdf:about="">
        <dc:format>image/svg+xml</dc:format>
        <dc:type
           rdf:resource="http://purl.org/dc/dcmitype/StillImage" />
        <dc:title></dc:title>
      </cc:Work>
    </rdf:RDF>
  </metadata>
  <g
     inkscape:label="Camada 1"
     inkscape:groupmode="layer"
     id="layer1"
     transform="translate(0,-11.249983)">
    <g
       id="g1064"
       transform="matrix(1.3230404,0,0,1.3230404,305.21094,-2.9686039)">
      <path
         sodipodi:nodetypes="ccscccccccccccccscc"
         inkscape:connector-curvature="0"
         id="path918"
         d="m -98.756082,155.88169 c -2.597088,3.24552 -5.519258,5.35324 -7.668018,10.16787 -10.90846,7.97032 -20.40524,19.46569 -32.05443,25.87158 -9.06796,4.98648 -17.58897,10.40998 -24.55588,15.54357 -0.63693,0.85799 0.62967,1.90624 1.33635,1.46998 l 1.60362,-1.60362 c 1.57822,1.2705 4.36994,-2.49966 6.68173,-4.27631 0.48934,-0.46295 2.54932,-1.74939 1.60362,0.66817 -0.0934,0.39664 -0.16499,0.81499 -0.13363,1.33635 -0.22047,1.12182 -0.24258,2.66903 0.80181,1.60362 0.69857,-0.46139 1.48996,-0.3102 0.66817,0.66817 -2.63036,3.45245 -7.74537,7.15337 -7.21628,10.28988 3.39839,-0.79572 5.66792,-0.35995 10.82442,-3.0736 l 2.00452,0.80181 2.93996,0.53454 c 1.48301,-0.87999 2.68401,-0.0679 4.00905,0 1.59847,-1.30732 2.25487,-3.1244 5.59385,-2.80022 1.88511,0.18302 41.688855,-32.42298 61.695996,-47.58819 -8.372194,-4.66612 -18.914062,-6.36182 -28.134858,-9.6136 z"
         style="opacity:1;vector-effect:none;fill:#111317;fill-opacity:1;stroke:none;stroke-width:0.1;stroke-linecap:butt;stroke-linejoin:round;stroke-miterlimit:4;stroke-dasharray:none;stroke-dashoffset:0;stroke-opacity:1" />
      <path
         sodipodi:nodetypes="ccccsccsccc"
         inkscape:connector-curvature="0"
         id="path874"
         d="m 7.8510423,105.13389 c -0.6876909,5.474 0.7463231,9.93767 -2.3051998,16.5373 -1.2423877,11.40399 -4.73038904,16.71274 -7.6171813,23.65335 -8.2409552,16.1652 -19.2936142,20.6432 -28.2637512,26.66014 0.683088,-1.34917 0.760973,-2.31683 0.23709,-1.83365 -0.663558,0.612 -0.982303,0.85828 -1.57344,2.56864 0.103852,2.2322 -0.686337,4.52401 -2.472242,6.88219 0.360472,1.61935 0.452575,1.40253 -1.850199,1.94807 -2.076991,0.49205 -1.912646,-0.15222 -2.559747,-1.41353 -0.930045,-2.25317 -1.112727,-3.72234 -1.469984,-4.94449 17.355187,-22.34609 32.4306303,-33.45297 47.8746543,-70.05802 z"
         style="opacity:1;vector-effect:none;fill:#0f1013;fill-opacity:1;stroke:none;stroke-width:0.2;stroke-linecap:butt;stroke-linejoin:round;stroke-miterlimit:4;stroke-dasharray:none;stroke-dashoffset:0;stroke-opacity:1" />
      <path
         sodipodi:nodetypes="ccccccc"
         inkscape:connector-curvature="0"
         id="path862"
         d="M 1.7953869,31.755207 C 9.8220841,27.615219 17.932039,22.747708 25.22991,22.494791 c 1.482292,-0.03363 1.97166,-1.009513 -1.68468,-2.114652 -7.584649,-0.903704 -11.623011,0.477634 -18.1118223,1.878417 -3.217221,1.404475 -0.7611978,1.846402 0.8031995,2.504092 -0.043557,1.077412 0.044366,2.19865 0.377976,3.401784 -5.2478462,1.940078 -4.9420084,2.617544 -4.8191963,3.590775 z"
         style="opacity:1;vector-effect:none;fill:#d9a84c;fill-opacity:1;stroke:none;stroke-width:0.1;stroke-linecap:butt;stroke-linejoin:round;stroke-miterlimit:4;stroke-dasharray:none;stroke-dashoffset:0;stroke-opacity:1" />
      <path
         sodipodi:nodetypes="cccccccccccccccccsccccccsccccscsccccccscccc"
         inkscape:connector-curvature="0"
         id="path872"
         d="M 6.2140165,21.979655 C 3.0904308,22.933717 1.5571497,21.701109 -0.20045214,20.776943 -17.583378,13.90809 -31.20444,24.85141 -35.880934,27.792767 c -1.600482,0.954526 -1.711119,2.15736 -2.338607,3.274052 -2.972597,3.674956 -4.810856,7.349911 -7.216277,11.024867 2.06684,-1.486857 1.334231,0.385626 -0.133636,3.140419 0.806685,-0.454233 3.073857,-3.385877 1.403165,0.534538 -0.538669,0.3706 -0.405438,1.718509 -0.267269,3.073601 -0.02043,0.894395 -0.216324,1.691312 -0.801809,2.271789 -0.683747,2.122008 -0.731598,0.174279 -2.204974,7.349913 -0.477531,1.049921 -0.408561,2.236467 -0.400905,3.407685 -0.214233,1.887006 -0.03783,3.695886 -1.069078,5.746295 -0.09776,0.589787 -0.455333,0.833168 -0.06681,2.071338 -1.314368,4.701979 -10.159157,12.834244 -15.100729,20.512937 -3.238965,4.430451 -6.39128,8.999541 -8.753078,14.833459 -1.189857,1.98225 -2.071537,3.9645 -3.006783,5.94675 -1.983128,2.70302 -3.80466,5.97163 -5.612659,9.28761 -1.904053,1.34105 -3.172726,4.65257 -5.561929,8.48657 -4.539846,7.28517 -8.755227,18.00374 -11.743773,27.1271 0.547206,8.48044 14.704112,16.70375 25.390604,12.42803 3.003442,4.18834 5.217164,0.39544 10.02261,-2.40543 1.202713,0.28422 2.405425,0.61456 3.608138,-0.4009 l 2.405425,0.80181 -7.884451,1.46998 c -3.583352,0.0104 -2.782251,1.16352 -2.804026,2.75013 -0.027,1.96745 1.058766,1.17074 2.135853,1.12528 0.781836,0.89735 0.640247,1.88705 2.539061,2.6727 -4.003985,2.60577 -3.260117,4.39295 -3.875411,6.41446 -1.225566,2.64107 -5.03476,5.58024 -3.340867,7.88445 -1.915035,5.2973 -2.799522,7.7491 -1.49687,8.66088 2.726617,1.90845 6.999566,-2.56356 9.915859,-5.18637 17.796158,-11.36615 24.738821,-18.69005 34.450849,-29.99296 4.434231,-5.16058 11.369513,-13.23106 14.994014,-19.71917 6.3682627,0.0236 7.9162025,-11.51576 10.5571408,-16.16981 6.9878107,-5.46106 5.3554974,-10.34568 6.5481034,-13.22984 2.3883035,-3.14151 3.4408769,-6.52587 3.8754081,-10.02261 C 7.7747551,94.825297 6.6130118,88.560311 4.6772168,84.520724 3.6547396,78.997145 2.5509937,78.756036 1.4699824,77.037178 1.0147454,74.931839 1.1112747,72.986631 0.41508411,71.710029 -4.8953592,61.972287 -4.5231133,55.254371 -3.6081385,52.582016 -2.3891223,49.910267 -2.2009646,47.886981 -1.403165,45.83346 0.89538607,34.956806 4.7124932,36.431805 7.8430058,32.322172 Z"
         style="opacity:1;vector-effect:none;fill:#080808;fill-opacity:1;stroke:none;stroke-width:0.1;stroke-linecap:butt;stroke-linejoin:round;stroke-miterlimit:4;stroke-dasharray:none;stroke-dashoffset:0;stroke-opacity:1" />
      <path
         sodipodi:nodetypes="cccccccccccccccccccccccccccccccccccccccccccccccccccccccccccsccccccc"
         inkscape:connector-curvature="0"
         id="path914"
         d="m -75.837724,110.98041 4.589214,-1.07863 3.212796,-1.70089 c 1.133929,-0.14347 2.267858,-0.0218 3.401787,0.18899 -1.7446,0.42349 -4.077191,0.61178 -4.157739,1.70089 l -2.834822,4.91369 -0.736735,7.60217 -4.610399,7.88445 3.808592,0.26727 c 0.08551,-4.49889 2.978539,-11.29543 10.089422,-17.63979 4.700059,-5.44217 0.843046,-2.57502 4.944486,-9.08716 3.721326,-0.82622 4.841097,-3.13904 6.1472,-5.34539 l 2.672696,2.53906 c -2.197524,2.38039 -7.841924,1.52934 -4.944488,8.68626 -7.541062,2.04907 -3.236664,4.09813 -4.142677,6.1472 2.172826,-0.0738 4.26189,-0.0959 6.013564,-1.20271 1.816598,0.23386 2.599613,-1.18601 6.013564,1.60361 l 3.474505,-1.73725 c 1.630083,-0.40221 3.23633,-0.92359 5.211755,0.40091 0.733076,1.14637 -1.271117,1.79953 -0.133636,3.60813 l 0.267272,2.53906 c 2.865726,-1.27695 5.959246,-2.22848 6.414468,-6.949 -0.01787,-1.21856 -0.383881,-2.41555 1.336347,-3.74178 1.244012,-0.27051 2.3082,-0.72085 3.875408,-0.66817 l -0.267269,3.20723 c -1.568816,2.33165 -3.183861,4.52461 -4.409948,7.88445 l 0.935444,0.26727 c 3.422734,-2.70073 1.332835,-3.99674 5.078121,-8.28535 1.823539,-2.39982 2.399845,-2.30518 3.207234,-2.6727 l 2.672695,2.00453 -2.004521,3.07359 -7.483546,12.69531 c 2.379086,0.20907 3.428454,1.41543 4.409946,2.67269 l -1.737252,2.93997 2.806331,-2.27179 c -1.848826,6.70401 -7.237216,13.40802 -11.75986,20.11203 l 0.200454,0.60135 c 4.954227,-5.71536 11.510059,-9.82911 14.244577,-17.76417 l -0.04725,-3.63802 c 4.806797,-6.85082 5.773993,-13.70163 8.362723,-20.55245 l -3.685268,-2.64584 c -2.128652,-2.45024 0.264025,-2.63981 2.267858,-3.02381 2.019894,0.955 4.364207,1.0217 6.3311006,1.22843 -1.1664857,0.71468 -3.6515676,1.03379 -1.5119046,2.74032 -5.627686,11.85846 -5.503803,16.68821 -7.654018,21.54465 l 1.133929,0.51971 c 3.49775,-3.95226 3.800003,-9.50228 5.3861603,-14.41034 0.051104,3.64188 -0.00789,7.17366 -0.6614583,10.11086 l -1.700893,4.06325 c 2.3313355,-3.30536 5.7450208,-2.28133 6.9925596,-9.92188 l -1.0394344,-4.44122 -1.4174108,4.15774 c -1.1325522,-4.72057 -1.1281182,-6.03019 -1.2284225,-7.65402 1.9997185,-1.55102 3.1410259,-4.94149 7.4650296,-1.5119 2.5055231,-4.53571 0.69841084,-9.07143 0.66145832,-13.607143 L 4.4099442,112.98493 c -0.010676,7.25029 -3.3556737,10.14031 -6.5481034,13.22984 -6.0803696,16.91589 -8.1240898,15.66686 -10.5571408,16.16981 -5.478145,8.80193 -11.070444,15.86156 -19.51068,25.12333 -2.334969,2.28865 -4.379522,4.59624 -6.656409,6.70648 -7.341126,6.80382 -14.850606,12.7423 -23.277774,17.88232 -7.053999,6.94758 -13.967607,9.18368 -8.418989,-3.47451 -1.908236,-2.10885 2.867281,-6.51394 3.340868,-7.88445 l 3.875413,-6.41446 c -5.189734,-2.4541 -11.38021,-3.5774 -16.982826,-4.87302 -6.422205,0.12536 -17.903784,-5.35181 -18.430385,-13.56858 z"
         style="opacity:0.51399997;vector-effect:none;fill:#252b39;fill-opacity:0.63084112;stroke:none;stroke-width:0.1;stroke-linecap:butt;stroke-linejoin:round;stroke-miterlimit:4;stroke-dasharray:none;stroke-dashoffset:0;stroke-opacity:1" />
      <path
         sodipodi:nodetypes="sssss"
         inkscape:connector-curvature="0"
         id="path866"
         d="m -11.592816,27.892994 c 2.6988977,0.156336 5.7516032,2.66212 5.2117561,6.214017 -0.3869375,2.545836 -3.2853804,3.262195 -5.8465211,3.073598 -2.408029,-0.177323 -4.481452,-2.153228 -4.510173,-4.209494 -0.03365,-2.409415 2.036368,-5.258187 5.144938,-5.078121 z"
         style="opacity:1;vector-effect:none;fill:#be7d2f;fill-opacity:1;stroke:none;stroke-width:0.1;stroke-linecap:butt;stroke-linejoin:round;stroke-miterlimit:4;stroke-dasharray:none;stroke-dashoffset:0;stroke-opacity:1" />
      <path
         style="opacity:1;vector-effect:none;fill:#2a180c;fill-opacity:1;stroke:none;stroke-width:0.07078227;stroke-linecap:butt;stroke-linejoin:round;stroke-miterlimit:4;stroke-dasharray:none;stroke-dashoffset:0;stroke-opacity:1"
         d="m -11.640795,29.360052 c 1.910341,0.110658 4.0711156,1.88431 3.6889996,4.398423 -0.2738832,1.802 -2.3254666,2.309056 -4.1383016,2.175562 -1.704457,-0.125513 -3.172073,-1.524103 -3.192403,-2.979575 -0.02382,-1.705439 1.441388,-3.721864 3.641705,-3.59441 z"
         id="path868"
         inkscape:connector-curvature="0"
         sodipodi:nodetypes="sssss" />
      <path
         sodipodi:nodetypes="ccsccsccsc"
         inkscape:connector-curvature="0"
         id="path920"
         d="m -104.13244,190.41071 -2.4096,5.29167 c 1.98143,-2.23242 0.7684,-0.12462 0.99219,0 0.33717,0.18777 1.46062,-2.24401 1.37016,0.51972 3.02712,-5.20147 6.447893,-9.66822 9.638396,-14.41035 11.82476,-2.70028 21.277362,-5.51351 30.546997,-8.33546 0.133304,-0.0406 11.458482,-3.95657 11.591716,-3.99716 l -8.632941,-6.11569 c -0.0815,0.0249 -10.221033,2.32362 -10.302256,2.34894 -13.659402,4.25791 -23.398015,14.22897 -32.794662,24.69833 z"
         style="opacity:1;vector-effect:none;fill:#050506;fill-opacity:1;stroke:none;stroke-width:0.1;stroke-linecap:butt;stroke-linejoin:round;stroke-miterlimit:4;stroke-dasharray:none;stroke-dashoffset:0;stroke-opacity:1" />
      <path
         style="opacity:1;vector-effect:none;fill:#41475c;fill-opacity:1;stroke:none;stroke-width:0.1;stroke-linecap:butt;stroke-linejoin:round;stroke-miterlimit:4;stroke-dasharray:none;stroke-dashoffset:0;stroke-opacity:1"
         d="m -94.774484,147.13101 c 2.017313,-5.25335 9.234061,-19.42877 13.268324,-24.69999 0.05461,-0.62482 -0.25296,-0.6556 -0.906074,-0.39632 -2.713433,4.53447 -8.327725,12.88558 -11.779535,21.41729 -0.206852,0.70914 -0.318569,1.11232 -0.582715,3.67902 z"
         id="path912"
         inkscape:connector-curvature="0"
         sodipodi:nodetypes="ccccc" />
      <path
         sodipodi:nodetypes="ccccc"
         inkscape:connector-curvature="0"
         id="path906"
         d="m -71.395435,127.75848 c 2.864665,-4.85902 3.579588,-6.31068 8.122017,-10.52285 0.23228,-0.5826 -0.261587,-0.66462 -0.961707,-0.60447 -3.904588,3.56067 -4.783482,4.89046 -7.508049,9.42785 -0.03431,0.55578 -0.213899,1.10121 0.347739,1.69947 z"
         style="opacity:1;vector-effect:none;fill:#30323f;fill-opacity:1;stroke:none;stroke-width:0.1;stroke-linecap:butt;stroke-linejoin:round;stroke-miterlimit:4;stroke-dasharray:none;stroke-dashoffset:0;stroke-opacity:1" />
      <path
         sodipodi:nodetypes="cccc"
         inkscape:connector-curvature="0"
         id="path948"
         d="m -141.92012,215.8837 c 3.65573,-3.75625 6.44444,-7.00673 8.58902,-9.88147 -2.13316,2.16062 -4.27241,4.31362 -6.89806,5.85863 -1.10843,1.39047 -1.95577,2.75721 -1.69096,4.02284 z"
         style="opacity:1;vector-effect:none;fill:#151726;fill-opacity:1;stroke:none;stroke-width:0.1;stroke-linecap:butt;stroke-linejoin:round;stroke-miterlimit:4;stroke-dasharray:none;stroke-dashoffset:0;stroke-opacity:1" />
      <path
         sodipodi:nodetypes="cccccc"
         inkscape:connector-curvature="0"
         id="path950"
         d="m -150.85974,214.12872 c 2.71654,-2.8163 5.69294,-5.00897 8.12648,-8.50447 1.42503,-2.39788 4.7247,-4.12624 7.08706,-6.18936 -3.95479,2.06567 -7.6647,4.14155 -8.64621,6.33111 -1.75267,2.58844 -4.40211,4.7285 -6.61458,7.08705 -0.81393,1.01291 -0.45857,1.49681 0.0473,1.27567 z"
         style="opacity:1;vector-effect:none;fill:#252a35;fill-opacity:1;stroke:none;stroke-width:0.1;stroke-linecap:butt;stroke-linejoin:round;stroke-miterlimit:4;stroke-dasharray:none;stroke-dashoffset:0;stroke-opacity:1" />
      <path
         style="opacity:1;vector-effect:none;fill:#121826;fill-opacity:1;stroke:none;stroke-width:0.08405153;stroke-linecap:butt;stroke-linejoin:round;stroke-miterlimit:4;stroke-dasharray:none;stroke-dashoffset:0;stroke-opacity:1"
         d="m -104.14239,176.68944 c 1.18991,2.45567 0.71793,3.92588 0.1862,4.79413 -0.2243,-2.36846 -0.3731,-4.37846 -0.1862,-4.79413 z"
         id="path954"
         inkscape:connector-curvature="0"
         sodipodi:nodetypes="ccc" />
      <path
         sodipodi:nodetypes="ccc"
         inkscape:connector-curvature="0"
         id="path956"
         d="m -107.73316,179.52426 c 1.18991,2.45567 0.71793,3.92588 0.1862,4.79413 -0.2243,-2.36846 -0.3731,-4.37846 -0.1862,-4.79413 z"
         style="opacity:1;vector-effect:none;fill:#252a35;fill-opacity:1;stroke:none;stroke-width:0.08405153;stroke-linecap:butt;stroke-linejoin:round;stroke-miterlimit:4;stroke-dasharray:none;stroke-dashoffset:0;stroke-opacity:1" />
      <path
         sodipodi:nodetypes="ccc"
         inkscape:connector-curvature="0"
         id="path952"
         d="m -112.06994,183.60714 c 0.94779,3.10511 0.12302,4.74667 -0.66146,5.66964 0.17125,-2.8253 0.36542,-5.21535 0.66146,-5.66964 z"
         style="opacity:1;vector-effect:none;fill:#252a35;fill-opacity:1;stroke:none;stroke-width:0.1;stroke-linecap:butt;stroke-linejoin:round;stroke-miterlimit:4;stroke-dasharray:none;stroke-dashoffset:0;stroke-opacity:1" />
      <path
         sodipodi:nodetypes="ccc"
         inkscape:connector-curvature="0"
         id="path958"
         d="m -108.60997,176.04838 c -0.85036,1.44491 -1.73854,2.86334 -3.20723,3.87541 0.82201,-1.57416 1.94568,-2.80358 3.20723,-3.87541 z"
         style="opacity:1;vector-effect:none;fill:#262939;fill-opacity:1;stroke:none;stroke-width:0.1;stroke-linecap:butt;stroke-linejoin:round;stroke-miterlimit:4;stroke-dasharray:none;stroke-dashoffset:0;stroke-opacity:1" />
      <path
         style="opacity:1;vector-effect:none;fill:#2b3042;fill-opacity:1;stroke:none;stroke-width:0.1;stroke-linecap:butt;stroke-linejoin:round;stroke-miterlimit:4;stroke-dasharray:none;stroke-dashoffset:0;stroke-opacity:1"
         d="m -102.89308,170.11888 c -0.85036,1.44491 -1.73854,2.86334 -3.20723,3.87541 0.82201,-1.57416 1.94568,-2.80358 3.20723,-3.87541 z"
         id="path960"
         inkscape:connector-curvature="0"
         sodipodi:nodetypes="ccc" />
      <path
         sodipodi:nodetypes="ccc"
         inkscape:connector-curvature="0"
         id="path962"
         d="m -106.70167,167.98073 c -0.67955,3.66542 -16.77186,17.10316 -18.24114,18.10751 0.82201,-1.57416 16.97959,-17.03568 18.24114,-18.10751 z"
         style="opacity:1;vector-effect:none;fill:#272c37;fill-opacity:1;stroke:none;stroke-width:0.1;stroke-linecap:butt;stroke-linejoin:round;stroke-miterlimit:4;stroke-dasharray:none;stroke-dashoffset:0;stroke-opacity:1" />
      <path
         style="opacity:1;vector-effect:none;fill:#191714;fill-opacity:1;stroke:none;stroke-width:0.08227178;stroke-linecap:butt;stroke-linejoin:round;stroke-miterlimit:4;stroke-dasharray:none;stroke-dashoffset:0;stroke-opacity:1"
         d="m -55.652508,215.40236 c -1.726652,-1.25714 -2.674247,1.5586 -3.335379,3.36567 -0.374782,-2.9427 0.971241,-4.76276 3.529735,-5.40639 0.412159,-0.007 1.053973,-0.18679 0.99121,1.22443 -0.163078,0.61134 -0.361592,1.17088 -1.185566,0.81629 z"
         id="path942"
         inkscape:connector-curvature="0"
         sodipodi:nodetypes="ccccc" />
      <ellipse
         ry="2.3241348"
         rx="2.115561"
         cy="215.24081"
         cx="-55.090927"
         id="path944"
         style="opacity:1;vector-effect:none;fill:#605d57;fill-opacity:1;fill-rule:evenodd;stroke:none;stroke-width:0.17837642;stroke-linecap:butt;stroke-linejoin:miter;stroke-miterlimit:4;stroke-dasharray:none;stroke-dashoffset:0;stroke-opacity:1" />
      <path
         sodipodi:nodetypes="ccccccccccccccccccc"
         inkscape:connector-curvature="0"
         id="path940"
         d="m -55.057522,212.87692 c 1.564854,0.0338 1.832057,-1.12447 3.006782,-1.20272 0.787782,-0.74777 1.496292,-1.2016 2.271792,-2.60588 -0.579233,-2.22636 -1.394504,-3.03648 -2.138157,-4.27631 0.01172,-3.45575 -0.418362,-7.05876 -0.935445,-10.69078 -0.678229,-3.26541 -1.163824,-4.98974 -1.670433,-6.88219 l 2.806329,-1.26953 c 0.540753,5.05948 1.372528,9.24589 2.071339,13.8312 1.209673,2.33085 1.622365,4.09244 3.942225,7.21628 2.326239,0.54877 2.967266,1.51883 3.942226,2.40542 0.890899,0.0622 1.781797,-0.42846 2.672696,0.60136 0.445449,0.0805 0.890898,-0.34592 1.336347,0.53454 0.859026,-0.66779 1.657345,-0.91063 2.33861,-0.33409 l 0.06682,4.00904 c -7.86357,0.60925 -7.122907,-1.64959 -9.087165,-3.00678 -1.034283,-0.53731 -2.979062,0.74637 -4.677217,1.5368 -1.375126,2.53747 -2.778332,5.29959 -3.80859,5.07812 -1.747239,0.0545 -3.84473,-0.20886 -4.142679,-1.87088 -0.0656,-1.84765 -0.05132,-2.94984 2.00452,-3.0736 z"
         style="opacity:1;vector-effect:none;fill:#353130;fill-opacity:1;stroke:none;stroke-width:0.1;stroke-linecap:butt;stroke-linejoin:round;stroke-miterlimit:4;stroke-dasharray:none;stroke-dashoffset:0;stroke-opacity:1" />
      <path
         sodipodi:nodetypes="ccccc"
         inkscape:connector-curvature="0"
         id="path938"
         d="m -38.978795,218.00297 c -1.639294,-1.29831 -3.307931,1.86575 -4.771948,3.40179 1.20987,-3.08867 1.898377,-5.09993 5.008184,-5.88225 0.500973,-0.008 1.281087,-0.22704 1.204799,1.48828 -0.198218,0.74307 -0.439508,1.42318 -1.441035,0.99218 z"
         style="opacity:1;vector-effect:none;fill:#2b2826;fill-opacity:1;stroke:none;stroke-width:0.1;stroke-linecap:butt;stroke-linejoin:round;stroke-miterlimit:4;stroke-dasharray:none;stroke-dashoffset:0;stroke-opacity:1" />
      <ellipse
         style="opacity:1;vector-effect:none;fill:#858484;fill-opacity:1;fill-rule:evenodd;stroke:none;stroke-width:0.17255364;stroke-linecap:butt;stroke-linejoin:miter;stroke-miterlimit:4;stroke-dasharray:none;stroke-dashoffset:0;stroke-opacity:1"
         id="ellipse946"
         cx="-38.419991"
         cy="217.11171"
         rx="1.7509768"
         ry="2.6277244" />
      <path
         sodipodi:nodetypes="cccc"
         inkscape:connector-curvature="0"
         id="path926"
         d="m -9.5438988,216.86904 c -0.2426766,-3.49341 1.8778326,-2.26045 3.9687499,-1.08668 -0.8625723,-4.0192 -4.1898745,-2.28737 -6.8035711,-2.22061 z"
         style="opacity:1;vector-effect:none;fill:#302f30;fill-opacity:1;stroke:none;stroke-width:0.1;stroke-linecap:butt;stroke-linejoin:round;stroke-miterlimit:4;stroke-dasharray:none;stroke-dashoffset:0;stroke-opacity:1" />
      <path
         style="opacity:1;vector-effect:none;fill:#302f30;fill-opacity:1;stroke:none;stroke-width:0.05893684;stroke-linecap:butt;stroke-linejoin:round;stroke-miterlimit:4;stroke-dasharray:none;stroke-dashoffset:0;stroke-opacity:1"
         d="m -13.536629,213.2268 c 0.415025,-0.99126 0.384252,-0.75983 1.788517,-0.60103 -1.081436,-1.39474 -1.570699,-0.99179 -2.974891,-0.35721 z"
         id="path934"
         inkscape:connector-curvature="0"
         sodipodi:nodetypes="cccc" />
      <path
         sodipodi:nodetypes="cccc"
         inkscape:connector-curvature="0"
         id="path936"
         d="m -16.271371,212.59612 c 0.137268,-1.06583 0.168975,-0.83453 1.565069,-1.05384 -1.412613,-1.05799 -1.777488,-0.53971 -2.963097,0.44456 z"
         style="opacity:1;vector-effect:none;fill:#302f30;fill-opacity:1;stroke:none;stroke-width:0.05893684;stroke-linecap:butt;stroke-linejoin:round;stroke-miterlimit:4;stroke-dasharray:none;stroke-dashoffset:0;stroke-opacity:1" />
      <path
         sodipodi:nodetypes="cccc"
         inkscape:connector-curvature="0"
         id="path928"
         d="m -18.071986,213.75074 c 0.505296,0.15289 3.307284,-1.52374 3.141927,-1.93713 0.724854,-0.0647 1.291018,0.53715 1.700893,1.79539 z"
         style="opacity:1;vector-effect:none;fill:#2a2728;fill-opacity:1;stroke:none;stroke-width:0.1;stroke-linecap:butt;stroke-linejoin:round;stroke-miterlimit:4;stroke-dasharray:none;stroke-dashoffset:0;stroke-opacity:1" />
      <path
         style="opacity:1;vector-effect:none;fill:#2a2728;fill-opacity:1;stroke:none;stroke-width:0.1;stroke-linecap:butt;stroke-linejoin:round;stroke-miterlimit:4;stroke-dasharray:none;stroke-dashoffset:0;stroke-opacity:1"
         d="m -20.507962,214.62378 c 0.527772,-0.0125 2.666306,-2.48007 2.380159,-2.82118 0.668429,-0.28775 1.394185,0.10727 2.176377,1.17467 z"
         id="path932"
         inkscape:connector-curvature="0"
         sodipodi:nodetypes="cccc" />
      <path
         sodipodi:nodetypes="cccccc"
         inkscape:connector-curvature="0"
         id="path924"
         d="m -20.505208,217.95573 c -1.457275,-0.46952 -3.133806,0.3765 -4.252232,-2.12612 -3.736404,-0.45969 -1.954691,-2.2989 -1.417411,-3.82701 -1.611904,3.02152 -3.654725,2.16477 -5.764138,0.70871 l 1.559153,-9.02419 z"
         style="opacity:1;vector-effect:none;fill:#715f59;fill-opacity:1;stroke:none;stroke-width:0.1;stroke-linecap:butt;stroke-linejoin:round;stroke-miterlimit:4;stroke-dasharray:none;stroke-dashoffset:0;stroke-opacity:1" />
      <path
         sodipodi:nodetypes="ccccccccccccsccccccc"
         inkscape:connector-curvature="0"
         id="path922"
         d="m -34.254093,181.15029 c 2.189112,7.68552 3.688566,15.92276 6.567337,23.05655 0.73034,1.09275 1.209724,0.13602 2.645834,6.99256 1.590293,0.78799 3.365913,1.29798 4.488467,2.78758 8.236491,-1.03363 7.362448,-0.58758 8.173735,-0.42523 1.32052,0.56589 2.3923394,1.48706 2.8348212,3.30729 -0.8008442,0.46888 -1.4970822,0.85018 -2.9240732,0.53739 -1.987575,2.36958 -4.187056,1.96458 -6.283298,0.77531 -3.917819,-0.0702 -5.839923,-5.43286 -7.423581,-6.17914 -0.614637,-0.8713 -0.792826,-1.88809 -2.456846,-2.4096 -0.828507,-4.32807 -1.595304,-6.74315 -2.173362,-3.30729 -0.29502,2.15372 -0.05142,4.38438 -1.13393,6.4256 0.164607,5.75377 -3.850764,7.47666 -6.268468,7.15594 -2.541804,-0.33718 -2.552168,-4.64855 -0.629595,-5.36056 1.548185,-0.36023 3.282867,0.58748 4.623493,-1.22842 0.312765,-2.71587 0.912077,-5.26801 2.463559,-7.27604 l -0.283482,-3.87426 c -1.298243,-6.48585 -2.432491,-12.95348 -4.819195,-19.56027 l -1.700951,-2.4313 z"
         style="opacity:1;vector-effect:none;fill:#353130;fill-opacity:1;stroke:none;stroke-width:0.1;stroke-linecap:butt;stroke-linejoin:round;stroke-miterlimit:4;stroke-dasharray:none;stroke-dashoffset:0;stroke-opacity:1" />
      <path
         sodipodi:nodetypes="sssss"
         inkscape:connector-curvature="0"
         id="path870"
         d="m -11.041314,30.032046 c 0.590367,0.0342 1.2581262,0.582321 1.1400382,1.359275 -0.08464,0.556885 -0.7186562,0.713584 -1.2788882,0.672329 -0.526741,-0.03879 -0.980289,-0.471004 -0.986571,-0.920798 -0.0074,-0.527045 0.445442,-1.150195 1.125421,-1.110806 z"
         style="opacity:1;vector-effect:none;fill:#ffffff;fill-opacity:1;stroke:none;stroke-width:0.122;stroke-linecap:butt;stroke-linejoin:round;stroke-miterlimit:4;stroke-dasharray:none;stroke-dashoffset:0;stroke-opacity:1" />
      <path
         sodipodi:nodetypes="ccsccc"
         inkscape:connector-curvature="0"
         id="path864"
         d="M 25.088169,22.542038 C 19.0797,27.137052 10.724171,31.190886 5.8586308,33.219866 c -1.129225,0.667872 -1.5374586,0.888166 -1.9168317,0.491242 -0.5316694,-0.556266 0.9850126,-1.590402 0.9718914,-1.955901 -1.8220684,0.978292 -2.2080792,0.161513 -3.1183036,0 7.5995386,-4.322944 15.0907441,-9.469223 23.2927821,-9.213169 z"
         style="opacity:1;vector-effect:none;fill:#d36d03;fill-opacity:1;stroke:none;stroke-width:0.1;stroke-linecap:butt;stroke-linejoin:round;stroke-miterlimit:4;stroke-dasharray:none;stroke-dashoffset:0;stroke-opacity:1" />
      <path
         sodipodi:nodetypes="ccccc"
         inkscape:connector-curvature="0"
         id="path898"
         d="m -14.032366,131.30468 c -8.069105,6.20407 -0.09709,9.26448 1.337069,11.0799 -3.080972,-1.11759 -9.111503,-3.99443 -4.408125,-9.80423 l -2.976563,-1.84263 c 1.968254,0.45089 3.845274,1.40357 6.047619,0.56696 z"
         style="opacity:1;vector-effect:none;fill:#323742;fill-opacity:0.63084112;stroke:none;stroke-width:0.1;stroke-linecap:butt;stroke-linejoin:round;stroke-miterlimit:4;stroke-dasharray:none;stroke-dashoffset:0;stroke-opacity:1" />
      <path
         sodipodi:nodetypes="cccccc"
         inkscape:connector-curvature="0"
         id="path890"
         d="m -62.14016,192.09671 c 7.589851,-7.03372 16.914274,-16.23567 22.769552,-21.10117 2.149374,-0.5521 2.751386,-2.12644 4.029834,-3.07441 -1.659519,1.60245 -1.226453,2.36787 -5.008184,4.8192 l -18.951469,17.61913 z"
         style="opacity:1;vector-effect:none;fill:#191a22;fill-opacity:1;stroke:none;stroke-width:0.1;stroke-linecap:butt;stroke-linejoin:round;stroke-miterlimit:4;stroke-dasharray:none;stroke-dashoffset:0;stroke-opacity:1" />
      <path
         sodipodi:nodetypes="cccc"
         inkscape:connector-curvature="0"
         id="path878"
         d="m -43.467261,166.22023 c -6.583086,5.89013 -8.772297,9.41471 -19.938245,17.5759 -0.829081,0.63959 -2.275063,0.85017 1.748142,-2.40959 z"
         style="opacity:1;vector-effect:none;fill:#191a22;fill-opacity:1;stroke:none;stroke-width:0.1;stroke-linecap:butt;stroke-linejoin:round;stroke-miterlimit:4;stroke-dasharray:none;stroke-dashoffset:0;stroke-opacity:1" />
      <path
         sodipodi:nodetypes="cccc"
         inkscape:connector-curvature="0"
         id="path886"
         d="m -55.942852,168.07585 c -4.975813,1.70839 -5.472606,1.75136 -7.500252,2.33861 2.599563,-0.99991 5.044191,-1.89653 8.146195,-3.2314 -0.0057,0.2116 -0.05265,0.53218 -0.645943,0.89279 z"
         style="opacity:1;vector-effect:none;fill:#191a22;fill-opacity:1;stroke:none;stroke-width:0.1;stroke-linecap:butt;stroke-linejoin:round;stroke-miterlimit:4;stroke-dasharray:none;stroke-dashoffset:0;stroke-opacity:1" />
      <path
         sodipodi:nodetypes="cscccc"
         inkscape:connector-curvature="0"
         id="path892"
         d="m -60.834852,176.54852 c -0.71604,0.87889 -1.296635,0.99588 -0.943737,1.38162 0.406901,0.44477 0.72133,-0.12984 1.347999,-0.78906 8.291755,-8.96282 16.161824,-17.99473 25.017379,-26.60478 -3.512109,2.82632 -6.242971,5.51332 -9.020347,8.0849 z"
         style="opacity:1;vector-effect:none;fill:#161a23;fill-opacity:1;stroke:none;stroke-width:0.1;stroke-linecap:butt;stroke-linejoin:round;stroke-miterlimit:4;stroke-dasharray:none;stroke-dashoffset:0;stroke-opacity:1" />
      <path
         sodipodi:nodetypes="cccc"
         inkscape:connector-curvature="0"
         id="path884"
         d="m -39.763763,150.74806 c -6.679906,6.14079 -7.749497,7.64436 -14.940801,13.50104 -0.415479,0.41655 -0.94518,0.54754 -1.443568,0.75681 8.109244,-7.4501 8.946887,-8.22991 16.384369,-14.25785 z"
         style="opacity:1;vector-effect:none;fill:#171a25;fill-opacity:1;stroke:none;stroke-width:0.1;stroke-linecap:butt;stroke-linejoin:round;stroke-miterlimit:4;stroke-dasharray:none;stroke-dashoffset:0;stroke-opacity:1" />
      <path
         style="opacity:1;vector-effect:none;fill:#1b1e29;fill-opacity:1;stroke:none;stroke-width:0.1;stroke-linecap:butt;stroke-linejoin:round;stroke-miterlimit:4;stroke-dasharray:none;stroke-dashoffset:0;stroke-opacity:1"
         d="m -42.388506,149.86419 c -6.679906,6.14079 -10.154923,9.78252 -17.346227,15.6392 -0.415479,0.41655 -0.94518,0.54754 -1.443568,0.75681 8.109244,-7.4501 11.541301,-10.08458 18.789795,-16.39601 z"
         id="path882"
         inkscape:connector-curvature="0"
         sodipodi:nodetypes="cccc" />
      <path
         sodipodi:nodetypes="cccc"
         inkscape:connector-curvature="0"
         id="path880"
         d="m -43.097211,147.59633 c -6.679906,6.14079 -13.054356,12.45128 -20.24566,18.30796 l -1.550917,0.69393 c 8.109244,-7.4501 14.548083,-12.69046 21.796577,-19.00189 z"
         style="opacity:1;vector-effect:none;fill:#191c28;fill-opacity:1;stroke:none;stroke-width:0.1;stroke-linecap:butt;stroke-linejoin:round;stroke-miterlimit:4;stroke-dasharray:none;stroke-dashoffset:0;stroke-opacity:1" />
      <path
         sodipodi:nodetypes="cccc"
         inkscape:connector-curvature="0"
         id="path896"
         d="m -20.847023,139.91233 c -6.842612,8.48741 -13.260211,18.10819 -20.579752,25.32379 1.104551,-1.89316 1.582195,-3.78632 3.340867,-5.67948 9.881128,-10.92616 11.49259,-13.09621 17.238885,-19.64431 z"
         style="opacity:1;vector-effect:none;fill:#171a25;fill-opacity:1;stroke:none;stroke-width:0.1;stroke-linecap:butt;stroke-linejoin:round;stroke-miterlimit:4;stroke-dasharray:none;stroke-dashoffset:0;stroke-opacity:1" />
      <path
         sodipodi:nodetypes="cccccc"
         inkscape:connector-curvature="0"
         id="path894"
         d="m -44.128719,172.92931 c 7.72283,-9.30895 12.85119,-15.4456 19.276785,-24.00148 l 6.898065,-10.01637 c -2.78929,4.7877 -5.572057,9.57539 -8.88244,14.36309 -3.522414,6.34819 -9.346913,12.12086 -14.930059,17.95387 -1.104002,0.88352 -1.581408,1.14043 -2.362351,1.70089 z"
         style="opacity:1;vector-effect:none;fill:#191a22;fill-opacity:1;stroke:none;stroke-width:0.1;stroke-linecap:butt;stroke-linejoin:round;stroke-miterlimit:4;stroke-dasharray:none;stroke-dashoffset:0;stroke-opacity:1" />
      <path
         sodipodi:nodetypes="ccccc"
         inkscape:connector-curvature="0"
         id="path902"
         d="m -81.650839,145.32454 c 3.119878,-4.68333 5.256704,-9.5071 9.488067,-14.03165 0.190257,-0.59765 -0.308193,-0.64434 -1.00226,-0.53454 -3.641472,3.82933 -6.558558,8.17607 -8.953529,12.89576 0.0053,0.55681 -0.135042,1.11362 0.467722,1.67043 z"
         style="opacity:1;vector-effect:none;fill:#323541;fill-opacity:1;stroke:none;stroke-width:0.1;stroke-linecap:butt;stroke-linejoin:round;stroke-miterlimit:4;stroke-dasharray:none;stroke-dashoffset:0;stroke-opacity:1" />
      <path
         style="opacity:1;vector-effect:none;fill:#292c38;fill-opacity:1;stroke:none;stroke-width:0.1;stroke-linecap:butt;stroke-linejoin:round;stroke-miterlimit:4;stroke-dasharray:none;stroke-dashoffset:0;stroke-opacity:1"
         d="m -69.160351,135.86888 c 3.355617,-4.53391 5.567388,-7.23971 10.52419,-10.95537 0.291751,-0.55521 -0.190874,-0.68827 -0.89345,-0.70143 -4.254516,3.1342 -6.61666,5.7017 -9.799412,9.93034 -0.09207,0.54917 -0.327535,1.0729 0.168672,1.72646 z"
         id="path904"
         inkscape:connector-curvature="0"
         sodipodi:nodetypes="ccccc" />
      <path
         sodipodi:nodetypes="ccccccc"
         inkscape:connector-curvature="0"
         id="path900"
         d="m -52.869419,128.09189 1.606399,0.7087 -1.181177,0.47247 c -6.047618,6.98297 -12.04799,14.02048 -18.142855,22.2061 l 0.04725,-1.46465 c 6.092567,-8.24876 11.242573,-14.22808 17.339656,-21.02493 z"
         style="opacity:1;vector-effect:none;fill:#303442;fill-opacity:1;stroke:none;stroke-width:0.1;stroke-linecap:butt;stroke-linejoin:round;stroke-miterlimit:4;stroke-dasharray:none;stroke-dashoffset:0;stroke-opacity:1" />
      <path
         sodipodi:nodetypes="cccccccccccc"
         inkscape:connector-curvature="0"
         id="path910"
         d="m -82.398808,151.00669 c -1.065054,0.62825 -0.471962,1.36705 -0.283483,2.07887 -0.750903,2.12701 0.45667,1.92565 2.173365,1.41742 2.007892,-0.52838 4.16503,0.82533 5.669642,0.56696 1.033042,-0.85111 -0.502542,-1.28569 -2.740329,-1.6064 1.246938,-0.0821 2.566625,-0.13294 3.212798,-0.47247 0.24581,-1.29389 -0.937617,-1.3372 -2.078868,-1.41741 l 1.606399,-0.75595 c 0.945011,-1.32697 -2.759715,-0.77426 -4.441222,-1.03944 1.326018,-0.0808 2.742189,-0.096 3.401788,-0.66146 0.05335,-1.10718 -0.225488,-2.63961 -5.575149,-1.70089 -1.705011,1.89086 -1.17916,2.33434 -0.944941,3.59077 z"
         style="opacity:1;vector-effect:none;fill:#24242f;fill-opacity:1;stroke:none;stroke-width:0.1;stroke-linecap:butt;stroke-linejoin:round;stroke-miterlimit:4;stroke-dasharray:none;stroke-dashoffset:0;stroke-opacity:1" />
      <path
         sodipodi:nodetypes="sssss"
         inkscape:connector-curvature="0"
         id="path916"
         d="M 8.8755212,25.9993 C 9.3394813,25.66768 9.9960339,24.856084 9.8510044,24.668154 9.7235829,24.50304 8.5178979,24.694863 7.986303,25.090757 7.5146201,25.442033 7.0131012,26.42552 7.110677,26.581658 7.2274295,26.768482 8.3809475,26.352801 8.8755212,25.9993 Z"
         style="opacity:1;vector-effect:none;fill:#b85510;fill-opacity:1;stroke:none;stroke-width:0.1;stroke-linecap:butt;stroke-linejoin:round;stroke-miterlimit:4;stroke-dasharray:none;stroke-dashoffset:0;stroke-opacity:1" />
      <path
         sodipodi:nodetypes="ccccc"
         inkscape:connector-curvature="0"
         id="path888"
         d="m -71.360963,194.83622 c 0.32836,1.08615 0.966519,1.4682 2.271792,0.33409 l 22.851543,-21.98292 c -7.165632,8.05508 -15.033413,15.05693 -22.550867,22.58427 -2.719201,2.02139 -2.665212,-0.12179 -2.572468,-0.93544 z"
         style="opacity:1;vector-effect:none;fill:#191a22;fill-opacity:1;stroke:none;stroke-width:0.1;stroke-linecap:butt;stroke-linejoin:round;stroke-miterlimit:4;stroke-dasharray:none;stroke-dashoffset:0;stroke-opacity:1" />
      <path
         sodipodi:nodetypes="ccccccccccccccccccccccccccccccccccccccccccccccccccscccccc"
         inkscape:connector-curvature="0"
         id="path876"
         d="m -18.241145,79.776689 c 3.004879,3.610431 7.359652,3.449954 8.3521726,3.875408 3.4577517,1.034623 3.966109,1.884909 5.6126599,2.806332 l 2.3386084,1.870885 1.60361719,2.004523 c 0.73281986,1.593992 2.18936881,2.154085 1.80406931,5.34539 -0.2863963,5.305033 0.3619667,5.235193 0.7349912,6.748553 1.0667671,3.09706 0.5648881,5.32266 0.066817,7.55037 1.1908322,1.65427 2.9923888,3.19164 2.2717909,5.21175 l 0.8189553,-2.4533 c 0.8910524,-3.74944 0.4256701,-4.97979 0.1164881,-6.50023 -0.4168452,-2.57727 -0.1146429,-4.4355 0.534539,-5.94674 C 4.5467881,97.877991 5.0428438,96.435567 4.8776685,94.676967 l -1.4699824,-1.737252 -2.73951258,-3.87541 -1.26953024,-0.46772 c -0.38834269,-1.287794 -0.90501648,-1.933932 -1.67043448,-1.336349 -0.041108,-1.214519 0.012526,-2.677735 -1.0022609,-1.336347 -0.9876344,-1.479628 -1.7997378,-1.203944 -2.6726951,-1.536801 l -2.2049737,-1.269529 c -0.2429862,-0.98141 0.3778931,-2.57588 -2.8063291,-1.469982 -0.646079,-0.40055 -1.219233,-0.946949 -2.472243,-0.133636 -1.57911,-2.280349 -1.911933,-1.849924 -2.605879,-2.204971 l 2.271792,-4.543584 3.340869,-3.741772 c 1.7271765,-1.160112 1.8374866,-5.015001 2.5390598,-7.884451 -0.8828004,-1.020032 -2.3935198,-0.853994 -4.4099468,0.267269 -2.145629,-0.154198 -3.388317,-1.411991 -4.409947,-2.939965 -0.118785,-1.080959 -0.587785,-1.671618 -1.336348,-1.870888 -4.747578,0.215858 -5.133461,-1.167572 -6.280834,-2.271789 -0.805196,-5.669001 -3.570166,-7.880472 -6.147199,-10.423511 0.762339,-3.697043 5.724259,-4.606028 5.479025,-8.686261 -0.919922,-1.136903 -2.24305,-1.668999 -3.875406,-1.737251 l -5.211757,-0.53454 c 0.630014,-2.481069 2.318536,-4.374078 6.147199,-5.078119 0.927529,-1.687497 -0.247048,-2.535641 -5.879931,-1.603619 -2.057454,0.09199 -4.098384,4.478234 -6.147199,6.815373 -0.608457,2.47558 -1.669876,3.743264 -2.80633,4.810853 7.9e-5,2.661713 -0.111592,5.463114 0.571532,7.271022 1.364708,6.135378 -0.560449,6.348999 -1.707428,7.963339 0.03196,1.450154 -3.331492,6.921122 3.942226,6.1472 4.476766,-0.133635 7.184456,-0.190903 11.893494,-1.403165 1.24352,-0.274937 2.90675,-1.227869 1.937705,2.071338 2.603845,1.514443 5.124679,2.11576 7.550364,1.670434 2.753164,-0.381712 5.125139,-0.0555 5.412208,4.142679 0.03721,1.700203 -0.484013,2.953658 -1.336348,3.942225 -1.380892,1.034456 -2.761785,0.76662 -4.142677,0.400905 -3.203207,-3.059544 -6.641349,-7.372071 -9.354434,-7.817633 -6.835894,-3.282694 -7.462064,-2.364692 -8.418989,-1.670436 0.09754,0.939292 -0.243018,1.294441 0.334087,2.873147 2.792103,1.250295 7.783829,2.528124 6.720812,4.44726 -1.182254,2.134402 -2.072768,-1.069741 -6.052638,-1.774563 -3.284983,-0.069 -2.980925,0.579801 -3.808593,1.00226 -0.757887,0.687385 -1.949768,1.068422 0.200454,3.80859 1.285135,1.400008 2.317877,2.821049 7.750815,3.875407 2.765192,-0.700228 5.594316,-1.166034 8.886712,0.06682 z"
         style="opacity:1;vector-effect:none;fill:#121118;fill-opacity:0.9766355;stroke:none;stroke-width:0.1;stroke-linecap:butt;stroke-linejoin:round;stroke-miterlimit:4;stroke-dasharray:none;stroke-dashoffset:0;stroke-opacity:1" />
    </g>
  </g>
</svg>
