<?xml version="1.0" encoding="UTF-8" standalone="no"?>
<!-- Created with Inkscape (http://www.inkscape.org/) -->

<svg
   xmlns:dc="http://purl.org/dc/elements/1.1/"
   xmlns:cc="http://creativecommons.org/ns#"
   xmlns:rdf="http://www.w3.org/1999/02/22-rdf-syntax-ns#"
   xmlns:svg="http://www.w3.org/2000/svg"
   xmlns="http://www.w3.org/2000/svg"
   xmlns:sodipodi="http://sodipodi.sourceforge.net/DTD/sodipodi-0.dtd"
   xmlns:inkscape="http://www.inkscape.org/namespaces/inkscape"
   width="210mm"
   height="297mm"
   viewBox="0 0 210 297"
   version="1.1"
   id="svg8"
   inkscape:version="0.92.4 (5da689c313, 2019-01-14)"
   sodipodi:docname="Tucano.svg">
  <defs
     id="defs2" />
  <sodipodi:namedview
     id="base"
     pagecolor="#ffffff"
     bordercolor="#666666"
     borderopacity="1.0"
     inkscape:pageopacity="0.0"
     inkscape:pageshadow="2"
     inkscape:zoom="0.35355339"
     inkscape:cx="-71.526641"
     inkscape:cy="808.5807"
     inkscape:document-units="mm"
     inkscape:current-layer="layer1"
     showgrid="false"
     inkscape:window-width="1920"
     inkscape:window-height="1001"
     inkscape:window-x="-9"
     inkscape:window-y="-9"
     inkscape:window-maximized="1" />
  <metadata
     id="metadata5">
    <rdf:RDF>
      <cc:Work
         rdf:about="">
        <dc:format>image/svg+xml</dc:format>
        <dc:type
           rdf:resource="http://purl.org/dc/dcmitype/StillImage" />
        <dc:title></dc:title>
      </cc:Work>
    </rdf:RDF>
  </metadata>
  <g
     inkscape:label="Camada 1"
     inkscape:groupmode="layer"
     id="layer1">
    <g
       id="g1115"
       transform="matrix(0.54784159,0,0,0.54784159,43.799616,87.82188)">
      <path
         style="opacity:1;vector-effect:none;fill:#14170f;fill-opacity:1;stroke:none;stroke-width:0.5;stroke-linecap:butt;stroke-linejoin:round;stroke-miterlimit:4;stroke-dasharray:none;stroke-dashoffset:0;stroke-opacity:1"
         d="m 65.798684,188.05541 c -1.64408,3.15156 -4.02043,2.54232 -6.18454,-0.40066 1.25968,4.33226 2.56839,6.89208 8.71586,3.14134 z"
         id="path857"
         inkscape:connector-curvature="0"
         sodipodi:nodetypes="cccc" />
      <path
         sodipodi:nodetypes="cccc"
         inkscape:connector-curvature="0"
         id="path855"
         d="m 65.995524,192.88515 c -2.42704,4.5719 -5.25976,2.65286 -8.11496,0.37418 2.48138,5.61406 5.92908,7.38386 11.27209,1.61364 z"
         style="opacity:1;vector-effect:none;fill:#14170f;fill-opacity:1;stroke:none;stroke-width:0.5;stroke-linecap:butt;stroke-linejoin:round;stroke-miterlimit:4;stroke-dasharray:none;stroke-dashoffset:0;stroke-opacity:1" />
      <path
         sodipodi:nodetypes="ccccccccccccccccccccccccccsccccccccccscscccccccccccc"
         inkscape:connector-curvature="0"
         id="path885"
         d="m -79.431086,262.71698 c 26.84019,-12.99628 31.99158,-7.96717 51.92905,-9.30864 l 12.4414,-0.37418 c 1.02315,-1.88904 2.45192,-1.0739 3.83532,-0.56127 3.02161,-0.73271 5.23987,-3.02192 10.10279,-0.18708 l 7.39,1.21607 15.34127,-0.18709 2.80633,-0.46772 3.64823,0.93544 c 1.12253,-0.37418 2.30742,-0.37418 3.55468,0 1.0485,-0.29028 2.07766,-0.64826 3.3676,-0.0935 l 2.33861,-0.28063 c 1.0466,-0.27421 2.11284,-0.52387 3.64823,-0.18709 2.96223,-0.76171 4.45755,0.15304 6.64164,0.28063 l 36.85647,-1.40316 c 1.99237,-0.632 3.89766,-1.3027 8.98026,-0.56127 l 59.494196,-4.58367 c 7.34051,-3.0002 14.60369,-6.03679 30.21482,-5.14494 16.63348,-2.21521 33.52412,-8.07381 38.91444,-13.18975 l -17.21054,-7.70627 c -1.44523,1.09385 -1.88937,-0.1482 -2.64584,-0.66146 -1.53906,1.14423 -1.77792,-0.32997 -3.24483,1.03673 -0.46929,-1.91438 -1.69695,-2.74689 -2.84058,-4.34402 l -61.38334,-19.05 c -4.79605,-0.78225 -7.17494,1.07241 -17.3302,-5.55625 -11.46668,-3.16123 -27.212916,-9.17551 -34.263546,-9.39271 -6.02191,1.04071 -17.6686,2.58874 -25.74001,5.94433 -8.09217,3.36422 -16.10049,5.42185 -23.44466,6.25488 0.60114,0.49801 -8.92675,2.98189 -13.1247,1.02995 -10.17236,3.50704 -19.18852,9.23011 -30.69167,10.18646 -1.71519,-0.24077 -4.81735,-2.41835 -3.30729,-5.02708 l 4.49791,-6.87917 c 0.54879,-1.96344 -2.21329,-0.4481 8.33438,-10.98021 1.56582,-3.18054 4.76421,-2.15822 7.9913,-4.9014 3.24136,-1.47192 5.83338,-2.6275 9.24558,-4.20782 6.44937,-1.28959 12.60928,-2.69509 22.05374,-2.66473 18.49804,-2.37231 22.77758,-5.88562 34.52813,-8.46667 10.76458,-1.0506 24.20339,4.40304 35.310396,6.7768 4.97659,1.06358 9.15181,2.66912 12.24846,3.80653 4.34093,-1.75459 12.95248,2.75414 22.81943,6.13617 9.84117,3.3732 21.59136,5.33224 26.19463,9.07737 l 18.42083,3.94818 c -0.75332,-2.58573 2.08638,0.0799 3.3676,0.46772 16.8489,7.85444 33.41092,13.70078 50.7074,24.68827 11.004,7.74428 21.62126,14.32836 34.52813,27.78125 3.4542,3.99618 5.16971,7.87645 1.19062,11.37708 -20.93551,6.81534 -42.68706,12.61062 -65.61667,16.93334 l -15.7427,3.175 c -26.50366,5.01821 -51.12143,6.7361 -75.67084,8.33438 l -121.708326,3.96875 c -24.68149,2.20894 -43.3437,-3.3947 -79.77188,13.75833 z"
         style="opacity:1;vector-effect:none;fill:#251316;fill-opacity:1;stroke:none;stroke-width:0.5;stroke-linecap:butt;stroke-linejoin:round;stroke-miterlimit:4;stroke-dasharray:none;stroke-dashoffset:0;stroke-opacity:1" />
      <path
         sodipodi:nodetypes="cccc"
         inkscape:connector-curvature="0"
         id="path861"
         d="m 14.873554,202.23959 c 9.2695,5.07391 10.34201,-2.6603 11.69406,-4.77547 -4.4838,4.85085 -8.69739,3.49847 -9.12159,2.34331 -2.43316,-0.55009 -2.86939,0.62445 -2.57247,2.43216 z"
         style="opacity:1;vector-effect:none;fill:#14170f;fill-opacity:1;stroke:none;stroke-width:0.5;stroke-linecap:butt;stroke-linejoin:round;stroke-miterlimit:4;stroke-dasharray:none;stroke-dashoffset:0;stroke-opacity:1" />
      <path
         sodipodi:nodetypes="cccccc"
         inkscape:connector-curvature="0"
         id="path859"
         d="m 17.960514,197.18819 c -0.0735,0.34523 -1.02926,2.56204 -0.51449,2.61924 -2.00648,-0.0647 -2.39133,1.10613 -2.57247,2.43216 -1.27421,-0.21813 -1.74326,-0.94863 -2.05798,-1.77735 l -1.54348,-0.4911 z"
         style="opacity:1;vector-effect:none;fill:#614e43;fill-opacity:1;stroke:none;stroke-width:0.5;stroke-linecap:butt;stroke-linejoin:round;stroke-miterlimit:4;stroke-dasharray:none;stroke-dashoffset:0;stroke-opacity:1" />
      <path
         sodipodi:nodetypes="cccccc"
         inkscape:connector-curvature="0"
         id="path893"
         d="m 9.541524,168.09591 c -3.71105,3.44804 -11.41551,17.05078 -11.03823,10.10278 -2.71353,-10.24005 -4.62245,6.6758 -6.89375,11.361 l -1.32292,1.05833 c -0.79003,-7.83428 -0.40564,-16.58055 2.64583,-24.87083 7.38723,-5.69514 11.1241,1.38596 16.60907,2.34872 z"
         style="opacity:1;vector-effect:none;fill:#3f3335;fill-opacity:1;stroke:none;stroke-width:0.5;stroke-linecap:butt;stroke-linejoin:round;stroke-miterlimit:4;stroke-dasharray:none;stroke-dashoffset:0;stroke-opacity:1" />
      <path
         sodipodi:nodetypes="ccsccccc"
         inkscape:connector-curvature="0"
         id="path836"
         d="m 110.95932,54.272093 c 0.90481,3.643226 0.98218,5.050004 1.13614,7.408946 7.01063,9.805306 2.92325,15.641079 -2.42401,34.329384 -3.92481,13.716927 -25.715096,29.390207 -32.072326,38.912817 -29.72412,27.29443 -59.76919,41.77026 -75.00937,49.47708 l -29.63334,-87.577083 65.77094,-70.72763 z"
         style="opacity:1;vector-effect:none;fill:#16273b;fill-opacity:1;stroke:none;stroke-width:0.5;stroke-linecap:butt;stroke-linejoin:round;stroke-miterlimit:4;stroke-dasharray:none;stroke-dashoffset:0;stroke-opacity:1" />
      <path
         sodipodi:nodetypes="cccccccccccccccccccccccccccccc"
         inkscape:connector-curvature="0"
         id="path850"
         d="m 72.825934,186.31341 -4.0709,-13.44674 2.61924,8.79316 -1.4967,6.82874 -2.21769,1.64109 m 0,0 -2.31921,1.44587 c 0.10004,1.06017 1.83843,2.96224 4.91107,3.55469 l 0.93545,-1.96444 c 2.81147,-2.80633 1.68379,-5.61265 2.52569,-8.41898 0.65618,-0.93766 1.44758,-1.3388 1.27753,-2.83843 0.9878,-0.80516 1.01213,-2.2125 0.59336,-3.89677 0.0643,-1.41381 0.18066,-2.69774 -0.0935,-4.95784 -0.1252,-1.13401 -0.28272,-2.02655 -1.37657,-3.01674 -0.29168,-3.09241 -3.07537,-5.73599 -6.01343,-8.67631 -3.65293,-8.36783 -10.53933,-2.99341 -15.80899,-4.49012 l -12.4414,-0.28064 c -3.19014,1.7681 -11.55701,3.96732 3.18051,7.01583 l 9.9157,1.02898 c -1.41092,1.04846 -1.8029,1.58744 -2.24506,2.15152 -1.38584,0.63818 -3.33285,1.61306 -5.33203,2.61924 -3.61267,1.36487 -1.24973,1.01538 -0.13748,1.43527 6.47583,-1.32128 8.19074,-1.56583 10.98862,-2.51646 1.20092,-0.12472 2.33479,-0.29079 3.64823,-0.41551 1.1849,2.33612 2.36979,4.14888 3.55469,5.23848 0.57211,1.52349 -0.19232,0.70804 2.15151,5.33203 0.0239,0.554 -0.0339,1.02628 0.46773,2.05797 0.15762,1.59197 0.34473,3.21343 0.74835,5.0514 -0.56126,1.15371 -1.00161,2.26472 -1.56287,3.41843 0.49105,0.61676 0.62897,1.26422 2.4321,1.12253"
         style="opacity:1;vector-effect:none;fill:#614e43;fill-opacity:1;stroke:none;stroke-width:0.5;stroke-linecap:butt;stroke-linejoin:round;stroke-miterlimit:4;stroke-dasharray:none;stroke-dashoffset:0;stroke-opacity:1" />
      <path
         sodipodi:nodetypes="ccccccc"
         inkscape:connector-curvature="0"
         id="path865"
         d="m -53.226726,191.76262 c -10.29653,30.90563 -23.11579,51.79313 -21.17727,68.96999 l 56.22395,-7.80521 c 8.33532,-26.28138 6.40914,-56.91849 11.1125,-87.18021 l -10.9802,-4.89479 -33.66823,23.34948 z"
         style="opacity:1;vector-effect:none;fill:#131220;fill-opacity:1;stroke:none;stroke-width:0.5;stroke-linecap:butt;stroke-linejoin:round;stroke-miterlimit:4;stroke-dasharray:none;stroke-dashoffset:0;stroke-opacity:1" />
      <path
         sodipodi:nodetypes="cccccccc"
         inkscape:connector-curvature="0"
         id="path863"
         d="m -41.463376,150.40136 c -6.49092,2.21827 -6.47563,22.18488 -11.1125,36.90937 -1.15663,1.80427 -2.45272,8.71097 0.72761,0.33073 1.31993,0.99591 2.67105,-0.34825 4.03489,-2.64583 l -0.13229,2.11667 c 0.20535,3.38739 3.78647,-1.74902 5.68854,-2.64584 0.20725,-2.06531 0.0959,-4.11187 0.99219,-6.21771 z"
         style="opacity:1;vector-effect:none;fill:#eaf0fc;fill-opacity:1;stroke:none;stroke-width:0.5;stroke-linecap:butt;stroke-linejoin:round;stroke-miterlimit:4;stroke-dasharray:none;stroke-dashoffset:0;stroke-opacity:1" />
      <path
         sodipodi:nodetypes="cccccccccccccccccccccccccccccccc"
         inkscape:connector-curvature="0"
         id="path834"
         d="m 10.077854,42.546112 c 1.17989,1.054395 0.4993,2.820951 -0.06,4.918034 3.72688,-2.209235 11.72601,-4.784274 15.53352,-4.765324 3.47804,-4.867091 11.94291,0.0045 25.08602,-0.108785 14.10142,-1.639873 23.06883,7.840349 10.16642,33.084067 -4.54854,16.509612 -11.32422,18.913997 -17.21215,26.940766 -11.93043,13.82706 -24.17622,30.96532 -35.17267,34.98558 l -31.99216,28.43748 c -8.35361,4.92365 -24.00713,18.20555 -26.28321,17.05166 0.53365,-7.05662 3.53123,-14.52389 6.07763,-21.91597 -0.38979,-4.77165 5.14119,-15.10313 1.6838,-13.84456 -0.46039,-1.45274 -0.78166,-2.07075 -1.12253,-2.80633 -0.54199,1.85483 -0.86077,3.30537 -1.07576,4.67722 -2.83354,2.22188 -4.91108,-0.18709 -4.91108,-0.18709 0.32685,-1.75952 0.36245,-3.02153 0.93544,-3.78854 -1.14105,-1.47601 -1.77588,-1.81303 -2.43215,-2.1983 l 1.12253,-1.68379 c -2.28066,-0.40094 -2.56659,-2.79661 -3.74177,-4.30304 0.84161,-0.90657 1.90494,-3.33649 2.99342,-6.73519 3.63664,-6.45748 6.59493,-8.73332 8.55128,-10.28988 5.75262,-12.57075 14.38379,-26.531127 26.62139,-42.094952 2.28723,-4.846185 3.4714,-9.475932 8.04481,-14.780006 8.82753,-10.634205 7.17997,-18.485964 45.83672,-37.043555 0.23379,-2.803422 3.26335,-10.811762 0.18709,-12.347852 -0.27835,-3.8721056 3.20643,-14.54830986 -1.12253,-11.2253204 4.11081,-9.5078975 3.67403,-19.4615976 7.85772,-26.5665906 -0.0438,-2.732748 2.01014,-8.156138 4.32356,-10.33425 1.54446,-3.504558 4.1003,-7.529379 5.96632,-8.561705 0.72231,-4.00136 8.11635,-5.848209 10.66405,-7.670635 4.86109,-4.44761 10.25564,-3.048104 16.84835,-2.287813 l -16.54203,90.1189 c -22.88932,25.00382 -37.92802,6.829203 -56.89203,10.243805"
         style="opacity:1;vector-effect:none;fill:#161621;fill-opacity:1;stroke:none;stroke-width:0.5;stroke-linecap:butt;stroke-linejoin:round;stroke-miterlimit:4;stroke-dasharray:none;stroke-dashoffset:0;stroke-opacity:1" />
      <path
         sodipodi:nodetypes="cccscsccc"
         inkscape:connector-curvature="0"
         id="path832"
         d="m 61.743024,2.8205581 c 0.59513,4.2330124 1.11613,8.3389589 0,9.6383929 1.76665,8.996385 2.42799,22.387743 8.31548,27.592262 14.28614,13.461341 17.29035,9.868683 21.998,13.96583 4.52643,3.93943 9.843466,5.87142 11.750606,3.424872 13.11687,0.748497 7.68459,-16.470915 1.53843,-40.054475 -2.11291,-8.1075163 3.13032,-16.83330586 4.21147,-27.0400959 -4.30443,-1.9362731 -32.411366,-27.9713701 -44.412206,-8.4099701 -5.84977,11.9543071 -6.00965,17.88402614 -3.40178,20.8831841 z"
         style="opacity:1;vector-effect:none;fill:#f5f3f4;fill-opacity:1;stroke:none;stroke-width:0.5;stroke-linecap:butt;stroke-linejoin:round;stroke-miterlimit:4;stroke-dasharray:none;stroke-dashoffset:0;stroke-opacity:1" />
      <path
         sodipodi:nodetypes="ccsscc"
         inkscape:connector-curvature="0"
         id="path828"
         d="m 85.435314,-56.023523 c -9.5536,10.1067 6.46185,14.738146 5.0339,34.748099 3.66232,4.101259 6.46772,8.240451 10.899056,11.6331301 1.06011,0.811633 4.58487,-0.145709 9.61825,0.596784 5.60216,0.826397 11.59144,-0.424702 17.28031,-4.0089321 z"
         style="opacity:1;vector-effect:none;fill:#1f1b1a;fill-opacity:1;stroke:none;stroke-width:0.5;stroke-linecap:butt;stroke-linejoin:round;stroke-miterlimit:4;stroke-dasharray:none;stroke-dashoffset:0;stroke-opacity:1" />
      <path
         style="opacity:1;vector-effect:none;fill:#303753;fill-opacity:1;stroke:none;stroke-width:0.5;stroke-linecap:butt;stroke-linejoin:round;stroke-miterlimit:4;stroke-dasharray:none;stroke-dashoffset:0;stroke-opacity:1"
         d="m 223.70582,-43.670514 c -19.51812,-10.830126 -49.15561,1.220093 -50.04759,-12.817533 9.12745,-19.745615 9.082,-21.673276 37.76336,-6.45925 2.44383,2.197673 12.38619,15.481499 12.47802,19.185859 0.003,0.117041 -0.15079,0.09952 -0.19379,0.09092 z"
         id="path883"
         inkscape:connector-curvature="0"
         sodipodi:nodetypes="cccsc" />
      <path
         sodipodi:nodetypes="cccc"
         inkscape:connector-curvature="0"
         id="path838"
         d="m 96.350664,63.139162 c 1.94734,9.342832 -2.97822,14.984866 -7.29645,20.953931 -0.46687,5.920916 -7.01366,12.517378 -11.5995,18.895957 -10.04043,17.23206 -24.91468,33.74988 -30.12128,38.54026"
         style="opacity:1;vector-effect:none;fill:none;fill-opacity:1;stroke:#1f2b44;stroke-width:0.5;stroke-linecap:butt;stroke-linejoin:round;stroke-miterlimit:4;stroke-dasharray:none;stroke-dashoffset:0;stroke-opacity:1" />
      <path
         sodipodi:nodetypes="ccc"
         inkscape:connector-curvature="0"
         id="path840"
         d="m 112.09546,61.681038 c 1.12394,18.706186 -15.898566,32.231603 -20.983276,51.036622 -3.78088,1.19228 -9.66625,16.83798 -17.58634,23.57317"
         style="opacity:1;vector-effect:none;fill:none;fill-opacity:1;stroke:#1f2b44;stroke-width:0.5;stroke-linecap:butt;stroke-linejoin:round;stroke-miterlimit:4;stroke-dasharray:none;stroke-dashoffset:0;stroke-opacity:1" />
      <path
         sodipodi:nodetypes="cccc"
         inkscape:connector-curvature="0"
         id="path846"
         d="m 35.938544,196.53338 c 0.75346,5.83802 -3.20674,6.08809 -5.72372,5.61266 6.85825,3.86076 8.33374,-0.63893 9.43628,-5.71789 z"
         style="opacity:1;vector-effect:none;fill:#1f1b1a;fill-opacity:1;stroke:none;stroke-width:0.5;stroke-linecap:butt;stroke-linejoin:round;stroke-miterlimit:4;stroke-dasharray:none;stroke-dashoffset:0;stroke-opacity:1" />
      <path
         sodipodi:nodetypes="cscccscccc"
         inkscape:connector-curvature="0"
         id="path826"
         d="m 85.435314,-56.023523 c 0,0 -4.55338,2.4459 4.55896,5.331431 1.52292,0.482248 3.36059,2.051711 3.26784,4.849368 2.29342,4.590582 5.31347,14.106167 5.1446,24.283817 9.637916,-3.789665 19.726276,1.87975 29.860116,8.504465 8.84269,-0.0077 52.80925,-27.838772 94.39382,-30.418738 0.489,-0.03034 1.12112,-0.01514 1.04517,-0.197334 -16.42509,-12.475506 -46.47066,1.400144 -50.04759,-12.817533 9.12745,-19.745615 9.082,-21.673276 37.76336,-6.45925 -25.58565,-23.915233 -83.30184,-17.811698 -125.986276,6.923774 z"
         style="opacity:1;vector-effect:none;fill:#febb4d;fill-opacity:1;stroke:none;stroke-width:0.5;stroke-linecap:butt;stroke-linejoin:round;stroke-miterlimit:4;stroke-dasharray:none;stroke-dashoffset:0;stroke-opacity:1" />
      <path
         sodipodi:nodetypes="ccccc"
         inkscape:connector-curvature="0"
         id="path887"
         d="m 93.262114,-45.842725 c 16.434696,-6.093785 33.351136,-23.508535 49.159926,-14.893414 6.58938,-1.121361 15.99491,4.467749 23.28333,7.540626 -25.77665,9.443816 -45.69194,19.947438 -67.298656,31.636606 -0.0777,-7.548868 -0.87698,-15.338295 -5.1446,-24.283818 z"
         style="opacity:1;vector-effect:none;fill:#ffb502;fill-opacity:1;stroke:none;stroke-width:0.5;stroke-linecap:butt;stroke-linejoin:round;stroke-miterlimit:4;stroke-dasharray:none;stroke-dashoffset:0;stroke-opacity:1" />
      <path
         sodipodi:nodetypes="cccccc"
         inkscape:connector-curvature="0"
         id="path830"
         d="m 82.342724,-49.43465 c -2.367,0.908791 -3.57554,2.976048 -4.44122,5.38616 -16.54804,11.208504 -8.5325,17.329716 -12.7567,25.985864 2.45122,-1.500886 2.3364,-6.594213 9.35491,-1.700892 7.45241,2.786676 11.0393,-0.40062 15.9695,-1.511906 0.61236,-15.815026 -7.72205,-21.948418 -8.12649,-28.159226 z"
         style="opacity:1;vector-effect:none;fill:#fa8729;fill-opacity:1;stroke:none;stroke-width:0.5;stroke-linecap:butt;stroke-linejoin:round;stroke-miterlimit:4;stroke-dasharray:none;stroke-dashoffset:0;stroke-opacity:1" />
      <path
         sodipodi:nodetypes="cccc"
         inkscape:connector-curvature="0"
         id="path889"
         d="m 77.901504,-44.04849 c 1.40881,-0.628908 2.66141,-1.482438 5.84209,-0.845722 -0.75685,-1.726447 -1.32259,-3.026959 -1.35126,-4.540438 -2.63987,0.759359 -4.0205,3.279981 -4.49083,5.38616 z"
         style="opacity:1;vector-effect:none;fill:#f9fbfa;fill-opacity:1;stroke:none;stroke-width:0.5;stroke-linecap:butt;stroke-linejoin:round;stroke-miterlimit:4;stroke-dasharray:none;stroke-dashoffset:0;stroke-opacity:1" />
      <path
         sodipodi:nodetypes="cccc"
         inkscape:connector-curvature="0"
         id="path848"
         d="m 27.034314,161.36071 c 3.46385,2.72611 2.61945,7.48647 15.99608,2.24507 -4.04311,-1.64802 -9.67234,-2.32438 -3.18051,-7.01583 -2.88019,-1.64116 -6.11516,-4.05098 -7.57709,-2.61924"
         style="opacity:1;vector-effect:none;fill:#020200;fill-opacity:1;stroke:none;stroke-width:0.5;stroke-linecap:butt;stroke-linejoin:round;stroke-miterlimit:4;stroke-dasharray:none;stroke-dashoffset:0;stroke-opacity:1" />
      <path
         sodipodi:nodetypes="cccccc"
         inkscape:connector-curvature="0"
         id="path842"
         d="m -7.483546,150.88375 12.53494,7.10936 c -4.18903,0.1469 -7.29243,4.51649 -4.30557,6.87882 -3.7633,-1.90021 -2.78473,1.97259 -1.12,1.63372 l -12.90912,-0.8419 c -11.12728,-3.49538 0.64768,-14.22993 5.79975,-14.78 z"
         style="opacity:1;vector-effect:none;fill:#0c0e16;fill-opacity:1;stroke:none;stroke-width:0.5;stroke-linecap:butt;stroke-linejoin:round;stroke-miterlimit:4;stroke-dasharray:none;stroke-dashoffset:0;stroke-opacity:1" />
      <path
         sodipodi:nodetypes="ccccc"
         inkscape:connector-curvature="0"
         id="path875"
         d="m -10.011036,165.91256 c -8.25016,5.70684 -10.63499,16.02092 -21.26588,17.99166 -3.65859,0.13325 -5.59244,-1.58797 -2.67891,-10.35182 l 15.90808,-12.7 z"
         style="opacity:1;vector-effect:none;fill:#441316;fill-opacity:1;stroke:none;stroke-width:0.5;stroke-linecap:butt;stroke-linejoin:round;stroke-miterlimit:4;stroke-dasharray:none;stroke-dashoffset:0;stroke-opacity:1" />
      <path
         sodipodi:nodetypes="cccscc"
         inkscape:connector-curvature="0"
         id="path869"
         d="m -64.452046,256.12112 18.47501,-68.70831 c 2.36793,-3.89961 3.65936,-9.81481 7.29179,-11.34687 3.73841,-2.59625 1.08358,10.3495 -2.09153,30.72334 -2.63795,16.92705 -8.1989,40.85764 -15.76785,47.59333 z"
         style="opacity:1;vector-effect:none;fill:#0f1015;fill-opacity:1;stroke:none;stroke-width:0.5;stroke-linecap:butt;stroke-linejoin:round;stroke-miterlimit:4;stroke-dasharray:none;stroke-dashoffset:0;stroke-opacity:1" />
      <path
         sodipodi:nodetypes="ccc"
         inkscape:connector-curvature="0"
         id="path867"
         d="m -50.723786,188.43521 c 0.36326,6.0558 -11.43187,32.32302 -17.72709,60.52344 0.86384,-14.22483 11.16669,-41.13785 17.72709,-60.52344 z"
         style="opacity:1;vector-effect:none;fill:#08101e;fill-opacity:1;stroke:none;stroke-width:0.5;stroke-linecap:butt;stroke-linejoin:round;stroke-miterlimit:4;stroke-dasharray:none;stroke-dashoffset:0;stroke-opacity:1" />
      <path
         sodipodi:nodetypes="ccccc"
         inkscape:connector-curvature="0"
         id="path873"
         d="m -13.252176,169.12063 4.66328,-4.23333 c -1.48755,30.66687 -2.1591,61.29987 -9.59115,88.0401 l -7.01145,-0.39688 c 7.72398,-25.61765 12.28431,-54.7056 11.93932,-83.40989 z"
         style="opacity:1;vector-effect:none;fill:#0e0f11;fill-opacity:1;stroke:none;stroke-width:0.5;stroke-linecap:butt;stroke-linejoin:round;stroke-miterlimit:4;stroke-dasharray:none;stroke-dashoffset:0;stroke-opacity:1" />
      <path
         sodipodi:nodetypes="ccccc"
         inkscape:connector-curvature="0"
         id="path895"
         d="m 12.254314,175.48591 1.02898,-6.08039 -3.74177,-1.30961 c -8.1318,3.45541 -18.6365,2.83658 -17.93198,21.46378 z"
         style="opacity:1;vector-effect:none;fill:#0e0e10;fill-opacity:1;stroke:none;stroke-width:0.5;stroke-linecap:butt;stroke-linejoin:round;stroke-miterlimit:4;stroke-dasharray:none;stroke-dashoffset:0;stroke-opacity:1" />
      <path
         sodipodi:nodetypes="ccccccccccccccccccccccc"
         inkscape:connector-curvature="0"
         id="path844"
         d="m -0.374176,166.50565 c 7.69311,-0.34197 9.89177,1.60542 13.65747,2.89987 -1.73441,0.70186 -3.35468,2.71077 -2.95615,3.83665 -1.26994,0.99706 -2.10087,2.47041 -0.75154,2.91231 -0.8177,0.4951 -1.16371,1.25914 -1.90497,2.41839 l 8.79317,-4.11595 12.72203,-2.43215 c 2.33579,2.15511 3.38094,8.25169 7.10937,6.17392 -2.78594,4.53042 -0.90718,7.81693 -0.18709,11.41241 -3.00034,4.07586 -0.8848,4.86293 -0.74835,6.92228 5.4614,0.15642 4.74428,-0.36569 5.23848,-1.30962 -0.36187,-3.804 -0.36637,-8.09873 -1.07811,-10.7623 1.45551,-0.76562 1.04965,-2.28958 0.14267,-4.0177 2.14079,-2.32355 -0.86368,-6.16796 -1.6838,-7.67064 -0.85467,-2.70874 -2.30187,-5.00727 -4.30304,-6.92228 -6.90338,-0.66081 -5.29875,-1.3094 -7.85773,-1.49671 0.10972,-1.08633 -1.65731,-1.5248 -3.41892,-1.33434 -1.12708,-1.08832 -3.77206,-0.85443 -5.18715,-1.2849 -1.13696,-1.30125 -1.79103,-1.43409 -3.60261,-1.23106 -0.80946,-0.1638 -1.92333,-0.66273 -3.09999,-0.3395 -1.04232,-0.30589 -2.37046,-1.09399 -4.04416,-0.91565 -0.91334,-0.40371 -0.78066,-1.06069 -1.41401,-1.25557 -24.92104,-2.17683 -11.23267,6.15703 -5.42557,8.51254 z"
         style="opacity:1;vector-effect:none;fill:#614e43;fill-opacity:1;stroke:none;stroke-width:0.5;stroke-linecap:butt;stroke-linejoin:round;stroke-miterlimit:4;stroke-dasharray:none;stroke-dashoffset:0;stroke-opacity:1" />
      <path
         sodipodi:nodetypes="cccccccccccccccccccccccc"
         inkscape:connector-curvature="0"
         id="path897"
         d="m 0.010064,160.95162 c 1.39878,-1.04948 1.77264,0.18738 2.41432,0.82682 -0.15657,0.41103 0.34383,1.0605 1.14173,0.78664 -0.23955,-1.57335 0.80457,-0.33691 1.6314,-0.69546 0.24926,0.55733 0.61558,0.35333 0.81182,0.63857 0.6569,0.43212 1.06577,0.99861 2.12365,1.0328 1.18071,-0.84575 2.92509,1.59488 4.80859,1.64396 1.34565,-0.59463 2.47531,-1.40524 4.82864,-0.99219 -0.83631,0.36637 -1.87023,0.40337 -2.21588,1.5875 -1.38213,0.31945 -1.49394,0.71829 -1.48828,1.12448 -1.60004,0.5167 -0.26247,1.15581 0.0661,1.75287 0.56485,-0.0597 0.84815,-0.0255 1.15756,0 -1.08524,0.2493 -1.62136,0.49861 -2.00646,0.74791 l -12.2149,-2.9638 c 0.18522,-0.20884 1.15086,-0.83278 2.74326,-0.0181 0.48893,-1.18913 1.2786,-0.441 2.73146,0.36272 1.58039,-1.04958 2.9712,1.24766 2.83309,1.02844 0.73319,-0.0161 1.45387,-0.0179 2.50704,0.44594 l 0.13229,-0.59531 c -0.90972,-0.47662 -0.67426,-1.30177 -3.40651,-1.2237 0.30115,-1.62615 -1.56422,-0.77626 -2.38125,-1.12448 -3.18716,-1.26191 -5.51176,-0.2812 -7.83828,0.69454 -2.86092,-2.45679 0.10092,-3.59521 1.62061,-5.06016 z"
         style="opacity:1;vector-effect:none;fill:#14170f;fill-opacity:1;stroke:none;stroke-width:0.1;stroke-linecap:butt;stroke-linejoin:round;stroke-miterlimit:4;stroke-dasharray:none;stroke-dashoffset:0;stroke-opacity:1" />
      <path
         sodipodi:nodetypes="ccccc"
         inkscape:connector-curvature="0"
         id="path905"
         d="m 38.470114,192.90854 c 0.6061,0.52928 1.35315,0.28334 2.03742,0.38269 -0.83438,0.10592 -1.70864,0.66042 -2.54908,0.14032 l -1.33585,-1.20121 c 0.67938,0.3827 1.03137,1.05303 1.84751,0.6782 z"
         style="opacity:1;vector-effect:none;fill:#0e1f3e;fill-opacity:1;stroke:none;stroke-width:0.1;stroke-linecap:butt;stroke-linejoin:round;stroke-miterlimit:4;stroke-dasharray:none;stroke-dashoffset:0;stroke-opacity:1" />
      <path
         inkscape:connector-curvature="0"
         id="path907"
         d="m 35.032354,176.14072 2.57247,1.21607 1.73057,-0.93544"
         style="opacity:1;vector-effect:none;fill:none;fill-opacity:1;stroke:#5c555e;stroke-width:0.30000001;stroke-linecap:butt;stroke-linejoin:round;stroke-miterlimit:4;stroke-dasharray:none;stroke-dashoffset:0;stroke-opacity:1" />
      <path
         sodipodi:nodetypes="ccc"
         inkscape:connector-curvature="0"
         id="path899"
         d="m 39.662804,180.44376 c -0.50741,0.81293 -1.50721,0.0784 -2.43216,-0.42095 0.95557,0.35759 1.72454,0.43528 2.43216,0.42095 z"
         style="opacity:1;vector-effect:none;fill:#2a2e44;fill-opacity:1;stroke:none;stroke-width:0.1;stroke-linecap:butt;stroke-linejoin:round;stroke-miterlimit:4;stroke-dasharray:none;stroke-dashoffset:0;stroke-opacity:1" />
      <path
         style="opacity:1;vector-effect:none;fill:#0e1f3e;fill-opacity:1;stroke:none;stroke-width:0.1;stroke-linecap:butt;stroke-linejoin:round;stroke-miterlimit:4;stroke-dasharray:none;stroke-dashoffset:0;stroke-opacity:1"
         d="m 39.795754,183.47342 c -0.82761,0.30384 -1.72198,0.73502 -2.13923,0.643 0,0 -0.59293,-1.1816 -0.11221,-1.28663 -0.003,-0.26844 -0.70085,-0.81543 -0.66008,-1.10911 0.74973,0.69202 1.97027,1.54551 2.91152,1.75274 z"
         id="path901"
         inkscape:connector-curvature="0"
         sodipodi:nodetypes="ccccc" />
      <path
         sodipodi:nodetypes="ccc"
         inkscape:transform-center-y="-0.25724692"
         inkscape:transform-center-x="0.11693042"
         inkscape:connector-curvature="0"
         id="path903"
         d="m 39.799134,189.83964 c -1.29841,0.54932 -2.31815,0.20387 -3.29346,-0.60272 1.52765,1.19305 2.41045,1.97171 3.29346,0.60272 z"
         style="opacity:1;vector-effect:none;fill:#2a3245;fill-opacity:1;stroke:none;stroke-width:0.1;stroke-linecap:butt;stroke-linejoin:round;stroke-miterlimit:4;stroke-dasharray:none;stroke-dashoffset:0;stroke-opacity:1" />
      <path
         sodipodi:nodetypes="cccc"
         inkscape:connector-curvature="0"
         id="path909"
         d="m 67.398694,168.18945 c 1.35634,4.67722 2.68288,6.73391 3.88209,11.50595 -0.46373,0.33588 0.30426,1.13146 0.0468,3.04019 -0.27249,0.54839 -0.51626,1.10636 -0.42095,1.77735"
         style="opacity:1;vector-effect:none;fill:none;fill-opacity:1;stroke:#e6f0fd;stroke-width:0.1;stroke-linecap:butt;stroke-linejoin:round;stroke-miterlimit:4;stroke-dasharray:none;stroke-dashoffset:0;stroke-opacity:1" />
      <path
         sodipodi:nodetypes="cccc"
         inkscape:connector-curvature="0"
         id="path913"
         d="m 176.421,-50.814264 c -8.24299,-11.903534 -49.65347,15.015105 -66.8073,23.481771 20.19213,-9.451053 52.17337,-21.836848 73.1573,-20.439063 z"
         style="opacity:1;vector-effect:none;fill:#f86b3d;fill-opacity:1;stroke:none;stroke-width:0.1;stroke-linecap:butt;stroke-linejoin:round;stroke-miterlimit:4;stroke-dasharray:none;stroke-dashoffset:0;stroke-opacity:1" />
      <path
         style="opacity:1;vector-effect:none;fill:none;fill-opacity:1;stroke:none;stroke-width:0.5;stroke-linecap:butt;stroke-linejoin:round;stroke-miterlimit:4;stroke-dasharray:none;stroke-dashoffset:0;stroke-opacity:1"
         d="M 92.812664,-19.328848 C 149.03711,-42.040835 190.90839,-54.943272 222.879,-43.96817"
         id="path915"
         inkscape:connector-curvature="0"
         sodipodi:nodetypes="cc" />
      <path
         sodipodi:nodetypes="ccc"
         inkscape:connector-curvature="0"
         id="path911"
         d="M 222.879,-43.96817 C 173.2374,-59.289029 123.31505,-33.098055 92.812664,-19.328848 121.99213,-29.923055 169.93144,-58.701262 222.879,-43.96817 Z"
         style="opacity:1;vector-effect:none;fill:#f5f3f4;fill-opacity:1;stroke:none;stroke-width:0.5;stroke-linecap:butt;stroke-linejoin:round;stroke-miterlimit:4;stroke-dasharray:none;stroke-dashoffset:0;stroke-opacity:1" />
      <path
         sodipodi:nodetypes="csccc"
         inkscape:connector-curvature="0"
         id="path877"
         d="m 84.568784,-23.482891 c 1.77754,-1.811396 1.64464,-6.5409 0.004,-9.52045 -1.36141,-2.471802 -3.77711,-3.13439 -6.54503,-3.129757 -4.12242,0.598664 -7.82106,7.155242 -2.36131,12.88642 1.00619,0.784514 4.88302,3.265553 8.90277,-0.236213 z"
         style="opacity:1;vector-effect:none;fill:#34386a;fill-opacity:1;stroke:none;stroke-width:0.5;stroke-linecap:butt;stroke-linejoin:round;stroke-miterlimit:4;stroke-dasharray:none;stroke-dashoffset:0;stroke-opacity:1" />
      <path
         sodipodi:nodetypes="sssss"
         inkscape:connector-curvature="0"
         id="path879"
         d="m 83.419954,-29.085358 c 0.0841,-3.083801 -3.10824,-4.352392 -5.29166,-4.20026 -1.91404,0.133362 -3.78169,1.853206 -3.70417,3.770312 0.078,1.928465 2.33671,3.509063 4.26641,3.472656 2.60825,-0.04921 4.68612,-1.455761 4.72942,-3.042708 z"
         style="opacity:1;vector-effect:none;fill:#29211c;fill-opacity:1;stroke:none;stroke-width:0.5;stroke-linecap:butt;stroke-linejoin:round;stroke-miterlimit:4;stroke-dasharray:none;stroke-dashoffset:0;stroke-opacity:1" />
      <path
         style="opacity:1;vector-effect:none;fill:#0c0c16;fill-opacity:1;stroke:none;stroke-width:0.2725856;stroke-linecap:butt;stroke-linejoin:round;stroke-miterlimit:4;stroke-dasharray:none;stroke-dashoffset:0;stroke-opacity:1"
         d="m 81.345354,-29.478633 c 0.0435,-1.772854 -1.60692,-2.502159 -2.73571,-2.414698 -0.98953,0.07667 -1.95509,1.065394 -1.91501,2.167524 0.0403,1.108662 1.20805,2.017336 2.20567,1.996405 1.34844,-0.02829 2.42267,-0.836907 2.44505,-1.749231 z"
         id="path881"
         inkscape:connector-curvature="0"
         sodipodi:nodetypes="sssss" />
      <path
         style="opacity:1;vector-effect:none;fill:#0e1f3e;fill-opacity:1;stroke:none;stroke-width:0.1;stroke-linecap:butt;stroke-linejoin:round;stroke-miterlimit:4;stroke-dasharray:none;stroke-dashoffset:0;stroke-opacity:1"
         d="m 71.418294,183.98993 c 0.6061,0.52928 1.35315,0.28334 2.03742,0.38269 -0.83438,0.10592 -1.70864,0.66042 -2.54908,0.14032 l -1.33585,-1.20121 c 0.67938,0.3827 1.03137,1.05303 1.84751,0.6782 z"
         id="path919"
         inkscape:connector-curvature="0"
         sodipodi:nodetypes="ccccc" />
      <path
         style="opacity:1;vector-effect:none;fill:#2a2e44;fill-opacity:1;stroke:none;stroke-width:0.1;stroke-linecap:butt;stroke-linejoin:round;stroke-miterlimit:4;stroke-dasharray:none;stroke-dashoffset:0;stroke-opacity:1"
         d="m 74.774064,177.59371 c -0.50741,0.81293 -1.50721,0.0784 -2.43216,-0.42095 0.95557,0.35759 1.72454,0.43528 2.43216,0.42095 z"
         id="path921"
         inkscape:connector-curvature="0"
         sodipodi:nodetypes="ccc" />
      <path
         sodipodi:nodetypes="ccccc"
         inkscape:connector-curvature="0"
         id="path923"
         d="m 74.245994,171.78988 c -0.4208,0.77471 -0.80765,1.68913 -1.18173,1.89558 0,0 -1.22557,-0.4957 -0.93396,-0.89204 -0.17953,-0.19959 -1.06478,-0.14947 -1.22812,-0.39693 1.02,0.0245 2.50016,-0.14062 3.34381,-0.60661 z"
         style="opacity:1;vector-effect:none;fill:#0e1f3e;fill-opacity:1;stroke:none;stroke-width:0.1;stroke-linecap:butt;stroke-linejoin:round;stroke-miterlimit:4;stroke-dasharray:none;stroke-dashoffset:0;stroke-opacity:1" />
      <path
         style="opacity:1;vector-effect:none;fill:#2a3245;fill-opacity:1;stroke:none;stroke-width:0.1;stroke-linecap:butt;stroke-linejoin:round;stroke-miterlimit:4;stroke-dasharray:none;stroke-dashoffset:0;stroke-opacity:1"
         d="m 74.645814,181.10261 c -1.29841,0.54932 -2.31815,0.20387 -3.29346,-0.60272 1.52765,1.19305 2.41045,1.97171 3.29346,0.60272 z"
         id="path925"
         inkscape:connector-curvature="0"
         inkscape:transform-center-x="0.11693042"
         inkscape:transform-center-y="-0.25724692"
         sodipodi:nodetypes="ccc" />
      <path
         inkscape:connector-curvature="0"
         id="path929"
         d="m 67.015794,261.79094 5.55625,-1.19062 7.14375,0.79375 7.54062,-1.85209 16.404166,1.05834 6.48229,-2.11667 h 9.12813 l 6.74687,-1.32292 h 1.98438 l 1.05833,-0.79375 h 2.51354 l 18.25625,-3.175 7.67292,1.19063 3.175,-1.05834 3.70417,-1.85208 3.57187,-1.19062 10.84792,0.39687 5.42396,-1.5875 2.64583,-2.91042 8.20208,-0.92604"
         style="opacity:0.18800001;vector-effect:none;fill:none;fill-opacity:1;stroke:#ffffff;stroke-width:0.60000002;stroke-linecap:butt;stroke-linejoin:round;stroke-miterlimit:4;stroke-dasharray:none;stroke-dashoffset:0;stroke-opacity:1" />
      <path
         inkscape:connector-curvature="0"
         id="path931"
         d="m 28.811654,265.94328 h 15.34127 l 4.86431,-0.74836 3.74177,0.74836 6.73519,-0.74836 12.2841,1.22623 3.70416,-1.19063 h 2.38125 l 1.98438,-0.66145 8.20208,-0.1323 5.29167,-0.26458 0.39687,-0.66146 3.30729,0.66146"
         style="opacity:0.18800001;vector-effect:none;fill:none;fill-opacity:1;stroke:#ffffff;stroke-width:0.60000002;stroke-linecap:butt;stroke-linejoin:round;stroke-miterlimit:4;stroke-dasharray:none;stroke-dashoffset:0;stroke-opacity:1" />
      <path
         style="opacity:0.18800001;vector-effect:none;fill:none;fill-opacity:1;stroke:#ffffff;stroke-width:0.60000002;stroke-linecap:butt;stroke-linejoin:round;stroke-miterlimit:4;stroke-dasharray:none;stroke-dashoffset:0;stroke-opacity:1"
         d="m 52.631044,270.07993 h 15.34127 l 4.86431,-0.74836 3.74177,0.74836 6.73519,-0.74836 12.2841,1.22623 3.70416,-1.19063 h 2.381246 l 1.98438,-0.66145 8.20209,-0.1323 5.29167,-0.26458 0.39687,-0.66146 3.30729,0.66146"
         id="path933"
         inkscape:connector-curvature="0" />
      <path
         inkscape:connector-curvature="0"
         id="path935"
         d="m 75.392104,277.25929 h 15.34127 l 4.86431,-0.74836 3.74177,0.74836 6.735186,-0.74836 12.2841,1.22623 3.70416,-1.19063 h 2.38125 l 1.98438,-0.66145 8.20209,-0.1323 5.29167,-0.26458 0.39687,-0.66146 3.30729,0.66146"
         style="opacity:0.18800001;vector-effect:none;fill:none;fill-opacity:1;stroke:#ffffff;stroke-width:0.60000002;stroke-linecap:butt;stroke-linejoin:round;stroke-miterlimit:4;stroke-dasharray:none;stroke-dashoffset:0;stroke-opacity:1" />
      <path
         style="opacity:0.18800001;vector-effect:none;fill:none;fill-opacity:1;stroke:#ffffff;stroke-width:0.60000002;stroke-linecap:butt;stroke-linejoin:round;stroke-miterlimit:4;stroke-dasharray:none;stroke-dashoffset:0;stroke-opacity:1"
         d="m 100.22099,263.64302 h 15.34127 l 4.86431,-0.74836 3.74177,0.74836 6.73519,-0.74836 12.2841,1.22623 3.70416,-1.19063 h 2.38125 l 1.98438,-0.66145 8.20209,-0.1323 5.29167,-0.26458 0.39687,-0.66146 3.30729,0.66146"
         id="path937"
         inkscape:connector-curvature="0" />
      <path
         inkscape:connector-curvature="0"
         id="path939"
         d="M 146.53273,257.74933 H 161.874 l 4.86431,-0.74836 3.74177,0.74836 6.73519,-0.74836 12.2841,1.22623 3.70416,-1.19063 h 2.38125 l 1.98438,-0.66145 8.20208,-0.1323 5.29167,-0.26458 0.39687,-0.66146 3.30729,0.66146"
         style="opacity:0.18800001;vector-effect:none;fill:none;fill-opacity:1;stroke:#ffffff;stroke-width:0.60000002;stroke-linecap:butt;stroke-linejoin:round;stroke-miterlimit:4;stroke-dasharray:none;stroke-dashoffset:0;stroke-opacity:1" />
      <path
         style="opacity:0.18800001;vector-effect:none;fill:none;fill-opacity:1;stroke:#ffffff;stroke-width:0.60000002;stroke-linecap:butt;stroke-linejoin:round;stroke-miterlimit:4;stroke-dasharray:none;stroke-dashoffset:0;stroke-opacity:1"
         d="m 3.045264,280.97914 h 15.34127 l 4.86431,-0.74836 3.74177,0.74836 6.73519,-0.74836 12.2841,1.22623 3.70416,-1.19063 h 2.38125 l 1.98438,-0.66145 8.20208,-0.1323 5.29167,-0.26458 0.39687,-0.66146 3.30729,0.66146"
         id="path941"
         inkscape:connector-curvature="0" />
      <path
         inkscape:connector-curvature="0"
         id="path943"
         d="m 5.960244,273.43854 h 15.34127 l 4.86431,-0.74836 3.74177,0.74836 6.73519,-0.74836 12.2841,1.22623 3.70416,-1.19063 h 2.38125 l 1.98438,-0.66145 8.20208,-0.1323 5.29167,-0.26458 0.39687,-0.66146 3.30729,0.66146"
         style="opacity:0.18800001;vector-effect:none;fill:none;fill-opacity:1;stroke:#ffffff;stroke-width:0.60000002;stroke-linecap:butt;stroke-linejoin:round;stroke-miterlimit:4;stroke-dasharray:none;stroke-dashoffset:0;stroke-opacity:1" />
      <path
         style="opacity:0.18800001;vector-effect:none;fill:none;fill-opacity:1;stroke:#ffffff;stroke-width:0.60000002;stroke-linecap:butt;stroke-linejoin:round;stroke-miterlimit:4;stroke-dasharray:none;stroke-dashoffset:0;stroke-opacity:1"
         d="m 52.631044,274.44555 h 15.34127 l 4.86431,-0.74836 3.74177,0.74836 6.73519,-0.74836 12.2841,1.22623 3.70416,-1.19063 h 2.381246 l 1.98438,-0.66145 8.20208,-0.1323 5.29167,-0.26458 0.39687,-0.66146 3.30729,0.66146"
         id="path945"
         inkscape:connector-curvature="0" />
      <path
         inkscape:connector-curvature="0"
         id="path947"
         d="m -15.974026,278.38459 h 15.34127 l 4.86431,-0.74836 3.74177,0.74836 6.73519,-0.74836 12.2841,1.22623 3.70416,-1.19063 h 2.38125 l 1.98438,-0.66145 8.20208,-0.1323 5.29167,-0.26458 0.39687,-0.66146 3.30729,0.66146"
         style="opacity:0.18800001;vector-effect:none;fill:none;fill-opacity:1;stroke:#ffffff;stroke-width:0.60000002;stroke-linecap:butt;stroke-linejoin:round;stroke-miterlimit:4;stroke-dasharray:none;stroke-dashoffset:0;stroke-opacity:1" />
      <path
         inkscape:connector-curvature="0"
         id="path957"
         d="m -76.519266,297 c 0,0 0.93544,-2.99341 2.05798,-2.80633 1.12253,0.18709 4.11594,-0.18708 4.11594,-0.18708 l 0.56126,-2.24507 h 10.1028 l 1.68381,-1.49672 1.68378,-0.18709 1.68381,-0.56126 2.61924,-1.30961 6.5481,0.37417 0.93544,-1.12254 1.12254,-0.56126 2.61924,-0.56127 0.93544,-1.30963 2.99342,-0.18709 5.42557,-0.37417 2.61924,-1.87087 7.48355,0.74835 4.11595,-0.18709 3.3676,-0.74837 2.43215,0.56128 3.92886,0.18709 4.30304,0.18709 3.92886,0.93543 3.92887,0.93546 4.30303,-1.12254 3.92887,0.18708 4.8643,1.8709 3.92886,-0.93544"
         style="opacity:0.18800001;vector-effect:none;fill:none;fill-opacity:1;stroke:#ffffff;stroke-width:0.60000002;stroke-linecap:butt;stroke-linejoin:round;stroke-miterlimit:4;stroke-dasharray:none;stroke-dashoffset:0;stroke-opacity:1" />
      <path
         inkscape:connector-curvature="0"
         id="path959"
         d="m -71.654956,275.29771 2.05799,-1.12253 1.49669,0.37418 1.12255,-1.30962 2.80633,-0.18709 0.74835,-1.12253 1.68378,-1.30963 2.99341,-1.12253 0.56129,-1.30962 3.92885,2.24507 1.87089,-0.56127 1.12253,0.18709 2.05798,0.74835 1.49671,-0.93544 h 5.61266 l 1.49671,-1.12253 4.49013,0.18709 3.74177,-0.74836 3.3676,-0.74835 2.43215,-1.49671 2.05797,0.93544 2.80633,-0.93544 c 0,0 0.74836,-1.6838 1.6838,-1.49671 0.93545,0.18709 3.18051,0.93544 3.18051,0.93544 l 2.43215,-1.87089 2.80633,-0.18708 2.61924,-1.87089 1.6838,0.56127 c 0,0 2.80633,-1.49671 3.55468,-1.6838 0.74836,-0.18709 4.67722,0.37417 4.67722,0.37417 l 4.67722,-0.74835 3.18051,2.24507"
         style="opacity:0.18800001;vector-effect:none;fill:none;fill-opacity:1;stroke:#ffffff;stroke-width:0.60000002;stroke-linecap:butt;stroke-linejoin:round;stroke-miterlimit:4;stroke-dasharray:none;stroke-dashoffset:0;stroke-opacity:1" />
      <path
         inkscape:connector-curvature="0"
         id="path961"
         d="m -69.222796,279.41365 c 0,0 2.80633,-1.68378 5.0514,-1.12252 2.24504,0.56126 5.42554,-1.68381 5.42554,-1.68381 l 6.17394,-0.18709 4.86431,0.37418 5.79975,-1.30961 3.74177,-1.6838 7.29646,0.93544 6.17392,-0.56126 c 0,0 1.6838,-2.61924 2.80633,-2.61924 1.12254,0 5.0514,-0.18709 5.0514,-0.18709 l 3.36759,-2.99342 2.80633,0.18709 2.43216,-0.74836 4.49012,0.18709 c 0,0 2.99342,-1.49671 3.92887,-1.30962 0.93544,0.18709 1.6838,-0.18709 2.61924,0.37418 0.93544,0.56126 4.30304,0.93544 4.30304,0.93544 0,0 1.49671,-1.68379 2.80633,-1.49671 1.30962,0.18709 3.1805,1.12253 3.1805,1.12253 0,0 3.3676,1.87089 4.11596,1.6838 0.74835,-0.18708 2.80632,-0.93544 3.55468,-1.30962 0.74836,-0.37418 3.55469,-2.99342 3.55469,-2.99342"
         style="opacity:0.18800001;vector-effect:none;fill:none;fill-opacity:1;stroke:#ffffff;stroke-width:0.60000002;stroke-linecap:butt;stroke-linejoin:round;stroke-miterlimit:4;stroke-dasharray:none;stroke-dashoffset:0;stroke-opacity:1" />
      <path
         inkscape:connector-curvature="0"
         id="path963"
         d="m -72.590416,288.7681 2.80633,-1.68381 4.30305,0.74835 2.80633,-1.30961 5.0514,-0.18709 1.8709,-1.6838 3.36758,-0.37418 3.74177,-2.99341 4.11595,0.18708 7.10937,-0.18708 2.43216,-0.93544 0.74835,-1.68381 3.92886,0.18709 3.74178,-0.74835 2.99342,-0.18708 5.05139,-2.43216 5.42557,-1.49671 2.99342,0.56127 2.99342,-2.43216 2.05797,1.49671 3.74178,0.37418 1.6838,-1.30962 5.58606,0.76007"
         style="opacity:0.18800001;vector-effect:none;fill:none;fill-opacity:1;stroke:#ffffff;stroke-width:0.60000002;stroke-linecap:butt;stroke-linejoin:round;stroke-miterlimit:4;stroke-dasharray:none;stroke-dashoffset:0;stroke-opacity:1" />
      <path
         inkscape:connector-curvature="0"
         id="path965"
         d="m -73.338756,271.18176 5.05139,-1.87089 3.55468,-1.77734 2.24507,-1.21607 2.05798,-1.6838 1.96443,1.02898 4.30304,-1.87088 1.40316,0.65481 c 0,0 1.87089,-0.46772 2.71279,0.0935 0.8419,0.56127 1.59025,1.59026 1.59025,1.59026 l 2.99342,0.18709 0.18709,-1.12254 2.89987,0.0935 9.44798,0.0935 0.74836,-1.59025 2.24506,0.37418 1.12253,-0.56127 2.15152,-0.18709 c 0,0 1.30962,-1.59025 2.15152,-1.40316 0.8419,0.18709 2.71279,0.74835 2.71279,0.74835 l 2.15152,-1.30962 h 1.87088 c 0,0 1.21608,-0.56127 2.15152,-0.74836 0.93545,-0.18708 4.39659,-1.30961 4.39659,-1.30961 l 3.83532,0.46772 c 0,0 0.74835,-0.93545 1.21607,-0.93545 0.46772,0 1.77735,-0.18709 2.33861,-0.56126 0.56127,-0.37418 1.59026,-1.6838 2.5257,-1.6838 0.93544,0 1.12253,0 1.12253,0 l 3.36759,1.40316 2.5257,-0.56126 1.59026,0.93544 3.74177,0.0935 0.56127,1.40317 1.68379,-0.37418 1.12254,-1.21607 2.52569,0.0935 5.98684,0.0935 c 0,0 0.8419,-1.21607 1.40317,-0.74835 0.56126,0.46772 2.3386,1.21608 2.3386,1.21608"
         style="opacity:0.18800001;vector-effect:none;fill:none;fill-opacity:1;stroke:#ffffff;stroke-width:0.60000002;stroke-linecap:butt;stroke-linejoin:round;stroke-miterlimit:4;stroke-dasharray:none;stroke-dashoffset:0;stroke-opacity:1" />
      <path
         inkscape:connector-curvature="0"
         id="path967"
         d="m 146.02271,271.36885 3.92886,-1.12253 2.89987,0.28063 c 0,0 3.27406,-2.61924 4.95785,-2.24506 1.6838,0.37417 4.67722,0.65481 4.67722,0.65481 l 5.23848,-0.46773 c 0,0 0.93545,-1.77734 1.77734,-1.77734 0.8419,0 3.64823,0.74836 3.64823,0.74836 l 2.89988,-1.12253 1.59025,-0.93545 1.6838,0.8419 h 1.87089"
         style="opacity:0.18800001;vector-effect:none;fill:none;fill-opacity:1;stroke:#ffffff;stroke-width:0.60000002;stroke-linecap:butt;stroke-linejoin:round;stroke-miterlimit:4;stroke-dasharray:none;stroke-dashoffset:0;stroke-opacity:1" />
      <path
         inkscape:connector-curvature="0"
         id="path969"
         d="m 123.57207,269.03024 c 0,0 1.02898,0.65481 1.40316,0.65481 0.37418,0 2.89988,-1.12253 2.89988,-1.12253 l 2.24506,0.28063 c 0,0 -0.65481,1.21608 0.65481,1.30962 1.30962,0.0935 4.39659,-0.93544 4.39659,-0.93544"
         style="opacity:0.18800001;vector-effect:none;fill:none;fill-opacity:1;stroke:#ffffff;stroke-width:0.60000002;stroke-linecap:butt;stroke-linejoin:round;stroke-miterlimit:4;stroke-dasharray:none;stroke-dashoffset:0;stroke-opacity:1" />
      <path
         inkscape:connector-curvature="0"
         id="path971"
         d="m 140.87777,267.72062 1.77734,-0.46772 1.6838,0.37417 3.18051,-1.30961 1.96443,0.56126 3.1805,-1.6838 2.80633,-0.65481 0.93545,0.56127 c 0,0 0,0.0935 1.02898,0.0935 1.02899,0 2.99342,0.0935 2.99342,0.0935 l 2.24507,-0.93545"
         style="opacity:0.18800001;vector-effect:none;fill:none;fill-opacity:1;stroke:#ffffff;stroke-width:0.60000002;stroke-linecap:butt;stroke-linejoin:round;stroke-miterlimit:4;stroke-dasharray:none;stroke-dashoffset:0;stroke-opacity:1" />
      <path
         inkscape:connector-curvature="0"
         id="path973"
         d="m 120.95283,282.68771 5.05139,-1.68381 c 0,0 1.59025,0.28065 2.24507,0.65482 0.6548,0.37417 2.89987,0.74835 2.89987,0.74835 0,0 6.45456,-1.68378 7.10937,-1.87087 0.65481,-0.18709 2.52569,-0.84191 2.52569,-0.84191 l 5.61266,-0.46773 c 0,0 1.30962,-2.15151 1.96444,-2.24504 0.65481,-0.0936 3.55468,-0.18711 3.92886,-0.18711 0.37417,0 2.15152,0 2.71278,0.18711"
         style="opacity:0.18800001;vector-effect:none;fill:none;fill-opacity:1;stroke:#ffffff;stroke-width:0.60000002;stroke-linecap:butt;stroke-linejoin:round;stroke-miterlimit:4;stroke-dasharray:none;stroke-dashoffset:0;stroke-opacity:1" />
      <path
         inkscape:connector-curvature="0"
         id="path975"
         d="m 91.112184,286.24239 c 0,0 5.79975,-1.96443 6.45456,-1.96443 0.65481,0 3.461136,0.0936 3.928856,0.18709 0.46772,0.0936 2.24506,-1.77734 3.27405,-1.77734 1.02899,0 3.92886,0.0936 4.39658,0.0936 0.46773,0 4.20951,-1.30964 4.20951,-1.30964"
         style="opacity:0.18800001;vector-effect:none;fill:none;fill-opacity:1;stroke:#ffffff;stroke-width:0.60000002;stroke-linecap:butt;stroke-linejoin:round;stroke-miterlimit:4;stroke-dasharray:none;stroke-dashoffset:0;stroke-opacity:1" />
      <path
         inkscape:connector-curvature="0"
         id="path977"
         d="m 116.27561,281.28455 2.24506,-0.56126 1.6838,-1.21608 3.92886,-0.37418"
         style="opacity:0.18800001;vector-effect:none;fill:none;fill-opacity:1;stroke:#ffffff;stroke-width:0.60000002;stroke-linecap:butt;stroke-linejoin:round;stroke-miterlimit:4;stroke-dasharray:none;stroke-dashoffset:0;stroke-opacity:1" />
      <path
         inkscape:connector-curvature="0"
         id="path979"
         d="m 79.138514,283.34253 c 0,0 0.84189,-1.12255 1.59025,-0.74835 0.74835,0.37417 4.95785,-1.02899 4.95785,-1.02899 0,0 1.12253,-0.65482 1.96443,-0.18709 0.8419,0.46771 1.77734,0.65479 1.77734,0.65479 0,0 1.87089,-2.05795 3.83532,-2.05795 1.96443,0 4.30304,0.37417 5.23848,0.56126 0.93544,0.18709 3.274046,0.4677 4.677216,0.0935 1.40316,-0.37418 3.08696,-0.65479 3.08696,-0.65479"
         style="opacity:0.18800001;vector-effect:none;fill:none;fill-opacity:1;stroke:#ffffff;stroke-width:0.60000002;stroke-linecap:butt;stroke-linejoin:round;stroke-miterlimit:4;stroke-dasharray:none;stroke-dashoffset:0;stroke-opacity:1" />
      <path
         inkscape:connector-curvature="0"
         id="path981"
         d="m 57.623314,286.33594 c 0,0 2.43215,-0.74834 2.99342,-0.65481 0.56126,0.0935 4.49013,-1.40317 4.49013,-1.40317 0,0 -0.8419,-1.40316 0.84189,-1.40316 1.6838,0 4.67722,0.56126 4.67722,0.56126 l 3.18051,-1.12252 2.33861,-1.30964"
         style="opacity:0.18800001;vector-effect:none;fill:none;fill-opacity:1;stroke:#ffffff;stroke-width:0.60000002;stroke-linecap:butt;stroke-linejoin:round;stroke-miterlimit:4;stroke-dasharray:none;stroke-dashoffset:0;stroke-opacity:1" />
      <path
         inkscape:connector-curvature="0"
         id="path983"
         d="m 46.117354,261.82733 c 0,0 2.89988,-3.08697 4.58368,-1.87089 1.6838,1.21608 2.80633,1.30962 2.80633,1.30962 l 0.74835,-2.15152 2.24507,-0.46772 2.43215,-0.65481 c 0,0 1.59025,-2.5257 2.43215,-1.49671 0.8419,1.02899 2.71279,-0.46772 2.71279,-0.46772 l 1.59025,0.28063 2.24506,-1.02899 1.40317,-0.37417 c 0,0 1.12253,-0.28064 1.77734,-0.18709 0.65481,0.0935 2.5257,0.37418 3.3676,0.8419 0.8419,0.46772 5.05139,-0.65481 5.05139,-0.65481 0,0 -0.46772,-1.87089 0.46772,-0.0935 0.93545,1.77734 0.93545,1.77734 0.93545,1.77734 l 2.52569,-0.56126 1.96443,-0.8419"
         style="opacity:0.18800001;vector-effect:none;fill:none;fill-opacity:1;stroke:#ffffff;stroke-width:0.60000002;stroke-linecap:butt;stroke-linejoin:round;stroke-miterlimit:4;stroke-dasharray:none;stroke-dashoffset:0;stroke-opacity:1" />
      <path
         inkscape:connector-curvature="0"
         id="path985"
         d="m 32.085704,260.51771 c 0,0 2.24507,1.30962 2.33861,0.8419 0.0935,-0.46773 0.46772,-1.21608 0.46772,-1.21608 l 1.96443,-0.28063 2.80634,-0.93545 c 0,0 0,-2.61924 1.40316,-1.59025 1.40317,1.02899 2.24507,1.77734 2.71279,1.40316 0.46772,-0.37417 0.37417,-1.4967 0.84189,-1.59025 0.46773,-0.0935 1.21608,-1.49671 2.33861,-0.65481 1.12254,0.8419 2.05798,0.8419 2.05798,0.8419 0,0 0.37418,-1.02899 0.93544,-1.02899 0.56127,0 2.5257,0 2.5257,0 0,0 2.05797,-1.21607 2.61924,-1.12253 0.56127,0.0935 1.87089,0.18709 1.87089,0.18709"
         style="opacity:0.18800001;vector-effect:none;fill:none;fill-opacity:1;stroke:#ffffff;stroke-width:0.60000002;stroke-linecap:butt;stroke-linejoin:round;stroke-miterlimit:4;stroke-dasharray:none;stroke-dashoffset:0;stroke-opacity:1" />
      <path
         inkscape:connector-curvature="0"
         id="path987"
         d="m 57.155594,262.76277 c 0,0 1.4967,-1.87089 1.87088,-1.40316 0.37418,0.46772 -0.28063,0.37417 0.46772,0.46772 0.74836,0.0935 2.33861,0.0935 2.89988,-0.65481 0.56126,-0.74836 -0.0935,-1.6838 0.93544,-1.40317 1.02899,0.28063 3.68628,2.02159 3.68628,2.02159"
         style="opacity:0.18800001;vector-effect:none;fill:none;fill-opacity:1;stroke:#ffffff;stroke-width:0.60000002;stroke-linecap:butt;stroke-linejoin:round;stroke-miterlimit:4;stroke-dasharray:none;stroke-dashoffset:0;stroke-opacity:1" />
      <path
         inkscape:connector-curvature="0"
         id="path989"
         d="m 91.018644,256.58884 c 0,0 2.99341,-1.68379 3.64822,-1.68379 0.65481,0 2.24507,0.18709 2.24507,0.18709 0,0 3.08696,-0.93545 3.648226,-0.93545 0.56126,0 4.49013,0.37418 4.49013,0.37418 l 1.87088,-1.30962 5.42558,0.65481 3.64823,-1.30962 3.36759,0.93544 4.95785,-0.8419 c 0,0 0,-0.8419 0.74836,-0.8419 0.74835,0 1.87088,-0.37417 2.33861,0.0935 0.46772,0.46772 1.77734,0.56126 1.77734,0.56126 0,0 1.87088,-1.77734 2.71278,-1.77734 0.8419,0 7.20292,0.28063 7.20292,0.28063 0,0 3.46114,-1.40316 4.0224,-1.40316 0.56127,0 2.61924,1.30962 2.61924,1.30962 0,0 0.18709,0.46772 0.93545,0.74835 0.74835,0.28064 1.59025,-1.96443 1.59025,-1.96443"
         style="opacity:0.18800001;vector-effect:none;fill:none;fill-opacity:1;stroke:#ffffff;stroke-width:0.60000002;stroke-linecap:butt;stroke-linejoin:round;stroke-miterlimit:4;stroke-dasharray:none;stroke-dashoffset:0;stroke-opacity:1" />
      <path
         inkscape:connector-curvature="0"
         id="path991"
         d="m 133.58131,260.04998 c 0,0 2.99342,-0.93544 3.55469,0.0935 0.56126,1.02899 3.46114,-0.56127 3.46114,-0.56127 0,0 0.84189,-0.56126 1.12253,0 0.28063,0.56127 1.49671,0.46772 1.49671,0.46772 h 1.21607"
         style="opacity:0.18800001;vector-effect:none;fill:none;fill-opacity:1;stroke:#ffffff;stroke-width:0.60000002;stroke-linecap:butt;stroke-linejoin:round;stroke-miterlimit:4;stroke-dasharray:none;stroke-dashoffset:0;stroke-opacity:1" />
      <path
         inkscape:connector-curvature="0"
         id="path993"
         d="m 151.72891,250.97618 c 0,0 1.59025,-2.71278 3.27405,-1.40316 1.6838,1.30962 2.24507,2.80633 3.55469,1.6838 1.30962,-1.12253 4.67721,-2.24507 5.05139,-2.5257 0.37418,-0.28063 1.59026,-0.65481 2.33861,-0.65481 0.74836,0 3.3676,-0.46772 3.3676,-0.46772 0,0 0.93544,0.18709 1.21607,-0.28063 0.28064,-0.46773 -0.65481,-2.43216 0.74836,-1.40317 1.40316,1.02899 2.33861,1.49671 2.80633,1.49671 0.46772,0 1.77734,-0.8419 2.24506,-1.02899 0.46772,-0.18709 1.21608,-0.65481 1.21608,-0.65481 0,0 1.49671,0 1.96443,0 0.46772,0 2.33861,-0.8419 2.33861,-0.8419 l 2.15152,-0.74835"
         style="opacity:0.18800001;vector-effect:none;fill:none;fill-opacity:1;stroke:#ffffff;stroke-width:0.60000002;stroke-linecap:butt;stroke-linejoin:round;stroke-miterlimit:4;stroke-dasharray:none;stroke-dashoffset:0;stroke-opacity:1" />
      <path
         inkscape:connector-curvature="0"
         id="path995"
         d="m 170.25069,244.61517 4.30304,-0.74836 0.93544,-0.56126 c 0,0 -0.46772,-1.02899 0.8419,-0.93544"
         style="opacity:0.18800001;vector-effect:none;fill:none;fill-opacity:1;stroke:#ffffff;stroke-width:0.60000002;stroke-linecap:butt;stroke-linejoin:round;stroke-miterlimit:4;stroke-dasharray:none;stroke-dashoffset:0;stroke-opacity:1" />
      <path
         inkscape:connector-curvature="0"
         id="path997"
         d="m 195.88184,242.65074 4.11595,1.21607 2.43215,-1.96443 0.8419,-1.02898"
         style="opacity:0.18800001;vector-effect:none;fill:none;fill-opacity:1;stroke:#ffffff;stroke-width:0.60000002;stroke-linecap:butt;stroke-linejoin:round;stroke-miterlimit:4;stroke-dasharray:none;stroke-dashoffset:0;stroke-opacity:1" />
      <path
         inkscape:connector-curvature="0"
         id="path999"
         d="m 188.39829,243.02492 2.43215,-0.37418 c 0,0 -0.0935,-1.02899 1.12254,-0.56127 1.21607,0.46772 3.92886,0.56127 3.92886,0.56127 v 0 l 2.15152,-1.96443 2.52569,-1.02899 c 0,0 0,-0.74836 0.74836,-0.65481 0.74835,0.0935 3.46114,0 3.46114,0 l 2.43215,-0.0935 c 0,0 0.46772,-0.74835 0.8419,-0.84189 0.37418,-0.0935 2.71279,-0.93545 3.08696,-0.8419 0.37418,0.0935 1.96443,-1.12254 1.96443,-1.12254 0,0 -0.37417,-0.93544 0.8419,-0.74835 1.21608,0.18709 3.08697,0 3.83532,0.0935 0.74836,0.0935 2.43215,-0.46773 2.43215,-0.46773"
         style="opacity:0.18800001;vector-effect:none;fill:none;fill-opacity:1;stroke:#ffffff;stroke-width:0.60000002;stroke-linecap:butt;stroke-linejoin:round;stroke-miterlimit:4;stroke-dasharray:none;stroke-dashoffset:0;stroke-opacity:1" />
      <path
         inkscape:connector-curvature="0"
         id="path1001"
         d="m 169.03461,252.75353 c 0,0 1.49671,-2.61924 2.99342,-0.65481 1.49671,1.96443 2.5257,1.40316 3.92887,1.02898 1.40316,-0.37417 5.7062,-0.84189 5.7062,-0.84189 l 1.59025,-0.0935 1.6838,-1.12253 2.89987,0.18709 3.46114,-2.61924 h 0.93545 l 4.30304,-1.21608 3.83531,-1.40317 c 0,0 1.59026,-0.56126 2.61925,-0.46772 1.02898,0.0935 2.05797,-0.37417 2.43215,-0.65481 0.37418,-0.28063 -0.0935,-0.74835 0.8419,-0.74835"
         style="opacity:0.18800001;vector-effect:none;fill:none;fill-opacity:1;stroke:#ffffff;stroke-width:0.60000002;stroke-linecap:butt;stroke-linejoin:round;stroke-miterlimit:4;stroke-dasharray:none;stroke-dashoffset:0;stroke-opacity:1" />
      <path
         inkscape:connector-curvature="0"
         id="path1003"
         d="m 207.11266,269.06698 c 0,0 5.82084,-5.29166 13.75834,-4.23333 7.9375,1.05833 30.69166,-6.87917 30.69166,-6.87917 0,0 2.11667,-8.99583 6.35,-5.29166 4.23334,3.70416 10.05417,-5.29167 10.05417,-5.29167 l -1.05833,-4.23333 -9.525,-3.70417 3.70416,-5.82083"
         style="opacity:0.18800001;vector-effect:none;fill:none;fill-opacity:1;stroke:#ffffff;stroke-width:0.60000002;stroke-linecap:butt;stroke-linejoin:round;stroke-miterlimit:4;stroke-dasharray:none;stroke-dashoffset:0;stroke-opacity:1" />
      <path
         inkscape:connector-curvature="0"
         id="path1009"
         d="m 208.22969,249.66656 5.98684,-2.05797 6.73519,-1.6838"
         style="opacity:0.18800001;vector-effect:none;fill:none;fill-opacity:1;stroke:#ffffff;stroke-width:0.60000002;stroke-linecap:butt;stroke-linejoin:round;stroke-miterlimit:4;stroke-dasharray:none;stroke-dashoffset:0;stroke-opacity:1" />
      <path
         inkscape:connector-curvature="0"
         id="path1013"
         d="m 215.71324,260.70479 4.67721,-0.74835 2.43216,0.18709 0.74835,-1.87089 5.79975,1.12254 c 0,0 0.56126,-1.30963 1.30962,-1.30963 0.74835,0 4.30304,0.74836 4.30304,0.74836 l 0.56126,-2.99342 7.29646,-0.18709 0.93544,-1.6838"
         style="opacity:0.18800001;vector-effect:none;fill:none;fill-opacity:1;stroke:#ffffff;stroke-width:0.60000002;stroke-linecap:butt;stroke-linejoin:round;stroke-miterlimit:4;stroke-dasharray:none;stroke-dashoffset:0;stroke-opacity:1" />
      <path
         inkscape:connector-curvature="0"
         id="path1015"
         d="m 250.8859,249.66656 c 0,0 1.30963,-1.68379 2.24507,-1.49671 0.93544,0.18709 3.18051,0.18709 3.18051,0.18709 0,0 1.49671,-2.61924 2.24506,-2.43215 0.74836,0.18709 4.30304,0.93544 4.30304,0.93544"
         style="opacity:0.18800001;vector-effect:none;fill:none;fill-opacity:1;stroke:#ffffff;stroke-width:0.60000002;stroke-linecap:butt;stroke-linejoin:round;stroke-miterlimit:4;stroke-dasharray:none;stroke-dashoffset:0;stroke-opacity:1" />
      <path
         inkscape:connector-curvature="0"
         id="path1017"
         d="m 242.654,240.8734 8.41899,-1.87089 1.6838,0.56127"
         style="opacity:0.18800001;vector-effect:none;fill:none;fill-opacity:1;stroke:#ffffff;stroke-width:0.60000002;stroke-linecap:butt;stroke-linejoin:round;stroke-miterlimit:4;stroke-dasharray:none;stroke-dashoffset:0;stroke-opacity:1" />
      <path
         inkscape:connector-curvature="0"
         id="path1019"
         d="m 239.4735,235.44783 c 0,0 1.30962,-0.74836 2.05797,-0.37418 0.74836,0.37418 4.67722,-0.93545 4.67722,-0.93545"
         style="opacity:0.18800001;vector-effect:none;fill:none;fill-opacity:1;stroke:#ffffff;stroke-width:0.60000002;stroke-linecap:butt;stroke-linejoin:round;stroke-miterlimit:4;stroke-dasharray:none;stroke-dashoffset:0;stroke-opacity:1" />
      <path
         inkscape:connector-curvature="0"
         id="path1021"
         d="m 250.69882,234.32529 3.1805,-1.87088 2.05798,1.12253 0.74835,-1.87089"
         style="opacity:0.18800001;vector-effect:none;fill:none;fill-opacity:1;stroke:#ffffff;stroke-width:0.60000002;stroke-linecap:butt;stroke-linejoin:round;stroke-miterlimit:4;stroke-dasharray:none;stroke-dashoffset:0;stroke-opacity:1" />
      <path
         inkscape:connector-curvature="0"
         id="path1023"
         d="m 241.34438,225.71921 c 0,0 1.49671,0.37418 2.61924,0.37418 1.12254,0 2.61925,-0.93544 2.61925,-0.93544 h 0.93544 l 2.43215,0.56126"
         style="opacity:0.18800001;vector-effect:none;fill:none;fill-opacity:1;stroke:#ffffff;stroke-width:0.60000002;stroke-linecap:butt;stroke-linejoin:round;stroke-miterlimit:4;stroke-dasharray:none;stroke-dashoffset:0;stroke-opacity:1" />
      <path
         inkscape:connector-curvature="0"
         id="path1025"
         d="m 266.22718,257.52429 1.68379,-1.30962 c 0,0 3.3676,-2.05798 4.30304,-1.49671 0.93545,0.56126 2.99342,-0.93545 2.99342,-0.93545 l 1.30962,-3.74177 -3.55468,-3.55468"
         style="opacity:0.18800001;vector-effect:none;fill:none;fill-opacity:1;stroke:#ffffff;stroke-width:0.60000002;stroke-linecap:butt;stroke-linejoin:round;stroke-miterlimit:4;stroke-dasharray:none;stroke-dashoffset:0;stroke-opacity:1" />
    </g>
  </g>
</svg>
